<?xml version="1.0" encoding="iso-8859-1"?>
<!-- Generator: Adobe Illustrator 19.0.0, SVG Export Plug-In . SVG Version: 6.00 Build 0)  -->
<svg version="1.1" id="Capa_1" xmlns="http://www.w3.org/2000/svg" xmlns:xlink="http://www.w3.org/1999/xlink" x="0px" y="0px"
	 viewBox="0 0 110.015 110.015" style="enable-background:new 0 0 110.015 110.015;" xml:space="preserve">
<g id="_x0A_bank">
	<g>
		<path style="fill-rule:evenodd;clip-rule:evenodd;" d="M109.985,94.803c-0.023-1.16-0.449-1.499-1.691-1.719
			c-0.789-0.139-1.574-0.321-2.371-0.406c-0.682-0.074-1.568,0.225-2.02-0.107c-0.732-0.535,0.027-1.455-0.033-2.229
			c-0.125-1.602-0.092-3.213,0.484-4.766c0.133-0.363,0.111-0.794,0.113-1.194c0.012-1.616-0.896-2.712-2.48-2.86
			c-0.996-0.092-2.02-0.123-3.008,0.009c-1.268,0.169-2.154-0.302-2.83-1.29c-0.9-1.316-1.775-2.65-2.652-3.984
			c-0.492-0.752-1.117-1.467-1.398-2.295c-0.205-0.604,0.064-1.364,0.098-2.056c0.012-0.196-0.072-0.396-0.084-0.596
			c-0.096-2.006-0.223-4.011-0.268-6.017c-0.045-2.111-0.01-4.223-0.01-6.335h0.084c0-3.218,0.086-6.439-0.035-9.65
			c-0.062-1.664,0.248-3.18,0.904-4.663c0.404-0.918,0.955-1.789,1.232-2.743c0.299-1.03,1.045-1.684,1.627-2.485
			c0.404-0.561,0.924-0.713,1.559-0.701c1.307,0.023,2.613,0.02,3.922,0.049c0.844,0.02,1.627-0.122,2.137-0.857
			c0.531-0.767,1.273-0.865,2.115-0.875c0.57-0.006,0.881-0.409,0.939-0.971c0.094-0.908,0.189-1.859-0.408-2.617
			c-1.369-1.74-2.795-3.506-4.795-4.511c-2.072-1.044-4.057-2.199-5.965-3.506c-0.494-0.337-1.045-0.606-1.6-0.837
			c-6.023-2.512-11.938-5.273-17.867-8.001c-5.229-2.403-10.217-5.151-14.908-8.474c-1.141-0.807-2.439-1.387-3.65-2.096
			c-1.734-1.012-3.439-0.8-5.17,0.025c-2.715,1.295-5.379,2.691-8.146,3.891c-2.295,0.992-4.471,2.285-6.639,3.545
			c-2.172,1.262-4.322,2.57-6.389,3.996C26.73,20.27,22.091,22.13,18.3,25.339c-0.225,0.19-0.512,0.332-0.791,0.432
			c-1.643,0.58-2.947,1.707-4.365,2.652c-0.668,0.443-1.344,0.877-2.006,1.328c-2.9,1.975-5.797,3.957-8.695,5.937
			c-0.083,0.056-0.158,0.122-0.233,0.189c-0.438,0.399-0.506,1.217-0.104,1.64c0.557,0.584,1.158,1.051,2.006,1.239
			c2.74,0.604,5.455,1.411,8.303,1.166c1.15-0.099,1.629,0.505,1.978,1.425c0.25,0.657,0.516,1.312,0.828,1.939
			c0.814,1.637,1.721,3.182,3.564,3.911c0.283,0.112,0.596,0.6,0.592,0.911c-0.057,4.02-0.084,8.044-0.295,12.058
			c-0.168,3.212-0.438,6.402,0.092,9.61c0.193,1.18,0.117,2.406,0.141,3.612c0.025,1.276-0.41,2.399-1.389,3.212
			c-1.519,1.258-2.592,2.805-3.195,4.66c-0.342,1.053-1.064,1.41-2.057,1.37c-0.697-0.027-1.391-0.148-2.086-0.229
			c-1.023-0.118-1.771,0.333-2.23,1.2c-0.227,0.426-0.381,0.947-0.379,1.425c0.01,2.409,0.062,4.819,0.144,7.229
			c0.018,0.525-0.186,0.716-0.647,0.73c-1.705,0.053-3.412,0.125-5.119,0.133c-1.066,0.006-1.662,0.589-2.057,1.475
			c-0.121,0.271-0.24,0.569-0.25,0.859c-0.074,2.207-0.189,4.425,0.627,6.545c0.215,0.557,0.488,1.097,0.787,1.614
			c0.377,0.653,0.977,1.004,1.73,1.044c0.5,0.027,1.004,0.016,1.506,0.006c2.613-0.051,5.227-0.107,7.842-0.16
			c2.41-0.048,4.836,0.047,7.232-0.174c4.112-0.379,8.213-0.432,12.338-0.328c2.908,0.074,5.855,0.09,8.732-0.284
			c2.512-0.327,4.996-0.384,7.508-0.394c1.502-0.005,3.033,0.01,4.504-0.246c2.309-0.4,4.631-0.377,6.904-0.135
			c1.811,0.191,3.602,0.293,5.404,0.238c2.408-0.072,4.811-0.27,7.219-0.341c3.213-0.095,6.414,0.103,9.625,0.247
			c5.619,0.252,11.26,0.104,16.891,0.11c0.703,0.001,1.422,0.022,2.102-0.116c2.5-0.511,4.978-0.473,7.469,0.038
			c0.791,0.163,1.488-0.333,1.5-1.081C110.012,99.627,110.038,97.214,109.985,94.803z M12.886,35.046
			c-0.096-0.008-0.185-0.07-0.277-0.107c0.053-0.131,0.086-0.276,0.166-0.387c0.053-0.072,0.178-0.09,0.264-0.138
			c0.178-0.097,0.346-0.21,0.527-0.295c3.475-1.618,6.658-3.726,9.902-5.746c3.326-2.071,6.732-4.018,10.156-5.927
			c1.57-0.875,3.264-1.531,4.902-2.285c4.58-2.105,8.857-4.734,13.025-7.551c0.502-0.337,0.973-0.721,1.488-1.027
			c2.916-1.727,3.391-1.684,6.277,0.077c2.057,1.255,4.16,2.435,6.266,3.607c2.283,1.271,4.609,2.465,6.887,3.744
			c5.088,2.858,10.381,5.305,15.615,7.865c0.902,0.439,1.846,0.795,2.785,1.15c3.293,1.246,6.457,2.772,9.572,4.405
			c0.531,0.279,1.053,0.595,1.523,0.966c0.201,0.16,0.283,0.5,0.346,0.773c0.012,0.058-0.297,0.221-0.477,0.277
			c-0.185,0.059-0.396,0.058-0.596,0.066c-0.504,0.021-1.006,0.043-1.508,0.051c-12.568,0.227-25.137,0.453-37.705,0.673
			c-0.703,0.013-1.41,0.014-2.104-0.069c-0.246-0.029-0.609-0.293-0.656-0.509c-0.129-0.579-0.166-1.19-0.139-1.784
			c0.014-0.259,0.215-0.58,0.432-0.737c0.316-0.232,0.738-0.313,1.088-0.511c0.607-0.346,1.248-0.665,1.777-1.11
			c2-1.673,2.008-3.751,0.121-5.745c-0.785-0.828-1.76-1.379-2.855-1.596c-1.055-0.21-1.189-0.892-1.211-1.753
			c-0.029-1.065,0.002-1.142,1.016-1.478c0.285-0.095,0.646-0.077,0.856-0.252c0.369-0.306,0.726-0.681,0.943-1.101
			c0.186-0.365-0.404-0.949-1.113-1.207c-0.096-0.034-0.188-0.103-0.283-0.104c-1.805-0.025-2.336-1.15-2.406-2.723
			c-0.018-0.389-0.154-0.781-0.293-1.152c-0.193-0.515-1.16-0.648-1.547-0.222c-0.201,0.22-0.424,0.456-0.518,0.726
			c-0.131,0.373-0.221,0.789-0.205,1.18c0.072,1.619-0.283,2.911-1.932,3.707c-0.656,0.316-1.174,1.104-1.543,1.79
			c-0.873,1.625-0.35,3.146,1.309,4.064c0.523,0.289,1.088,0.563,1.666,0.683c1.057,0.22,1.146,0.965,1.17,1.807
			c0.033,1.081-0.416,1.503-1.465,1.185c-0.951-0.288-1.848-0.746-2.774-1.117c-0.807-0.322-1.662,0.162-1.832,1.022
			c-0.231,1.166,0.115,2.066,1.102,2.547c0.621,0.303,1.311,0.489,1.986,0.662c0.875,0.223,1.768,0.369,2.648,0.57
			c1.359,0.307,1.422,0.385,1.59,1.754c0.203,1.674,0.057,1.893-1.762,1.904c-5.029,0.032-10.059,0.012-15.088,0.012
			c-0.002,0.035-0.002,0.072-0.002,0.108c-4.727-0.076-9.471,0.071-14.173-0.295C21.511,35.157,17.191,35.409,12.886,35.046z
			 M77.962,81.471c-0.541-0.007-0.857-0.535-0.727-1.064c0.686-2.738,1.061-3.084,3.797-3.115c2.598-0.027,5.193,0.039,7.791,0.05
			c0.678,0.003,1.109,0.296,1.387,0.913c1.643,3.643,2.479,3.473-2.064,3.451c-1.299-0.007-2.596-0.002-3.895-0.002v-0.223
			C82.153,81.481,80.057,81.497,77.962,81.471z M76.704,71.905c0.004,1.061-0.141,2.021-0.893,2.774
			c-1.484,1.485-2.162,3.347-2.654,5.324c-0.232,0.929-0.58,1.11-1.496,1.103c-1.441-0.01-2.539-0.597-3.156-1.908
			c-0.906-1.921-1.934-3.748-3.393-5.319c-0.311-0.335-0.514-0.861-0.572-1.323c-0.215-1.69-0.439-3.389-0.488-5.088
			c-0.078-2.715-0.021-5.434-0.021-8.15h-0.121c0-3.219,0.012-6.439-0.006-9.658c-0.006-0.826,0.23-1.494,0.652-2.238
			c1.33-2.352,2.52-4.787,3.68-7.23c0.303-0.639,0.641-0.963,1.316-0.965c0.604,0,1.207-0.018,1.811,0.004
			c0.551,0.019,0.906,0.299,1.121,0.83c0.408,1.023,0.836,2.042,1.316,3.033c0.695,1.439,1.305,2.91,2.508,4.074
			c0.803,0.774,1.086,1.891,1.078,3.051c-0.035,4.72,0.252,9.435-0.459,14.152C76.555,66.839,76.694,69.39,76.704,71.905z
			 M52.03,80.906c-0.496-0.002-0.994-0.016-1.488-0.069c-0.564-0.061-1.029-0.674-1.025-1.287c0.004-1.619,0.959-2.693,2.506-2.705
			c3.592-0.026,7.186-0.004,10.779-0.016c0.703-0.002,1.043,0.33,1.299,0.969c0.371,0.922,0.885,1.785,1.305,2.688
			c0.041,0.091-0.115,0.389-0.219,0.412c-0.383,0.085-0.785,0.126-1.18,0.129c-1.994,0.011-3.992,0.004-5.988,0.004v-0.121
			C56.024,80.909,54.026,80.913,52.03,80.906z M49.071,71.44c0.156,1.645-0.395,2.926-1.598,4.017
			c-0.664,0.605-1.254,1.299-1.857,1.974c-0.533,0.598-1.014,1.242-1.555,1.83c-0.539,0.583-0.359,1.826-1.248,1.908
			c-1.164,0.107-2.389-0.096-3.541-0.365c-0.523-0.121-0.984-0.676-1.385-1.113c-0.674-0.734-1.207-1.615-1.932-2.287
			c-1.351-1.252-1.826-2.841-1.978-4.568c-0.096-1.101-0.08-2.211-0.092-3.316c-0.051-4.424-0.064-8.85-0.156-13.271
			c-0.039-1.904-0.232-3.807-0.359-5.707c-0.057-0.824,0.014-1.547,0.715-2.182c0.578-0.525,1.039-1.225,1.41-1.923
			c0.707-1.332,1.406-2.632,2.471-3.752c0.59-0.62,0.885-1.549,1.209-2.379c0.213-0.537,0.5-0.798,1.06-0.874
			c1.203-0.164,2.219,0.147,2.906,1.168c1.285,1.908,3.068,3.455,3.981,5.643c0.262,0.627,0.721,1.269,1.266,1.66
			c1.307,0.937,1.586,2.25,1.637,3.688c0.033,1.005,0.006,2.011,0.006,3.017c0.023,0.002,0.049,0.004,0.072,0.006
			c-0.326,4.606-0.66,9.21-0.973,13.815C49.061,69.43,48.977,70.446,49.071,71.44z M55.337,69.611
			c-0.475-0.106-0.947-0.228-1.416-0.36c-0.062-0.018-0.141-0.166-0.121-0.222c0.057-0.168,0.137-0.437,0.252-0.459
			c0.578-0.118,1.174-0.144,1.754-0.257c0.531-0.103,0.898-0.434,0.971-0.996c0.076-0.584-0.363-1.225-0.967-1.335
			c-0.486-0.089-0.998-0.046-1.492-0.11c-0.158-0.021-0.297-0.2-0.445-0.307c0.158-0.109,0.301-0.262,0.479-0.32
			c0.656-0.223,1.338-0.382,1.982-0.633c0.422-0.164,0.352-0.984-0.01-1.279c-0.699-0.572-1.541-0.326-2.311-0.486
			c-0.463-0.098-0.654-0.414-0.691-0.848c-0.045-0.553,0.324-1.014,0.846-1.018c0.803-0.007,1.605,0.04,2.41,0.024
			c0.395-0.008,0.805-0.052,1.18-0.172c0.496-0.158,0.867-0.484,0.92-1.061c0.051-0.549-0.48-1.072-1.18-1.086
			c-1.203-0.025-2.406,0.021-3.608-0.03c-0.463-0.021-0.648-0.465-0.609-0.876c0.027-0.262,0.195-0.591,0.404-0.733
			c0.225-0.151,0.574-0.109,0.867-0.165c0.389-0.075,0.867-0.05,1.141-0.271c0.361-0.292,0.695-0.755,0.781-1.196
			c0.055-0.279-0.307-0.703-0.574-0.975c-0.621-0.635-1.486-0.479-2.266-0.609c-0.098-0.017-0.174-0.266-0.215-0.419
			c-0.014-0.042,0.133-0.179,0.213-0.185c0.397-0.039,0.799-0.027,1.193-0.072c0.393-0.047,0.801-0.088,1.166-0.225
			c0.502-0.189,0.865-0.609,0.791-1.147c-0.047-0.345-0.299-0.806-0.588-0.942c-0.619-0.293-1.322-0.414-1.992-0.596
			c-0.381-0.104-0.861-0.077-1.123-0.307c-0.248-0.216-0.353-0.693-0.35-1.053c0.002-0.199,0.359-0.562,0.559-0.563
			c2.004-0.021,4.008,0.001,6.014,0.067c0.193,0.006,0.51,0.375,0.539,0.604c0.084,0.693,0.064,1.401,0.066,2.104
			c0.006,2.812,0.004,5.625,0.004,8.438h-0.107c0,2.21-0.004,4.421,0.002,6.631c0.01,2.107-0.002,4.213,0.527,6.283
			c0.191,0.752-0.182,1.196-0.91,1.202c-1.807,0.014-3.615-0.003-5.424-0.025c-0.453-0.005-0.732-0.28-0.805-0.727
			c-0.125-0.736,0.119-1.439,0.572-1.546c0.484-0.115,1.016-0.073,1.473-0.242c0.334-0.122,0.75-0.433,0.826-0.736
			C56.167,69.969,55.764,69.708,55.337,69.611z M60.169,44.799c-1.396-0.062-2.803-0.012-4.203-0.012v-0.02
			c-1.402,0-2.805-0.028-4.209,0.009c-1.086,0.028-1.916-0.178-2.373-1.356c-0.395-1.017-1.053-1.927-1.559-2.902
			c-0.252-0.482,0.121-1.002,0.686-1.035c0.1-0.006,0.203-0.037,0.299-0.021c4.004,0.661,7.988-0.29,11.982-0.144
			c0.701,0.025,1.406-0.01,2.101,0.053c0.656,0.059,1.184,0.996,0.932,1.613c-0.303,0.74-0.648,1.463-0.971,2.195
			C62.089,44.916,62.079,44.887,60.169,44.799z M85.833,67.585c-0.176-0.209-0.504-0.326-0.785-0.404
			c-0.609-0.169-1.232-0.287-1.848-0.425c0.59-0.101,1.186-0.182,1.768-0.314c0.285-0.065,0.619-0.163,0.805-0.363
			c0.256-0.272,0.547-0.657,0.537-0.989c-0.004-0.318-0.299-0.752-0.59-0.923c-1.129-0.663-2.439-0.798-3.678-1.148
			c-0.119-0.033-0.188-0.32-0.238-0.501c-0.012-0.044,0.121-0.177,0.203-0.191c0.383-0.067,0.77-0.108,1.156-0.161
			c0.789-0.105,1.59-0.164,2.363-0.336c0.683-0.152,1.047-0.764,0.914-1.33c-0.137-0.58-0.721-1.122-1.281-1.064
			c-0.793,0.082-1.572,0.27-2.361,0.391c-0.77,0.118-1.139-0.184-1.189-0.938c-0.065-0.969,0.209-1.32,1.08-1.41
			c0.691-0.072,1.398-0.09,2.068-0.256c0.799-0.199,1.025-1.382,0.438-1.967c-0.445-0.446-0.973-0.679-1.602-0.727
			c-0.584-0.045-1.172-0.107-1.746-0.221c-0.111-0.021-0.244-0.309-0.234-0.466c0.01-0.157,0.162-0.411,0.293-0.439
			c0.58-0.124,1.18-0.145,1.756-0.28c0.379-0.088,0.799-0.233,1.066-0.49c0.262-0.252,0.457-0.666,0.494-1.029
			c0.057-0.527-0.238-1.051-0.734-1.191c-0.859-0.243-1.764-0.318-2.646-0.488c-0.604-0.117-0.957-0.68-0.818-1.382
			c0.051-0.251,0.309-0.653,0.479-0.658c2.004-0.056,4.008-0.067,6.014-0.036c0.221,0.004,0.49,0.309,0.648,0.535
			c0.539,0.775,0.607,1.664,0.602,2.588c-0.021,3.312-0.008,6.625-0.008,9.939h-0.068c0.064,3.312,0.131,6.623,0.188,9.936
			c0.014,0.774-0.213,1.146-0.955,1.278c-1.867,0.338-3.742,0.625-5.621,0.893c-0.451,0.062-0.752-0.26-0.785-0.713
			c-0.035-0.497-0.021-1.001,0.012-1.5c0.053-0.842,0.299-1.08,1.066-1.133c0.996-0.068,2.002-0.09,2.98-0.26
			c0.299-0.053,0.691-0.504,0.736-0.816C86.354,68.282,86.073,67.87,85.833,67.585z M87.872,44.001
			c-0.799,0.676-1.912,0.053-2.887,0.074c-1.596,0.033-3.195-0.055-4.795-0.031c-0.666,0.009-1.141-0.152-1.457-0.773
			c-0.498-0.977-1.014-1.949-1.572-2.893c-0.516-0.876-0.518-1.516,0.756-1.5c0.998,0.014,1.996-0.051,2.996-0.063
			c0.998-0.013,1.998-0.003,2.998-0.003V38.78c1.896,0,3.795-0.008,5.691,0.004c0.857,0.006,1.002,0.267,0.648,1.135
			c-0.225,0.553-0.426,1.127-0.727,1.639C89.026,42.409,88.596,43.389,87.872,44.001z M59.634,26.292
			c0.146,0.139,0.434,0.295,0.521,0.525c0.082,0.213,0,0.529-0.105,0.754c-0.061,0.127-0.324,0.236-0.481,0.217
			c-0.146-0.016-0.33-0.186-0.396-0.333C58.958,26.948,59.188,26.274,59.634,26.292z M54.93,21.721
			c-0.041,0.224-0.203,0.426-0.33,0.658c-0.238-0.193-0.371-0.301-0.504-0.408c0.176-0.21,0.352-0.42,0.525-0.631
			C54.731,21.469,54.95,21.617,54.93,21.721z M18.773,40.936c-0.113-0.326,0.191-0.926,0.506-0.957
			c0.398-0.039,0.801-0.065,1.201-0.07c2.312-0.033,4.627-0.028,6.939-0.096c1.906-0.055,3.806-0.216,5.712-0.271
			c0.356-0.01,0.816,0.163,1.057,0.416c0.367,0.383,0.355,0.949,0.084,1.406c-0.307,0.514-0.639,1.043-1.076,1.44
			c-0.344,0.312-0.846,0.555-1.305,0.611c-0.793,0.098-1.607,0.027-2.41,0.027c-0.008,0.066-0.014,0.133-0.021,0.2
			c-1.283-0.183-2.562-0.427-3.853-0.534c-1.398-0.116-2.807-0.1-4.213-0.15C19.985,42.905,19.269,42.346,18.773,40.936z
			 M27.587,68.603c-0.449-0.849-1.144-1.387-2.119-1.503c-0.689-0.082-1.385-0.117-2.072-0.225
			c-0.123-0.018-0.286-0.282-0.291-0.438c-0.004-0.148,0.145-0.351,0.283-0.441c0.152-0.102,0.369-0.136,0.561-0.145
			c0.502-0.025,1.008,0.012,1.506-0.033c1.068-0.093,2.059-0.775,2.107-1.41c0.047-0.641-0.949-1.448-1.963-1.559
			c-0.398-0.043-0.805-0.012-1.205-0.035c-0.473-0.027-1.006,0.104-1.281-0.482c-0.162-0.353,0.217-0.586,1.109-0.656
			c0.5-0.039,1.012-0.01,1.498-0.105c0.383-0.076,0.756-0.264,1.096-0.464c0.682-0.405,0.826-1.107,0.381-1.789
			c-0.162-0.247-0.383-0.462-0.598-0.669c-0.293-0.283-0.211-0.442,0.141-0.547c0.699-0.205,1.365-0.486,1.424-1.33
			c0.043-0.633-0.764-1.18-1.809-1.238c-0.902-0.051-1.811,0.002-2.711-0.053c-0.459-0.027-0.67-0.4-0.664-0.837
			c0.005-0.438,0.23-0.749,0.688-0.826c0.787-0.134,1.592-0.199,2.361-0.403c0.857-0.226,1.318-0.899,1.158-1.506
			c-0.174-0.662-0.666-1.004-1.295-1.085c-0.693-0.089-1.402-0.065-2.104-0.108c-0.545-0.035-0.883-0.391-0.916-0.969
			c-0.025-0.4-0.017-0.803,0.008-1.203c0.029-0.453,0.305-0.748,0.744-0.779c1.102-0.076,2.209-0.174,3.31-0.143
			c2.677,0.079,2.712-0.217,2.673,2.59c-0.045,3.215-0.01,6.433-0.01,9.649h-0.014c0,2.312-0.02,4.624,0.008,6.937
			c0.025,2.301-0.16,4.619,0.613,6.861c0.18,0.523-0.193,1.049-0.699,1.125c-0.498,0.075-1.007,0.174-1.497,0.126
			c-0.358-0.034-0.891-0.2-1.008-0.46c-0.547-1.209-1.537-1.467-2.705-1.51c-0.285-0.011-0.572-0.152-0.844-0.266
			c-0.34-0.141-0.586-0.894-0.379-1.341c0.105-0.228,0.385-0.497,0.613-0.522c0.793-0.094,1.613-0.016,2.398-0.148
			c0.461-0.077,0.939-0.357,1.295-0.676C27.769,69.637,27.849,69.097,27.587,68.603z M18.962,78.891
			c0.207-0.406,0.621-0.82,1.039-0.979c0.646-0.246,1.369-0.352,2.066-0.38c2.809-0.114,5.623-0.166,8.433-0.262
			c0.869-0.029,1.566,0.233,2.094,0.946c0.414,0.562,0.951,1.053,1.273,1.66c0.551,1.031,0.588,1.668-0.949,1.685
			c-2.209,0.024-4.419,0.007-6.628,0.007v0.111c-2.109,0-4.221,0.016-6.332-0.008c-0.887-0.01-1.244-0.406-1.229-1.327
			C18.738,79.854,18.749,79.309,18.962,78.891z M11.478,91.221c0.08-1.49,0.16-2.98,0.238-4.47c1.42-0.813,2.935-0.222,4.404-0.281
			c1.305-0.054,2.6,0,3.879-0.413c0.648-0.209,1.385-0.191,2.084-0.205c1.51-0.025,3.019,0.033,4.527-0.012
			c2.809-0.084,5.637,0.106,8.408-0.562c0.389-0.094,0.803-0.096,1.203-0.105c5.426-0.15,10.857-0.735,16.277-0.36
			c7.238,0.501,14.482,0.135,21.719,0.407c1.301,0.051,2.598,0.224,3.898,0.34c0.498,0.044,1,0.117,1.498,0.125
			c2.617,0.047,5.234,0.116,7.848,0.096c1.098-0.009,2.193-0.217,3.287-0.338c0.598-0.067,1.193-0.196,1.793-0.211
			c2.311-0.051,4.621-0.072,6.932-0.093c0.404-0.005,0.76,0.399,0.721,0.771c-0.176,1.694-0.332,3.391-0.537,5.082
			c-0.131,1.079-0.705,1.535-1.84,1.547c-1.004,0.01-2.012,0.002-3.016,0.002c-0.008,0.033-0.014,0.066-0.02,0.099
			c-1.793-0.196-3.584-0.407-5.379-0.583c-0.801-0.078-1.607-0.123-2.41-0.12c-5.938,0.024-11.881-0.091-17.807,0.159
			c-3.414,0.145-6.824,0.366-10.242,0.359c-5.434-0.012-10.867-0.099-16.301-0.046c-4.523,0.044-9.049,0.03-13.566,0.45
			c-1.997,0.185-4.019,0.123-6.033,0.173c-3.514,0.088-7.02-0.323-10.537-0.142c-0.828,0.043-1.014-0.204-1.037-1.066
			C11.464,91.623,11.468,91.422,11.478,91.221z M16.296,97.407c-0.807,0.621-1.537,1.334-1.736,2.354
			c-0.24,1.22-1.125,1.218-2.125,1.262c-0.598,0.013-0.807-0.226-0.932-1.11c-0.053-0.379-0.121-0.764-0.254-1.118
			c-0.039-0.101-0.375-0.195-0.494-0.135c-0.254,0.131-0.514,0.327-0.672,0.563c-0.328,0.496-0.58,1.043-0.891,1.553
			c-0.447,0.736-1.172,0.678-1.859,0.53c-0.197-0.042-0.494-0.468-0.447-0.628c0.256-0.853,0.621-1.673,0.926-2.512
			c0.344-0.953,0.959-1.439,2.016-1.428c2.094,0.025,4.186-0.018,6.281-0.016c0.174,0,0.351,0.135,0.525,0.206
			C16.523,97.09,16.445,97.294,16.296,97.407z M107.384,98.299c-0.168,1.027-0.543,1.393-1.602,1.42
			c-1.605,0.045-3.215,0.012-4.822,0.012c-2.211,0.072-4.402,0.151-6.613,0.369c-2.49,0.246-5.029,0.148-7.539,0.032
			c-8.73-0.405-17.463-0.634-26.203-0.382c-0.604,0.018-1.207,0.056-1.811,0.036c-0.289-0.009-0.705-0.028-0.844-0.211
			c-0.895-1.179-1.723-1.124-2.635-0.022c-0.156,0.188-0.551,0.238-0.838,0.242c-1.002,0.014-2.012,0.011-3.014-0.054
			c-0.465-0.028-0.648-0.382-0.527-0.848c0.074-0.29,0.213-0.577,0.225-0.869c0.02-0.542-0.25-0.958-0.74-1.208
			c-0.432-0.221-1.057-0.092-1.354,0.317c-0.41,0.571-0.832,1.144-1.164,1.76c-0.324,0.599-0.768,0.897-1.432,0.89
			c-1.107-0.012-2.213-0.002-3.316-0.05c-0.488-0.021-0.631-0.33-0.496-0.817c0.107-0.381,0.188-0.793,0.16-1.182
			c-0.094-1.346-1.523-2.062-2.662-1.355c-1.062,0.658-1.785,1.579-2.262,2.742c-0.242,0.591-1.467,1.099-2.065,0.85
			c-0.42-0.176-0.721-0.636-1.08-0.961c-0.578-0.522-1.045-0.535-1.566-0.008c-0.279,0.283-0.453,0.703-0.771,0.912
			c-0.715,0.469-1.565,0.463-2.295,0.123c-0.641-0.301-0.033-0.879-0.053-1.332c-0.027-0.666-0.445-1.238-0.992-1.35
			c-0.548-0.112-1.005,0.1-1.339,0.5c-0.516,0.617-0.963,1.287-1.473,1.908c-0.186,0.225-0.443,0.481-0.701,0.527
			c-0.365,0.066-0.795,0.027-1.135-0.117c-0.15-0.064-0.223-0.501-0.195-0.754c0.045-0.394,0.254-0.768,0.305-1.162
			c0.068-0.559-0.76-1.088-1.281-0.888c-1.01,0.389-1.576,1.227-2.102,2.081c-0.472,0.764-1.14,1.092-1.992,1.162
			c-0.527,0.045-1.025-0.436-0.908-0.918c0.119-0.486,0.309-0.957,0.424-1.443c0.115-0.473,0.018-1.2,0.297-1.387
			c0.545-0.36,1.287-0.562,1.949-0.57c1.197-0.014,2.398,0.264,3.596,0.246c3.613-0.053,7.205-0.43,10.785-0.938
			c1.291-0.182,2.605-0.23,3.912-0.236c4.627-0.023,9.256,0.01,13.883-0.001c1.904-0.005,3.797,0.003,5.699-0.359
			c1.463-0.278,3.008-0.152,4.516-0.151c6.941,0.002,13.883,0.012,20.824,0.053c1.199,0.006,2.398,0.207,3.6,0.26
			c1.402,0.061,2.82,0.172,4.213,0.055c2.807-0.234,5.598-0.559,8.398,0.059c0.48,0.104,1.029,0.123,1.498-0.002
			c1.625-0.438,3.186,0.227,4.781,0.212c0.492-0.005,0.955,0.542,0.934,1.011C107.532,97.103,107.483,97.707,107.384,98.299z"/>
	</g>
</g>
<g>
</g>
<g>
</g>
<g>
</g>
<g>
</g>
<g>
</g>
<g>
</g>
<g>
</g>
<g>
</g>
<g>
</g>
<g>
</g>
<g>
</g>
<g>
</g>
<g>
</g>
<g>
</g>
<g>
</g>
</svg>
