<?xml version="1.0" encoding="iso-8859-1"?>
<!-- Generator: Adobe Illustrator 19.0.0, SVG Export Plug-In . SVG Version: 6.00 Build 0)  -->
<svg version="1.1" id="Capa_1" xmlns="http://www.w3.org/2000/svg" xmlns:xlink="http://www.w3.org/1999/xlink" x="0px" y="0px"
	 viewBox="0 0 102.011 102.011" style="enable-background:new 0 0 102.011 102.011;" xml:space="preserve">
<g id="_x0A_user">
	<g>
		<path style="fill-rule:evenodd;clip-rule:evenodd;" d="M69.31,70.985c-2.262-1.064-4.682-1.801-7.039-2.654
			c-1.982-0.717-4.012-1.316-5.955-2.121c-1.195-0.494-2.328-1.197-3.389-1.945c-1.533-1.084-2.57-2.604-2.818-4.469
			c-0.268-1.998-0.135-3.834,1.346-5.619c2.508-3.02,4.488-6.426,5.438-10.324c0.117-0.484,0.283-0.975,0.521-1.41
			c0.176-0.326,0.455-0.699,0.777-0.826c2.771-1.082,3.976-3.227,4.101-6.057c0.066-1.504-0.055-3.016-0.049-4.525
			c0.004-1.16-0.297-2.162-1.139-3.01c-0.33-0.336-0.639-0.803-0.726-1.254c-0.244-1.281-0.428-2.576-0.527-3.877
			c-0.309-3.98-1.533-7.668-3.506-11.113c-0.912-1.596-2.186-2.961-3.76-3.824c-1.932-1.061-4.066-1.738-6.309-1.893
			c-5.855-0.4-10.596,1.799-14.285,6.283c-3.399,4.139-5.443,8.885-6.084,14.207c-0.102,0.84-0.496,1.223-1.274,1.416
			c-1.891,0.465-2.826,1.949-3.291,3.621c-0.574,2.043-0.576,4.184,0.02,6.252c0.334,1.152,0.879,2.24,1.316,3.363
			c0.496,1.271,1.303,2.393,2.557,2.832c1.539,0.543,2.135,1.566,2.521,3.02c0.463,1.74,1.146,3.422,1.73,5.131
			c0.971,2.826,0.809,5.744,0.693,8.658c-0.049,1.26-0.707,2.023-1.861,2.471c-3.184,1.234-6.357,2.496-9.535,3.746
			c-4.035,1.588-7.9,3.49-11.48,5.961c-3.947,2.721-6.053,6.6-7.17,11.133c-0.053,3.014-0.152,6.031-0.131,9.045
			c0.01,1.221,0.867,2.135,2.021,2.289c1.691,0.225,3.396,0.408,5.1,0.463c2.41,0.078,4.824,0.02,7.428,0.02
			c4.84-0.15,9.863-0.422,14.887-0.441c8.053-0.029,16.082-0.516,24.117-0.863c2.811-0.123,5.615-0.389,8.422-0.594
			c0.4-0.031,0.797-0.104,1.197-0.145c3.498-0.338,6.998-0.686,10.498-1.006c0.699-0.064,1.408-0.004,2.109-0.025
			c2.76-0.084,3.967-1.436,3.941-4.146c-0.043-4.246-1.354-8.1-3.467-11.711C74.63,74.257,72.163,72.325,69.31,70.985z
			 M60.007,32.528c0.043-0.182,0.43-0.318,0.68-0.393c0.062-0.02,0.273,0.273,0.32,0.451c0.08,0.281,0.08,0.584,0.154,1.254
			c-0.135,0.408-0.338,1.154-0.643,1.857c-0.062,0.152-0.49,0.205-0.744,0.189c-0.106-0.002-0.299-0.314-0.277-0.465
			C59.63,34.452,59.782,33.481,60.007,32.528z M24.569,35.737c-0.041,0.072-0.357,0.092-0.441,0.016
			c-0.467-0.412-0.666-0.939-0.445-1.543c0.051-0.137,0.285-0.203,0.435-0.301c0.166,0.076,0.387,0.109,0.486,0.236
			C25.022,34.673,24.866,35.225,24.569,35.737z M73.106,87.501c-2.613,0.065-5.227,0.107-7.842,0.158c0,0.021,0,0.039,0.002,0.062
			c-1.006,0-2.012,0.018-3.018-0.004c-4.43-0.096-8.824,0.32-13.219,0.816c-1.098,0.123-2.211,0.064-3.312,0.123
			c-3.211,0.166-6.418,0.332-9.625,0.527c-4.512,0.273-9.019,0.586-13.531,0.857c-2.602,0.158-5.219-0.195-7.822,0.266
			c-0.75,0.133-1.592-0.125-2.371-0.297c-1.434-0.312-3.012,0.455-4.34-0.59c0.312-1.459,0.625-2.922,0.938-4.379
			c0.713-3.326,2.545-6.092,4.465-8.801c0.643-0.91,1.588-1.504,2.537-2.098c3.336-2.09,6.934-3.639,10.529-5.199
			c0.553-0.238,1.135-0.416,1.666-0.691c5.512-2.873,7.666-6.889,6.604-13.115c-0.27-1.576-0.654-3.156-1.195-4.66
			c-1.451-4.025-1.957-8.219-2.021-12.43c-0.068-4.412,0.402-8.818,1.258-13.162c0.469-2.379,1.453-4.59,2.316-6.836
			c0.109-0.279,0.24-0.574,0.441-0.785c2.066-2.188,4.029-4.512,6.83-5.816c0.709-0.33,1.531-0.561,2.307-0.576
			c4.998-0.103,7.977,2.195,9.383,6.484c1.059,3.234,1.738,6.606,1.512,10.074c-0.053,0.801-0.09,1.609-0.066,2.412
			c0.178,5.832-1.082,11.33-3.533,16.625c-1.225,2.648-2.926,4.797-5.391,6.297c-1.881,1.145-3.791,2.271-5.945,2.879
			c-0.287,0.082-0.617,0.15-0.826,0.338c-0.269,0.244-0.598,0.6-0.604,0.914c-0.01,0.332,0.252,0.764,0.527,0.99
			c0.84,0.684,1.865,0.707,2.875,0.547c0.791-0.123,1.564-0.359,2.352-0.525c1.354-0.289,1.436-0.281,1.432,0.963
			c-0.008,2.504,0.887,4.711,2.057,6.846c0.842,1.543,2.06,2.664,3.604,3.529c2.754,1.539,5.73,2.43,8.768,3.105
			c1.105,0.244,2.115,0.574,3.051,1.188c1.766,1.156,3.602,2.213,5.301,3.455c3.109,2.275,4.518,5.553,5.096,9.248
			C74.433,87.147,74.097,87.475,73.106,87.501z M100.937,47.829c-1.459-1.225-2.945-2.41-4.428-3.6
			c-1.328-1.066-2.834-1.965-3.973-3.201c-2.574-2.801-5.701-5.082-7.826-8.311c-0.412-0.623-1.162-0.773-1.902-0.598
			c-0.385,0.09-0.764,0.244-1.121,0.418c-1.238,0.604-1.662,1.707-1.152,3.006c0.107,0.279,0.26,0.545,0.426,0.795
			c0.477,0.713,0.635,1.441,0.303,2.275c-0.426,1.064-0.279,2.174-0.154,3.273c0.068,0.594,0.184,1.186,0.23,1.783
			c0.041,0.533-0.363,0.984-0.879,1.018c-3.098,0.203-6.195,0.434-9.297,0.576c-1.42,0.064-2.801,0.238-4.127,0.732
			c-1.131,0.422-1.857,1.201-1.875,2.461c-0.025,1.605-0.088,3.219,0.033,4.814c0.066,0.875,0.42,1.746,0.742,2.58
			c0.518,1.348,1.52,2.086,2.998,2.088c1.906,0.004,3.811,0,5.719,0v0.012c1.908,0,3.814-0.014,5.721,0.01
			c0.666,0.01,1.166,0.547,1.014,1.211c-0.438,1.895,0.234,3.779-0.021,5.67c-0.067,0.479,0.09,1,0.209,1.486
			c0.449,1.846,2.152,2.693,3.934,2.021c0.963-0.361,1.768-0.924,2.494-1.633c3.016-2.947,6.07-5.855,9.045-8.842
			c1.271-1.275,2.398-2.697,3.562-4.078c0.723-0.857,1.168-1.869,1.346-2.98C102.145,49.649,101.858,48.604,100.937,47.829z
			 M70.511,50.655c-0.19,0.057-0.395,0.062-0.592,0.088c-0.191-0.041-0.418-0.033-0.559-0.143c-0.111-0.084-0.139-0.309-0.152-0.476
			c-0.004-0.064,0.131-0.207,0.197-0.203c0.377,0.02,0.76,0.043,1.123,0.129c0.164,0.041,0.289,0.238,0.436,0.365
			C70.813,50.495,70.673,50.606,70.511,50.655z M86.411,43.389c0.031-0.076,0.377-0.133,0.422-0.076
			c0.422,0.521,0.824,1.064,1.193,1.629c0.086,0.131,0.014,0.363,0.014,0.625c-0.225,0.094-0.553,0.355-0.713,0.277
			C86.419,45.395,86.03,44.304,86.411,43.389z M90.651,55.561c-0.402,0.445-0.791,0.924-1.273,1.266
			c-0.756,0.535-1.023,1.773-2.27,1.611c-0.561-0.926-0.264-1.941-0.285-2.922c-0.016-0.769,0.873-1.641,1.479-1.545
			c0.799,0.381,1.6,0.752,2.385,1.154C90.739,55.155,90.733,55.471,90.651,55.561z"/>
	</g>
</g>
<g>
</g>
<g>
</g>
<g>
</g>
<g>
</g>
<g>
</g>
<g>
</g>
<g>
</g>
<g>
</g>
<g>
</g>
<g>
</g>
<g>
</g>
<g>
</g>
<g>
</g>
<g>
</g>
<g>
</g>
</svg>
