<?xml version="1.0" encoding="iso-8859-1"?>
<!-- Generator: Adobe Illustrator 19.0.0, SVG Export Plug-In . SVG Version: 6.00 Build 0)  -->
<svg version="1.1" id="Capa_1" xmlns="http://www.w3.org/2000/svg" xmlns:xlink="http://www.w3.org/1999/xlink" x="0px" y="0px"
	 viewBox="0 0 100 100" style="enable-background:new 0 0 100 100;" xml:space="preserve">
<g id="award">
	<g>
		<path style="fill-rule:evenodd;clip-rule:evenodd;" d="M82.303,59.204c-1.035-0.063-1.826-0.468-2.622-1.094
			c-0.42-0.332-1.095-0.425-1.666-0.466c-0.876-0.063-1.77-0.063-2.64,0.044c-1.189,0.148-2.342,0.029-3.524-0.063
			c-1.859-0.147-3.742-0.075-5.612-0.02c-1.375,0.041-2.745,0.259-4.119,0.299c-2.563,0.073-5.132,0.039-7.694,0.119
			c-1.273,0.041-2.539,0.259-3.812,0.339c-0.466,0.033-0.979-0.006-1.406-0.17c-2-0.772-2.568,0.387-2.83,1.838
			c-0.088,0.481-0.081,0.981-0.098,1.472c-0.07,1.972-0.124,3.943-0.206,5.914c-0.022,0.554-0.372,0.95-0.903,1.014
			c-2.442,0.299-4.887,0.594-7.338,0.81c-2.846,0.25-5.7,0.412-8.551,0.614c-0.295,0.023-0.594,0.027-0.881,0.086
			c-1.129,0.237-2.004,0.828-2.463,1.915c-0.188,0.447-0.355,0.922-0.421,1.397c-0.27,1.951-0.521,3.906-0.732,5.863
			c-0.189,1.758-0.326,1.947-2.201,1.984c-2.267,0.044-4.537,0.012-6.806,0.012c0-0.016,0-0.031-0.001-0.044
			c-2.367,0-4.734,0.006-7.102-0.002c-1.113-0.002-2.141,0.299-3.106,0.828c-0.769,0.423-1.107,1.131-1.095,1.961
			c0.01,0.786,0.178,1.566,0.226,2.354c0.201,3.343,0.381,6.688,0.575,10.032c0.029,0.492,0.05,0.989,0.144,1.472
			c0.251,1.285,1.087,2.116,2.421,2.209c1.274,0.088,2.581,0.142,3.835-0.052c1.771-0.276,3.534-0.267,5.308-0.29
			c2.17-0.031,4.343-0.016,6.509-0.127c3.345-0.17,6.684-0.468,10.028-0.644c2.069-0.109,4.144-0.06,6.213-0.14
			c2.461-0.098,4.916-0.332,7.377-0.376c3.947-0.073,7.894-0.035,11.84-0.056c0.888-0.006,1.775-0.04,2.659-0.117
			c1.468-0.13,2.932-0.316,4.398-0.455c0.981-0.092,1.967-0.134,2.95-0.209c1.768-0.132,3.531-0.312,5.3-0.396
			c1.279-0.06,2.564-0.01,3.846,0.019c1.097,0.025,1.914-0.435,2.418-1.39c0.778-1.468,1.72-2.898,1.327-4.709
			c-0.062-0.278-0.033-0.596,0.026-0.884c0.647-3.118,0.408-6.287,0.518-9.436c0.052-1.478,0.049-2.963,0.189-4.434
			c0.434-4.51,1.025-9.005,1.057-13.547c0.005-0.688,0.027-1.384-0.042-2.066C83.518,59.854,83.06,59.252,82.303,59.204z
			 M79.482,63.398c-0.033,0.59-0.055,1.187-0.148,1.767c-1.107,6.822-1.658,13.686-1.692,20.598
			c-0.007,1.28-0.062,2.562-0.123,3.843c-0.037,0.743-0.323,1.006-1.13,1.043c-3.445,0.159-6.864,0.579-10.291,0.947
			c-1.95,0.207-3.941,0.037-5.914,0.037v0.234c-1.183,0-2.367,0.03-3.548-0.008c-0.854-0.033-1.767,0.372-2.549-0.294
			c0.368-0.684,0.745-1.363,1.102-2.053c0.179-0.345,0.435-0.71,0.444-1.068c0.008-0.343-0.184-0.767-0.427-1.02
			c-0.337-0.353-0.731-0.113-0.995,0.197c-0.956,1.123-1.942,2.229-2.82,3.414c-0.584,0.784-1.264,1.188-2.23,1.196
			c-0.887,0.003-1.773,0.074-2.661,0.096c-0.658,0.013-0.821-0.322-0.463-0.922c0.907-1.524,1.842-3.033,2.71-4.576
			c0.23-0.408,0.399-0.949,0.34-1.394c-0.058-0.431-0.372-0.893-0.705-1.198c-0.39-0.354-0.982-0.333-1.373,0.002
			c-0.893,0.771-1.772,1.568-2.555,2.448c-1.18,1.322-2.359,2.664-3.377,4.109c-0.977,1.388-2.243,1.813-3.82,1.696
			c-0.294-0.023-0.589-0.029-0.883-0.05c-0.333-0.021-0.566-0.332-0.427-0.567c0.4-0.678,0.894-1.317,1.186-2.038
			c0.21-0.52,0.259-1.156,0.196-1.717c-0.1-0.895-1.414-1.441-2.081-0.853c-0.73,0.644-1.393,1.386-1.999,2.151
			c-0.733,0.927-1.34,1.951-2.076,2.873c-0.211,0.265-0.669,0.354-1.033,0.453c-0.092,0.024-0.389-0.253-0.37-0.338
			c0.091-0.372,0.266-0.722,0.405-1.082c0.212-0.546,0.475-1.083,0.608-1.648c0.117-0.491-0.003-1-0.435-1.329
			c-0.419-0.32-0.96-0.41-1.389-0.142c-0.745,0.466-1.488,0.974-2.101,1.591c-0.618,0.623-1.223,1.342-1.577,2.131
			c-0.593,1.327-1.576,1.633-2.87,1.534c-0.662-0.052-0.809-0.274-0.514-0.919c0.288-0.624,0.641-1.228,0.833-1.88
			c0.092-0.322-0.044-0.765-0.203-1.09c-0.231-0.468-0.845-0.61-1.26-0.414c-1.01,0.473-1.776,1.238-2.469,2.08
			c-0.44,0.531-0.818,1.112-1.228,1.666c-0.585,0.793-1.459,0.924-2.347,0.97c-0.089,0.005-0.311-0.337-0.27-0.432
			c0.311-0.717,0.675-1.411,1.016-2.112c0.301-0.619,0.617-1.234,0.88-1.869c0.196-0.473-0.13-1.083-0.721-1.47
			c-0.471-0.307-0.974-0.295-1.356,0.082c-0.626,0.617-1.184,1.305-1.775,1.959c-0.064,0.071-0.214,0.172-0.227,0.161
			c-0.112-0.107-0.264-0.229-0.286-0.366c-0.063-0.387-0.088-0.784-0.096-1.179c-0.036-2.143-0.371-2.283,2.393-2.724
			c1.26-0.201,2.547-0.339,3.761-0.707c1.646-0.5,3.306-0.478,4.977-0.441c0.479,0.008,1,0.092,1.422,0.301
			c2.07,1.024,3.798,0.083,5.499-0.924c0.624-0.37,0.938-1.018,0.912-1.761c-0.053-1.574-0.116-3.147-0.216-4.717
			c-0.055-0.886-0.216-1.764-0.276-2.645c-0.091-1.319-0.073-1.275,1.448-1.213c3.346,0.136,6.683,0.353,10.028-0.248
			c1.633-0.291,3.344-0.146,5.021-0.191c0.688-0.018,1.385,0.036,2.065-0.05c0.364-0.046,0.832-0.223,1.026-0.501
			c0.785-1.116,1.649-2.225,1.731-3.67c0.127-2.26,0.222-4.521,0.323-6.784c0.035-0.803,0.195-0.974,1.057-0.96
			c5.328,0.077,10.664,0.002,15.976,0.309c2.95,0.173,5.899,0.259,8.849,0.386C79.357,62.148,79.538,62.369,79.482,63.398z
			 M92.447,5.523c-0.729-0.502-1.618-0.824-2.524-0.687C88.076,5.115,86.213,5.32,84.446,6c-0.719,0.274-1.397,1.2-2.096,0.813
			c-0.829-0.46-0.458-1.593-0.567-2.435c-0.076-0.582,0.029-1.185-0.011-1.773c-0.071-1.041-0.755-1.911-1.77-2.097
			c-1.739-0.318-3.476-0.682-5.275-0.418c-2.53,0.373-5.087,0.588-7.603,1.039c-3.129,0.564-6.279,0.491-9.428,0.646
			c-2.75,0.138-5.495,0.393-8.24,0.629c-0.865,0.075-1.4,0.725-1.424,1.599c-0.024,0.883,0,1.769-0.066,2.651
			c-0.059,0.774-0.455,1.071-1.208,0.789c-2.757-1.035-5.015-0.132-7.042,1.71c-1.022,0.928-2,1.905-2.975,2.885
			c-0.345,0.345-0.668,0.734-0.916,1.154c-0.803,1.348-0.697,2.676,0.388,3.782c1.742,1.779,3.641,3.32,6.209,3.78
			c0.868,0.157,1.733,0.399,2.56,0.708c1.415,0.525,2.656,1.297,3.344,2.739c0.324,0.677,0.239,1.373-0.315,1.884
			c-1.345,1.244-2.946,1.949-4.751,2.187c-0.586,0.079-1.184,0.048-1.771,0.105c-0.625,0.063-0.972,0.629-0.834,1.303
			c0.414,2.022,1.906,3.075,3.873,2.636c1.837-0.41,3.596-1.039,5.115-2.206c0.391-0.301,0.794-0.583,1.192-0.876
			c0.393-0.288,0.739-0.188,0.991,0.176c0.509,0.726,0.988,1.472,1.477,2.212c1.608,2.431,3.661,4.378,6.248,5.745
			c0.35,0.182,0.708,0.349,1.045,0.554c0.357,0.215,0.581,0.523,0.441,0.968c-0.059,0.188-0.153,0.362-0.239,0.541
			c-0.671,1.409-0.482,2.664,0.627,3.786c0.553,0.556,1.069,1.156,1.604,1.733c0.306,0.33,0.335,0.679,0.085,1.054
			c-0.166,0.246-0.308,0.508-0.471,0.753c-1.316,1.961-3.011,3.247-5.449,3.642c-2.574,0.418-4.767,1.804-6.833,3.353
			c-0.518,0.391-0.51,1.074-0.04,1.549c0.508,0.514,1.107,0.82,1.828,0.849c1.281,0.054,2.564,0.132,3.845,0.121
			c3.155-0.034,6.311-0.113,9.467-0.176c0.001,0.014,0.001,0.027,0.001,0.04c3.749,0,7.498,0.004,11.247-0.004
			c0.688,0,1.386,0.012,2.064-0.088c0.82-0.117,1.595-1.028,1.692-1.848c0.082-0.673-0.462-1.38-1.37-1.713
			c-0.458-0.167-0.942-0.276-1.421-0.382c-1.057-0.229-2.151-0.343-3.17-0.686c-1.581-0.529-3.111-1.209-4.663-1.827
			c-0.645-0.987-1.287-1.972-1.931-2.959c-0.162-0.247-0.301-0.516-0.487-0.74c-0.396-0.482-0.302-0.878,0.161-1.229
			c1.629-1.23,2.521-2.724,1.908-4.857c-0.077-0.268,0.219-0.749,0.478-0.979c0.437-0.387,0.977-0.661,1.479-0.968
			c1.886-1.162,3.348-2.726,4.533-4.591c1.277-2.005,2.266-4.147,3.176-6.333c0.264-0.636,0.518-1.272,0.798-1.899
			c0.076-0.17,0.231-0.307,0.349-0.46c0.057,0.157,0.156,0.31,0.161,0.466c0.04,1.085,0.046,2.172,0.089,3.256
			c0.039,0.934,0.471,1.708,1.137,2.331c1.12,1.05,2.487,1.568,3.994,1.738c0.551,0.062,1.152-0.356,1.378-0.92
			c0.286-0.711,0.18-1.489-0.323-1.911c-0.373-0.314-0.791-0.581-1.209-0.839c-1.748-1.079-2.166-2.72-1.902-4.61
			c0.095-0.675,0.383-1.321,0.535-1.992c0.219-0.949,0.812-1.597,1.664-1.943c0.999-0.406,2.036-0.736,3.078-1.019
			c2.873-0.784,4.828-2.634,5.998-5.289C96.356,10.545,95.167,7.394,92.447,5.523z M46.257,18.053
			c-1.321-0.332-2.646-0.638-3.971-0.947c-0.611-0.146-1.053-0.508-1.346-1.045c-0.832-1.516-0.279-3.396,1.25-4.288
			c0.168-0.098,0.385-0.132,0.525-0.257c1.312-1.168,2.726-0.803,4.131-0.256c0.218,0.084,0.467,0.412,0.48,0.638
			c0.052,0.976,0.021,1.955,0.021,2.62c0.062,1.099,0.118,1.878,0.147,2.661C47.54,18.26,47.402,18.341,46.257,18.053z
			 M78.201,8.814c-0.516,3.088-0.316,7.263-1.119,11.33c-0.751,3.803-2.162,7.379-4.271,10.63c-1.518,2.34-3.569,4.198-6.002,5.599
			c-0.373,0.217-0.833,0.077-0.953-0.312c-0.115-0.376-0.084-0.834-0.294-1.133c-0.664-0.953-0.423-1.827-0.006-2.781
			c0.434-0.987,0.755-2.026,1.104-3.05c0.095-0.274,0.219-0.619,0.131-0.855c-0.125-0.339-0.385-0.678-0.681-0.881
			c-0.186-0.125-0.657-0.105-0.805,0.044c-0.687,0.692-1.328,1.432-1.935,2.194c-0.363,0.457-0.604,1.016-0.979,1.463
			c-0.101,0.117-0.574,0.084-0.744-0.048c-0.701-0.55-0.846-1.315-0.56-2.128c0.72-2.041,1.466-4.073,2.213-6.105
			c0.137-0.37,0.338-0.713,0.481-1.081c0.187-0.467,0.28-0.941-0.092-1.378c-0.332-0.389-1.125-0.529-1.63-0.205
			c-0.49,0.314-0.971,0.678-1.357,1.11c-0.522,0.584-0.94,1.261-1.426,1.88c-0.063,0.081-0.254,0.061-0.386,0.088
			c-0.018-0.09-0.073-0.191-0.051-0.274c0.474-1.704,0.945-3.404,1.44-5.103c0.222-0.755,0.53-1.483,0.733-2.243
			c0.131-0.491,0.027-0.987-0.398-1.336c-0.304-0.249-0.987-0.122-1.338,0.261c-0.396,0.435-0.768,0.897-1.141,1.355
			c-0.245,0.305-0.47,0.629-0.715,0.934c-0.059,0.071-0.168,0.1-0.253,0.149c-0.077-0.161-0.23-0.328-0.215-0.479
			c0.04-0.387,0.13-0.774,0.246-1.145c0.562-1.786,1.147-3.561,1.707-5.346c0.115-0.37,0.217-0.763,0.221-1.146
			c0.006-0.519-0.231-1.005-0.747-1.15c-0.338-0.096-0.765-0.021-1.109,0.098c-0.256,0.088-0.426,0.401-0.668,0.56
			C56.335,8.51,56.293,9.2,55.841,8.852c-0.216-0.167-0.184-0.73-0.166-1.111c0.046-1.07,0.221-1.288,1.15-1.361
			c2.551-0.199,5.105-0.358,7.656-0.561c1.076-0.084,2.147-0.228,3.22-0.357c0.489-0.058,0.973-0.157,1.462-0.201
			c1.859-0.174,3.721-0.335,5.582-0.498c0.195-0.017,0.394-0.021,0.59-0.029C78.581,4.611,78.494,4.831,78.201,8.814z
			 M89.081,13.045c-0.938,1.535-2.053,2.833-3.846,3.456c-0.911,0.314-1.732,0.884-2.606,1.313c-0.215,0.101-0.48,0.147-0.717,0.128
			c-0.062-0.003-0.102-0.337-0.152-0.521c0.172-1.75,0.329-3.504,0.532-5.252c0.029-0.265,0.205-0.608,0.42-0.736
			c1.34-0.803,2.657-1.671,4.35-1.495c1.133,0.119,1.712,0.55,2.125,1.704C89.363,12.132,89.357,12.59,89.081,13.045z"/>
	</g>
</g>
<g>
</g>
<g>
</g>
<g>
</g>
<g>
</g>
<g>
</g>
<g>
</g>
<g>
</g>
<g>
</g>
<g>
</g>
<g>
</g>
<g>
</g>
<g>
</g>
<g>
</g>
<g>
</g>
<g>
</g>
</svg>
