<?xml version="1.0" encoding="iso-8859-1"?>
<!-- Generator: Adobe Illustrator 19.0.0, SVG Export Plug-In . SVG Version: 6.00 Build 0)  -->
<svg version="1.1" id="Capa_1" xmlns="http://www.w3.org/2000/svg" xmlns:xlink="http://www.w3.org/1999/xlink" x="0px" y="0px"
	 viewBox="0 0 100 100" style="enable-background:new 0 0 100 100;" xml:space="preserve">
<g id="_x0A_gears">
	<g>
		<path style="fill-rule:evenodd;clip-rule:evenodd;" d="M72.435,54.65c-0.844-0.195-1.74-0.185-2.562-0.43
			c-2.523-0.75-5.064-1.089-7.684-0.651c-0.317,0.053-0.655,0.044-0.979,0.008c-0.429-0.048-0.924-0.14-0.977-0.657
			c-0.03-0.264,0.154-0.639,0.364-0.819c0.742-0.637,1.575-1.167,2.304-1.817c1.049-0.941,2.146-1.865,3.017-2.96
			c0.888-1.116,1.209-2.311,0.523-3.886c-0.846-1.933-1.899-3.577-3.406-5.033c-1.484-1.434-2.786-3.053-4.194-4.565
			c-0.516-0.555-1.036-1.164-1.679-1.527c-1.425-0.803-2.012-1.17-3.526,0.157c-0.972,0.852-1.834,1.84-2.67,2.831
			c-0.769,0.912-1.42,1.926-2.163,2.863c-0.365,0.462-0.911,0.551-1.481,0.45c-0.96-0.171-1.508-0.708-1.512-1.822
			c-0.004-2.607,0.027-5.217,0.169-7.819c0.108-1.938-0.987-3.326-2.946-3.372c-1.632-0.04-3.267-0.009-4.898-0.009v0.087
			c-0.98,0-1.959-0.01-2.94,0.001c-3.963,0.041-3.963,0.044-7.212,2.247c-0.359,0.244-0.693,0.531-1.074,0.738
			c-0.77,0.417-1.049,1.083-0.998,1.897c0.129,1.951,0.216,3.91,0.472,5.846c0.105,0.796,0.082,1.494-0.208,2.218
			c-0.281,0.703-1.061,0.869-1.533,0.239c-1.429-1.903-3.065-3.675-3.854-6.003c-0.239-0.708-0.643-1.378-1.057-2.007
			c-0.495-0.749-1.514-1.037-2.319-0.642c-0.676,0.332-1.403,0.69-1.904,1.225c-2.742,2.935-5.875,5.489-8.367,8.673
			c-0.78,0.996-0.854,1.965-0.368,3.027c0.27,0.587,0.632,1.144,1.019,1.664c1.296,1.739,2.575,3.49,3.942,5.168
			c1.196,1.467,0.57,2.902,0.021,4.299c-0.415,1.059-1.495,0.68-2.306,0.667c-1.41-0.024-2.833-0.088-4.222-0.31
			c-1.228-0.196-2.378-0.07-3.536,0.273c-0.778,0.231-1.121,0.559-1.114,1.375c0.027,2.935-0.03,5.883,0.203,8.805
			c0.146,1.822,0.691,3.619,1.589,5.275c0.359,0.659,0.839,0.975,1.554,0.93c1.3-0.084,2.598-0.192,3.896-0.301
			c1.619-0.135,3.241-0.298,4.864-0.411c0.457-0.031,0.82,0.222,0.953,0.698c0.087,0.313,0.08,0.676,0.239,0.944
			c0.615,1.042,0.213,1.911-0.474,2.666c-1.243,1.366-2.547,2.677-3.837,4.005c-0.604,0.623-1.312,1.169-1.822,1.861
			c-0.634,0.858-1.11,1.83-1.653,2.753c0.309,1.28,0.755,2.499,1.594,3.538c0.275,0.338,0.56,0.669,0.867,0.978
			c1.909,1.937,3.807,3.883,5.746,5.791c1.273,1.253,2.205,1.324,3.758,0.26c2.243-1.534,4.38-3.207,6.349-5.091
			c0.617-0.591,1.378-1.334,2.26-0.938c1.015,0.456,0.596,1.475,0.425,2.312c-0.042,0.213-0.11,0.421-0.154,0.633
			c-0.218,1.012-0.144,2.125,0.564,2.775c1.205,1.106,1.311,2.408,1.266,3.842c-0.006,0.214,0.047,0.432,0.087,0.645
			c0.129,0.678,0.577,1.128,1.321,1.24c4.545,0.683,9.09,0.68,13.649,0.066c1.229-0.166,1.697-0.885,1.806-1.925
			c0.091-0.863,0.086-1.739,0.078-2.609c-0.011-1.305-0.072-2.61-0.089-3.916c-0.034-2.327,0.29-2.31,2.101-2.344
			c0.539-0.01,1.072-0.188,1.611-0.208c0.296-0.01,0.717,0.053,0.879,0.25c1.243,1.499,2.575,2.952,3.606,4.593
			c0.907,1.445,2.076,1.829,3.577,1.559c0.482-0.086,1.017-0.394,1.336-0.765c1.98-2.308,3.902-4.665,5.85-7.001
			c0.763-0.918,1.558-1.812,2.3-2.746c0.438-0.553,0.471-1.216,0.188-1.852c-0.224-0.492-0.484-0.98-0.801-1.416
			c-1.852-2.549-3.725-5.081-5.591-7.62c-0.192-0.262-0.467-0.521-0.514-0.812c-0.04-0.242,0.157-0.722,0.326-0.761
			c0.512-0.118,1.063-0.105,1.596-0.087c3.158,0.114,6.304-0.003,9.426-0.548c1.1-0.192,1.539-0.581,1.617-1.675
			c0.062-0.866,0.034-1.74,0.055-2.608c0.074-3.144-0.306-6.309,0.463-9.423c0.104-0.411,0.042-0.867,0.031-1.303
			C73.65,55.407,73.282,54.848,72.435,54.65z M68.01,66.111c-0.94,0.237-1.9,0.463-2.864,0.521c-1.518,0.088-3.046,0.018-4.57,0.054
			c-1.657,0.038-3.287,0.119-4.099,1.996c-0.142,0.328-0.719,0.449-1.062,0.711c-1.165,0.887-1.347,1.395-0.733,2.797
			c0.429,0.983,0.991,1.926,1.604,2.811c1.735,2.501,3.53,4.96,5.291,7.442c0.258,0.364,0.45,0.859,0.036,1.17
			c-1.753,1.317-3.224,2.899-4.539,4.642c-0.125,0.163-0.345,0.326-0.535,0.35c-0.283,0.036-0.742,0.049-0.846-0.11
			c-0.822-1.277-1.539-2.623-2.365-3.897c-1.045-1.612-2.596-2.202-4.467-1.774c-2.044,0.466-3.894,1.361-5.585,2.59
			c-0.562,0.409-0.854,0.948-0.858,1.661c-0.015,2.177-0.038,4.354-0.08,6.53c-0.018,0.864-0.328,1.146-1.201,1.129
			c-0.871-0.017-1.742-0.062-2.61-0.115c-0.374-0.023-0.771-0.566-0.677-0.952c0.545-2.211,1.125-4.414,1.653-6.629
			c0.148-0.627,0.196-1.283,0.234-1.93c0.009-0.175-0.211-0.522-0.304-0.517c-0.288,0.024-0.742,0.105-0.82,0.295
			c-0.497,1.197-0.97,2.411-1.336,3.654c-0.397,1.352-0.712,2.732-0.981,4.114c-0.218,1.132-0.797,1.696-1.966,1.726
			c-0.639,0.016-1.275,0.23-1.913,0.232c-0.267,0.001-0.604-0.261-0.782-0.498c-0.315-0.409,0.116-0.561,0.383-0.643
			c0.808-0.251,1.304-0.765,1.467-1.583c0.512-2.554,1.019-5.108,1.501-7.667c0.034-0.181-0.12-0.405-0.216-0.596
			c-0.042-0.088-0.146-0.202-0.226-0.205c-0.19-0.008-0.442-0.021-0.561,0.088c-0.234,0.214-0.467,0.48-0.573,0.772
			c-0.547,1.53-1.055,3.076-1.581,4.613c-0.034,0.099-0.129,0.174-0.194,0.261c-0.118-0.146-0.319-0.278-0.342-0.437
			c-0.123-0.851-0.334-1.717-0.264-2.557c0.118-1.385-0.535-2.276-1.561-2.998c-0.349-0.247-0.788-0.362-1.177-0.559
			c-0.916-0.464-1.063-0.778-0.845-1.783c0.16-0.737,0.387-1.463,0.473-2.207c0.025-0.199-0.317-0.499-0.556-0.646
			c-0.122-0.074-0.44,0.028-0.583,0.15c-0.786,0.672-1.135,1.618-1.256,2.581c-0.158,1.28-0.717,2.22-1.721,3.006
			c-0.94,0.735-1.754,1.631-2.683,2.387c-0.351,0.285-0.732,0.955-1.279,0.473c-0.169-0.146,0.061-0.784,0.157-1.187
			c0.393-1.692,0.807-3.381,1.198-5.073c0.015-0.061-0.112-0.216-0.186-0.226c-0.19-0.022-0.446-0.059-0.569,0.041
			c-0.247,0.199-0.503,0.454-0.613,0.741c-0.503,1.317-1.03,2.636-1.395,3.995c-0.19,0.705-0.112,1.498-0.065,2.246
			c0.023,0.396,0.45,0.83,0.029,1.174c-0.497,0.405-1.061,0.754-1.646,1.007c-0.161,0.068-0.658-0.238-0.736-0.464
			c-0.21-0.599-0.433-1.266-0.364-1.872c0.22-1.938,0.556-3.863,0.875-5.788c0.091-0.53,0.349-1.037,0.408-1.568
			c0.047-0.401,0.017-0.899-0.19-1.22c-0.306-0.475-0.763-0.024-1.154,0.03c-0.184,0.026-0.37,0.039-0.556,0.057
			c-0.008,0.023-0.013,0.049-0.021,0.072c-0.03,0.008-0.064,0.014-0.098,0.02c-0.632,1.77-1.263,3.54-1.902,5.307
			c-0.032,0.087-0.19,0.215-0.233,0.195c-0.165-0.069-0.351-0.162-0.448-0.302c-0.526-0.745-0.808-1.489-0.096-2.318
			c0.761-0.887,1.452-1.832,2.203-2.728c0.091-0.109,0.296-0.122,0.475-0.155c0.01-0.028,0.02-0.056,0.03-0.083
			c0.03-0.003,0.059-0.006,0.089-0.009c0.118-0.375,0.164-0.829,0.414-1.057c0.387-0.35,0.929-0.549,1.43-0.745
			c0.688-0.269,0.993-0.794,1.144-1.464c0.535-2.419,0.158-4.741-0.683-7.035c-0.37-1.011-0.987-1.659-2.057-1.848
			c-0.321-0.057-0.648-0.08-0.966-0.157c-0.492-0.123-0.717-0.551-0.503-0.954c0.353-0.671,0.791-1.307,1.069-2.006
			c0.192-0.478,0.328-1.059-0.158-1.509c-0.37-0.343-1.216-0.237-1.75,0.333c-0.738,0.79-1.412,1.641-2.067,2.499
			c-0.326,0.428-0.524,0.954-0.837,1.396c-0.18,0.254-0.45,0.471-0.725,0.619c-0.146,0.078-0.436,0.037-0.577-0.063
			c-0.14-0.1-0.283-0.395-0.231-0.521c0.719-1.698,1.479-3.379,2.205-5.076c0.059-0.14-0.025-0.423-0.144-0.537
			c-0.135-0.131-0.382-0.203-0.58-0.202c-0.205,0-0.433,0.083-0.615,0.19c-0.628,0.368-1.15,0.529-1.569-0.318
			c-0.213-0.43-0.699-0.452-1.141-0.251c-0.774,0.353-0.896-0.257-1.08-0.742c-0.203-0.542-0.006-0.887,0.512-0.878
			c2.499,0.05,4.999,0.109,7.498,0.188c0.432,0.014,0.858,0.179,1.29,0.193c0.905,0.03,1.636-0.209,2.201-1.064
			c0.693-1.046,1.203-2.084,0.881-3.349c-0.463-1.824-0.676-3.597,0.22-5.394c0.285-0.569-0.013-1.316-0.526-1.786
			c-0.882-0.806-1.804-1.567-2.723-2.33c-0.668-0.556-1.381-1.058-2.036-1.63c-0.34-0.301-0.479-0.72-0.085-1.112
			c0.923-0.916,1.858-1.822,2.789-2.732c0.596-0.582,1.188-0.577,1.657,0.031c0.266,0.345,0.505,0.709,0.746,1.069
			c1.129,1.68,2.454,3.037,4.676,3.102c0.401,0.01,0.78,0.397,1.196,0.483c0.776,0.161,1.601,0.141,1.968-0.709
			c0.62-1.417,1.719-1.87,3.15-1.805c0.108,0.006,0.218-0.003,0.325-0.019c1.48-0.219,2.176-0.935,2.097-2.372
			c-0.088-1.626-0.313-3.246-0.455-4.87c-0.076-0.861-0.154-1.729-0.14-2.592c0.013-0.748,0.526-1.292,1.201-1.296
			c2.83-0.018,5.659-0.011,8.489,0.01c0.459,0.003,0.989,0.605,0.987,1.133c-0.004,0.757-0.034,1.519-0.133,2.269
			c-0.258,1.966-0.171,3.9,0.332,5.824c0.241,0.925,0.67,1.558,1.693,1.725c0.385,0.062,0.977,0.288,1.06,0.564
			c0.518,1.709,1.873,1.6,3.192,1.604c0.761,0.001,1.524-0.004,2.283-0.044c0.569-0.03,1.148-0.24,1.343-0.777
			c0.408-1.111,1.285-1.683,2.196-2.291c0.532-0.356,0.935-0.907,1.414-1.351c1.173-1.088,1.441-1.067,2.647,0.189
			c1.581,1.655,3.082,3.376,4.184,5.404c0.296,0.545,0.205,1.046-0.262,1.458c-1.551,1.362-3.114,2.711-4.651,4.088
			c-0.401,0.36-0.754,0.785-1.084,1.214c-0.419,0.54-0.493,1.294,0.055,1.8c0.896,0.825,1.14,1.728,1.04,2.902
			c-0.076,0.859,0.611,1.419,1.394,1.577c0.949,0.194,1.94,0.251,2.915,0.268c1.521,0.026,3.046-0.047,4.57-0.047
			c0.541-0.001,1.095,0.025,1.619,0.149c0.547,0.129,1.048,0.508,1.076,1.091c0.101,2.173,0.146,4.35,0.154,6.524
			C68.57,65.658,68.247,66.051,68.01,66.111z M98.554,21.496c-0.947-0.724-1.942-1.387-2.932-2.053
			c-1.118-0.753-1.1-0.975,0.205-1.67c0.478-0.255,0.977-0.475,1.448-0.747c1.38-0.803,1.634-1.435,1.059-2.966
			c-0.535-1.422-1.194-2.798-1.744-4.214c-1.158-2.972-1.906-2.652-4.05-1.367c-0.651,0.391-1.285,0.896-1.996,1.067
			c-0.393,0.097-0.97-0.331-1.372-0.645c-0.154-0.12-0.148-0.617-0.041-0.87c0.506-1.2,1.1-2.365,1.613-3.562
			c0.287-0.672,0.07-1.402-0.581-1.665c-1.706-0.691-3.418-1.407-5.188-1.901c-2.512-0.701-2.966-0.39-3.833,2.044
			c-0.18,0.511-0.274,1.069-0.545,1.524c-0.267,0.451-0.689,0.818-1.076,1.188c-0.309,0.295-0.975,0.154-1.093-0.243
			c-0.277-0.932-0.537-1.871-0.734-2.821c-0.11-0.526-0.055-1.085-0.114-1.625c-0.076-0.686-0.713-1.091-1.434-0.938
			c-0.319,0.068-0.651,0.112-0.945,0.24c-1.296,0.563-2.6,1.113-3.858,1.75c-0.668,0.339-1.266,0.824-1.864,1.284
			c-0.457,0.352-0.668,0.817-0.501,1.428c0.314,1.151,0.596,2.312,0.892,3.468c0.201,0.773,0.201,1.547-0.338,2.164
			c-0.252,0.285-0.695,0.481-1.08,0.546c-0.281,0.048-0.609-0.19-0.918-0.284c-1.234-0.374-2.399-1.672-3.621-1.177
			c-1.416,0.574-1.063,2.471-1.697,3.703c-0.292,0.565-0.366,1.248-0.524,1.88c-0.452,1.789,0.032,2.717,1.738,3.23
			c1.04,0.313,2.105,0.539,3.148,0.841c0.469,0.134,0.731,0.97,0.438,1.376c-0.25,0.349-0.505,0.756-0.86,0.951
			c-1.044,0.572-2.156,1.024-3.211,1.58c-0.567,0.298-1.138,0.649-1.582,1.099c-0.258,0.264-0.446,0.815-0.359,1.159
			c0.533,2.116,1.273,4.16,2.522,5.978c0.345,0.503,0.822,0.61,1.42,0.428c1.558-0.474,3.126-0.913,4.695-1.351
			c0.387-0.108,0.939,0.406,0.818,0.774c-0.336,1.023-0.892,2.006-0.459,3.062c-0.051,0.402-0.116,0.724-0.127,1.047
			c-0.044,1.387,0.131,1.62,1.473,2.122c1.526,0.569,3.048,1.151,4.572,1.723c1.205,0.452,1.896,0.179,2.34-0.954
			c0.4-1.008,0.729-2.046,1.165-3.038c0.374-0.85,1.222-1.019,1.827-0.368c0.436,0.466,0.812,1.009,1.11,1.573
			c0.399,0.766,0.674,1.597,1.051,2.377c0.252,0.526,0.858,0.771,1.387,0.519c1.169-0.566,2.321-1.172,3.454-1.806
			c3.839-2.146,3.748-1.144,1.989-5.539c-0.163-0.404-0.377-0.788-0.518-1.196c-0.144-0.408-0.241-0.831-0.332-1.255
			c-0.083-0.394,0.4-0.923,0.748-0.814c1.351,0.42,2.695,0.851,4.035,1.295c2.325,0.771,2.338,0.212,3-1.268
			c0.712-1.586,1.405-3.183,2.053-4.797C99.621,22.79,99.434,22.171,98.554,21.496z M66.294,12.221l-0.15-0.098l0.175-0.049
			L66.294,12.221z M64.429,25.373c-0.04,0.018-0.154-0.069-0.198-0.134c-0.051-0.075-0.108-0.188-0.087-0.265
			c0.159-0.578,0.574-0.734,1.103-0.685c-0.001-0.024,0.009-0.042,0.007-0.067c0.03-0.014,0.071-0.021,0.115-0.025l0.173-0.381
			c0.321,0.394,0.034,0.359-0.173,0.381c-0.015,0.032-0.028,0.063-0.043,0.095c-0.028-0.004-0.051,0-0.079-0.002
			C65.259,24.854,64.891,25.153,64.429,25.373z M65.528,29.099c-0.239-0.041-0.639-0.425-0.604-0.567
			c0.114-0.487,0.365-0.951,0.615-1.395c0.163-0.287,0.634-0.208,0.757,0.114c0.109,0.288,0.175,0.592,0.228,0.774
			C66.484,28.715,66.053,29.19,65.528,29.099z M68.792,16.515c0.116,0.16,0.279,0.287,0.262,0.39
			c-0.021,0.15-0.171,0.281-0.264,0.42c-0.063-0.07-0.188-0.147-0.182-0.21C68.63,16.947,68.703,16.787,68.792,16.515z
			 M68.697,28.01c-0.167-0.075-0.48-0.149-0.482-0.229c-0.006-0.244,0.106-0.491,0.178-0.757c0.26,0.125,0.571,0.228,0.562,0.283
			C68.921,27.548,68.792,27.777,68.697,28.01z M69.048,24.497c-0.076,0.32-0.552,0.545-0.85,0.813
			c-0.102-0.293-0.214-0.583-0.305-0.88c-0.029-0.098-0.004-0.212-0.004-0.624c0.104-0.319,0.271-0.926,0.497-1.508
			c0.068-0.165,0.296-0.328,0.476-0.362c0.097-0.019,0.359,0.232,0.357,0.358C69.207,23.033,69.219,23.788,69.048,24.497z
			 M85.777,3.627c0.038,0.04,0.047,0.15,0.017,0.191c-0.057,0.082-0.139,0.173-0.23,0.195c-0.197,0.052-0.402,0.065-0.681,0.105
			c-0.228-0.031-0.541-0.037-0.827-0.131c-0.112-0.035-0.267-0.331-0.226-0.396C84.114,3.151,85.38,3.186,85.777,3.627z
			 M83.473,6.121c0.18,0.035,0.347,0.122,0.52,0.189c-0.084,0.046-0.171,0.091-0.258,0.138c-0.169-0.062-0.34-0.126-0.512-0.188
			C83.309,6.209,83.402,6.108,83.473,6.121z M83.342,8.486c0.459,0.034,0.814,0.378,0.791,0.762
			c-0.04,0.706-0.619,1.261-1.173,1.098c-0.461-0.135-0.594-0.521-0.598-0.952C82.353,8.821,82.774,8.445,83.342,8.486z
			 M79.326,7.652c0.26-0.096,0.611-0.14,0.858-0.043c0.74,0.286,0.78,0.953,0.744,1.81c-0.198,0.756-0.435,1.687-0.688,2.612
			c-0.028,0.087-0.157,0.144-0.239,0.216c-0.051-0.092-0.133-0.178-0.152-0.276c-0.234-1.261-0.171-2.579-0.75-3.779
			C79.038,8.067,79.193,7.7,79.326,7.652z M75.965,7.552c0.086-0.023,0.236,0.19,0.357,0.298c-0.177,0.183-0.353,0.365-0.571,0.589
			c-0.106-0.259-0.245-0.439-0.201-0.532C75.624,7.752,75.802,7.595,75.965,7.552z M74.861,4.782
			c0.135-0.073,0.702,0.268,0.689,0.369c-0.048,0.368-0.26,0.715-0.429,1.118c-0.307-0.194-0.53-0.256-0.585-0.389
			C74.348,5.445,74.462,5.001,74.861,4.782z M74.965,14.655c0.011,0.062-0.136,0.146-0.207,0.221
			c-0.065-0.082-0.197-0.178-0.182-0.244c0.04-0.184,0.137-0.356,0.211-0.537C74.853,14.282,74.938,14.465,74.965,14.655z
			 M71.314,25.116c-0.18-1.049-0.313-2.104-0.425-2.914c0.205-2.396,0.37-4.53,0.602-6.656c0.021-0.192,0.442-0.401,0.715-0.481
			c0.129-0.038,0.394,0.169,0.507,0.328c0.467,0.655,0.615,1.472,0.324,2.148c-0.713,1.669-0.455,3.371-0.453,5.08
			c0,0.84-0.175,1.683-0.319,2.517c-0.023,0.127-0.319,0.287-0.486,0.285C71.616,25.42,71.337,25.248,71.314,25.116z M71.99,27.622
			c-0.059-0.115,0.114-0.367,0.216-0.535c0.04-0.07,0.22-0.144,0.26-0.114c0.827,0.599,1.645,1.207,2.455,1.83
			c0.063,0.048,0.093,0.263,0.048,0.303c-0.152,0.137-0.34,0.232-0.613,0.402C73.28,29.313,72.504,28.63,71.99,27.622z
			 M73.451,35.035c-0.129-0.153-0.29-0.328-0.315-0.512c-0.15-1.174,0.56-1.99,1.243-2.8c0.098-0.114,0.419-0.202,0.493-0.138
			c0.226,0.2,0.384,0.478,0.663,0.857c-0.596,0.832-1.189,1.672-1.799,2.501C73.686,35.012,73.479,35.067,73.451,35.035z
			 M78.058,30.318c0.141,0.424,0.096,0.803-0.348,1.019c0.017,0.041,0.034,0.082,0.052,0.123c-0.063,0.031-0.1,0.074-0.151,0.111
			c-0.069,0.416-0.003,0.898-0.504,1.108c-0.002,0.039-0.008,0.078-0.009,0.118c-0.031,0.009-0.055,0.023-0.085,0.034
			c0.055,1.06-0.519,1.918-0.97,2.807c-0.064,0.123-0.383,0.215-0.531,0.165c-0.154-0.052-0.374-0.325-0.342-0.444
			c0.28-1.083,0.642-2.127,1.843-2.528c-0.002-0.037,0.002-0.072-0.002-0.109c0.038-0.011,0.063-0.029,0.096-0.042
			c0.023-0.441,0.127-0.842,0.504-1.108c0.012-0.07,0.026-0.138,0.05-0.202c0.021-0.009,0.03-0.022,0.05-0.032
			c-0.112-0.254-0.232-0.506-0.325-0.766c-0.15-0.425-0.193-0.827,0.327-1.023c-0.016-0.033-0.032-0.066-0.048-0.099
			c0.042-0.006,0.063-0.024,0.1-0.033c0.017-0.266,0.03-0.533,0.065-0.796c0.013-0.093,0.1-0.177,0.154-0.264
			c0.063,0.072,0.169,0.138,0.184,0.22c0.082,0.397,0.029,0.731-0.403,0.84c-0.003,0.038-0.006,0.076-0.009,0.113
			c-0.017,0.005-0.027,0.013-0.043,0.019C77.834,29.802,77.968,30.052,78.058,30.318z M80.148,30.191
			c-0.023,0.09-0.11,0.164-0.167,0.246c-0.057-0.09-0.154-0.176-0.161-0.271c-0.044-0.623-0.089-1.249-0.08-1.874
			c0.002-0.171,0.192-0.339,0.294-0.507c0.099,0.181,0.232,0.351,0.285,0.543c0.055,0.198,0.032,0.418,0.051,0.798
			C80.319,29.373,80.243,29.784,80.148,30.191z M83.585,28.031c-0.071,0.758-0.137,1.517-0.231,2.273
			c-0.057,0.489-0.627,1.104-0.756,0.891c-0.157-0.266-0.239-0.576-0.334-0.872c-0.032-0.1,0-0.217,0-0.326
			c0.002-0.217,0-0.435,0-0.652h0.048c0-0.434-0.017-0.871,0.004-1.306c0.03-0.615,0.594-1.319,0.888-1.132
			C83.628,27.172,83.628,27.601,83.585,28.031z M83.59,23.284c-0.284,0.397-0.853,0.723-1.343,0.819
			c-2.357,0.472-4.541-0.027-6.382-1.583c-1.615-1.362-1.875-4.764-0.706-6.637c0.514-0.822,1.712-1.168,1.744-2.231
			c0.025-0.834-0.317-1.675-0.465-2.519c-0.036-0.202-0.024-0.489,0.093-0.622c0.196-0.219,0.482-0.392,0.763-0.482
			c0.089-0.028,0.4,0.257,0.408,0.409c0.045,0.755,0.002,1.515,0.032,2.27c0.032,0.791,0.461,1.128,1.288,1.012
			c0.926-0.129,1.815-0.498,2.777,0.009c0.389,0.206,0.791-0.182,0.913-0.666c0.025-0.105,0.011-0.235,0.07-0.312
			c0.171-0.221,0.368-0.421,0.556-0.628c0.138,0.282,0.353,0.555,0.396,0.851c0.086,0.64,0.008,1.306,0.135,1.933
			c0.119,0.601,0.372,1.185,0.979,1.494c-0.001-0.01-0.001-0.02-0.003-0.03c0.058-0.009,0.116-0.014,0.172-0.023
			c0.064-0.067,0.128-0.134,0.193-0.201c-0.032,0.062-0.049,0.151-0.1,0.177c-0.028,0.015-0.062,0.019-0.094,0.024
			c-0.032,0.034-0.065,0.067-0.097,0.101c-0.028-0.013-0.046-0.033-0.073-0.047c0.052,0.417,0.026,0.868,0.187,1.239
			C86.01,19.903,84.79,21.609,83.59,23.284z M86.511,30.607l-0.061-0.193l0.167,0.021L86.511,30.607z M86.239,24.855
			c-0.001,0.027-0.002,0.055-0.003,0.083c-0.019,0-0.034,0.003-0.053,0.004c0.005,0.512,0.146,1.082-0.038,1.513
			c-0.981,2.286-0.915,4.594-0.334,6.938c0.027,0.103,0.129,0.226,0.095,0.298c-0.122,0.282-0.245,0.583-0.448,0.804
			c-0.084,0.091-0.435,0.071-0.549-0.03c-0.229-0.202-0.592-0.572-0.531-0.737c0.884-2.402,0.493-4.881,0.524-7.336
			c0.011-0.794,0.333-1.441,1.281-1.449c0-0.017-0.002-0.034-0.002-0.05C86.204,24.881,86.218,24.866,86.239,24.855
			c0.021-0.595,0.028-1.191,0.077-1.784c0.011-0.13,0.196-0.244,0.302-0.365c0.066,0.186,0.199,0.38,0.182,0.56
			C86.752,23.842,86.876,24.499,86.239,24.855z M90.671,21.595c-0.61,1.156-0.19,2.675-1.217,3.645
			c-0.408,0.386-0.336,1.267-1.195,1.184c-0.044-0.528-0.154-1.062-0.122-1.586c0.051-0.864,0.205-1.723,0.289-2.586
			c0.028-0.294,0.079-0.791-0.059-0.864c-1.288-0.694-0.844-1.83-0.827-2.875c0.021-1.52,0.028-3.04-0.008-4.559
			c-0.015-0.664-0.288-0.711-1.072-0.235c-0.093,0.057-0.16,0.193-0.249,0.205c-0.163,0.02-0.434,0.031-0.484-0.057
			c-0.097-0.166-0.15-0.435-0.084-0.606c0.292-0.752,1.314-1.068,1.282-2.023c-0.027-0.007-0.056-0.012-0.083-0.02
			c-0.042-0.054-0.086-0.106-0.127-0.16c-0.297-0.086-0.594-0.168-0.886-0.273c-0.051-0.019-0.1-0.229-0.063-0.268
			c0.098-0.1,0.334-0.233,0.351-0.212c0.212,0.239,0.404,0.498,0.598,0.753c0.071,0.021,0.141,0.045,0.211,0.066
			c0.005,0.042-0.003,0.075-0.001,0.115c0.39,0.101,0.8,0.165,1.151,0.341c0.389,0.194,0.733,0.548,0.516,1.046
			c-0.674,1.552-0.643,3.182-0.587,4.816c0.021,0.679,0.169,1.293,0.896,1.585c0.895,0.356,1.125,1.285,1.637,1.967
			C90.652,21.147,90.747,21.453,90.671,21.595z M91.157,16.273c-0.082,0.052-0.224,0.149-0.254,0.125
			c-0.226-0.188-0.516-0.364-0.617-0.614c-0.118-0.284-0.061-0.641-0.078-0.936c0.017-0.356,0.025-0.683,0.055-1.007
			c0.01-0.104,0.074-0.204,0.112-0.305c0.121,0.119,0.296,0.219,0.351,0.363c0.192,0.5,0.351,1.015,0.511,1.526
			C91.329,15.715,91.548,16.027,91.157,16.273z M92.775,24.992c-0.057,0.157-0.302,0.246-0.457,0.366
			c-0.089-0.19-0.224-0.373-0.258-0.573c-0.059-0.315-0.046-0.641-0.085-1.321c0.089-0.387,0.209-1.123,0.456-1.815
			c0.072-0.198,0.539-0.412,0.764-0.358c0.23,0.055,0.585,0.477,0.541,0.651C93.477,22.974,93.128,23.986,92.775,24.992z
			 M93.163,14.588c-0.186-0.497-0.264-1.032-0.344-1.371c0.068-0.412,0.093-0.628,0.142-0.837c0.108-0.459,0.962-0.762,1.338-0.494
			c0.777,0.557,1.033,1.35,1.04,2.255c0,0.441-0.546,0.908-1.129,0.995C93.726,15.208,93.328,15.034,93.163,14.588z M95.064,24.049
			c-0.074-0.018-0.171-0.196-0.149-0.264c0.135-0.382,0.289-0.758,0.46-1.124c0.032-0.066,0.178-0.078,0.273-0.115
			c0.063,0.087,0.178,0.169,0.182,0.258C95.859,23.251,95.318,24.117,95.064,24.049z M51.403,62.091
			c-0.254-0.685-1.04-0.934-1.399-1.673c-1.628-3.348-4.279-5.738-7.72-7.073c-2.716-1.055-5.517-2.012-8.325-1.682
			c-0.973,0-1.733-0.022-2.492,0.009c-0.429,0.017-0.911,0.016-1.27,0.208c-1.909,1.027-3.79,2.086-4.944,4.058
			c-1.653,2.82-1.797,2.796-2.165,6.015c-0.655,5.724-0.448,6.246,2.989,10.811c0.326,0.431,0.723,0.813,1.118,1.183
			c3.129,2.905,6.777,4.18,11.035,3.443c0.818-0.142,1.457-0.046,2.038,0.612c0.474,0.54,1.18,0.561,1.814,0.317
			c1.211-0.464,2.364-1.12,3.604-1.478c2.52-0.729,3.966-2.595,5.142-4.697c1.37-2.442,1.879-5.063,1.078-7.843
			C51.695,63.576,51.661,62.794,51.403,62.091z M46.567,68.893c-0.909,0.774-1.757,1.622-2.699,2.345
			c-1.937,1.484-4.211,1.61-6.416,1.466c-0.55,0-0.991-0.053-1.418,0.008c-2.56,0.373-4.35-1.082-6.067-2.607
			c-1.089-0.967-1.695-2.356-1.82-3.733c-0.224-2.482-0.256-5.006,0.579-7.429c0.102-0.298,0.241-0.736,0.468-0.816
			c1.496-0.534,2.634-1.931,4.391-1.834c4.418,0.243,8.187,1.951,11.404,4.967c0.689,0.647,0.846,1.497,1.104,2.317
			c0.29,0.921,0.082,1.969,0.759,2.799C47.596,67.292,47.454,68.134,46.567,68.893z"/>
	</g>
</g>
<g>
</g>
<g>
</g>
<g>
</g>
<g>
</g>
<g>
</g>
<g>
</g>
<g>
</g>
<g>
</g>
<g>
</g>
<g>
</g>
<g>
</g>
<g>
</g>
<g>
</g>
<g>
</g>
<g>
</g>
</svg>
