<?xml version="1.0" encoding="iso-8859-1"?>
<!-- Generator: Adobe Illustrator 19.0.0, SVG Export Plug-In . SVG Version: 6.00 Build 0)  -->
<svg version="1.1" id="Capa_1" xmlns="http://www.w3.org/2000/svg" xmlns:xlink="http://www.w3.org/1999/xlink" x="0px" y="0px"
	 viewBox="0 0 103.09 103.09" style="enable-background:new 0 0 103.09 103.09;" xml:space="preserve">
<g id="_x0A_award02_x0A_">
	<g>
		<path style="fill-rule:evenodd;clip-rule:evenodd;" d="M102.739,14.086c-0.314-1.443-1.104-2.564-2.258-3.456
			c-1.662-1.283-3.605-1.726-5.639-1.839c-3.982-0.22-7.803,0.451-11.43,2.143c-0.639,0.296-1.275,0.596-1.91,0.895
			c-0.273,0.127-0.543,0.345-0.82,0.358c-0.199,0.009-0.611-0.305-0.59-0.384c0.439-1.647,0.949-3.276,1.398-4.922
			c0.238-0.868,0.443-1.753,0.562-2.643c0.166-1.234-0.729-2.661-2.154-2.803c-1.396-0.139-2.783-0.392-4.182-0.46
			c-4.432-0.212-8.838,0.334-13.252,0.549c-0.5,0.024-0.992,0.155-1.49,0.225c-0.992,0.139-1.984,0.337-2.983,0.389
			c-4.514,0.234-9.033,0.425-13.547,0.63c-0.604,0.027-1.221-0.019-1.809,0.086c-2.895,0.518-5.812,0.387-8.729,0.308
			C31.7,3.254,29.487,3.326,27.28,3.457c-0.59,0.034-1.178,0.219-1.752,0.389c-0.535,0.159-0.836,0.599-0.834,1.128
			c0.006,0.903,0.025,1.818,0.184,2.704c0.211,1.184,0.57,2.339,0.836,3.513c0.031,0.142-0.115,0.34-0.217,0.484
			c-0.035,0.05-0.209,0.052-0.287,0.012c-1.078-0.535-2.137-1.103-3.223-1.621c-1.359-0.649-2.721-1.352-4.27-1.376
			c-2.414-0.039-4.828-0.007-7.24-0.012C9.438,8.677,8.468,8.977,7.612,9.51c-4.451,2.768-7.264,6.633-7.533,11.987
			c-0.154,3.01-0.043,6.034,0.004,9.051c0.012,0.793,0.184,1.593,0.356,2.373c0.797,3.595,2.779,6.426,5.703,8.607
			c1.291,0.961,2.629,1.857,3.957,2.762c3.07,2.088,6.377,3.849,9.023,6.527c0.275,0.28,0.656,0.463,1.006,0.661
			c2.092,1.185,3.447,3.063,4.623,5.065c0.5,0.853,0.814,1.835,1.092,2.793c0.271,0.93-0.27,1.997-1.146,2.584
			c-1.092,0.732-2.113,0.683-3.369-0.129c-0.902-0.584-1.047-1.406-0.799-2.368c0.074-0.292,0.176-0.579,0.234-0.873
			c0.205-1.044-0.604-2.089-1.637-1.982c-1.572,0.163-2.774,1.071-3.817,2.193c-0.123,0.13-0.141,0.372-0.172,0.567
			c-0.482,3.033,1.504,6.408,4.723,7.071c2.697,0.557,5.213,0.039,7.475-1.459c1.496-0.991,2.387-2.417,2.268-4.333
			c-0.035-0.596,0.053-1.203,0.113-1.801c0.031-0.33,0.633-0.635,0.949-0.516c0.094,0.035,0.211,0.027,0.287,0.08
			c3.228,2.214,6.461,4.422,9.662,6.673c0.277,0.195,0.463,0.676,0.492,1.04c0.047,0.592-0.049,1.201-0.119,1.797
			c-0.148,1.265,0.248,2.375,0.889,3.435c0.904,1.49,2.078,2.715,3.582,3.594c0.602,0.352,1.279,0.578,1.922,0.858
			c0.791,0.342,1.273,0.941,1.537,1.752c0.537,1.645,0.768,3.326,0.635,5.052c-0.086,1.138-0.525,1.667-1.688,1.689
			c-2.184,0.041-4.156,0.698-5.951,1.875c-1.51,0.991-2.889,2.195-4.438,3.114c-2.355,1.399-4.371,3.184-6.307,5.086
			c-0.725,0.711-0.848,1.399-0.219,2.114c0.523,0.595,1.127,1.151,1.787,1.586c1.439,0.953,3.061,1.503,4.752,1.823
			c4.832,0.916,9.65,1.912,14.613,1.859c1.18-0.014,2.367,0.453,3.551,0.445c1.285-0.009,2.566-0.313,3.85-0.487
			c1.191-0.161,2.402-0.236,3.572-0.494c3.818-0.84,7.631-1.719,11.432-2.642c1.066-0.26,2.105-0.652,2.941-1.453
			c1.164-1.114,1.266-1.777,0.363-3.128c-0.504-0.753-1.006-1.481-1.832-1.958c-2.705-1.558-5.287-3.294-7.568-5.451
			c-0.508-0.479-1.152-0.809-1.715-1.229c-1.479-1.1-3.004-1.998-4.977-1.756c-0.623,0.077-1.188-0.473-1.215-1.106
			c-0.08-1.806-0.127-3.615-0.115-5.422c0.008-0.983,0.606-1.687,1.41-2.188c0.424-0.263,0.883-0.485,1.352-0.662
			c1.926-0.727,3.471-1.996,4.924-3.405c1.475-1.432,2.271-3.033,1.443-5.132c-0.328-0.836-0.055-1.52,0.691-2.098
			c1.748-1.355,3.455-2.764,5.158-4.175c0.844-0.698,1.643-1.451,2.463-2.18c1.297,0.474,1.223,1.966,2.065,2.779
			c0.07,0.069,0.115,0.163,0.176,0.245c1.068,1.464,2.449,2.358,4.322,2.335c1.006-0.012,2.014,0.009,3.016-0.062
			c1.389-0.099,2.459-0.795,3.248-1.935c1.219-1.759,1.557-3.728,1.08-5.76c-0.461-1.964-1.725-3.385-3.617-4.166
			c-0.992-0.409-1.959-0.294-2.879,0.287c-0.783,0.495-1.025,1.691-0.396,2.355c0.338,0.358,0.865,0.552,1.158,0.934
			c0.418,0.543,0.795,1.157,1.012,1.801c0.273,0.816-0.188,1.762-0.84,2.062c-0.719,0.331-1.709,0.208-2.254-0.33
			c-0.281-0.277-0.52-0.608-0.732-0.943c-0.951-1.502-1.109-3.181-1.176-4.915c-0.094-2.569,0.693-4.689,2.562-6.502
			c2.311-2.239,4.523-4.58,6.725-6.929c1.787-1.905,3.576-3.821,5.223-5.847c3.148-3.874,5.377-8.192,6.342-13.166
			C103.225,17.59,103.13,15.864,102.739,14.086z M18.038,13.597c0.934,0.358,1.857,0.756,2.746,1.215
			c1.867,0.963,3.601,2.186,5.719,2.641c0.412,0.088,0.93,0.569,1.047,0.972c0.391,1.34,0.619,2.727,0.893,4.009
			c-0.174,0.251-0.26,0.413-0.387,0.533c-0.041,0.039-0.223,0-0.279-0.06c-0.482-0.509-1.01-0.989-1.41-1.556
			c-1.482-2.089-3.44-3.645-5.535-5.048c-1.084-0.726-2.193-1.419-3.281-2.141c-0.141-0.094-0.227-0.271-0.338-0.409
			C17.491,13.692,17.815,13.512,18.038,13.597z M28.514,31.977c-0.109,0.793-0.152,1.604-0.338,2.378
			c-1.01,4.197-2.006,8.394-2.299,12.722c-0.033,0.49-0.211,0.979-0.395,1.442c-0.096,0.248-0.309,0.586-0.666,0.298
			c-0.939-0.755-1.906-1.484-2.777-2.314c-2.123-2.022-4.441-3.77-6.957-5.269c-1.297-0.771-2.549-1.613-3.815-2.437
			c-1.029-0.671-1.838-1.542-2.412-2.643c-1.398-2.684-2.644-5.417-3.006-8.469c-0.324-2.739,0.053-5.411,0.936-7.987
			c0.496-1.452,1.537-2.566,2.986-3.234c1.358-0.624,2.617-0.625,4.031,0.046c4.572,2.167,8.283,5.265,11.076,9.493
			c0.66,1,1.424,1.963,2.293,2.785C28.122,29.689,28.704,30.634,28.514,31.977z M61.432,87.726c0.818-0.088,1.625-0.041,2.283,0.507
			c2.07,1.729,4.127,3.478,6.18,5.23c0.289,0.248,0.188,0.837-0.137,1.036c-0.17,0.105-0.33,0.243-0.516,0.304
			c-3.137,1.018-6.269,2.065-9.609,2.175c-1.801,0.059-3.617-0.034-5.402,0.171c-1.314,0.151-2.379,0.307-2.643-1.394
			c-0.094-0.592-1.184-0.535-1.039-1.216c0.086-0.42,0.641-0.729,0.941-1.122c0.48-0.636,0.416-1.402-0.232-1.837
			c-0.479-0.321-1.047-0.586-1.609-0.683c-0.781-0.134-1.596-0.076-2.394-0.133c-0.111-0.008-0.211-0.202-0.316-0.311
			c0.078-0.061,0.152-0.174,0.234-0.179c1.412-0.089,2.771-0.302,3.938-1.224c0.297-0.234,0.736-0.317,1.127-0.396
			c1.469-0.292,2.934-0.592,4.414-0.81c0.686-0.101,1.395-0.018,2.094-0.018c0.004,0.061,0.008,0.121,0.012,0.181
			C59.649,87.915,60.54,87.822,61.432,87.726z M50.389,69.105c-0.018-0.204,0.246-0.546,0.455-0.622
			c0.225-0.083,0.729,0.004,0.775,0.137c0.291,0.811,0.484,1.654,0.701,2.448c-0.156,0.124-0.223,0.212-0.307,0.235
			c-0.09,0.024-0.209,0.01-0.291-0.033C50.839,70.824,50.466,70.032,50.389,69.105z M53.69,76.597
			c0.5-0.195,1.143-0.108,1.705-0.027c0.221,0.032,0.479,0.361,0.564,0.607c0.127,0.362,0.121,0.773,0.141,0.947
			c-0.178,1.899-0.316,3.58-0.512,5.253c-0.025,0.235-0.291,0.479-0.5,0.646c-0.223,0.177-0.852-0.18-0.922-0.54
			c-0.113-0.578-0.188-1.163-0.248-1.749c-0.129-1.282-0.219-2.567-0.371-3.845C53.491,77.423,53.083,76.833,53.69,76.597z
			 M65.915,67.529c-1.699,1.59-3.721,2.629-5.912,3.354c-0.377,0.123-0.791,0.138-1.158,0.282c-1.479,0.581-1.953-0.113-2.094-1.521
			c-0.045-0.455,0.17-0.887,0.553-0.935c2.295-0.292,4.4-1.208,6.574-1.904c0.465-0.149,0.973-0.178,1.328-0.238
			c0.238,0.055,0.346,0.058,0.43,0.104c0.166,0.09,0.414,0.176,0.455,0.315C66.138,67.14,66.042,67.41,65.915,67.529z M76.188,49.5
			c-0.104,1.133-0.553,2.138-1.166,3.065c-0.211,0.315-0.549,0.566-0.875,0.773c-1.182,0.75-2.387,1.459-3.572,2.203
			c-1.531,0.96-3.047,1.947-4.58,2.907c-1.457,0.915-2.984,1.484-4.762,1.674c-2.279,0.243-4.52,0.89-6.764,1.424
			c-1.021,0.243-1.934,0.103-2.936-0.197c-2.795-0.834-5.576-1.655-8.135-3.117c-1.764-1.008-3.309-2.289-4.775-3.655
			c-1.104-1.028-1.955-2.294-2.504-3.728c-0.24-0.625-0.854-1.268-0.238-1.922c0.479-0.512,1.137-0.139,1.705-0.014
			c1.625,0.358,3.197,0.076,4.758-0.36c0.77-0.214,1.195-0.758,1.252-1.509c0.057-0.75-0.34-1.28-1.123-1.564
			c-1.055-0.382-2.143-0.473-3.26-0.504c-1.096-0.03-2.199-0.156-3.283-0.324c-0.527-0.082-0.855-0.501-0.883-1.07
			c-0.02-0.4-0.025-0.804-0.004-1.205c0.102-1.838,0.342-2.074,2.107-2.149c0.902-0.039,1.811-0.057,2.705-0.16
			c0.619-0.072,1.154-0.413,1.412-1.002c0.094-0.211,0.037-0.661-0.117-0.771c-0.389-0.283-0.855-0.534-1.324-0.62
			c-0.986-0.182-1.986-0.284-2.988-0.356c-1.137-0.081-1.287-0.573-1.238-1.605c0.033-0.666,0.367-1.018,0.912-0.848
			c1.469,0.46,2.977,0.472,4.482,0.407c1.16-0.05,2.129-0.522,2.717-1.601c0.268-0.492,0.32-1.016-0.07-1.395
			c-0.49-0.475-1.045-0.944-1.66-1.217c-1.119-0.493-2.346-0.504-3.559-0.514c-0.701-0.005-1.406-0.03-2.105-0.087
			c-0.172-0.014-0.404-0.144-0.486-0.29c-0.42-0.74-0.344-1.522-0.061-2.282c0.047-0.124,0.334-0.258,0.477-0.229
			c0.588,0.121,1.162,0.303,1.738,0.461c1.391,0.351,2.766,0.482,4.152-0.033c0.857-0.319,1.324-0.911,1.334-1.792
			c0.008-0.969-0.576-1.725-1.594-1.885c-1.387-0.219-2.785-0.355-4.182-0.524c-0.498-0.06-1.008-0.073-1.494-0.177
			c-0.639-0.136-1.047-0.524-1.166-1.208c-0.277-1.581-0.578-3.156-0.877-4.733c-0.395-2.088-1.119-4.055-2.145-5.92
			c-0.58-1.056-1.105-2.144-1.609-3.238c-0.451-0.978-0.076-1.638,0.926-1.647c1.006-0.009,2.018-0.021,3.014,0.091
			c1.594,0.179,3.17,0.525,4.764,0.678c1.594,0.152,3.234,0.395,4.793,0.175c3.51-0.495,7.027-0.26,10.537-0.458
			c2.102-0.119,4.207-0.25,6.311-0.362c1.605-0.085,3.213-0.142,4.82-0.224c2.605-0.133,5.209-0.324,7.816-0.399
			c2.793-0.081,2.992,0.2,2.432,2.893c-0.061,0.294-0.232,0.589-0.215,0.873c0.215,3.18-1.053,6.108-1.527,9.169
			c-0.123,0.792-0.297,1.586-0.314,2.382c-0.08,3.719-0.119,7.44-0.164,11.159c-0.025,2.228,0.404,4.392,0.975,6.532
			c0.438,1.648,0.902,3.288,1.334,4.936C76.347,46.084,76.345,47.788,76.188,49.5z M91.141,11.345
			c0.08-0.035,0.203-0.047,0.275-0.009c0.895,0.471,1.049,1.177,0.406,1.837c-0.062,0.065-0.172,0.087-0.258,0.128
			c-0.068-0.039-0.18-0.065-0.195-0.12c-0.154-0.544-0.299-1.092-0.426-1.642C90.93,11.488,91.059,11.38,91.141,11.345z
			 M85.462,13.807c0.23-0.893,1.15-1.019,1.85-1.36c0.389-0.189,0.818,0.103,0.809,0.514c-0.002,0.1,0,0.199,0,0.165
			c-0.162,1.964-0.656,2.558-2.451,3.022c-0.105,0.027-0.385-0.184-0.381-0.277C85.309,15.18,85.292,14.468,85.462,13.807z
			 M78.659,17.355c0.18-0.991,0.963-1.472,1.865-1.739c0.094-0.028,0.375,0.187,0.381,0.302c0.039,0.595,0.02,1.192,0.02,1.789
			c-0.021,0.001-0.041,0.001-0.061,0.002c0.029,0.399,0.049,0.799,0.088,1.196c0.053,0.535-0.1,0.994-0.518,1.328
			c-0.625,0.5-1.27,0.974-1.908,1.451c-0.064,0.048-0.191,0.081-0.252,0.049c-0.078-0.042-0.174-0.164-0.164-0.238
			C78.278,20.112,78.417,18.723,78.659,17.355z M97.53,20.679c-1.277,4-3.5,7.459-6.297,10.528
			c-3.182,3.492-6.494,6.865-9.758,10.285c-0.135,0.141-0.328,0.314-0.494,0.314c-0.264-0.001-0.674-0.059-0.76-0.227
			c-0.318-0.616-0.553-1.281-0.773-1.942c-0.955-2.869-1.793-5.761-1.568-8.339c0-1.106,0.004-1.709,0-2.312
			c-0.01-1.521,0.305-2.767,2.086-3.193c0.635-0.152,1.174-0.73,1.738-1.142c1.379-1.007,2.725-2.061,4.127-3.038
			c1.404-0.979,2.896-1.771,4.6-2.172c0.965-0.227,1.854-0.76,2.797-1.105c0.652-0.24,1.326-0.492,2.01-0.571
			C97.77,17.471,98.323,18.198,97.53,20.679z M68.132,13.243c-0.189-0.066-0.383-0.144-0.578-0.155
			c-1.807-0.108-3.607-0.138-5.357,0.444c-0.672,0.223-1.141,0.743-1.107,1.257c0.047,0.687,0.504,1.083,1.072,1.317
			c0.455,0.188,0.953,0.32,1.443,0.362c0.695,0.06,1.4,0.016,2.101,0.016v0.068c0.502,0,1.004,0.002,1.504-0.002
			c0.201-0.002,0.402-0.008,0.6-0.032c0.863-0.109,1.608-0.766,1.684-1.478C69.565,14.387,68.909,13.516,68.132,13.243z
			 M68.513,18.397c-0.688-0.024-1.377,0.047-2.064,0.083c0,0.005,0,0.01,0.002,0.017c-0.881,0.048-1.758,0.092-2.637,0.15
			c-0.246,0.016-0.439,0.486-0.293,0.696c0.107,0.159,0.203,0.387,0.357,0.447c1.744,0.682,3.445,0.698,5.023-0.453
			c0.133-0.099,0.275-0.425,0.219-0.504C68.979,18.637,68.727,18.404,68.513,18.397z"/>
	</g>
</g>
<g>
</g>
<g>
</g>
<g>
</g>
<g>
</g>
<g>
</g>
<g>
</g>
<g>
</g>
<g>
</g>
<g>
</g>
<g>
</g>
<g>
</g>
<g>
</g>
<g>
</g>
<g>
</g>
<g>
</g>
</svg>
