<?xml version="1.0" encoding="iso-8859-1"?>
<!-- Generator: Adobe Illustrator 19.0.0, SVG Export Plug-In . SVG Version: 6.00 Build 0)  -->
<svg version="1.1" id="Capa_1" xmlns="http://www.w3.org/2000/svg" xmlns:xlink="http://www.w3.org/1999/xlink" x="0px" y="0px"
	 viewBox="0 0 112 112" style="enable-background:new 0 0 112 112;" xml:space="preserve">
<g id="_x0A_currencies">
	<g>
		<path style="fill-rule:evenodd;clip-rule:evenodd;" d="M96.14,37.806c-0.782,0.205-1.53,0.552-2.281,0.87
			c-1.314,0.562-2.604,1.175-3.927,1.717c-2.487,1.018-5.073,1.596-7.769,1.348c-2.55-0.23-5.054-0.769-7.376-1.878
			c-1.001-0.476-1.902-1.175-2.803-1.836c-0.606-0.447-0.542-0.87,0.1-1.078c0.678-0.218,1.375-0.371,2.056-0.583
			c1.849-0.574,3.69-1.171,5.541-1.745c0.701-0.218,0.936-0.711,0.928-1.388c-0.006-0.411,0.014-0.82-0.002-1.229
			c-0.04-1.018-0.432-1.491-1.43-1.656c-1.529-0.256-3.052-0.211-4.545,0.248c-1.169,0.359-2.321,0.778-3.498,1.114
			c-1.076,0.308-2.166,0.59-3.271,0.769c-0.323,0.053-0.761-0.221-1.055-0.459c-0.338-0.274-0.208-0.935,0.151-1.392
			c0.733-0.923,1.664-1.432,2.844-1.628c1.91-0.322,3.802-0.749,5.698-1.15c0.594-0.127,1.18-0.296,1.757-0.488
			c1.111-0.363,1.577-1.217,1.677-2.323c0.089-1.001-0.481-1.916-1.443-2.031c-1.313-0.155-2.644-0.161-3.968-0.23
			c-0.001,0.042-0.002,0.084-0.004,0.125c-1.324,0-2.646,0.008-3.972-0.008c-0.35-0.004-0.743-0.608-0.595-0.907
			c0.402-0.82,0.773-1.659,1.269-2.422c1.674-2.581,4.161-4.144,6.92-5.323c1.317-0.564,6.549-1.225,7.85-0.961
			c0.795,0.161,1.564,0.462,2.343,0.709c0.681,0.216,1.344,0.498,2.037,0.659c2.372,0.546,3.331-0.376,2.845-2.736
			c-0.213-1.03-0.759-1.874-1.658-2.474c-1.989-1.328-4.157-2.216-6.545-2.378c-1.829-0.125-3.674-0.016-5.51-0.068
			c-1.365-0.036-2.635,0.352-3.87,0.824c-3.812,1.453-6.965,3.761-9.342,7.14c-1.949,2.771-3.676,5.654-4.951,8.787
			c-0.625,1.537-1.64,2.528-3.264,2.913c-0.693,0.163-1.382,0.373-2.041,0.641c-1.035,0.423-2.082,0.846-3.048,1.4
			c-0.502,0.288-0.901,0.818-1.241,1.312c-0.479,0.701-0.038,1.775,0.798,1.95c0.691,0.145,1.416,0.248,2.117,0.21
			c1.524-0.083,3.045-0.27,4.565-0.421c0.611-0.063,0.924,0.151,1.079,0.794c0.094,0.395,0.173,0.798,0.248,1.199
			c0.311,1.616,0.286,1.66-1.223,2.2c-0.96,0.343-1.938,0.645-2.877,1.038c-0.651,0.27-1.298,0.598-1.864,1.011
			c-0.809,0.592-0.811,1.632-0.123,2.432c0.502,0.582,1.131,0.822,1.886,0.86c1.671,0.077,3.211-0.499,4.773-0.949
			c1.265-0.367,2.329-0.27,3.345,0.754c2.48,2.498,5.458,4.285,8.698,5.607c4.887,1.996,9.884,3.212,15.207,2.015
			c3.438-0.772,6.589-2.103,9.335-4.364c1.276-1.05,1.82-2.46,2.12-3.961C99.172,38.682,97.767,37.377,96.14,37.806z M16.926,52.256
			c1.706,0.298,3.431,0.489,5.147,0.723c0.893,0.121,1.266,0.48,1.312,1.376c0.06,1.225,0.069,2.452,0.119,3.675
			c0.039,0.935,0.259,1.824,0.873,2.561c0.119,0.143,0.365,0.32,0.498,0.284c0.265-0.071,0.651-0.24,0.704-0.44
			c0.36-1.374,0.672-2.76,0.95-4.154c0.157-0.796,0.155-1.628,0.343-2.416c0.309-1.298,0.793-1.6,2.215-1.566
			c0.796,0.019,1.161,0.326,1.193,1.058c0.047,1.022,0.041,2.047,0.097,3.065c0.058,1.032,0.325,2.017,0.945,2.865
			c0.111,0.153,0.337,0.32,0.496,0.306c0.155-0.01,0.353-0.221,0.427-0.385c0.201-0.467,0.408-0.939,0.501-1.432
			c0.321-1.701,0.606-3.409,0.881-5.12c0.203-1.269,0.594-2.295,2.057-2.661c0.766-0.188,1.481-0.681,2.144-1.147
			c0.745-0.522,1.612-1.039,2.067-1.779c1.834-2.979,2.553-6.208,1.501-9.648c-1.019-3.324-2.683-6.181-6.038-7.68
			c-0.66-0.293-0.806-0.814-0.84-1.473c-0.194-3.776,0.765-7.507,0.457-11.291c-0.017-0.199,0.331-0.576,0.556-0.617
			c0.697-0.136,1.413-0.164,2.124-0.199c0.851-0.044,1.583-0.359,2.244-0.879c0.719-0.564,0.975-1.311,0.762-2.176
			c-0.418-1.702-1.467-2.9-3.079-3.568c-0.751-0.311-1.564-0.474-2.318-0.782c-0.229-0.093-0.485-0.433-0.501-0.675
			c-0.071-1.019-0.052-2.043-0.072-3.063c-0.029-1.428-0.055-2.853-0.112-4.279c-0.004-0.099-0.258-0.212-0.413-0.274
			c-0.069-0.026-0.211,0.036-0.273,0.101c-0.646,0.695-0.989,1.533-1.134,2.458c-0.205,1.307-0.368,2.623-0.604,3.923
			c-0.146,0.792-0.349,1.582-0.606,2.345c-0.216,0.637-0.806,0.881-1.409,1.066c-0.744,0.226-1.554-0.208-1.594-0.957
			c-0.09-1.632-0.096-3.268-0.15-4.9c-0.039-1.12-0.071-2.244-0.17-3.361c-0.047-0.534-0.41-0.933-0.921-1.122
			c-0.141-0.054-0.479,0.026-0.492,0.089c-0.257,1.294-0.562,2.587-0.684,3.894c-0.141,1.525-0.196,3.065-0.135,4.596
			c0.063,1.537-0.64,2.446-1.912,3.167c-1.595,0.908-3.156,1.886-4.663,2.933c-3.052,2.121-4.508,5.174-4.969,8.784
			c-0.154,1.197,0.148,2.235,0.952,3.109c0.621,0.675,1.244,1.372,1.973,1.918c1.143,0.856,2.375,1.588,3.566,2.376
			c1.021,0.677,2.064,1.322,3.035,2.061c0.254,0.194,0.397,0.695,0.384,1.048c-0.088,2.134-0.288,4.271-0.346,6.409
			c-0.044,1.652-0.276,3.258-0.816,4.801c-0.429,1.221-1.044,1.827-2.571,1.45c-0.98-0.245-2.008-0.302-2.293-0.342
			c-2.502-0.006-3.189,0.123-3.999,0.604c-0.841,0.5-1.2,1.454-0.938,2.363C13.913,51.063,15.198,51.956,16.926,52.256z
			 M34.645,37.492c0.008-0.089,0.092-0.216,0.167-0.24c0.074-0.023,0.208,0.034,0.276,0.098c1.584,1.511,1.675,3.712,0.208,5.388
			c-0.095,0.105-0.342,0.102-0.519,0.102c-0.06,0-0.145-0.145-0.17-0.238c-0.055-0.189-0.105-0.389-0.109-0.59
			c-0.015-0.604-0.005-1.211-0.005-1.819c-0.023,0-0.047-0.004-0.071-0.006C34.495,39.289,34.562,38.388,34.645,37.492z
			 M28.449,23.211c0.198-2.115,0.452-4.223,0.715-6.331c0.057-0.453,0.439-0.661,0.871-0.665c0.439-0.006,0.814,0.208,0.827,0.679
			c0.035,1.213,0.011,2.43,0.011,3.647c0.044,2.235-0.104,4.455-0.611,6.641c-0.052,0.227-0.359,0.532-0.567,0.548
			c-0.238,0.016-0.601-0.186-0.728-0.401c-0.251-0.423-0.488-0.909-0.529-1.386C28.361,25.038,28.364,24.115,28.449,23.211z
			 M27.304,43.731c0.518-2.815,0.488-5.662,0.621-8.501c0.008-0.203-0.002-0.421,0.073-0.6c0.074-0.168,0.247-0.409,0.379-0.411
			c0.278-0.006,0.642,0.04,0.827,0.217c0.685,0.652,1.022,1.518,1.082,2.445c0.064,1.009,0.015,2.029,0.015,3.044
			c0.066,0.008,0.132,0.014,0.198,0.02c-0.235,1.603-0.489,3.205-0.7,4.809c-0.133,1.027-0.897,1.257-1.703,1.456
			c-0.389,0.095-0.83-0.248-0.836-0.653C27.253,44.946,27.194,44.32,27.304,43.731z M24.286,25.838
			c-0.579,0.104-1.345-0.375-1.909-0.764c-0.656-0.451-1.216-1.06-1.761-1.654c-0.537-0.586-0.525-0.933-0.06-1.61
			c0.985-1.421,2.044-2.777,3.415-3.856c0.409-0.322,1.078-0.123,1.195,0.397c0.155,0.685,0.244,1.382,0.369,2.118
			c-0.224,1.182-0.425,2.379-0.688,3.562C24.708,24.665,25.182,25.675,24.286,25.838z M91.487,101.399
			c-0.754-0.47-1.518-0.598-2.325-0.226c-0.555,0.256-1.117,0.522-1.613,0.872c-1.203,0.854-2.412,0.838-3.771,0.355
			c-2.307-0.816-4.686-1.424-6.986-2.252c-4.189-1.505-3.514-0.828-3.563-4.813c-0.019-1.427,0.006-2.857,0.067-4.286
			c0.038-0.83,0.487-1.352,1.278-1.501c0.696-0.131,1.412-0.167,2.123-0.217c0.813-0.058,1.632-0.067,2.445-0.133
			c0.779-0.062,1.312-0.49,1.653-1.189c0.57-1.171,0.438-2.154-0.437-3.093c-0.862-0.929-1.909-1.544-3.158-1.749
			c-0.703-0.113-1.424-0.109-2.135-0.169c-0.813-0.065-1.122-0.359-1.063-1.129c0.177-2.339,0.289-4.692,0.615-7.013
			c0.227-1.604,0.724-3.177,1.594-4.598c0.549-0.893,1.239-1.604,2.169-2.101c2.32-1.239,5.118-0.449,6.242,1.878
			c0.574,1.187,0.929,2.479,1.415,3.711c0.336,0.85,0.651,1.724,1.116,2.499c0.538,0.899,1.372,1.523,2.466,1.585
			c0.627,0.036,1.404-1.213,1.458-2.481c0.047-1.114,0.106-2.292-0.184-3.346c-0.618-2.251-1.363-4.447-2.72-6.438
			c-2.108-3.096-5.229-3.81-8.549-3.749c-1.895,0.034-3.755,0.874-5.476,1.816c-2.254,1.239-3.777,3.05-4.546,5.514
			c-0.67,2.15-1.131,4.332-1.262,6.581c-0.136,2.353-0.603,4.648-1.278,6.897c-0.315,1.052-0.784,1.324-2.067,1.278
			c-1.469-0.049-2.85,0.249-4.089,1.011c-1.106,0.681-1.823,1.688-1.658,3.046c0.172,1.403,1.257,2.343,2.681,2.496
			c0.305,0.034,0.617,0.01,0.917,0.062c1.167,0.198,2.422-0.471,3.528,0.347c0.047,1.215,0.115,2.432,0.133,3.647
			c0.013,0.816-0.024,1.634-0.073,2.452c-0.078,1.269-0.363,1.747-1.562,1.864c-1.593,0.155-2.966,0.667-4.116,1.765
			c-2.029,1.932-3.135,4.253-2.845,7.1c0.131,1.279,0.76,2.285,1.909,2.97c1.625,0.973,3.307,0.953,4.999,0.333
			c1.768-0.647,3.207-1.84,4.402-3.242c1.351-1.579,2.833-1.779,4.632-0.995c0.556,0.242,1.164,0.377,1.753,0.534
			c3.058,0.818,6.132,1.552,9.487,1.537c1.48,0.077,3.104,0.03,4.646-0.657c1.621-0.723,2.698-1.815,2.603-3.732
			c-0.029-0.612-0.021-1.227-0.056-1.839C92.258,102.054,91.959,101.693,91.487,101.399z M45.929,61.401
			c-1.555-0.878-3.244-0.514-4.338,0.945c-0.306,0.407-0.558,0.856-0.845,1.279c-2.754,4.054-5.495,8.116-8.273,12.155
			c-1.042,1.513-2.157,2.976-3.266,4.443c-0.454,0.602-0.999,0.546-1.495-0.095c-0.189-0.242-0.357-0.499-0.532-0.749
			c-1.811-2.601-3.58-5.229-5.444-7.791c-1.197-1.648-2.514-3.21-3.812-4.783c-0.595-0.721-1.364-1.225-2.294-1.449
			c-0.981-0.24-1.851,0.183-2.274,1.088c-0.276,0.59-0.34,1.193-0.051,1.773c0.408,0.822,0.82,1.652,1.322,2.416
			c2.578,3.923,5.19,7.827,7.779,11.742c1.128,1.705,2.239,3.419,3.345,5.136c0.445,0.693,0.224,1.026-0.692,1.135
			c-1.717,0.213-3.438,0.399-5.147,0.668c-1.451,0.226-2.593,1.199-2.361,1.969c0.345,1.14,1.312,1.479,2.373,1.622
			c1.616,0.221,3.233,0.427,4.849,0.655c0.398,0.056,0.826,0.097,1.175,0.276c0.234,0.121,0.5,0.479,0.483,0.713
			c-0.024,0.367-0.182,0.915-0.445,1.04c-0.528,0.252-1.166,0.357-1.759,0.365c-1.348,0.018-2.657,0.23-3.898,0.715
			c-0.894,0.352-1.53,1.019-1.607,2.061c-0.06,0.804,0.594,1.656,1.626,1.986c0.576,0.185,1.195,0.274,1.801,0.321
			c0.608,0.044,1.225-0.024,1.839-0.024c2.31-0.008,2.428,0.131,2.183,2.365c-0.155,1.415-0.067,2.865-0.642,4.223
			c-0.113,0.27-0.085,0.605-0.097,0.911c-0.058,1.801,1.113,3.238,2.805,3.453c1.933,0.24,3.559-0.788,3.878-2.609
			c0.425-2.408,0.736-4.836,1.076-7.258c0.135-0.965,0.342-1.193,1.36-1.233c0.714-0.026,1.431-0.014,2.145-0.03
			c1.126-0.024,2.255,0.004,3.373-0.096c1.372-0.121,2.371-1.28,2.454-2.704c0.078-1.332-0.965-2.6-2.36-2.714
			c-1.117-0.087-2.246-0.016-3.369-0.016c0,0.002-0.001,0.008-0.001,0.008c-0.92,0-1.84,0.012-2.759-0.004
			c-0.915-0.012-1.253-0.284-1.245-0.957c0.009-0.622,0.364-0.893,0.942-0.973c1.212-0.166,2.419-0.444,3.636-0.502
			c1.37-0.063,2.304-0.75,3.072-1.757c0.609-0.8,0.429-2.144-0.351-2.788c-0.812-0.669-1.725-1.112-2.814-0.975
			c-1.314,0.167-2.623,0.387-3.938,0.53c-0.265,0.03-0.657-0.091-0.803-0.286c-0.127-0.171-0.093-0.61,0.047-0.806
			c1.175-1.672,2.357-3.337,3.598-4.96c3.544-4.628,6.771-9.475,9.986-14.331c0.394-0.596,0.79-1.203,1.081-1.852
			C47.977,64.022,47.398,62.227,45.929,61.401z"/>
	</g>
</g>
<g>
</g>
<g>
</g>
<g>
</g>
<g>
</g>
<g>
</g>
<g>
</g>
<g>
</g>
<g>
</g>
<g>
</g>
<g>
</g>
<g>
</g>
<g>
</g>
<g>
</g>
<g>
</g>
<g>
</g>
</svg>
