<?xml version="1.0" encoding="iso-8859-1"?>
<!-- Generator: Adobe Illustrator 19.0.0, SVG Export Plug-In . SVG Version: 6.00 Build 0)  -->
<svg version="1.1" id="Capa_1" xmlns="http://www.w3.org/2000/svg" xmlns:xlink="http://www.w3.org/1999/xlink" x="0px" y="0px"
	 viewBox="0 0 112.346 112.346" style="enable-background:new 0 0 112.346 112.346;" xml:space="preserve">
<g id="_x0A_factory_x0A_">
	<g>
		<path style="fill-rule:evenodd;clip-rule:evenodd;" d="M111.313,104.749c-0.494-0.291-1.121-0.47-1.693-0.491
			c-1.707-0.062-3.418-0.012-5.127-0.027c-0.498-0.004-1.01-0.019-1.486-0.143c-0.24-0.062-0.531-0.348-0.598-0.588
			c-0.133-0.473-0.166-0.985-0.168-1.481c-0.014-5.934-0.023-11.868-0.01-17.802c0.002-0.799,0.156-1.598,0.184-2.398
			c0.115-3.515,0.254-7.031,0.291-10.547c0.018-1.524-0.752-2.369-2.281-2.756c-0.676-0.172-1.389-0.192-2.082-0.293
			c-0.567-0.082-0.885-0.414-0.93-0.992c-0.021-0.301-0.031-0.604-0.064-0.902c-0.256-2.311-0.746-2.811-2.953-2.888
			c-1.211-0.043-2.371-0.243-3.557-0.527c-1.244-0.298-2.588-0.276-3.883-0.241c-1.266,0.033-1.928,1.063-1.619,2.338
			c0.115,0.482,0.352,0.936,0.494,1.415c0.119,0.391-0.195,0.901-0.566,0.907c-1.709,0.027-3.418,0.042-5.125,0.033
			c-0.553-0.003-0.9-0.383-0.912-0.973c-0.027-1.509-0.02-3.018-0.043-4.525c-0.023-1.617-0.582-2.201-2.342-2.624
			c-0.479-0.114-1.006-0.11-1.502-0.064c-1.996,0.184-4.029,0.235-5.977,0.661c-1.795,0.393-3.572,0.475-5.381,0.525
			c-4.012,0.115-8.023,0.277-12.035,0.422c-0.102,0.004-0.201,0.013-0.301,0.023c-1.506,0.158-2.189,0.949-2.025,2.396
			c0.057,0.497,0.223,0.98,0.291,1.476c0.053,0.393,0.074,0.798,0.035,1.19c-0.094,0.959-0.596,1.421-1.568,1.454
			c-1.607,0.057-3.217,0.085-4.826,0.141c-1.791,0.061-1.912,0.072-2.34-1.93c-0.084-0.389-0.084-0.8-0.086-1.201
			c-0.014-5.357-1.049-10.578-2.18-15.778c-1.279-5.878-2.664-11.732-3.975-17.604c-0.338-1.521-1.23-2.786-3.393-2.707
			c-2.52,0.091-4.982,0.528-7.428,1.095c-0.294,0.068-0.596,0.129-0.867,0.25c-0.775,0.346-1.352,0.914-1.484,1.77
			c-0.215,1.383-0.42,2.773-0.514,4.168c-0.137,2.105-0.125,4.222-0.26,6.328c-0.307,4.809-0.672,9.615-1,14.422
			c-0.254,3.708-0.49,7.416-0.736,11.125c-0.008,0.1-0.014,0.2-0.024,0.301c-0.092,0.753-0.398,1.09-1.137,1.135
			c-2.305,0.139-4.609,0.264-6.918,0.378c-1.006,0.05-1.994,0.093-2.932,0.565C7.237,70.312,6.743,71.1,6.93,72.176
			c0.035,0.197,0.123,0.385,0.168,0.579c1.136,4.802,1.588,9.698,2.045,14.594c0.271,2.899,0.344,5.823,0.734,8.705
			c0.445,3.274,0.408,6.628,1.463,9.813c0.15,0.449-0.053,0.811-0.51,0.888c-2.762,0.463-5.449,1.433-8.316,1.179
			c-0.484-0.043-1.01,0.055-1.475,0.207c-0.619,0.204-0.941,0.723-1.027,1.366c-0.08,0.608,0.23,1.263,0.775,1.505
			c0.451,0.201,0.942,0.436,1.416,0.438c2.01,0.004,4.021-0.008,6.027-0.133c3.506-0.221,7.002-0.617,10.508-0.781
			c6.225-0.295,12.455-0.465,18.684-0.699c1.004-0.038,2.035-0.009,3.004-0.231c1.889-0.437,3.789-0.433,5.699-0.426
			c7.643,0.026,15.287,0.042,22.928,0.112c5.326,0.048,10.648-0.057,15.977,0.266c3.809,0.231,7.641,0.045,11.463,0.045v0.006
			c3.721,0,7.443,0.021,11.164-0.015c0.992-0.011,1.998-0.14,2.973-0.329c0.98-0.188,1.578-0.826,1.684-1.864
			C112.421,106.344,112.307,105.336,111.313,104.749z M89.973,66.324c1.062,0.229,2.113,0.499,3.168,0.766
			c0.07,0.018,0.119,0.111,0.178,0.168c-0.086,0.05-0.168,0.137-0.26,0.145c-0.592,0.057-1.188,0.098-1.883,0.15
			c-0.393-0.061-0.896-0.08-1.351-0.242c-0.17-0.059-0.266-0.447-0.297-0.698C89.518,66.53,89.842,66.297,89.973,66.324z
			 M53.229,64.434c0.062-0.062,0.189-0.076,0.287-0.08c3.713-0.145,7.422-0.301,11.134-0.42c1.606-0.051,3.198-0.023,4.78-0.491
			c0.945-0.28,1.988-0.238,2.99-0.315c0.955-0.074,2.168-0.939,2.803,0.014c0.717,1.072,0.338,2.516,0.139,3.797
			c-0.023,0.146-0.271,0.314-0.445,0.364c-0.285,0.081-0.596,0.097-0.895,0.099c-1.406,0.01-2.816,0.004-4.225,0.004v-0.06
			c-4.92-0.089-9.844-0.175-14.766-0.269c-1.518-0.027-2.096-0.621-2.125-2.205C52.903,64.725,53.1,64.561,53.229,64.434z
			 M36.798,67.609c-0.232,0.106-0.447,0.221-0.676,0.298c-0.043,0.015-0.203-0.169-0.199-0.173c0.178-0.223,0.369-0.436,0.559-0.648
			C36.565,67.225,36.649,67.365,36.798,67.609z M24.907,34.574c0.041-0.427,0.221-0.799,0.688-0.848
			c1.693-0.182,3.389-0.344,5.088-0.484c0.463-0.039,0.738,0.282,0.828,0.704c0.146,0.687,0.303,1.377,0.357,2.073
			c0.309,3.918,1.404,7.689,2.1,11.533c0.719,3.945,1.551,7.871,2.139,11.834c0.293,1.972,0.162,4.008,0.201,6.016
			c0.006,0.285-0.129,0.559-0.527,0.484c-0.678-0.125-1.361-0.232-2.035-0.369c-0.266-0.055-0.271-0.219-0.102-0.455
			c0.111-0.158,0.168-0.361,0.232-0.553c0.17-0.516,0.16-1.032-0.377-1.293c-0.488-0.234-0.838-0.498-0.92-1.063
			c-0.147-0.991-0.964-1.117-1.717-1.316c0.002,0.016,0.005,0.032,0.006,0.047c-0.021,0.02-0.059,0.028-0.101,0.035
			c-0.044,0.11-0.088,0.221-0.133,0.331c-0.309-0.336-0.041-0.304,0.133-0.331c0.013-0.032,0.026-0.065,0.039-0.097
			c0.019,0.005,0.038,0.01,0.056,0.015c-0.011-0.087-0.032-0.178-0.009-0.253c0.311-0.965-0.584-1.701-0.496-2.606
			c0.086-0.896,0.293-1.78,0.369-2.676c0.074-0.93-0.414-1.493-1.342-1.668c-0.195-0.036-0.402-0.026-0.601-0.036
			c-0.1-0.004-0.203,0.011-0.301-0.006c-0.594-0.1-0.848-0.606-0.506-1.057c0.545-0.718,1.123-1.411,1.68-2.121
			c0.309-0.395,0.676-0.768,0.873-1.215c0.148-0.327,0.206-0.84,0.043-1.118c-0.154-0.265-0.635-0.374-0.992-0.473
			c-0.162-0.045-0.373,0.14-0.566,0.152c-0.16,0.009-0.338-0.062-0.484-0.14c-0.044-0.021-0.053-0.221-0.006-0.283
			c0.301-0.398,0.559-0.867,0.947-1.154c1.326-0.986,1.047-2.484,1.222-3.801c0.133-0.996-0.808-1.998-1.814-2.053
			c-0.891-0.047-1.791,0.115-2.69,0.144c-0.242,0.008-0.539-0.067-0.723-0.215c-0.234-0.184,0.049-0.751,0.48-0.952
			c0.361-0.169,0.771-0.246,1.115-0.445c0.339-0.197,0.635-0.48,0.918-0.758c0.451-0.442,0.267-1.179-0.329-1.504
			c-0.56-0.307-1.107-0.309-1.734-0.19c-0.848,0.159-1.018-0.054-1.035-0.933C24.878,35.176,24.878,34.873,24.907,34.574z
			 M27.61,59.43l-0.168-0.02l0.11-0.215L27.61,59.43z M97.229,78.436c-0.488,5.519-0.436,11.049-0.408,16.579
			c0.01,1.606,0.168,3.211,0.182,4.817c0.008,1.1-0.084,2.203-0.184,3.299c-0.07,0.779-0.383,1.057-1.16,1.074
			c-1.406,0.033-2.816,0.035-4.225,0.035c-5.836,0.004-11.67,0.002-17.504,0.002v0.193c-5.836,0-11.672-0.057-17.506,0.018
			c-4.721,0.062-9.44,0.267-14.158,0.442c-0.984,0.036-1.676-0.069-2.117-1.174c-0.33-0.821-1.374-0.829-2.047-0.21
			c-0.516,0.475-0.955,1.039-1.488,1.494c-0.289,0.245-0.689,0.409-1.062,0.482c-0.26,0.049-0.568-0.103-0.83-0.218
			c-0.039-0.018,0.016-0.357,0.095-0.512c0.372-0.713,0.79-1.4,1.137-2.123c0.125-0.254,0.207-0.627,0.109-0.865
			c-0.139-0.349-0.41-0.697-0.719-0.905c-0.18-0.122-0.617-0.072-0.814,0.071c-0.973,0.71-1.906,1.474-2.848,2.225
			c-0.393,0.313-0.772,0.646-1.162,0.964c-1.955,1.585-2.127,1.649-4.621,1.725c-0.082,0.003-0.229-0.068-0.236-0.124
			c-0.031-0.166-0.08-0.42,0.006-0.503c0.943-0.901,1.957-1.731,2.408-3.032c0.17-0.495,0.309-0.967-0.039-1.418
			c-0.412-0.539-1.004-0.672-1.623-0.508c-1.072,0.282-2.094,0.674-2.988,1.375c-1.738,1.36-3.564,2.613-5.037,4.287
			c-0.385,0.438-1.073,0.432-1.334,0.069c-0.346-0.477-0.469-1.401-0.203-1.671c0.209-0.214,0.441-0.408,0.682-0.588
			c1.043-0.789,2.135-1.516,3.125-2.367c0.83-0.715,1.617-1.51,2.275-2.381c0.404-0.534,0.689-1.289,0.174-1.969
			c-0.49-0.648-1.242-0.609-1.932-0.509c-0.48,0.071-0.973,0.262-1.391,0.513c-0.949,0.57-1.82,1.268-2.785,1.799
			c-0.557,0.307-0.877,1.145-1.73,0.84c-0.146-0.776-0.377-1.551-0.404-2.332c-0.008-0.302,0.379-0.7,0.686-0.918
			c1.717-1.227,3.474-2.396,5.193-3.619c0.654-0.464,1.301-0.962,1.851-1.541c0.473-0.5,0.848-1.111,1.184-1.72
			c0.715-1.302-0.566-2.479-1.752-2.387c-1.1,0.087-2.152,0.515-3.061,1.186c-1.291,0.955-2.557,1.948-3.858,2.892
			c-0.197,0.143-0.628,0.225-0.777,0.11c-0.193-0.149-0.256-0.517-0.299-0.802c-0.082-0.539,0.148-0.952,0.564-1.309
			c0.994-0.849,1.967-1.721,2.939-2.596c0.523-0.471,1.086-0.914,1.521-1.459c0.365-0.457,0.637-1.018,0.828-1.574
			c0.332-0.971-0.123-1.54-1.117-1.623c-1.145-0.096-2.201,0.121-3.176,0.722c-0.514,0.315-0.996,0.692-1.537,0.944
			c-0.166,0.078-0.65-0.119-0.698-0.277c-0.255-0.865-0.429-1.755-0.613-2.64c-0.352-1.669-0.67-3.345-1.037-5.011
			c-0.402-1.827-0.248-2.051,1.754-1.99c1.303,0.038,2.602,0.247,3.904,0.262c3.922,0.043,7.85,0.146,11.768,0
			c3.408-0.129,6.799-0.643,10.203-0.848c3.514-0.213,7.037-0.367,10.555-0.361c13.582,0.025,27.164,0.099,40.744,0.225
			c1.992,0.018,3.984,0.387,5.965,0.674c0.271,0.041,0.666,0.545,0.678,0.848C97.333,75.82,97.342,77.137,97.229,78.436z
			 M24.233,26.15c0.273,0.128,0.547,0.258,0.822,0.381c1.568,0.699,3.168,0.746,4.625-0.164c1.679-1.051,3.611-1.173,5.428-1.721
			c0.518-0.156,0.973,0.018,1.188,0.604c0.35,0.947,0.715,1.91,1.574,2.521c1.225,0.869,2.473,1.71,3.742,2.517
			c1.122,0.716,2.375,1.088,3.715,1.082c1.104-0.005,2.209-0.072,3.311-0.089c0.453-0.007,0.754,0.252,0.795,0.704
			c0.062,0.7,0.006,1.419,0.133,2.105c0.855,4.643,3.117,8.254,7.686,10.025c2.373,0.919,4.824,1.416,7.357,0.562
			c0.617-0.207,1.176-0.088,1.682,0.344c2.338,1.986,5.17,2.647,8.109,2.838c2.801,0.181,5.375-0.53,7.438-2.574
			c0.498-0.494,1.012-1.004,1.371-1.597c0.475-0.79,1.09-1.106,1.984-1.052c1.819,0.113,3.612-0.102,5.389-0.477
			c3.262-0.688,5.986-2.293,8.156-4.812c1.502-1.74,2.297-3.74,2.146-6.09c-0.176-2.787-0.885-5.361-2.887-7.408
			c-0.564-0.576-0.76-1.023-0.457-1.83c0.496-1.309,0.916-2.664,0.854-4.035c0.023-2.734-0.854-5.86-2.428-8.015
			c-3.066-4.195-7.041-7.099-12.158-8.358c-3.682-0.906-7.416-0.881-11.084-0.316c-3.627,0.557-6.926,2.09-9.41,4.975
			c-0.723,0.838-1.475,1.654-2.139,2.537c-0.359,0.479-0.508,0.637-1.152-0.021c-0.141-0.145-0.268-0.301-0.406-0.447
			c-3.137-3.328-7.021-4.932-11.568-4.967c-1.205-0.01-2.414,0.055-3.619,0.07c-2.278,0.027-4.408,0.699-6.271,1.914
			C34.78,7.559,31.589,10.02,29.6,13.67c-0.322,0.592-0.775,0.89-1.383,1.039c-0.291,0.073-0.59,0.123-0.883,0.197
			c-2.617,0.672-4.414,2.346-5.523,4.737C20.594,22.269,21.628,24.925,24.233,26.15z M26.169,20.822
			c0.279-0.401,0.678-0.734,1.062-1.045c0.646-0.518,0.889-0.496,1.533,0.064c0.225,0.197,0.396,0.461,0.636,0.637
			c1.241,0.905,2.983,0.134,3.157-1.42c0.066-0.594-0.039-1.203-0.027-1.806c0.021-1.243,0.373-2.358,1.217-3.321
			c2.01-2.294,4.227-4.379,7.145-5.384c4.236-1.46,8.5-1.413,12.602,0.585c0.889,0.433,1.693,1.08,2.441,1.737
			c0.94,0.827,1.44,1.915,1.473,3.196c0.02,0.703,0.027,1.412,0.129,2.105c0.113,0.779,1.1,1.313,1.875,1.059
			c0.785-0.257,1.477-0.647,1.799-1.475c0.109-0.28,0.26-0.552,0.324-0.842c0.939-4.201,3.82-6.438,7.731-7.586
			c0.867-0.254,1.769-0.342,2.477-1.001c0.203-0.192,0.527-0.301,0.814-0.355c5.322-0.992,10.4-0.533,15.053,2.52
			c1.967,1.291,3.691,2.815,4.773,4.929c0.494,0.972,0.904,2.031,1.107,3.097c0.33,1.73-0.021,3.355-1.049,4.872
			c-1.383,2.044-3.18,3.614-5.197,4.972c-0.666,0.449-1.363,0.857-2.022,1.316c-0.65,0.453-0.787,1.123-0.697,1.869
			c0.1,0.807,0.65,1.232,1.33,1.494c0.777,0.301,1.578,0.229,2.365-0.031c1.754-0.58,3.234-1.598,4.564-2.854
			c0.658-0.621,1.301-1.26,1.963-1.875c0.281-0.263,0.785-0.102,0.973,0.281c0.82,1.68,1.123,3.462,0.748,5.279
			c-0.517,2.488-2.276,3.983-4.488,4.922c-3.279,1.389-6.627,1.464-9.969,0.154c-0.469-0.184-0.926-0.399-1.395-0.576
			c-0.857-0.325-1.611-0.052-2.215,0.541c-0.642,0.635-0.628,1.475-0.339,2.256c0.168,0.455,0.557,0.826,0.826,1.248
			c0.471,0.74,0.35,1.221-0.387,1.764c-0.998,0.736-2.08,1.178-3.35,1.178c-1.218,0-2.404-0.119-3.56-0.523
			c-0.52-0.184-0.848-0.508-0.961-1.043c-0.188-0.883-0.328-1.781-0.564-2.65c-0.199-0.736-0.801-1.1-1.609-0.89
			c-0.521,0.135-0.896,0.116-1.402-0.089c-1.215-0.491-1.496-0.353-2.209,0.73c-0.162,0.249-0.219,0.581-0.412,0.796
			c-0.355,0.396-0.856,0.593-1.352,0.363c-0.324-0.15-0.67-0.457-0.799-0.779c-0.18-0.449-0.098-1.002-0.26-1.465
			c-0.166-0.48-0.547-0.933-1.102-0.852c-0.336,0.049-0.705,0.363-0.906,0.662c-0.215,0.315-0.193,0.785-0.383,1.123
			c-0.129,0.223-0.447,0.46-0.688,0.468c-0.418,0.013-0.793-0.289-0.82-0.716c-0.055-0.9-0.018-1.806-0.018-2.709
			c0.016-0.001,0.031-0.001,0.044-0.001c0-0.703,0.016-1.406-0.001-2.11c-0.033-1.334-0.621-1.635-1.889-0.976
			c-0.088,0.046-0.229,0.173-0.238,0.162c-0.104-0.108-0.247-0.233-0.256-0.364c-0.016-0.19,0.072-0.389,0.111-0.584
			c0.102-0.492,0.229-0.98,0.295-1.476c0.16-1.239-0.27-1.979-1.697-1.353c-0.601,0.262-1.037,0.023-1.037-0.498
			c0.003-0.591,0.104-1.182,0.15-1.773c0.088-1.103-0.854-1.909-1.947-1.627c-0.482,0.123-0.938,0.35-1.395,0.559
			c-0.635,0.29-1.154,0.172-1.611-0.351c-0.129-0.149-0.301-0.267-0.473-0.37c-0.627-0.383-1.445,0.056-1.498,0.843
			c-0.02,0.277,0.178,0.565,0.246,0.854c0.012,0.047-0.139,0.192-0.203,0.186c-0.166-0.02-0.457-0.082-0.467-0.155
			c-0.146-1.188-0.227-2.386-0.395-3.571c-0.068-0.473-0.256-0.956-0.498-1.37c-0.336-0.569-1.199-0.561-1.51-0.038
			c-0.101,0.173-0.18,0.358-0.277,0.533c-0.354,0.624-0.465,1.383-1.051,1.875c-0.069-0.797-0.164-1.592-0.195-2.389
			c-0.018-0.498,0.102-1.002,0.096-1.504c-0.014-0.983-0.955-1.688-1.867-1.355c-0.74,0.268-1.393,0.783-2.273,0.445
			c-0.162-0.062-0.598,0.211-0.701,0.428c-0.426,0.881-1.102,0.797-1.953,0.892c-2.51,0.277-4.924,0.993-6.92,2.693
			c-0.297,0.255-0.66,0.448-1.017,0.614c-0.164,0.076-0.414,0.074-0.584,0.006C26.192,23.617,25.594,21.644,26.169,20.822z
			 M64.716,83.215c-0.041-0.498,0.008-1.006-0.061-1.498c-0.264-1.9-1.574-3.537-3.371-3.757c-2.375-0.29-4.787-0.364-7.127,0.374
			c-0.369,0.117-0.797,0.291-1.025,0.576c-0.994,1.25-2,2.521-1.783,4.285c0.24,1.98,0.484,3.961,0.73,5.941
			c0.012,0.098,0.053,0.191,0.084,0.285c0.336,1.01,1.152,1.615,2.256,1.633c1.098,0.019,2.199,0.004,3.297,0.004
			c0.006-0.064,0.008-0.128,0.012-0.192c1.685,0.155,3.371,0.307,5.057,0.466c1.021,0.098,2.029-0.547,2.234-1.57
			c0.131-0.672,0.119-1.389,0.074-2.079C64.999,86.191,64.837,84.704,64.716,83.215z M57.782,87.106
			c-0.061,0.101-0.383,0.138-0.52,0.072c-0.153-0.074-0.352-0.321-0.326-0.454c0.094-0.475,0.205-0.967,0.432-1.389
			c0.332-0.621,0.686-1.197,0.662-1.955c-0.014-0.44-0.647-0.93-0.025-1.301c0.314-0.188,0.771-0.133,1.129-0.183
			c0.338,0.065,0.68,0.046,0.9,0.2c0.195,0.135,0.408,0.631,0.35,0.684C59.091,83.976,58.661,85.676,57.782,87.106z M47.538,86.574
			c-0.412-1.168-0.422-2.365-0.422-3.572c0-0.4,0.016-0.805-0.023-1.204c-0.164-1.663-1.309-2.468-2.942-2.095
			c-1.462,0.334-2.919,0.688-4.392,0.978c-0.785,0.154-1.603,0.136-2.389,0.294c-0.977,0.195-1.607,0.893-1.666,1.876
			c-0.064,1.101-0.018,2.208-0.018,3.312h-0.088c0,0.805-0.025,1.609,0.002,2.412c0.076,2.151,1.384,3.494,3.565,3.664
			c0.5,0.039,1.004,0.047,1.508,0.035c1.41-0.031,2.836-0.014,3.861-1.254c0.289-0.348,0.717-0.215,1.094-0.291
			c1.752-0.347,2.232-0.983,2.125-2.67C47.719,87.559,47.704,87.037,47.538,86.574z M80.188,82.422
			c-0.033-0.588-0.236-1.166-0.371-1.747c-0.246-1.091-1.015-1.708-2.004-2.035c-0.559-0.185-1.182-0.308-1.76-0.261
			c-1.977,0.164-3.955,0.369-5.916,0.661c-0.559,0.082-1.102,0.462-1.59,0.8c-1.104,0.766-1.42,1.799-0.99,3.117
			c0.586,1.794,1.426,3.514,1.381,5.479c-0.014,0.629,0.426,1.148,1,1.391c0.635,0.266,1.314,0.494,1.994,0.557
			c0.99,0.094,1.994,0.024,2.994,0.024v0.048c0.801,0,1.602,0.033,2.399-0.006c3.033-0.148,4.174-1.566,3.457-4.499
			C80.493,84.777,80.257,83.625,80.188,82.422z M75.194,86.23c-0.197,0.013-0.396,0.002-0.594,0.002c0,0.002,0,0.004,0,0.004
			c-0.301,0-0.6,0.016-0.898-0.002c-0.721-0.043-1.074-0.373-1.115-1.109c-0.035-0.593-0.051-1.195,0.029-1.779
			c0.033-0.236,0.309-0.569,0.533-0.62c0.572-0.132,1.174-0.171,1.766-0.175c0.754-0.006,1.059,0.297,1.145,1.059
			c0.057,0.494,0.091,0.99,0.121,1.487C76.221,85.879,75.954,86.184,75.194,86.23z M93.071,82.541
			c-0.385-2.763-0.48-2.917-3.23-3.314c-0.395-0.057-0.795-0.08-1.451-0.145c-1.037,0.178-2.334,0.322-3.588,0.637
			c-1.16,0.291-1.729,1.238-1.264,2.291c0.561,1.268,0.553,2.557,0.436,3.83c-0.178,1.953,0.802,3.058,2.447,3.647
			c1.398,0.502,2.869,0.966,4.379,0.812c2.82-0.288,4.113-1.137,3.133-4.277C93.575,84.882,93.231,83.719,93.071,82.541z
			 M89.059,86.016c-0.258-0.045-0.643-0.161-0.717-0.35c-0.166-0.44-0.18-0.938-0.234-1.283c0.033-0.426,0.033-0.723,0.092-1.006
			c0.039-0.18,0.172-0.338,0.264-0.506c0.227,0.151,0.609,0.268,0.65,0.461c0.17,0.752,0.248,1.525,0.309,2.295
			C89.43,85.755,89.163,86.033,89.059,86.016z"/>
	</g>
</g>
<g>
</g>
<g>
</g>
<g>
</g>
<g>
</g>
<g>
</g>
<g>
</g>
<g>
</g>
<g>
</g>
<g>
</g>
<g>
</g>
<g>
</g>
<g>
</g>
<g>
</g>
<g>
</g>
<g>
</g>
</svg>
