<?xml version="1.0" encoding="iso-8859-1"?>
<!-- Generator: Adobe Illustrator 19.0.0, SVG Export Plug-In . SVG Version: 6.00 Build 0)  -->
<svg version="1.1" id="Capa_1" xmlns="http://www.w3.org/2000/svg" xmlns:xlink="http://www.w3.org/1999/xlink" x="0px" y="0px"
	 viewBox="0 0 100 100" style="enable-background:new 0 0 100 100;" xml:space="preserve">
<g id="for-sale">
	<g>
		<path style="fill-rule:evenodd;clip-rule:evenodd;" d="M95.023,1.772c-0.308-0.874-1.361-1.298-2.209-0.938
			c-0.871,0.371-1.498,0.964-1.708,1.916c-0.405,1.845-0.832,3.685-1.192,5.54c-0.275,1.42-0.444,2.862-0.704,4.286
			c-0.054,0.301-0.265,0.569-0.705,0.381c-0.301-0.128-0.65-0.217-0.971-0.205c-0.828,0.032-1.484,0.668-1.582,1.451
			c-0.082,0.677,0.256,1.292,0.904,1.643c1.849,1.004,1.851,1.004,1.76,2.744c-0.041,0.78-0.069,1.562-0.152,2.338
			c-0.36,3.436-0.833,6.863-1.086,10.305c-0.375,5.116-0.602,10.242-0.889,15.364c-0.026,0.446-0.024,0.892-0.059,1.337
			c-0.042,0.499-0.308,0.856-0.819,0.87c-0.778,0.021-1.574,0.054-2.335-0.074c-2.33-0.39-4.674-0.346-7.015-0.304
			c-8.256,0.154-16.512,0.283-24.764,0.534c-4.01,0.122-8.018,0.438-12.02,0.769c-3.66,0.301-7.306,0.807-10.967,1.099
			c-3.667,0.293-7.344,0.459-11.019,0.635c-1.331,0.062-2.668-0.007-4.001-0.016c-0.863-1.281-0.464-2.799-0.789-4.177
			c-0.497-2.087-0.462-4.209-0.517-6.327c-0.069-2.79-0.039-5.586-0.214-8.369c-0.29-4.56-0.661-9.114-1.097-13.662
			c-0.243-2.547-0.622-5.087-1.066-7.607C9.44,9.224,8.878,7.178,8.41,5.112C8.263,4.46,8.668,4.048,9.349,4.156
			c0.327,0.051,0.65,0.154,0.978,0.213c2.851,0.516,5.682,1.185,8.551,1.499c3.876,0.421,7.781,0.716,11.678,0.801
			c6.026,0.129,12.056,0.033,18.084,0.033V6.519c6.028,0,12.058,0.022,18.086-0.01c3.473-0.016,6.899,0.307,10.276,1.135
			c0.325,0.08,0.642,0.205,0.971,0.249c1.344,0.182,2.599,0.161,3.85-0.635c0.906-0.574,2.059-0.767,3.11-1.097
			C85.449,6,85.599,6.217,85.462,6.819c-0.097,0.426-0.251,0.859-0.234,1.283c0.026,0.66,0.733,1.228,1.381,1.189
			c0.613-0.039,1.053-0.375,1.24-0.944c0.1-0.3,0.13-0.674,0.045-0.973c-0.186-0.655-0.5-1.272,0.605-1.364
			c0.52-0.043,0.811-0.523,0.724-0.952c-0.076-0.379-0.403-0.806-0.739-1.012c-1.117-0.676-2.536-0.817-3.303-2.133
			c-0.219-0.372-0.965-0.56-1.487-0.601c-0.993-0.078-2.04-0.163-2.987,0.07c-1.359,0.334-2.653,0.188-3.952-0.099
			c-4.272-0.94-8.592-1.305-12.958-1.136c-1.559,0.061-3.115,0.188-4.669,0.286c-4.453,0.282-8.901,0.691-13.354,0.817
			c-5.916,0.167-11.835,0.144-17.752,0.141c-2.341-0.003-4.687-0.143-7.025-0.282c-1.666-0.102-3.324-0.349-4.991-0.458
			c-1.999-0.13-3.999-0.022-5.991-0.478c-1.29-0.294-2.662-0.25-3.925,0.401C5.213,1.024,4.676,1.694,4.71,2.68
			c0.046,1.337,0.147,2.675,0.275,4.008c0.514,5.325,0.945,10.656,1.367,15.989c0.44,5.572,0.452,11.147,0.664,16.719
			c0.108,2.896,0.271,5.8,0.631,8.673c0.227,1.827,0.306,3.836,2.142,5.055c0.238,0.158,0.351,0.551,0.457,0.858
			c0.351,1.012,1.077,1.281,2.085,1.227c2.783-0.151,5.568-0.279,8.354-0.362c3.014-0.087,6.029-0.065,9.042-0.175
			c3.789-0.137,7.575-0.362,11.362-0.542c0.332-0.015,0.67,0.002,0.997,0.054c0.494,0.08,0.776,0.41,0.811,0.9
			c0.039,0.556,0.045,1.115,0.052,1.672c0.063,6.028,0.15,12.056,0.171,18.084c0.011,2.566-0.108,5.133-0.188,7.699
			c-0.028,0.912-0.286,1.335-1.515,0.868c-3.761-1.423-7.465-0.786-11.126,0.426c-1.279,0.423-2.437,1.114-3.366,2.119
			c-0.221,0.239-0.367,0.549-0.54,0.83c-0.204,0.333,0.154,0.916,0.553,1.027c0.694,0.195,1.333,0.056,1.94-0.253
			c1.613-0.82,3.381-1.104,5.111-1.525c2.382-0.578,4.658-0.037,6.882,0.735c1.019,0.353,1.632,1.181,1.55,2.332
			c-0.039,0.54-0.1,1.146-0.371,1.584c-0.416,0.673-0.964,0.084-1.452-0.061c-0.212-0.062-0.427-0.156-0.644-0.167
			c-3.468-0.169-6.943-0.13-10.294,0.852c-3.42,1.002-6.102,3.179-8.3,5.941c-0.44,0.553-0.47,1.246-0.104,1.894
			c0.364,0.637,1.303,1.034,2.04,0.777c0.622-0.216,1.227-0.519,1.797-0.857c3.358-1.987,6.988-2.872,10.877-2.725
			c1.227,0.048,2.454,0.137,3.681,0.161c1.168,0.024,2.211-0.215,2.781-1.432c0.208-0.448,0.639-0.574,1.116-0.298
			c0.526,0.304,1.036,0.334,1.537-0.086c0.512-0.432,1.038-0.843,1.567-1.255c0.481-0.373,0.999-0.461,1.547-0.145
			c0.289,0.169,0.585,0.331,0.848,0.536c0.973,0.753,1.912,0.886,3.069,0.253c1.593-0.869,3.375-1.105,5.191-1.053
			c1.003,0.03,2.009,0.03,3.013,0.002c2.129-0.059,3.906,0.752,5.482,2.122c0.839,0.729,1.68,1.461,2.569,2.126
			c0.997,0.746,1.194,0.767,1.896-0.177c2.356-3.17,5.467-4.445,9.353-3.946c0.442,0.058,0.891,0.085,1.336,0.084
			c0.331-0.001,0.669-0.04,0.992-0.118c1.078-0.254,1.68-1.852,0.961-2.711c-0.414-0.492-0.978-1.019-1.567-1.17
			c-1.606-0.414-3.226-0.811-4.947-0.432c-1.419,0.313-2.813,0.657-4.174,1.171c-0.488,0.184-1.097,0.32-1.585,0.204
			c-2.551-0.614-5.091-0.493-7.621,0.024c-0.75,0.151-1.315,0.03-1.79-0.522c-0.969-1.127-2.2-1.4-3.625-1.28
			c-0.759,0.064-1.06-0.263-1.086-0.92c-0.033-0.892-0.037-1.786-0.041-2.679c-0.013-4.688,0.015-9.378-0.045-14.066
			c-0.067-4.906,0.127-9.824-0.519-14.71c-0.059-0.44-0.045-0.893-0.041-1.338c0.009-0.814,0.354-1.139,1.251-1.191
			c0.223-0.013,0.446-0.018,0.669-0.018c9.267,0.03,18.533,0.02,27.799,0.13c1.934,0.024,3.565-0.122,4.402-2.142
			c1.71-1.143,1.814-2.894,1.925-4.726c0.204-3.449,0.524-6.891,0.848-10.333c0.334-3.548,0.806-7.086,1.079-10.639
			c0.364-4.782,0.592-9.573,0.889-14.36c0.041-0.665,0.176-1.326,0.217-1.992c0.135-2.115,0.26-4.231,0.343-6.347
			C95.307,2.636,95.171,2.184,95.023,1.772z M48.151,67.684c-0.019-0.284,0.02-0.75,0.195-0.842c0.947-0.502,1.944-0.92,2.929-1.354
			c0.197-0.086,0.416-0.122,0.624-0.18c0.119,0.152,0.314,0.29,0.345,0.457c0.139,0.821-0.149,1.413-0.77,1.576
			c-0.935,0.245-1.877,0.472-2.827,0.658C48.501,68.028,48.16,67.805,48.151,67.684z M52.216,75.075
			c0.078,0.545,0.011,1.11,0.009,1.666v1.666c-0.102,3.219-0.202,6.771-0.34,10.321c-0.011,0.29-0.2,0.736-0.419,0.823
			c-0.574,0.229-1.058-0.169-1.422-0.559c-0.156-0.169-0.124-0.575-0.074-0.854c0.033-0.196,0.232-0.371,0.373-0.542
			c0.603-0.73,0.536-1.66-0.069-2.11c-1.532-1.139-1.25-2.685-1.367-4.219c-0.091-1.22,0.119-2.176,1.207-2.854
			c0.268-0.167,0.462-0.477,0.655-0.746c0.555-0.778,0.291-1.775-0.624-2.23c-0.39-0.196-0.852-0.243-1.262-0.408
			c-0.392-0.158-0.438-0.842-0.1-1.114c0.171-0.139,0.336-0.294,0.529-0.394c0.765-0.398,1.417-1.457,2.289-1.104
			C52.775,72.888,52.088,74.158,52.216,75.075z M51.973,61.917c-0.544,0.393-1.463,0.246-2.198,0.409
			c-0.533,0.118-1.041,0.359-1.565,0.521c-0.056,0.017-0.221-0.119-0.234-0.201c-0.03-0.184-0.074-0.483,0.022-0.55
			c0.629-0.441,1.359-0.758,1.929-1.26c0.646-0.575,1.209-1.266,1.715-1.973c0.345-0.483,0.037-1.405-0.46-1.782
			c-0.973-0.739-1.998-0.765-3.138-0.386c-0.72,0.239-0.98,0.002-1.147-0.724c-0.098-0.431-0.229-0.873-0.217-1.307
			c0.011-0.452,0.247-0.889,0.768-0.925c1.211-0.08,2.428-0.133,3.642-0.147c0.841-0.009,1.231,0.369,1.25,1.179
			c0.03,1.106,0.009,2.213,0.009,3.319h0.009c0,0.442,0.041,0.89-0.009,1.328C52.253,60.27,52.762,61.346,51.973,61.917z
			 M48.1,21.458c-1.814-2.146-2.512-2.308-5.215-1.519c-0.956,0.279-1.585,0.776-1.851,1.706c-0.245,0.853-0.464,1.717-0.644,2.586
			c-0.744,3.586-1.468,7.177-2.194,10.767c-0.267,1.304-0.52,2.611-0.691,3.465v0.804c0.009,1.211,0.577,2.039,1.559,2.268
			c1.216,0.282,2.217-0.21,2.679-1.389c0.243-0.615,0.531-1.28,0.52-1.915c-0.037-1.944,1.071-2.763,2.757-3.165
			c0.535-0.128,1.038-0.391,1.562-0.578c0.831-0.294,1.32-0.118,1.607,0.609c0.284,0.723,0.512,1.471,0.804,2.189
			c0.165,0.408,0.358,0.825,0.633,1.159c0.432,0.519,0.982,1.016,1.697,0.881c0.774-0.146,1.515-0.539,1.743-1.378
			c0.202-0.737,0.414-1.53,0.345-2.274c-0.444-4.738-2.282-9.017-4.506-13.154C48.696,22.134,48.386,21.798,48.1,21.458z
			 M44.161,29.737c-0.21-0.144-0.265-0.515-0.362-0.729c0.115-0.403,0.147-0.747,0.301-1.021c0.279-0.49-0.108-1.281,0.689-1.528
			c0.54,0.686,1.017,1.398,0.908,2.334C45.655,29.159,44.46,29.942,44.161,29.737z M29.484,35.602
			c-0.726,0.246-1.467,0.493-2.222,0.615c-1.101,0.179-1.938-0.206-2.391-1.324c-0.204-0.504-0.54-0.972-0.894-1.391
			c-0.672-0.791-2.039-0.77-2.659,0.045c-0.842,1.11-1.261,2.333-0.834,3.749c0.899,2.996,3.673,4.375,6.127,4.201
			c2.623-0.142,5.016-0.855,6.973-2.737c1.138-1.094,1.539-2.408,1.368-3.941c-0.156-1.383-0.815-2.517-1.708-3.55
			c-2.081-2.413-4.56-4.197-7.634-5.175c-1.461-0.465-1.508-1.079-0.399-2.048c0.744-0.649,1.494-0.948,2.396-0.311
			c0.271,0.191,0.562,0.362,0.865,0.494c0.787,0.34,1.509,0.13,2.046-0.567c0.503-0.651,0.503-1.482-0.004-2.158
			c-1.654-2.208-4.738-2.708-6.791-0.995c-1.461,1.221-2.584,2.766-3.433,4.472c-0.871,1.747-0.238,4.015,2.008,4.387
			c1.474,0.243,2.771,0.756,3.893,1.752c0.833,0.738,1.741,1.389,2.566,2.135c0.405,0.366,0.709,0.848,1.036,1.292
			C30.087,34.944,29.961,35.442,29.484,35.602z M69.834,33.147c0.069,0.986,0.232,2.001,0.568,2.926
			c1.112,3.064,3.568,3.316,5.655,2.523c1.643-0.624,3.143-1.667,4.636-2.628c0.88-0.566,1.114-1.9,0.65-2.674
			c-0.793-1.326-1.847-1.795-3.028-1.298c-0.717,0.301-1.402,0.678-2.106,1.01c-0.668,0.314-0.963,0.11-1.017-0.691
			c-0.119-1.686-0.016-1.794,1.597-2.247c0.852-0.239,1.706-0.517,2.497-0.905c0.852-0.419,1.298-1.413,1.14-2.235
			c-0.167-0.856-0.739-1.312-1.541-1.579c-1.095-0.363-2.167-0.348-3.277-0.062c-0.631,0.161-1.054-0.182-1.248-0.793
			c-0.102-0.316-0.286-0.645-0.258-0.953c0.021-0.266,0.247-0.667,0.464-0.729c0.524-0.151,1.11-0.084,1.647-0.206
			c0.969-0.221,1.971-0.416,2.864-0.828c0.407-0.189,0.793-0.856,0.817-1.325c0.024-0.466-0.317-1.068-0.687-1.4
			c-0.388-0.35-0.984-0.512-1.517-0.646c-1.477-0.369-5.449,0.325-6.78,1.181c-0.707,0.455-1.119,1.042-0.731,1.97
			c0.158,0.384,0.247,0.913,0.11,1.281c-0.756,2.057-0.371,4.199-0.479,6.296C69.81,30.475,69.738,31.817,69.834,33.147z
			 M65.263,34.236c-0.328,0.052-0.648,0.156-0.967,0.249c-0.952,0.276-1.903,0.557-2.853,0.834
			c-0.919-0.882-0.492-2.106-0.761-3.156c-0.245-0.957-0.178-1.994-0.243-2.996c-0.121-1.916-0.685-3.72-1.372-5.492
			c-0.292-0.757-0.767-1.362-1.528-1.688c-0.295-0.126-0.62-0.18-0.811-0.232c-0.773,0.112-1.472,0.896-1.515,1.728
			c-0.076,1.448-0.122,2.9-0.091,4.351c0.082,3.676-0.069,7.365,0.486,11.02c0.117,0.761,0.269,1.544,0.576,2.241
			c0.824,1.853,2.482,2.413,4.086,1.203c1.723-1.301,3.568-2.233,5.604-2.896c0.603-0.196,1.166-0.66,1.623-1.123
			c0.703-0.712,0.77-1.944,0.28-2.791C67.218,34.528,66.316,34.069,65.263,34.236z"/>
	</g>
</g>
<g>
</g>
<g>
</g>
<g>
</g>
<g>
</g>
<g>
</g>
<g>
</g>
<g>
</g>
<g>
</g>
<g>
</g>
<g>
</g>
<g>
</g>
<g>
</g>
<g>
</g>
<g>
</g>
<g>
</g>
</svg>
