<?xml version="1.0" encoding="iso-8859-1"?>
<!-- Generator: Adobe Illustrator 19.0.0, SVG Export Plug-In . SVG Version: 6.00 Build 0)  -->
<svg version="1.1" id="Capa_1" xmlns="http://www.w3.org/2000/svg" xmlns:xlink="http://www.w3.org/1999/xlink" x="0px" y="0px"
	 viewBox="0 0 105.085 105.085" style="enable-background:new 0 0 105.085 105.085;" xml:space="preserve">
<g id="people-structure02">
	<g>
		<path style="fill-rule:evenodd;clip-rule:evenodd;" d="M77.303,49.278c2.416-5.246,3.722-10.795,3.533-16.616
			c0-1.407,0.07-2.82-0.024-4.222c-0.073-1.096-0.326-2.183-0.543-3.265c-0.9-4.472-2.926-8.319-6.396-11.337
			c-2.123-1.847-4.219-3.732-6.43-5.47c-2.072-1.628-4.387-2.823-7.094-3.067c-0.695-0.065-1.373-0.305-2.066-0.401
			c-3.307-0.456-6.594-0.595-9.846,0.447c-3.347,1.073-6.691,2.136-9.789,3.854c-2.378,1.321-4.742,2.641-6.6,4.686
			c-0.269,0.297-0.571,0.568-0.878,0.827c-3.237,2.718-5.532,6.099-6.764,10.121c-1.003,3.278-1.284,6.699-1.31,10.119
			c-0.008,1.193,0.311,2.386,0.422,3.583c0.328,3.538,1.271,6.859,2.958,10.024c1.845,3.461,4.364,6.229,7.552,8.448
			c4.738,3.298,10.064,4.992,15.74,5.54c4.738,0.458,9.44-0.015,14.013-1.392c2.011-0.606,4.003-1.275,5.808-2.437
			C73.193,56.401,75.566,53.047,77.303,49.278z M45.069,12.56c0.139-0.407,0.628-0.829,1.051-0.982
			c1.404-0.508,2.849-0.904,4.284-1.322c0.346-0.1,0.824,0.346,0.782,0.706c-0.09,0.791-0.207,1.579-0.338,2.559
			c0,0.514,0.04,1.216-0.02,1.909c-0.022,0.254-0.246,0.664-0.436,0.702c-2.051,0.407-4.111,0.76-6.174,1.1
			c-0.099,0.017-0.366-0.262-0.344-0.35C44.242,15.433,44.59,13.973,45.069,12.56z M42.684,21.994
			c0.135-0.336,0.481-0.766,0.791-0.821c2.165-0.392,4.312-0.964,6.546-0.833c0.489,0.029,0.868,0.42,0.872,0.997
			c0.014,1.807,0.006,3.613,0.006,5.42h-0.053c0,1.807,0.014,3.613-0.007,5.419c-0.006,0.584-0.337,0.891-0.951,0.902
			c-2.106,0.044-4.216,0.02-6.321,0.104c-2.549,0.103-2.57,0.111-2.244-2.3c0.323-2.382,0.627-4.766,0.959-7.146
			C42.364,23.147,42.463,22.541,42.684,21.994z M31.615,20.706c0.57-0.816,1.068-1.719,1.785-2.384
			c2.195-2.031,4.551-3.868,7.205-5.285c0.172-0.091,0.387-0.175,0.568-0.15c0.142,0.02,0.388,0.246,0.368,0.323
			c-0.408,1.53-0.83,3.059-1.296,4.573c-0.078,0.254-0.331,0.549-0.573,0.641c-2.6,0.996-5.213,1.955-7.846,2.932
			c-0.041-0.025-0.168-0.061-0.182-0.122C31.607,21.061,31.535,20.822,31.615,20.706z M27.91,28.577
			c0.037-0.851,0.426-1.545,1.156-1.994c2.992-1.834,6.127-3.351,9.554-4.199c0.243-0.06,0.543,0.306,0.483,0.594
			c-0.582,2.838-1.034,5.693-1.136,8.596c-0.014,0.397-0.075,0.796-0.15,1.187c-0.148,0.777-0.604,1.261-1.424,1.305
			c-1.193,0.065-2.394,0.017-3.594,0.017c0,0.051-0.001,0.103-0.002,0.153c-1.195-0.074-2.396-0.099-3.585-0.238
			c-1.127-0.132-1.405-0.461-1.405-1.523C27.809,31.174,27.852,29.874,27.91,28.577z M30.03,42.963
			c-0.832-0.318-1.318-0.976-1.429-1.799c-0.666-5.032-2.094-4.561,3.49-4.473c0.201,0.004,0.402,0.001,0.839,0.001
			c1.31,0.312,2.946-0.532,4.445,0.37c0.049,1.494,0.099,2.986,0.145,4.479c0.004,0.1,0,0.2,0.003,0.3
			c0.118,4.145,0.183,3.486-3.564,2.595C32.609,44.116,31.338,43.464,30.03,42.963z M41.203,56.453
			c-0.09,0.023-0.207,0.029-0.289-0.01c-1.809-0.87-3.51-1.845-4.772-3.511c-1.023-1.352-2.264-2.536-3.383-3.817
			c-0.37-0.424-0.794-0.854-0.696-1.502c-0.022,0-0.045-0.002-0.068-0.002c-0.019-0.059-0.036-0.118-0.059-0.173
			c-0.052-0.041-0.104-0.082-0.156-0.124c0.049,0.025,0.115,0.039,0.141,0.08c0.008,0.013,0.009,0.03,0.015,0.044
			c0.043,0.034,0.086,0.068,0.128,0.102c-0.005,0.026,0.002,0.047-0.001,0.072c2.01-0.026,3.83,0.818,5.724,1.305
			c0.298,0.076,0.638,0.545,0.704,0.882c0.456,2.311,1.535,4.321,2.857,6.224C41.504,56.247,41.488,56.378,41.203,56.453z
			 M41.311,44.767c-0.108-1.593-0.2-3.191-0.209-4.788c-0.02-3.914-0.457-3.765,3.682-3.785c1.701-0.008,3.401,0.012,5.102,0.04
			c0.551,0.009,0.963,0.394,0.97,0.921c0.022,1.399,0.008,2.801,0.008,4.201h0.075c0,0.7-0.002,1.401,0,2.101
			c0.017,3.078,0.103,2.895-3.014,2.784c-1.894-0.067-3.784-0.283-5.673-0.463C41.683,45.725,41.347,45.289,41.311,44.767z
			 M50.793,58.163c-1.197,0.514-2.555-0.018-3.7-0.722c-0.253-0.154-0.482-0.371-0.668-0.604c-1.565-1.959-3.118-3.928-3.945-6.347
			c-0.253-0.746,0.002-1.097,0.871-1.06c1.502,0.064,3.002,0.157,4.501,0.283c0.991,0.083,1.976,0.244,2.964,0.37
			c0.7,0.995,0.257,2.147,0.438,3.214c0.05,0.293,0.008,0.601,0.008,0.901h0.042c0,0.402,0.032,0.807-0.007,1.204
			C51.205,56.36,51.85,57.71,50.793,58.163z M76.137,36.114c0.008,0.299,0,0.599,0,0.897h-0.027c0,0.3-0.009,0.6,0.002,0.899
			c0.043,1.225-0.419,2.067-1.621,2.562c-2.025,0.834-4.004,1.777-6.008,2.667c-0.307,0.137-0.547-0.101-0.501-0.477
			c0.251-2.078,0.503-4.157,0.753-6.235c0.068-0.571,0.392-0.874,0.951-0.954c1.676-0.238,3.346-0.527,5.027-0.708
			C75.842,34.645,76.103,34.954,76.137,36.114z M74.385,25.242c0.307,0.157,0.567,0.584,0.664,0.937
			c0.261,0.959,0.422,1.945,0.624,2.92c-0.038,0.008-0.075,0.015-0.114,0.022c0.062,0.498,0.094,0.999,0.191,1.489
			c0.083,0.411-0.184,0.586-0.453,0.637c-1.865,0.354-3.737,0.678-5.61,0.997c-0.438,0.075-0.796-0.087-0.902-0.554
			c-0.154-0.682-0.357-1.369-0.391-2.062c-0.113-2.411-0.583-4.761-1.105-7.104c-0.118-0.526,0.115-0.689,0.674-0.521
			C70.291,22.707,72.25,24.153,74.385,25.242z M65.246,12.587c3.016,1.329,5.453,3.32,7.103,6.212
			c0.046,0.081,0.04,0.191,0.058,0.287c-0.029,0.088-0.039,0.188-0.092,0.259c-0.053,0.071-0.166,0.175-0.217,0.157
			c-0.283-0.098-0.557-0.228-0.832-0.347c-0.919-0.396-1.807-1.024-2.762-1.146c-3.01-0.386-3.318-2.731-3.861-4.954
			C64.591,12.846,65.045,12.498,65.246,12.587z M64.275,24.371c0.369,2.269,0.643,4.556,0.877,6.843
			c0.104,1.024-0.146,1.255-1.084,1.438c-0.492,0.096-0.986,0.226-1.483,0.24c-2.407,0.072-4.814,0.121-7.222,0.156
			c-0.593,0.009-0.953-0.329-0.959-0.903c-0.018-1.906-0.006-3.812-0.006-5.719h-0.025c0-1.904-0.016-3.81,0.012-5.715
			c0.008-0.426,0.308-0.776,0.76-0.772c1.5,0.015,3.028-0.086,4.491,0.172c1.243,0.218,2.736-0.217,3.704,0.822
			C64.191,21.848,64.084,23.2,64.275,24.371z M54.383,10.893c0.072-0.242,0.356-0.595,0.554-0.601
			c1.605-0.046,3.214-0.067,4.817,0.005c0.641,0.029,1.062,0.527,1.198,1.182c0.062,0.295,0.058,0.604,0.13,0.895
			c0.289,1.167,0.611,2.327,0.853,3.504c0.011,0.052-0.662,0.342-1.02,0.35c-0.903,0.019-1.808-0.061-2.036-0.07
			c-5.324-0.092-4.506,0.571-4.596-4.071C54.275,11.687,54.27,11.268,54.383,10.893z M62.143,50.612
			c-0.756,1.854-1.576,3.683-2.416,5.5c-0.154,0.335-0.49,0.657-0.822,0.826c-1.176,0.596-2.42,0.967-3.764,0.881
			c-0.508-0.033-0.885-0.411-0.892-0.982c-0.013-1.004-0.003-2.01-0.003-3.015h0.121c0-0.704-0.02-1.407,0.004-2.11
			c0.055-1.707,0.065-1.678,1.631-1.836c1.697-0.171,3.393-0.373,5.08-0.617C62.578,49.041,62.73,49.164,62.143,50.612z
			 M63.059,45.072c-2.516,0.681-5.032,1.368-7.678,1.252c-0.594-0.024-0.967-0.343-0.969-0.905c-0.014-2.809-0.014-5.619,0.01-8.428
			c0.004-0.43,0.299-0.766,0.759-0.772c1.604-0.021,3.21-0.009,4.813-0.009v-0.186c1.104,0,2.21,0.029,3.312-0.008
			c1.697-0.057,2.088,0.167,1.814,1.818c-0.342,2.071-0.332,4.205-1.055,6.213C63.886,44.552,63.576,44.932,63.059,45.072z
			 M66.228,54.342c-0.625,0.32-1.245,0.646-1.875,0.957c-0.079,0.039-0.195,0.005-0.288,0.005c-0.1-0.14-0.307-0.325-0.272-0.396
			c1.041-2.164,2.119-4.307,2.783-6.637c0.113-0.396,0.623-0.79,1.043-0.969c1.744-0.748,3.521-1.42,5.297-2.094
			c0.131-0.05,0.406,0.053,0.491,0.171c0.081,0.113,0.034,0.353-0.017,0.519C72.219,49.743,69.785,52.521,66.228,54.342z
			 M105.072,95.625c0.007-1.204,0.002-2.409,0.002-3.615c0-1.104-0.021-2.209,0.004-3.312c0.088-4.061-2.083-6.765-5.291-8.848
			c-0.539-0.349-1.178-0.228-1.582,0.348c-0.75,1.067-1.443,2.173-2.184,3.248c-0.566,0.824-1.156,1.634-1.765,2.428
			c-0.064,0.085-0.424,0.092-0.466,0.021c-0.313-0.508-0.563-1.059-0.869-1.572c-0.634-1.068-0.593-1.987,0.224-3.021
			c0.824-1.043,0.458-1.666-0.814-1.702c-0.602-0.017-1.205,0.01-1.807,0.038c-0.337,0.016-0.678,0.562-0.565,0.896
			c0.096,0.282,0.201,0.57,0.348,0.828c0.502,0.88,0.414,1.719-0.101,2.559c-0.208,0.34-0.335,0.729-0.554,1.061
			c-0.096,0.147-0.332,0.297-0.49,0.283c-0.143-0.012-0.307-0.224-0.393-0.385c-0.749-1.414-1.439-2.861-2.236-4.248
			c-0.432-0.752-0.357-1.865-1.332-2.227c-0.924-0.344-1.73,0.427-2.613,0.481c-1.597,0.101-2.57,1.053-3.312,2.301
			c-0.98,1.648-1.725,3.403-1.939,5.333c-0.08,0.716-0.179,1.356-0.883,1.791c-0.471,0.289-0.48,0.861-0.384,1.364
			c0.094,0.489,0.276,0.96,0.406,1.441c0.19,0.704,0.106,0.761-0.722,0.741c-0.795-0.019-1.602-0.05-2.379,0.074
			c-0.306,0.049-0.711,0.478-0.768,0.788c-0.056,0.312,0.171,0.854,0.439,1.011c0.592,0.346,1.289,0.514,1.945,0.752
			c0.549,0.199,1.285-0.438,1.652,0.187c0.284,0.481,0.244,1.156,0.335,1.746c0.077,0.494,0.133,0.992,0.202,1.487
			c0.238,1.703,0.771,2.212,2.551,2.29c1.202,0.052,2.41-0.003,3.614,0.016c1.304,0.021,2.606,0.058,3.909,0.115
			c1.199,0.054,2.4,0.239,3.596,0.2c3.51-0.115,7.014-0.322,10.521-0.475c3.444-0.148,2.617-0.178,3.635-3.226
			C105.129,96.457,105.07,96.027,105.072,95.625z M30.451,88.723c-0.189,0.062-0.387,0.115-0.557,0.213
			c-0.426,0.243-0.932,0.802-1.236,0.704c-0.621-0.198-0.549-0.991-0.666-1.561c-0.121-0.588-0.098-1.205-0.207-1.797
			c-0.262-1.403-0.752-2.739-1.771-3.759c-0.92-0.921-1.965-1.718-2.971-2.55c-0.535-0.442-1.188-0.423-1.609,0.078
			c-0.518,0.612-1.004,1.255-1.456,1.917c-0.849,1.246-1.66,2.518-2.496,3.772c-0.213,0.321-0.541,0.274-0.725,0.028
			c-0.293-0.396-0.484-0.869-0.744-1.293c-0.703-1.148-0.814-2.242,0.219-3.275c0.138-0.138,0.221-0.333,0.318-0.508
			c0.164-0.296-0.1-0.949-0.424-0.956c-0.988-0.022-1.978-0.013-2.965,0.028c-0.109,0.005-0.32,0.314-0.291,0.438
			c0.088,0.379,0.215,0.771,0.424,1.095c0.552,0.857,0.558,1.67-0.002,2.523c-0.273,0.417-0.461,0.89-0.697,1.332
			c-0.129,0.245-0.52,0.174-0.682-0.132c-0.893-1.679-1.782-3.359-2.664-5.044c-0.092-0.175-0.113-0.384-0.189-0.569
			c-0.41-1.01-0.811-1.248-1.785-1.005c-0.484,0.12-0.947,0.434-1.427,0.449c-1.86,0.06-2.911,1.216-3.737,2.663
			c-0.697,1.221-1.242,2.498-1.545,3.9c-0.555,2.58-0.658,5.179-0.498,7.797c0,1.508-0.049,3.018,0.014,4.523
			c0.064,1.548,0.891,2.349,2.472,2.443c1.103,0.064,2.212,0.024,3.317,0.035c1.307,0.012,2.615-0.004,3.92,0.05
			c1.502,0.061,3.004,0.3,4.5,0.257c3.514-0.1,7.024-0.319,10.535-0.497c0.301-0.016,0.604-0.057,0.895-0.128
			c1.057-0.255,1.834-0.807,2-1.971c0.17-1.192,0.375-2.381,0.491-3.579c0.073-0.771,0.287-1.204,1.128-1.498
			c1.485-0.518,1.979-1.869,2.15-3.329C31.544,89.073,30.882,88.583,30.451,88.723z M83.51,69.036
			c1.432,0.575,1.653,1.889,2.159,3.064c0.396,0.917,0.808,1.847,1.358,2.674c0.494,0.739,1.102,1.455,1.805,1.99
			c2.656,2.028,5.887,1.127,7.084-1.991c0.426-1.109,0.58-2.323,0.863-3.489c0.186-0.774,0.273-1.613,1.1-2.033
			c1.184-0.601,1.351-1.637,1.254-2.806c-0.066-0.802,0.009-1.797-0.727-2.198c-1.098-0.6-1.172-1.468-1.234-2.509
			c-0.047-0.787-0.257-1.581-0.502-2.337c-0.838-2.572-2.182-3.526-5.154-3.558c-1.867-0.186-3.414,0.729-4.531,2.494
			c-0.862,1.364-1.641,2.764-1.867,4.391c-0.087,0.63-0.244,1.224-0.848,1.494c-1.636,0.735-1.643,2.13-1.445,3.562
			C82.887,68.238,83.162,68.895,83.51,69.036z M92.801,59.94c0.057-0.08,0.412-0.078,0.494,0.01c0.553,0.6,0.915,1.311,0.933,2.136
			c0.029,1.194,0.008,2.39,0.008,3.584c0.055,0.001,0.109,0.001,0.164,0.003c-0.066,1.293-0.074,2.592-0.223,3.875
			c-0.064,0.562-0.407,1.096-0.64,1.634c-0.032,0.072-0.173,0.144-0.252,0.134c-0.066-0.009-0.171-0.143-0.165-0.215
			c0.084-1.225-0.781-2.277-0.734-3.432c0.046-1.146-0.407-2.131-0.572-3.195C91.565,62.85,91.83,61.306,92.801,59.94z
			 M6.918,69.387c0.924,0.416,1.266,1.218,1.543,2.106c0.482,1.552,1.23,2.968,2.283,4.214c1.086,1.288,2.387,2.146,4.309,2.057
			c1.314,0.179,2.391-0.502,3.16-1.662c0.44-0.66,0.771-1.41,1.039-2.158c0.269-0.753,0.515-1.547,0.566-2.338
			c0.078-1.198,0.492-2.094,1.526-2.762c0.383-0.247,0.762-0.754,0.831-1.191c0.229-1.428,0.113-2.829-1.208-3.774
			c-0.542-0.387-0.789-0.877-0.844-1.509c-0.069-0.802-0.081-1.616-0.238-2.399c-0.335-1.658-1.167-3.133-2.745-3.746
			c-2.314-0.901-4.937-0.746-6.792,1.623c-0.491,0.626-0.909,1.334-1.231,2.061c-0.448,1.006-0.814,2.054-1.137,3.107
			c-0.152,0.5-0.294,0.977-0.769,1.228c-1.445,0.763-1.375,2.085-1.295,3.414C5.961,68.395,6.19,69.058,6.918,69.387z
			 M15.762,60.082c0.137-0.284,0.468-0.263,0.662-0.004c0.749,1.006,0.95,2.185,1.031,3.384c0.055,0.795,0.012,1.598,0.012,2.396
			c0.065,0.008,0.129,0.017,0.193,0.024c-0.201,1.374-0.377,2.752-0.621,4.118c-0.074,0.418-0.01,1.147-0.748,0.993
			c-0.443-0.092-0.309-0.608-0.311-1.007c-0.002-0.364-0.187-0.735-0.324-1.092c-0.105-0.274-0.422-0.563-0.373-0.787
			c0.34-1.544-0.312-2.935-0.604-4.377C14.391,62.303,15.199,61.237,15.762,60.082z M60.617,70.429
			c-1.691-1.677-3.422-3.317-5.149-4.957c-0.136-0.129-0.351-0.231-0.532-0.239c-0.277-0.013-0.6-0.004-0.829,0.127
			c-0.423,0.24-0.323,0.678-0.22,1.062c0.05,0.186,0.165,0.363,0.277,0.524c1.385,1.975,3.176,3.55,5.024,5.063
			c0.216,0.177,0.54,0.229,0.822,0.314c0.447,0.137,1.062-0.364,0.968-1.113C60.941,71.125,60.872,70.683,60.617,70.429z
			 M48.129,92.528c-1.951-0.476-3.74,0.196-5.518,0.861c-0.406,0.152-0.383,1.036-0.029,1.295c0.782,0.578,1.683,0.572,2.881,0.563
			c0.211-0.011,0.736,0.051,1.205-0.088c0.754-0.224,1.486-0.546,2.197-0.889c0.426-0.205,0.42-0.993,0.025-1.28
			C48.65,92.816,48.404,92.594,48.129,92.528z M44.528,73.177c-0.143-0.204-0.268-0.495-0.487-0.667
			c-0.42-0.33-0.957-0.4-1.387-0.089c-1.387,1.01-2.385,2.363-3.082,3.912c-0.107,0.242,0.162,0.742,0.389,1.015
			c0.144,0.176,0.529,0.199,0.807,0.205c0.179,0.004,0.379-0.121,0.537-0.232c1.313-0.931,2.269-2.186,3.127-3.52
			C44.526,73.654,44.494,73.424,44.528,73.177z M73.77,87.08c0.406,0.229,0.801,0.132,1.037-0.213
			c0.209-0.308,0.463-0.761,0.379-1.061c-0.46-1.656-1.29-3.09-2.878-3.928c-0.241-0.127-0.553-0.121-0.697-0.15
			c-0.754,0.115-1.197,1.129-0.795,1.721c0.773,1.137,1.627,2.219,2.463,3.311C73.393,86.906,73.6,86.984,73.77,87.08z
			 M36.346,80.443c-1.578,1.036-2.441,2.607-3.076,4.307c-0.102,0.271,0.172,0.762,0.398,1.052c0.26,0.332,0.709,0.399,1.082,0.148
			c1.58-1.061,2.203-2.786,2.992-4.391c0.035-0.07-0.035-0.192-0.057-0.29C37.604,80.668,36.787,80.154,36.346,80.443z M65.449,92.2
			c-0.953,0.033-1.952,0.029-2.773,0.744c-0.422,0.366-0.53,1.197-0.109,1.606c0.268,0.263,0.642,0.576,0.975,0.584
			c0.779,0.017,1.58-0.062,2.34-0.242c0.758-0.179,1.604-0.411,1.652-1.429C67.57,92.722,66.699,92.209,65.449,92.2z M36.595,93.282
			c-1.752-0.75-3.296-0.038-4.817,0.725c-0.402,0.202-0.262,1.063,0.199,1.238c0.643,0.243,1.309,0.431,1.59,0.521
			c1.539,0.046,2.582-0.211,3.508-0.883c0.402-0.293,0.424-1.039,0.029-1.297C36.937,93.477,36.775,93.359,36.595,93.282z
			 M65.274,74.475c-0.207-0.192-0.762-0.162-1.084-0.04c-0.475,0.18-0.677,0.825-0.522,1.252c0.495,1.367,1.406,2.399,2.647,3.115
			c0.307,0.178,0.792,0.205,1.141,0.106c0.316-0.09,0.561-0.444,0.811-0.661c-0.135-0.433-0.146-0.782-0.323-0.981
			C67.085,76.305,66.215,75.35,65.274,74.475z M57.982,93.196c-0.74-0.262-1.52-0.414-2.267-0.604
			c-0.745,0.146-1.44,0.23-2.095,0.44c-0.207,0.066-0.42,0.463-0.428,0.715c-0.01,0.254,0.168,0.659,0.375,0.753
			c1.201,0.546,2.469,0.816,3.797,0.612c0.191-0.029,0.429-0.103,0.537-0.241c0.23-0.293,0.49-0.627,0.545-0.975
			C58.48,93.683,58.205,93.275,57.982,93.196z M45.955,70.158c0.473-0.303,0.994-0.47,1.241-0.828
			c0.56-0.809,1.008-1.698,1.44-2.586c0.102-0.208,0.021-0.559-0.08-0.8c-0.127-0.306-0.762-0.39-1.062-0.175
			c-1.058,0.759-1.971,1.663-2.57,2.828c-0.114,0.223-0.095,0.646,0.049,0.838C45.186,69.72,45.563,69.883,45.955,70.158z"/>
	</g>
</g>
<g>
</g>
<g>
</g>
<g>
</g>
<g>
</g>
<g>
</g>
<g>
</g>
<g>
</g>
<g>
</g>
<g>
</g>
<g>
</g>
<g>
</g>
<g>
</g>
<g>
</g>
<g>
</g>
<g>
</g>
</svg>
