<?xml version="1.0" encoding="iso-8859-1"?>
<!-- Generator: Adobe Illustrator 19.0.0, SVG Export Plug-In . SVG Version: 6.00 Build 0)  -->
<svg version="1.1" id="Capa_1" xmlns="http://www.w3.org/2000/svg" xmlns:xlink="http://www.w3.org/1999/xlink" x="0px" y="0px"
	 viewBox="0 0 105 105" style="enable-background:new 0 0 105 105;" xml:space="preserve">
<g id="_x0A_support-person_x0A_">
	<g>
		<path style="fill-rule:evenodd;clip-rule:evenodd;" d="M104.218,56.212c-1.078-4.452-3.167-8.359-6.273-11.7
			c-0.647-0.695-1.542-1.222-2.411-1.645c-2.02-0.984-4.174-1.227-6.392-0.838c-0.751,0.134-1.494,0.32-2.249,0.429
			c-0.732,0.104-1.319-0.291-1.382-1.047c-0.221-2.73-0.931-5.366-1.458-8.038c-0.021-0.108-0.021-0.218-0.027-0.327
			c-0.153-2.423-0.868-4.724-1.656-6.987c-1.128-3.24-2.817-6.159-5.396-8.486c-1.053-0.948-2.174-1.823-3.226-2.773
			c-3.781-3.419-8.489-4.831-13.244-6.125c-0.618-0.168-1.303-0.098-1.958-0.104c-5.708-0.054-11.297,0.759-16.821,2.183
			c-6.016,1.552-10.956,4.788-15.103,9.335c-0.587,0.643-1.123,1.342-1.617,2.06c-3.965,5.764-6.063,12.3-7.818,18.97
			c-0.305,1.156-0.396,2.363-0.656,3.537c-0.206,0.932-0.426,1.098-1.381,0.861c-3.043-0.755-5.586,0.246-7.896,2.131
			c-0.509,0.416-0.944,0.923-1.472,1.308c-1.648,1.201-2.869,2.644-3.212,4.744c-0.121,0.742-0.482,1.448-0.784,2.15
			c-1.505,3.484-2.012,7.122-1.698,10.889c0.272,3.28,0.822,6.494,2.261,9.498c0.613,1.28,1.166,2.587,1.778,3.865
			c1.031,2.152,2.578,3.799,4.841,4.66c1.959,0.742,4.006,1.163,6.097,0.854c1.281-0.189,2.544-0.593,3.777-1.011
			c1.195-0.408,1.972-1.285,2.432-2.489c0.708-1.854,1.177-3.727,1.156-5.738c-0.059-5.577-0.01-11.154-0.059-16.729
			c-0.02-2.181-0.077-4.355-0.51-6.523c-0.229-1.153-0.084-2.396-0.002-3.592c0.119-1.738,0.304-3.478,0.514-5.208
			c0.313-2.595,0.566-5.204,1.032-7.771c0.737-4.065,2.821-7.566,5.113-10.899c1.489-2.167,3.424-3.878,5.934-4.996
			c4.219-1.874,8.51-3.317,13.118-3.89c2.358-0.291,4.746-0.53,7.031-1.438c1.034-0.41,2.44-0.373,3.536-0.055
			c4.608,1.341,9.169,2.753,12.797,6.25c2.559,2.466,4.636,5.223,6.232,8.342c0.988,1.932,1.854,3.965,2.15,6.159
			c0.48,3.565,0.865,7.148,1.434,10.702c0.398,2.49,0.552,4.988,0.684,7.497c0.051,0.976,0.214,1.947,0.295,2.927
			c0.107,1.304,0.232,2.611,0.242,3.919c0.003,0.354-0.295,0.879-0.604,1.042c-1.642,0.87-3.32,1.666-5.014,2.43
			c-0.172,0.079-0.558-0.165-0.756-0.354c-0.126-0.119-0.107-0.409-0.12-0.626c-0.233-4.251-0.549-8.488-1.229-12.697
			c-0.082-0.511,0.034-1.086,0.183-1.596c0.936-3.202,1.045-6.402,0.465-9.708c-0.613-3.502-1.719-6.787-3.641-9.743
			c-0.877-1.348-2.085-2.533-3.317-3.586c-1.322-1.129-2.825-2.057-4.302-2.99c-0.824-0.52-1.749-0.883-2.64-1.297
			c-0.93-0.431-1.988-0.573-2.887-0.242c-2.062,0.762-4.057,0.423-6.12,0.117c-1.277-0.188-2.612-0.025-3.917,0.036
			c-0.87,0.045-1.734,0.206-2.604,0.286c-2.31,0.215-4.509,0.812-6.547,1.934c-1.724,0.944-3.456,1.883-5.114,2.933
			c-2.056,1.306-3.792,2.944-4.812,5.233c-0.264,0.59-0.597,1.178-1.017,1.661c-2.101,2.429-2.449,5.214-1.967,8.283
			c0.59,3.769,1.162,7.542,0.771,11.398c-0.339,3.363-0.495,6.746-0.731,10.12c0.046,0.002,0.091,0.007,0.139,0.013
			c0,1.855-0.028,3.716,0.006,5.575c0.09,4.977,1.57,9.657,3.15,14.31c0.103,0.31,0.265,0.603,0.439,0.878
			c1.76,2.77,3.64,5.449,5.887,7.86c0.695,0.743,1.467,1.257,2.467,1.509c1.477,0.373,2.962,0.762,4.385,1.299
			c2.388,0.902,4.84,1.216,7.373,1.284c2.467,0.063,4.767-0.331,6.935-1.543c2.664-1.49,5.392-2.869,8.041-4.383
			c2.302-1.315,4.252-3.058,5.716-5.301c0.656-1.007,1.271-2.052,2.021-2.988c1.269-1.587,1.903-3.389,2.162-5.379
			c0.153-1.187,0.403-2.361,0.676-3.531c0.093-0.396,0.293-0.938,0.601-1.082c1.872-0.877,3.781-1.677,5.702-2.438
			c0.148-0.06,0.646,0.306,0.695,0.534c0.134,0.631,0.134,1.295,0.152,1.944c0.043,1.42-0.027,2.851,0.117,4.26
			c0.204,2.027,1.277,3.465,3.301,4.025c0.837,0.233,1.705,0.393,2.569,0.473c2.299,0.226,4.577-0.009,6.844-0.431
			c1.106-0.201,2.074-0.655,2.898-1.415c1.212-1.115,2.413-2.268,3.113-3.773c1.1-2.361,2.103-4.771,3.104-7.177
			c0.205-0.492,0.289-1.056,0.327-1.597C105.123,63.132,105.052,59.651,104.218,56.212z M15.795,80.898
			c-0.5,0.161-1.059,0.178-1.592,0.187c-0.121,0.003-0.348-0.297-0.352-0.461c-0.009-0.313,0.065-0.646,0.18-0.944
			c0.353-0.912,0.758-1.808,1.106-2.725c0.152-0.404,0.244-0.84,0.308-1.271c0.08-0.531-0.43-1.444-0.879-1.652
			c-0.511-0.238-1.428-0.098-1.816,0.379c-0.823,1.012-1.593,2.069-2.388,3.105c-0.194,0.257-0.371,0.233-0.498-0.058
			c-0.043-0.098-0.11-0.207-0.093-0.296c0.061-0.315,0.097-0.65,0.244-0.922c0.569-1.055,1.199-2.08,1.767-3.136
			c0.617-1.155,1.231-2.312,1.755-3.508c0.153-0.349,0.034-0.843-0.053-1.252c-0.076-0.361-0.819-0.656-1.066-0.446
			c-1.168,0.974-2.309,1.986-3.492,2.94c-0.277,0.227-0.651,0.331-0.995,0.474c-0.011,0.036-0.021,0.074-0.033,0.11
			c-0.029,0.011-0.05,0.026-0.076,0.038c0.03,0.47-0.12,0.856-0.521,1.118c-0.005,0.061-0.012,0.12-0.021,0.179
			c-0.079,0.029-0.161,0.055-0.233,0.101c-0.045,0.024-0.072,0.077-0.108,0.123c0.083-0.106,0.166-0.213,0.248-0.319
			c0.046-0.024,0.074-0.057,0.114-0.083c0.039-0.435,0.027-0.893,0.521-1.118c-0.003-0.036,0.003-0.067-0.001-0.104
			c0.036-0.017,0.073-0.03,0.11-0.045c0.144-0.468,0.233-0.97,0.481-1.377c1.064-1.751,2.194-3.464,3.281-5.206
			c0.456-0.731,0.957-1.458,1.254-2.256c0.164-0.438,0.084-1.089-0.136-1.517c-0.289-0.563-0.858-0.452-1.401-0.188
			c-0.259,0.124-0.592,0.094-0.896,0.125c0.003,0.015-0.002,0.026,0.002,0.042c-0.018,0-0.028,0.006-0.045,0.006
			c-0.02,0.386-0.253,0.531-0.584,0.567c-0.003,0.038-0.013,0.07-0.014,0.111c-0.073,0.025-0.149,0.045-0.217,0.077
			c-0.042,0.059-0.083,0.119-0.123,0.177c0.027-0.055,0.04-0.136,0.085-0.163c0.011-0.007,0.026-0.008,0.038-0.014
			c0.041-0.058,0.081-0.115,0.121-0.173c0.04-0.001,0.073-0.011,0.11-0.015c0.032-0.342,0.195-0.562,0.584-0.567
			c0.001-0.017,0.008-0.027,0.008-0.045c0.011-0.001,0.023-0.001,0.035-0.002c-0.13-0.594,0.249-0.982,0.572-1.4
			c0.799-1.038,1.614-2.061,2.372-3.123c0.326-0.459,0.386-1.027,0.072-1.544c-0.345-0.565-1.427-1.073-1.994-0.837
			c-0.795,0.331-1.568,0.744-2.289,1.22c-0.72,0.473-1.361,1.069-2.047,1.598c-0.046,0.036-0.193-0.011-0.261-0.062
			c-0.08-0.061-0.201-0.19-0.183-0.25c0.772-2.252,2.14-4.083,4.247-5.183c1.406-0.732,2.992-0.544,4.433,0.065
			c0.432,0.181,0.839,0.746,0.98,1.217c0.275,0.93,0.432,1.91,0.501,2.882c0.114,1.632,0.091,3.272,0.18,4.907
			c0.122,2.284,0.337,4.565,0.434,6.851c0.084,1.959,0.078,3.927,0.078,5.89c-0.002,1.626-0.206,3.233,0.066,4.876
			C17.964,79.751,17.48,80.357,15.795,80.898z M62.283,32.228c0.113-0.268,0.325-0.659,0.541-0.69
			c1.553-0.228,2.697,0.511,3.605,1.692c0.117,0.153,0.119,0.393,0.129,0.431c-0.171,0.891-0.307,1.629-0.457,2.367
			c-0.021,0.097-0.11,0.185-0.169,0.273c-0.104-0.154-0.256-0.3-0.303-0.472c-0.253-0.933-0.415-1.899-0.751-2.8
			c-0.122-0.329-0.601-0.621-0.974-0.729c-0.211-0.06-0.533,0.306-0.819,0.443c-0.219,0.106-0.412,0.666-0.704,0.097
			C62.287,32.663,62.213,32.393,62.283,32.228z M58.378,29.275c0.078-0.126,0.288-0.19,0.453-0.232
			c0.057-0.015,0.188,0.119,0.22,0.206c0.07,0.191,0.176,0.42,0.13,0.594c-0.17,0.623,0.216,1.425-0.578,1.847
			c-0.147-0.597-0.295-1.193-0.395-1.595C58.287,29.675,58.276,29.441,58.378,29.275z M44.986,36.414
			c0.055,0.087,0.141,0.174,0.158,0.27c0.036,0.204,0.036,0.418,0.051,0.628c-0.06,0.083-0.119,0.169-0.179,0.251
			c-0.099-0.138-0.29-0.284-0.279-0.417C44.759,36.897,44.895,36.658,44.986,36.414z M36.394,33.57
			c0.007-0.167,0.229-0.342,0.377-0.488c0.228-0.229,0.354-0.15,0.478,0.141c0.243,0.584,0.764,1.146,0.768,1.717
			c0.008,2.061,0.188,4.083,0.689,6.084c0.053,0.213-0.206,0.675-0.405,0.733c-0.238,0.07-0.73-0.094-0.825-0.295
			c-0.32-0.669-0.609-1.382-0.731-2.109c-0.156-0.953-0.14-1.933-0.197-2.903c-0.057,0-0.113-0.002-0.17-0.002
			C36.378,35.486,36.36,34.528,36.394,33.57z M70.404,60.504c-0.446,1.533-0.268,3.256-0.293,4.893
			c-0.022,1.375-0.604,2.244-1.912,2.718c-1.639,0.595-3.215,1.269-5.004,1.452c-1.606,0.163-3.229,0.607-4.729,1.221
			c-1.292,0.523-2.29,0.437-3.293-0.448c-0.163-0.143-0.353-0.262-0.539-0.373c-3.782-2.288-9.017-0.746-10.845,3.248
			c-0.99,2.165-0.697,4.311,0.625,6.228c1.205,1.746,2.987,2.883,4.906,3.702c1.708,0.727,5.283,0.002,6.569-1.853
			c0.873-1.263,1.736-2.508,1.896-4.117c0.029-0.309,0.556-0.802,0.868-0.812c2.541-0.089,4.928-0.888,7.368-1.451
			c0.946-0.217,1.948-0.234,2.927-0.256c0.188-0.004,0.398,0.4,0.57,0.637c0.051,0.069,0.033,0.226-0.007,0.317
			c-1.454,3.306-3.075,6.45-5.918,8.885c-3.154,2.7-6.778,4.308-10.681,5.496c-1.627,0.497-3.236,0.383-4.868,0.295
			c-0.217-0.012-0.448-0.035-0.642-0.127c-1.773-0.819-3.561-1.612-5.303-2.495c-1.72-0.875-2.838-2.371-3.787-3.992
			c-2.849-4.859-4.632-10.1-5.502-15.654c-0.085-0.538-0.145-1.088-0.136-1.633c0.07-4.38-0.522-8.709-1.017-13.044
			c-0.037-0.327-0.047-0.656-0.048-0.983c-0.006-3.248-0.463-3.104,2.854-3.962c5.81-1.507,10.963-4.302,15.376-8.389
			c1.037-0.959,1.912-2.092,2.885-3.122c0.348-0.366,0.809-0.364,1.15-0.012c0.53,0.55,0.993,1.163,1.493,1.742
			c3.471,4.019,7.927,6.032,13.158,6.47c0.327,0.028,0.657-0.002,0.982,0.036c0.615,0.076,0.968,0.483,1.078,1.058
			c0.122,0.641,0.21,1.296,0.251,1.944c0.093,1.529,0.15,3.06,0.214,4.468C70.984,55.317,71.16,57.912,70.404,60.504z
			 M98.325,70.827c-0.398,1.479-0.94,2.911-2.19,3.93c-0.353,0.288-0.712,0.431-1.168,0.167c-0.974-0.562-1.843-0.458-2.629,0.41
			c-0.4,0.443-0.946,0.499-1.486,0.193c-0.353-0.204-0.891-0.355-0.551-0.921c0.84-1.398,1.733-2.766,2.582-4.16
			c0.57-0.933,1.076-1.891,0.955-3.056c-0.078-0.762-0.807-1.442-1.571-1.294c-0.769,0.149-1.522,0.386-2.28,0.595
			c-0.028,0.043-0.056,0.087-0.083,0.13c-0.04,0.023-0.06,0.055-0.095,0.08c0.004,0.443-0.114,0.834-0.495,1.104
			c-0.003,0.061-0.01,0.121-0.011,0.182c-0.095,0.001-0.173,0.021-0.246,0.046c-0.124,0.117-0.249,0.236-0.373,0.354
			c-0.035,0.077-0.062,0.162-0.083,0.254c-0.042,0.029-0.085,0.057-0.128,0.085c-0.052,0.249-0.096,0.503-0.206,0.725
			c-0.06,0.119-0.326,0.139-0.5,0.204c0.026-0.163-0.004-0.383,0.089-0.475c0.181-0.177,0.402-0.313,0.617-0.454
			c0.012-0.058,0.023-0.117,0.037-0.174c0.058-0.056,0.116-0.109,0.174-0.165c0.076-0.169,0.196-0.293,0.373-0.354
			c0.05-0.048,0.101-0.096,0.151-0.144c0.043-0.024,0.068-0.058,0.106-0.084c0.022-0.43,0.122-0.828,0.495-1.104
			c0-0.054,0.005-0.106,0.002-0.162c0.059-0.016,0.117-0.033,0.176-0.049c0.546-0.863,1.086-1.729,1.641-2.586
			c0.762-1.176,1.536-2.341,2.302-3.515c0.629-0.963,0.328-2.243-1.194-2.791c-0.455-0.164-0.97-0.163-1.464-0.219l-0.041,0.07
			c-0.066,0.032-0.135,0.062-0.198,0.102c-0.036,0.058-0.072,0.117-0.109,0.174c0.024-0.054,0.033-0.123,0.072-0.155
			c0.011-0.009,0.025-0.012,0.037-0.019c0.039-0.062,0.078-0.123,0.116-0.185c0.041,0.006,0.082,0.008,0.123,0.013
			c0.585-0.996,1.172-1.996,1.755-2.994c0.273-0.467,0.573-0.927,0.8-1.419c0.425-0.921-0.433-2.127-1.453-1.982
			c-0.626,0.089-1.297,0.278-1.814,0.621c-0.808,0.537-1.488,1.264-2.253,1.87c-0.222,0.178-0.547,0.225-0.824,0.328
			c-0.094-0.308-0.219-0.608-0.273-0.923c-0.184-1.039,0.063-1.902,0.928-2.616c0.578-0.477,1.052-1.094,1.514-1.695
			c0.424-0.547,0.109-1.632,1.195-1.702c1.203-0.083,2.41-0.133,3.408,0.742c0.992,0.873,1.883,1.813,2.256,3.133
			c0.146,0.526,0.371,1.029,0.481,1.558c0.578,2.768,1.147,5.535,1.69,8.306C99.338,64.172,99.215,67.523,98.325,70.827z"/>
	</g>
</g>
<g>
</g>
<g>
</g>
<g>
</g>
<g>
</g>
<g>
</g>
<g>
</g>
<g>
</g>
<g>
</g>
<g>
</g>
<g>
</g>
<g>
</g>
<g>
</g>
<g>
</g>
<g>
</g>
<g>
</g>
</svg>
