<?xml version="1.0" encoding="iso-8859-1"?>
<!-- Generator: Adobe Illustrator 19.0.0, SVG Export Plug-In . SVG Version: 6.00 Build 0)  -->
<svg version="1.1" id="Capa_1" xmlns="http://www.w3.org/2000/svg" xmlns:xlink="http://www.w3.org/1999/xlink" x="0px" y="0px"
	 viewBox="0 0 101.438 101.438" style="enable-background:new 0 0 101.438 101.438;" xml:space="preserve">
<g id="_x0A_badge">
	<g>
		<path style="fill-rule:evenodd;clip-rule:evenodd;" d="M101.21,51.628c0.357-5.61,0.188-11.257,0.188-16.888
			c-0.002-3.636-1.5-6.816-3.275-9.88c-0.645-1.109-1.65-1.608-2.924-1.884c-3.364-0.729-6.795-0.626-10.188-0.884
			c-4.696-0.354-9.434-0.699-14.113,0.361c-0.373,0.084-0.802-0.291-0.809-0.7c-0.037-2.312-0.168-4.63-0.047-6.934
			c0.096-1.844-0.57-3.106-2.143-3.95c-0.704-0.378-1.404-0.809-2.159-1.041c-1.461-0.448-2.745-1.216-4.065-1.941
			c-1.493-0.82-3.021-1.582-4.574-2.281c-1.277-0.574-2.615-1.009-3.918-1.526c-1.572-0.623-3.107-0.706-4.641,0.145
			c-0.7,0.389-1.443,0.707-2.184,1.015c-3.623,1.508-7.136,3.224-10.492,5.264c-0.764,0.463-1.605,0.826-2.455,1.108
			c-1.277,0.422-1.898,1.446-2.461,2.51c-0.515,0.975-0.91,1.958-0.492,3.158c0.358,1.03,0.459,2.155,0.604,3.247
			c0.026,0.201-0.239,0.591-0.437,0.643c-0.476,0.125-0.992,0.119-1.492,0.137c-1.709,0.059-3.422,0.046-5.125,0.168
			c-3.904,0.279-7.801,0.79-11.709,0.885c-2.684,0.063-5.148,0.704-7.604,1.617c-1.627,0.605-2.736,1.639-3.037,3.414
			c-0.268,1.578-0.566,3.152-0.812,4.734c-0.291,1.883-0.742,3.77-0.771,5.661c-0.087,5.428-0.142,10.865,0.09,16.286
			c0.115,2.706,0.279,5.414,0.309,8.125c0.031,2.916,0.007,5.832,0.007,8.749H0.353c0,3.72-0.019,7.44,0.01,11.161
			c0.012,1.607,0.062,3.22,0.199,4.82c0.294,3.402,1.923,5.815,5.242,7.006c1.887,0.676,3.708,1.532,5.58,2.251
			c1.025,0.396,2.074,0.828,3.15,0.976c2.184,0.299,4.39,0.507,6.594,0.59c7.238,0.273,14.465-0.164,21.689-0.521
			c1.305-0.064,2.61-0.121,3.916-0.155c3.816-0.098,7.641-0.371,11.444-0.202c2.403,0.107,4.81,0.199,7.217,0.275
			c7.845,0.248,15.675,0.067,23.445-1.109c2.569-0.389,5.089-1.105,7.63-1.672c1.98-0.441,3.055-1.771,3.648-3.629
			c0.526-1.646,0.752-3.319,0.74-5.045c-0.029-4.222-0.063-8.444-0.019-12.666C100.916,65.895,100.755,58.764,101.21,51.628z
			 M36.976,15.056c0.566-0.197,1.137-0.394,1.718-0.538c3.532-0.874,6.806-2.368,9.972-4.126c0.525-0.292,1.064-0.562,1.605-0.824
			c1.343-0.651,2.678-0.692,4.051-0.035c2.713,1.3,5.453,2.535,8.369,3.326c0.932,0.253,1.543,0.873,1.848,1.811
			c0.691,2.133,0.879,4.317,0.734,6.541c-0.056,0.862-0.453,1.541-1.161,2.009c-1.353,0.896-2.769,1.629-4.473,1.521
			c-0.601-0.037-1.205-0.005-1.808-0.005c0-0.028,0.001-0.056,0.002-0.083c-6.019-0.127-12.036-0.243-18.053-0.396
			c-0.684-0.018-1.406-0.146-2.027-0.414c-0.4-0.172-0.881-0.664-0.932-1.062c-0.273-2.185-0.434-4.383-0.61-6.578
			C36.167,15.653,36.44,15.241,36.976,15.056z M95.23,56.064c-0.642,2.855-0.942,5.75-1.016,8.656
			C94.074,70.25,94.028,75.784,94,81.316c-0.009,1.833-0.301,3.596-0.858,5.326c-0.152,0.477-0.34,0.948-0.895,1.126
			c-1.812,0.584-3.613,1.215-5.44,1.748c-1.351,0.395-2.747,0.554-4.168,0.543c-3.722-0.028-7.442-0.01-11.163-0.01
			c-0.003-0.057-0.004-0.112-0.007-0.168c-4.819,0.204-9.64,0.423-14.46,0.605c-1.809,0.069-3.62,0.058-5.431,0.077
			c-6.235,0.068-12.472,0.155-18.708,0.188c-2.207,0.013-4.402-0.074-6.604-0.461c-1.763-0.31-3.608-0.172-5.417-0.188
			c-2.826-0.026-5.588-0.475-8.316-1.181c-2.371-0.612-3.623-2.413-4.588-4.454C7.7,83.951,7.743,83.29,7.699,82.693
			C7.247,76.474,7.13,70.245,7.03,64.014c-0.043-2.608-0.383-5.213-0.408-7.82C6.558,49.858,6.66,43.52,6.569,37.185
			c-0.042-2.894,1.506-4.92,3.268-6.865c0.439-0.484,1.18-0.787,1.838-0.963c2.91-0.774,5.826-1.543,8.883-1.451
			c1.205,0.035,2.416,0.05,3.619-0.02c0.994-0.058,1.978-0.271,2.971-0.383c1.195-0.135,2.395-0.236,3.592-0.352
			c0.68-0.065,1.15,0.176,1.371,0.865c0.121,0.381,0.292,0.753,0.488,1.102c0.801,1.425,2.013,2.257,3.661,2.26
			c2.512,0.005,5.024-0.072,7.536-0.115c1.804-0.029,3.608-0.111,5.412-0.078c5.025,0.094,10.05,0.298,15.076,0.325
			c1.703,0.009,3.422-0.411,4.688-1.718c0.546-0.562,1.12-0.721,1.858-0.77c6.019-0.394,12.049-0.451,18.073-0.687
			c0.502-0.02,1.006-0.038,1.508-0.026c2.448,0.061,4.417,1.623,4.947,4.021c0.238,1.073,0.421,2.183,0.438,3.278
			c0.073,4.927,0.061,9.855,0.119,14.783C95.937,52.319,95.647,54.206,95.23,56.064z M36.25,56.721
			c-0.743-0.292-1.534-0.46-2.276-0.756c-0.353-0.141-0.682-0.394-0.537-0.917c0.267-0.967,0.471-1.95,0.736-2.917
			c0.365-1.333,0.482-3.571,0.268-5.002c-0.074-0.494,0.002-1.013-0.092-1.502c-0.15-0.782-0.318-1.574-0.601-2.316
			c-0.499-1.315-1.435-2.111-2.898-2.287c-3.107-0.372-5.75,0.513-7.875,2.819c-0.837,0.909-1.324,1.982-1.357,3.262
			c-0.018,0.683-0.103,1.405-0.355,2.03c-0.428,1.063-0.383,1.957,0.533,2.702c0.578,0.473,0.822,1.104,1.026,1.791
			c0.228,0.767,0.476,1.535,0.811,2.258c0.285,0.615,0.059,0.898-0.459,1.151c-1.082,0.529-2.15,1.084-3.229,1.619
			c-1.121,0.558-2.142,1.323-2.365,2.57c-0.283,1.592-0.973,3.087-1.17,4.652c-0.299,2.36-0.787,4.718-0.331,7.161
			c0.282,1.521,1.007,2.389,2.396,2.709c1.162,0.268,2.369,0.348,3.652,0.523c1.42-0.185,2.906-0.517,4.398-0.546
			c3.822-0.077,7.586-0.506,11.338-1.24c1.4-0.273,2.359-0.807,3.176-1.957c0.793-1.116,1.267-2.238,1.193-3.61
			c-0.07-1.304-0.064-2.611-0.113-3.916C41.969,60.966,40.009,58.197,36.25,56.721z M36.933,65.103
			c-0.045,0.397-0.008,0.803-0.008,1.205h-0.086c0,0.702,0.024,1.406-0.006,2.107c-0.033,0.777-0.219,0.98-1.041,1.209
			c-0.676,0.188-1.352,0.394-2.04,0.514c-0.879,0.153-1.771,0.227-2.657,0.335c-0.779-0.729-0.306-1.723-0.545-2.562
			c-0.489-1.714-0.072-3.632-1.245-5.214c-0.202-0.272,0.183-0.931,0.183-1.411c-0.001-0.728-0.562-1.286-1.312-1.427
			c-1.121-0.212-1.992,0.632-1.807,1.755c0.033,0.197,0.074,0.397,0.152,0.578c0.695,1.632,0.66,1.627,0.512,2.917
			c-0.182,1.591-0.295,3.189-0.43,4.785c-0.057,0.688-0.359,1.078-1.084,1.228c-0.586,0.122-1.185,0.203-1.783,0.252
			c-1.99,0.166-2.034,0.088-2.146-1.793c-0.078-1.296-0.279-2.585-0.412-3.878c-0.04-0.398,0.008-0.81-0.059-1.202
			c-0.283-1.643,0.33-2.714,1.945-3.201c0.283-0.086,0.549-0.244,0.812-0.391c2.323-1.291,3.251-3.546,2.385-6.11
			c-0.581-1.723-1.064-3.429-1.079-5.273c-0.013-1.455,0.469-2.542,1.732-3.252c0.52-0.292,1.058-0.565,1.614-0.777
			c0.595-0.227,1.312,0.194,1.337,0.83c0.043,1.094,0.1,2.21-0.068,3.281c-0.262,1.681-0.705,3.332-1.072,4.994
			c-0.107,0.488-0.277,0.97-0.316,1.463c-0.072,0.875,0.264,1.555,1.104,1.947c0.533,0.249,1.143,0.447,1.545,0.845
			c0.953,0.944,2.052,1.591,3.299,2.033C36.348,61.597,37.167,63.023,36.933,65.103z M48.351,48.632
			c0.434,0.054,0.963-0.16,1.351-0.408c0.311-0.199,0.476-0.628,0.7-0.958c0.395-0.581,0.76-1.184,1.184-1.741
			c0.738-0.972,1.529-0.939,2.108,0.062c0.2,0.347,0.366,0.714,0.546,1.072c1.391,2.767,4.641,4.216,7.689,1.188
			c0.569-0.566,1.116-1.155,1.686-1.72c0.504-0.499,0.74-0.47,1.103,0.192c0.678,1.234,1.357,2.469,2.46,3.387
			c0.458,0.383,0.94,0.777,1.48,1.015c1.211,0.534,2.712,0.106,3.423-1.101c0.772-1.312,1.669-2.498,2.755-3.551
			c0.652-0.633,0.886-0.633,1.459-0.026c0.551,0.582,1.064,1.207,1.666,1.732c1.091,0.956,2.359,1.512,3.674,1.423
			c1.688,0.008,2.481-0.236,3.006-1.306c0.853-1.743,1.914-3.276,3.443-4.478c0.074-0.06,0.117-0.16,0.173-0.244
			c0.421-0.648,0.452-1.317,0.062-1.986c-0.667-1.145-1.974-1.576-3.097-0.93c-0.777,0.445-1.488,1.017-2.187,1.584
			c-0.464,0.377-0.849,0.852-1.278,1.274c-0.337,0.331-0.703,0.357-1.027-0.001c-0.402-0.446-0.746-0.947-1.162-1.379
			c-1.375-1.423-2.987-1.981-4.895-1.2c-0.643,0.264-1.273,0.587-1.846,0.977c-0.826,0.562-1.594,1.213-2.391,1.821
			c-0.379,0.288-0.781,0.24-1.064-0.093c-0.518-0.609-0.918-1.327-1.473-1.896c-1.464-1.495-3.145-1.757-4.896-0.605
			c-1.159,0.762-2.289,1.672-3.168,2.733c-1.576,1.906-1.746,1.482-3.141-0.066c-0.268-0.299-0.525-0.61-0.816-0.885
			c-1.917-1.806-4.204-1.827-6.195-0.064c-1.242,1.098-1.971,2.517-2.49,4.055c-0.09,0.269-0.082,0.607-0.014,0.888
			C47.33,48.017,47.724,48.554,48.351,48.632z M57.293,58.115v-0.129c2.007,0,4.017,0.06,6.021-0.014
			c3.305-0.122,6.606-0.336,9.91-0.501c4.406-0.221,8.812-0.435,13.219-0.642c0.818-0.039,1.59-0.199,2.291-0.639
			c0.893-0.561,0.966-2.35,0.05-2.854c-0.593-0.327-1.3-0.567-1.972-0.611c-1.096-0.07-2.205,0.034-3.307,0.096
			c-2.4,0.135-4.8,0.318-7.203,0.426c-2.004,0.091-4.031-0.048-6.018,0.179c-4.301,0.49-8.618,0.381-12.926,0.574
			c-2.504,0.111-5.008,0.209-7.512,0.344c-0.593,0.032-1.205,0.115-1.763,0.31c-0.593,0.207-0.976,0.703-1.044,1.357
			c-0.07,0.651,0.195,1.147,0.732,1.54c0.695,0.51,1.484,0.562,2.293,0.564C52.475,58.116,54.884,58.115,57.293,58.115z
			 M85.597,67.768c-0.888-0.136-1.797-0.199-2.693-0.186c-2.707,0.042-5.413,0.136-8.188,0.211
			c-5.656-0.308-11.342,0.413-17.043,0.68c-1.695,0.079-3.383,0.361-5.066,0.601c-0.891,0.125-1.796,0.273-2.639,0.57
			c-0.529,0.186-1.013,0.612-1.412,1.031c-0.363,0.381-0.416,0.967-0.104,1.393c0.206,0.283,0.649,0.542,0.991,0.549
			c1.199,0.026,2.428,0.08,3.598-0.131c3.783-0.687,7.593-0.44,11.396-0.474c3.409-0.031,6.818-0.082,10.228-0.134
			c0.801-0.012,1.623,0.039,2.4-0.116c2.186-0.438,4.391-0.337,6.592-0.364c0.602-0.008,1.205,0.031,1.802-0.016
			c0.831-0.064,1.437-0.73,1.519-1.594C87.072,68.792,86.521,67.909,85.597,67.768z M88.202,60.533
			c-0.498-0.044-1.002-0.045-1.503-0.065c-5.233-0.214-10.422,0.481-15.616,0.894c-4.398,0.348-8.795,0.636-13.198,0.858
			c-2.004,0.102-4.015,0.056-6.021,0.129c-0.588,0.021-1.18,0.188-1.752,0.349c-0.443,0.124-0.742,0.741-0.637,1.226
			c0.096,0.445,0.406,0.667,0.857,0.668c3.21,0.003,6.423,0.001,9.633,0.001c0,0.031,0,0.062-0.001,0.094
			c0.804,0,1.607,0.026,2.41-0.004c5.914-0.223,11.834-0.346,17.738-0.737c2.604-0.172,5.2-0.321,7.808-0.347
			c0.498-0.006,1.003-0.045,1.491-0.141c0.84-0.166,1.127-1.231,0.563-1.903C89.502,60.991,88.944,60.599,88.202,60.533z
			 M81.61,76.961c-1.082-0.785-2.337-1.068-3.582-1.221c-1.348,0.215-2.604,0.509-3.694,1.273c-0.843,0.59-1.435,1.383-1.759,2.356
			c-0.568,1.701,0.291,3.434,1.967,4.146c2.824,1.203,5.535,0.234,7.435-1.57C83.423,80.575,83.204,78.12,81.61,76.961z
			 M49.46,20.349c1.67,0.602,3.627-0.155,4.682-1.812c0.85-1.339,0.341-3.137-1.1-3.808c-0.361-0.169-0.758-0.274-1.145-0.377
			c-2.227-0.59-4.312,0.987-4.338,3.27C47.544,19.087,48.076,19.85,49.46,20.349z"/>
	</g>
</g>
<g>
</g>
<g>
</g>
<g>
</g>
<g>
</g>
<g>
</g>
<g>
</g>
<g>
</g>
<g>
</g>
<g>
</g>
<g>
</g>
<g>
</g>
<g>
</g>
<g>
</g>
<g>
</g>
<g>
</g>
</svg>
