<?xml version="1.0" encoding="iso-8859-1"?>
<!-- Generator: Adobe Illustrator 19.0.0, SVG Export Plug-In . SVG Version: 6.00 Build 0)  -->
<svg version="1.1" id="Capa_1" xmlns="http://www.w3.org/2000/svg" xmlns:xlink="http://www.w3.org/1999/xlink" x="0px" y="0px"
	 viewBox="0 0 110.009 110.009" style="enable-background:new 0 0 110.009 110.009;" xml:space="preserve">
<g id="_x0A_newspaper-jobs">
	<g>
		<path style="fill-rule:evenodd;clip-rule:evenodd;" d="M59.17,93.152c2.811-0.125,5.635,0.06,8.446-0.042
			c2.909-0.104,5.797,0.723,8.71,0.141c0.188-0.038,0.398,0.034,0.598,0.049c2.204,0.157,4.406,0.313,6.467,0.46
			c3.864-0.234,7.57-0.464,11.277-0.682c1.229-0.072,2.084-0.652,2.541-1.797c0.782-1.965,1.483-3.942,1.324-6.123
			c-0.059-0.797-0.091-1.642,0.104-2.403c0.58-2.287,0.432-4.598,0.376-6.903c-0.12-5.019-0.641-10.022-0.492-15.054
			c0.057-1.907-0.057-3.82-0.132-5.73c-0.107-2.71-0.289-5.418-0.369-8.129c-0.082-2.812,0.057-5.614,0.252-8.426
			c0.391-5.611,0.559-11.239,0.824-16.859c0.019-0.4,0.021-0.815,0.127-1.196c1.406-5.046,1.481-10.327,2.714-15.407
			c0.229-0.946,0.089-2.002-0.012-2.994c-0.027-0.279-0.479-0.656-0.8-0.738c-1.025-0.259-1.983,0.034-2.869,0.595
			c-2.77,1.753-5.869,2.517-9.05,3.11C85.56,5.705,81.95,6.586,78.299,7.24c-2.959,0.531-5.944,1.084-8.936,1.221
			C64.343,8.689,59.308,8.602,54.28,8.632c-6.033,0.035-12.066,0.069-18.1,0.066c-1.639-0.001-3.172,0.349-4.703,0.893
			c-0.888,0.315-1.688,0.679-2.154,1.52c-0.341,0.614-0.744,0.834-1.458,0.623c-0.862-0.255-1.753-0.44-2.644-0.564
			c-1.19-0.167-2.4-0.4-3.586-0.332c-2.466,0.142-3.997,1.431-4.066,3.922c-0.018,0.604-0.018,1.207-0.041,1.81
			c-0.261,7.058,0.264,14.048,1.666,20.977c0.397,1.964,0.587,3.971,0.836,5.963c0.088,0.708-0.375,1.164-1.09,1.053
			c-2.715-0.421-5.41-0.198-8.109,0.138c-1.635,0.203-2.281,0.86-2.297,2.492c-0.004,0.495,0.004,1.04,0.196,1.478
			c0.314,0.714,0.048,1.383,0.026,2.066c-0.025,0.848-0.197,1.096-1.02,1.148c-2.622,0.165-4.787,1.392-6.88,2.821
			c-1.124,0.769-1.142,1.336-0.057,1.997c0.599,0.364,1.3,0.624,1.782,1.104c1.78,1.773,3.484,3.623,5.231,5.43
			c0.402,0.417,0.429,0.835,0.236,1.356c-0.834,2.26-1.666,4.521-2.455,6.796c-1.256,3.624-1.123,7.307-0.389,11.006
			c0.48,2.418,1.727,4.481,3.02,6.526c1.559,2.464,3.835,4.077,6.373,5.366c0.526,0.268,1.132,0.453,1.719,0.519
			c1.994,0.223,4,0.338,5.994,0.561c3.644,0.408,7.211-0.324,10.806-0.649c1.898-0.172,3.855-0.172,5.675-0.661
			c3.854-1.038,7.767-0.907,11.672-0.947C53.365,93.076,56.262,93.281,59.17,93.152z M9.323,60.67
			c-1.195-1.324-2.389-2.65-3.58-3.979c-0.257-0.286-0.055-0.82,0.357-0.905c0.486-0.1,0.981-0.158,1.469-0.251
			c2.428-0.457,2.718-0.229,2.821,2.238c0.007,0.199,0.001,0.399,0.001,1.196c-0.035,0.187-0.163,0.958-0.342,1.717
			c-0.022,0.091-0.32,0.138-0.496,0.159C9.483,60.853,9.389,60.742,9.323,60.67z M25.903,87.435
			c-1.693,1.554-3.729,2.288-5.971,2.585c-2.803,0.372-4.922-0.967-6.617-2.897c-2.934-3.341-4.128-7.363-3.508-11.749
			c0.262-1.853,1.154-3.618,1.795-5.41c0.201-0.565,0.547-1.076,0.769-1.635c0.811-2.037,1.814-3.998,1.703-6.322
			c-0.057-1.18,0.412-2.376,0.453-3.57c0.09-2.704,0.255-5.422-0.562-8.073c-0.224-0.727,0.16-1.249,0.857-1.223
			c1.901,0.073,3.803,0.201,5.704,0.315c0.71,0.043,1.017,0.501,1.193,1.141c0.32,1.158,0.6,2.341,1.049,3.451
			c1.418,3.494,2.039,7.119,1.967,10.357c0.041,0.717,0.051,0.918,0.063,1.119c0.212,3.141,0.164,2.833-2.925,2.796
			c-0.684-0.009-1.361-0.3-2.052-0.38c-0.888-0.104-1.798-0.248-2.675-0.157c-1.299,0.136-2.174,1.271-2.122,2.497
			c0.026,0.628,0.702,1.259,1.216,0.977c1.195-0.656,2.26-0.238,3.457-0.025c1.557,0.275,3.191,0.12,4.793,0.127
			c0.438,0.002,0.797,0.1,0.912,0.552c0.174,0.681,0.326,1.368,0.438,2.061c0.069,0.425-0.097,0.772-0.554,0.916
			c-2.513,0.792-4.527,0.89-7.07,0.339c-1.012-0.218-1.611,0.071-2.215,1.067c-0.256,0.423-0.082,1.191,0.359,1.28
			c1.249,0.253,2.401,1.018,3.779,0.657c0.459-0.119,1.008-0.075,1.475,0.051c0.932,0.25,1.772-0.027,2.659-0.21
			c0.536-0.111,1.261-0.825,1.593-0.221c0.404,0.736,0.387,1.711,0.504,2.589c0.014,0.107-0.245,0.302-0.412,0.37
			c-0.177,0.073-0.395,0.059-0.594,0.058c-1.097-0.003-2.178,0.165-3.285-0.181c-0.934-0.291-1.941,0.503-2.947-0.002
			c-0.5-0.251-0.979,0.01-1.414,0.271c-0.449,0.269-0.781,0.63-0.757,1.198c0.024,0.596,0.421,0.886,0.931,1.023
			c0.58,0.156,1.17,0.331,1.765,0.373c1.89,0.135,3.784,0.211,5.677,0.307c0.76,0.037,1.129,0.356,1.17,1.061
			c0.022,0.401,0.014,0.804,0.012,1.205C26.514,86.652,26.299,87.072,25.903,87.435z M27.057,18.179
			c-0.938,3.296-1.215,6.694-1.535,10.068c-0.389,4.081-0.477,8.191-0.7,12.288c-0.044,0.8-0.11,1.598-0.177,2.396
			c-0.008,0.095-0.076,0.184-0.115,0.275c-0.055-0.067-0.137-0.128-0.157-0.204c-0.251-0.965-0.567-1.921-0.725-2.901
			c-0.839-5.241-1.64-10.487-1.325-15.484c-0.074-2.744-0.136-5.146-0.205-7.549c-0.025-0.8,0.293-1.191,0.994-1.125
			c0.795,0.075,1.588,0.275,2.381,0.273C27.504,16.21,27.403,16.96,27.057,18.179z M34.686,89.607
			c-0.702,0.014-1.407-0.026-2.105-0.093c-0.133-0.013-0.373-0.311-0.343-0.403c0.984-2.958,0.343-5.985,0.372-8.979
			c0.031-3.016,0.074-6.044-0.158-9.046c-0.574-7.432-0.419-14.868-0.309-22.302c0.066-4.52,0.233-9.045,0.592-13.549
			c0.278-3.494,0.861-6.969,1.423-10.434c0.417-2.569,0.97-5.12,1.554-7.658c0.27-1.167,0.771-2.28,1.146-3.424
			c0.227-0.683,0.715-0.914,1.381-0.898c0.805,0.021,1.621-0.048,2.41,0.07c5.797,0.865,11.633,0.568,17.455,0.583
			c1.797,0.005,3.616-0.048,5.381-0.567c0.567-0.167,1.197-0.168,1.798-0.161c5.052,0.059,9.99-0.752,14.908-1.818
			c3.036-0.658,6.12-1.096,9.157-1.75c2.349-0.506,4.657-1.195,6.984-1.799c0.401-0.105,0.846,0.246,0.797,0.637
			c-0.42,3.381-0.649,6.78-1.203,10.147c-0.422,2.57-0.83,5.159-0.991,7.755c-0.367,5.918-0.575,11.845-0.858,17.768
			c-0.052,1.102-0.167,2.202-0.204,3.305c-0.039,1.204-0.07,2.413-0.018,3.616c0.154,3.613,0.35,7.225,0.533,10.837
			c0.031,0.602,0.076,1.202,0.117,1.803c0.102,1.502,0.256,3.002,0.294,4.506c0.07,2.812,0.009,5.629,0.12,8.439
			c0.115,2.943-0.368,5.811-0.912,8.669c-0.479,2.507-1.341,3.191-3.876,3.323c-1.405,0.073-2.813,0.082-4.222,0.113
			c-2.609,0.058-5.212,0.066-7.824,0.351c-2.689,0.293-5.43,0.089-8.134,0.292c-7.126,0.536-14.259,0.511-21.897,0.396
			C43.934,89.422,39.309,89.522,34.686,89.607z M109.411,96.609c-0.48-1.587-1.236-2.162-2.822-2.062
			c-1.301,0.082-2.6,0.185-3.9,0.246c-1.906,0.089-3.818,0.107-5.722,0.233c-1.899,0.124-3.794,0.343-5.69,0.519
			c-0.699,0.065-1.409,0.067-2.097,0.194c-5.341,0.985-10.716,1.581-16.153,1.492c-2.801-0.046-5.582,0.549-8.395,0.231
			c-0.471-0.053-0.98,0.161-1.463,0.291c-2.225,0.602-4.437,1.253-6.67,1.819c-2.26,0.573-4.232,1.813-6.381,2.641
			c-0.184,0.071-0.346,0.201-0.509,0.317c-0.991,0.703-0.911,2.21,0.166,2.727c0.444,0.212,0.942,0.453,1.412,0.445
			c1.565-0.025,2.919,0.596,4.316,1.167c1.107,0.452,2.266,0.878,3.44,1.05c2.379,0.349,4.782,0.537,7.18,0.748
			c0.896,0.078,1.848,0.214,2.699,0.012c2.479-0.589,4.99-0.396,7.488-0.498c1.807-0.074,3.621,0.042,5.426-0.055
			c1.797-0.097,3.588-0.502,5.38-0.494c1.829,0.007,3.579-0.333,5.337-0.691c2.475-0.506,4.975-0.597,7.485-0.719
			c1.001,0,2.007-0.062,3.001,0.014c1.836,0.143,3.588-0.375,5.375-0.594c1.016-0.125,1.594-0.84,1.633-1.86
			C110.042,101.375,110.124,98.963,109.411,96.609z M62.381,104.947c-0.572-0.098-1.664-0.234-2.725-0.494
			c-0.338-0.082-0.619-0.468-0.883-0.756c-0.252-0.273-0.143-0.955,0.182-1.047c1.332-0.377,2.674-0.72,4.021-1.037
			c0.119-0.029,0.382,0.184,0.443,0.338c0.22,0.556,0.411,1.127,0.56,1.706C64.2,104.519,63.782,105.006,62.381,104.947z
			 M68.844,102.621c-0.341,0.486-0.717,0.951-1.105,1.398c-0.225,0.258-0.549,0.137-0.629-0.222
			c-0.109-0.489-0.207-0.983-0.289-1.477c-0.079-0.476,0.15-0.722,0.751-0.727c0.194,0.025,0.497,0.042,0.786,0.112
			C68.766,101.807,69.051,102.326,68.844,102.621z M73.282,104.597c-0.426-0.022-0.762-0.387-0.707-0.768
			c0.199-1.39,0.896-1.916,2.276-1.679c0.154,0.025,0.278,0.23,0.415,0.351C75.249,103.828,74.461,104.659,73.282,104.597z
			 M83.78,102.643c-0.044,0.185-0.206,0.338-0.285,0.517c-0.451,1.028-1.203,1.532-1.875,1.432
			c-0.767-0.068-1.101-0.017-1.341-0.145c-0.186-0.1-0.407-0.5-0.343-0.635c0.303-0.618,0.701-1.188,1.062-1.778
			c0.391-0.64,0.949-0.996,1.705-0.995c0.484,0,1.15-0.15,1.417,0.102C84.657,101.648,83.902,102.128,83.78,102.643z M88.864,101.48
			l-0.035,0.082c-0.026,0.015-0.04,0.038-0.065,0.054c0.108,0.758-0.079,1.427-0.66,1.972c-0.053,0.05-0.166,0.102-0.213,0.078
			c-0.078-0.039-0.194-0.162-0.178-0.211c0.229-0.682,0.381-1.414,1.05-1.839c-0.006-0.045-0.003-0.087-0.011-0.133
			C88.79,101.482,88.827,101.481,88.864,101.48c0.062-0.146,0.125-0.293,0.188-0.439C89.353,101.435,89.128,101.471,88.864,101.48z
			 M97.786,102.709c-0.391,0.068-0.791,0.091-1.188,0.114c-0.297,0.018-0.598,0.004-0.992,0.004
			c-0.596,0.089-1.281,0.197-1.969,0.29c-0.277,0.038-0.609-0.344-0.496-0.575c0.305-0.62,0.616-1.237,0.957-1.839
			c0.09-0.158,0.28-0.322,0.453-0.363c1.25-0.302,2.51-0.732,3.797-0.316c0.283,0.092,0.57,0.565,0.626,0.9
			C99.118,101.79,98.551,102.576,97.786,102.709z M106.161,102.657c-0.396,0.189-0.857,0.077-1.016-0.307
			c-0.377-0.91-0.652-1.863-0.965-2.8c-0.242-0.727,0.107-1.434,0.978-1.893c0.118-0.062,0.376,0.012,0.493,0.113
			c0.137,0.117,0.234,0.323,0.275,0.507c0.271,1.254,0.522,2.513,0.801,3.866C106.559,102.301,106.393,102.546,106.161,102.657z
			 M46.583,61.629c3.615-0.098,7.234-0.172,10.85-0.113c1.929,0.032,3.812-0.055,5.646-0.648c1.87-0.604,3.793-0.254,5.69-0.358
			c0.114-0.006,0.371,0.287,0.346,0.386c-0.443,1.732,0.205,3.363,0.423,5.033c1.979,1.814,4.313,2.567,7.011,2.493
			c3.313-0.092,6.631-0.033,9.947-0.054c0.292-0.001,0.641-0.032,0.863-0.189c0.305-0.215,0.684-0.548,0.715-0.862
			c0.031-0.309-0.262-0.743-0.539-0.966c-0.291-0.232-0.723-0.333-1.108-0.393c-0.595-0.092-1.203-0.084-1.801-0.159
			c-0.118-0.015-0.237-0.198-0.31-0.33c-0.027-0.049,0.057-0.194,0.126-0.255c0.979-0.858,2.009-1.666,2.94-2.573
			c1.682-1.635,2.953-3.533,3.566-5.841c0.336-1.267,0.133-2.429-0.683-3.399c-0.433-0.516-1.083-0.896-1.702-1.198
			c-0.736-0.359-1.359-0.693-1.758-1.514c-0.373-0.766-1.188-0.985-2.083-0.818c-0.686,0.129-1.392,0.188-2.091,0.199
			c-2.11,0.036-4.222,0.02-6.332,0.057c-0.8,0.014-1.604,0.09-2.398,0.194c-0.634,0.083-1.086,0.769-0.74,1.344
			c0.537,0.889,0.378,1.413-0.414,2.003c-1.332,0.988-2.051,2.44-2.745,3.901c-0.182,0.383-0.525,0.602-0.976,0.341
			c-1.328-0.77-2.78-0.516-4.121-0.265c-1.707,0.319-3.393,0.294-5.098,0.288c-1.102-0.003-2.207-0.072-3.262,0.403
			c-0.352,0.158-0.775,0.198-1.17,0.214c-5.115,0.213-10.23,0.415-15.346,0.608c-0.803,0.029-1.609-0.031-2.411,0.006
			c-0.39,0.019-0.81,0.1-1.147,0.279c-0.231,0.121-0.466,0.461-0.474,0.709c-0.008,0.246,0.216,0.566,0.433,0.735
			c0.219,0.173,0.547,0.246,0.838,0.289C40.358,61.634,43.462,61.713,46.583,61.629z M71.874,61.555
			c0.027-2.458,0.237-2.468,2.329-2.307c0.599,0.047,1.202,0.008,1.805,0.008c0.006,0.068,0.011,0.135,0.017,0.203
			c1.789-0.196,3.574-0.428,5.365-0.576c1.296-0.106,2.602-0.095,3.901-0.152c0.54-0.024,0.993-0.419,1.069-0.882
			c0.096-0.591-0.307-1.285-0.843-1.421c-0.288-0.072-0.587-0.156-0.88-0.148c-1.203,0.029-2.428-0.038-3.602,0.17
			c-2.395,0.423-4.804,0.217-7.201,0.35c-0.133,0.008-0.275-0.188-0.415-0.291c0.179-0.226,0.478-0.666,0.517-0.644
			c1.182,0.662,1.865-0.093,2.496-0.877c0.748-0.93,1.771-1.308,2.873-1.477c2.723-0.422,5.395-0.115,7.99,0.773
			c1.299,0.444,1.573,1.03,0.906,2.287c-0.65,1.226-1.438,2.411-2.338,3.465c-1.719,2.009-3.906,3.42-6.283,4.562
			c-1.803,0.866-3.688,0.883-5.594,0.667c-1.209-0.136-1.977-1.006-2.082-2.205C71.86,62.561,71.868,62.056,71.874,61.555z
			 M55.868,84.551c0.101-0.138,0.138-0.387,0.09-0.553c-0.049-0.168-0.23-0.412-0.367-0.421c-0.998-0.066-2-0.057-2.998-0.119
			c-0.795-0.05-1.594-0.12-2.371-0.28c-0.22-0.046-0.506-0.439-0.506-0.673c0-0.209,0.329-0.566,0.554-0.601
			c0.988-0.155,1.993-0.191,2.985-0.322c0.562-0.074,1.03-0.718,1.047-1.317c0.016-0.573-0.296-0.969-0.779-1.172
			c-0.453-0.19-0.963-0.242-1.435-0.394c-0.343-0.108-0.665-0.279-0.996-0.422c0.267-0.29,0.499-0.625,0.806-0.861
			c1.127-0.87,2.419-1.403,3.766-1.848c2.24-0.741,4.555-0.683,6.861-0.646c1.207,0,2.42-0.088,3.615,0.025
			c1.089,0.103,2.165,0.389,3.23,0.659c0.671,0.17,0.732,0.821,0.241,1.414c-0.487,0.589-1.078,0.843-1.835,0.854
			c-2.01,0.03-4.02,0.077-6.028,0.156c-0.595,0.023-1.204,0.105-1.769,0.282c-0.586,0.186-1.051,0.598-1.195,1.248
			c-0.107,0.485,0.658,1.136,1.498,1.223c0.598,0.062,1.205,0.076,1.805,0.038c0.699-0.044,1.391-0.194,2.091-0.241
			c0.231-0.015,0.474,0.15,0.712,0.232c-0.193,0.223-0.346,0.537-0.592,0.65c-1.091,0.5-2.22,0.917-3.312,1.412
			c-0.724,0.327-1.428,0.707-2.106,1.12c-0.392,0.238-0.32,1.058,0.105,1.287c0.432,0.233,0.893,0.483,1.367,0.55
			c1.321,0.185,2.587-0.076,3.814-0.621c2.139-0.953,3.952-2.372,5.726-3.86c0.452-0.379,0.929-0.879,1.459-0.982
			c1.356-0.262,1.889-0.889,1.65-2.294c-0.113-0.668,0.189-1.397,0.151-2.091c-0.032-0.578-0.134-1.266-0.472-1.693
			c-1.05-1.332-2.109-2.709-4.164-2.454c-0.676,0.083-1.389-0.154-2.086-0.233c-3.728-0.431-7.414-0.285-11.02,0.866
			c-0.572,0.183-1.123,0.463-1.707,0.57c-0.727,0.134-0.881-0.731-1.411-0.956c-0.36-0.152-0.761-0.25-1.151-0.282
			c-0.498-0.041-1.004-0.009-1.506,0.021c-3.303,0.196-6.565,0.9-9.901,0.761c-0.544-0.023-1.132,0.334-1.655,0.603
			c-0.517,0.266-0.475,1.198,0.018,1.532c0.865,0.588,1.832,0.736,2.859,0.781c2.121,0.094,4.203-0.197,6.295-0.486
			c1.07-0.147,2.159-0.158,3.24-0.231c-0.026,1.276-1.36,1.574-1.873,2.493c-0.243,0.436-0.598,0.809-0.867,1.232
			c-0.304,0.478-0.752,0.635-1.273,0.648c-1.106,0.026-2.213,0.041-3.318,0.062c-1.005,0.017-2.014-0.017-3.014,0.07
			c-0.584,0.05-1.191,0.215-1.713,0.477c-0.309,0.155-0.656,0.609-0.645,0.916c0.012,0.297,0.418,0.76,0.725,0.833
			c1.068,0.252,2.162,0.435,3.256,0.52c1.301,0.1,2.612,0.078,3.92,0.093c0.797,0.009,1.27,0.307,1.483,1.151
			c0.318,1.255,1.183,2.229,2.435,2.425c1.883,0.295,3.816,0.308,5.615-0.554C55.476,85.025,55.696,84.785,55.868,84.551z
			 M63.553,23.99c0.146,2.595,0.236,5.193,0.369,7.789c0.061,1.205,0.107,2.373-0.582,3.473c-0.57,0.91,0.279,2.058,1.247,2.279
			c0.29,0.065,0.595,0.086,0.895,0.091c0.8,0.013,1.601,0.005,2.403,0.005v-0.088c1,0,2,0.012,3-0.003
			c1.135-0.017,2.133-0.475,3.114-0.992c0.94-0.495,1.522-1.29,1.884-2.251c0.785-2.094,0.057-4.859-1.688-6.287
			c-0.533-0.437-1.205-0.701-1.761-1.115c-0.172-0.129-0.277-0.522-0.221-0.742c0.098-0.378,0.387-0.701,0.527-1.072
			c0.91-2.412-0.246-4.482-2.762-4.916c-0.587-0.101-1.199-0.047-1.797-0.083c-0.695-0.042-1.466,0.068-2.068-0.196
			c-1.063-0.468-1.691,0.039-2.379,0.666c-0.919,0.84-0.938,0.885-0.562,2.023C63.327,23.036,63.526,23.511,63.553,23.99z
			 M70.692,30.032c0.549,0.143,1.154,0.418,1.523,0.823c0.933,1.025,0.271,2.732-1.1,2.965c-0.583,0.1-1.182,0.105-1.674,0.146
			c-0.397-0.025-0.695-0.032-0.988-0.067c-0.434-0.051-0.72-0.282-0.793-0.729c-0.031-0.195-0.057-0.392-0.07-0.589
			C67.418,30.036,68.188,29.382,70.692,30.032z M68.68,23.01c0.145,0.014,0.444,0.014,0.727,0.081
			c0.18,0.042,0.463,0.172,0.475,0.285c0.028,0.268,0.017,0.659-0.15,0.804c-0.656,0.57-1.371,1.076-2.086,1.574
			c-0.078,0.056-0.389-0.053-0.438-0.157c-0.119-0.257-0.184-0.552-0.207-0.837C66.881,23.238,67.096,23,68.68,23.01z
			 M38.997,48.368c3.014-0.002,6.026-0.001,9.039-0.001v-0.158c0.904,0,1.809-0.043,2.709,0.008
			c5.24,0.292,10.409-0.495,15.596-1.015c0.387-0.039,0.782-0.175,1.133-0.347c0.695-0.341,0.979-1.446,0.553-2.102
			c-0.398-0.618-0.951-1.068-1.718-1.055c-0.597,0.01-1.188,0.158-1.784,0.217c-1.689,0.166-3.376,0.37-5.068,0.457
			c-1.398,0.072-2.818-0.133-4.205,0.015c-4.102,0.438-8.217,0.444-12.33,0.505c-1.205,0.018-2.42-0.071-3.613,0.05
			c-0.77,0.078-1.542,0.382-2.254,0.713c-0.629,0.292-0.684,1.31-0.213,1.833C37.422,48.134,38.155,48.369,38.997,48.368z
			 M77.463,27.611c0.889,0.454,1.831,0.81,2.763,1.178c2.145,0.847,2.976,2.553,3.113,4.718c0.034,0.534-0.354,0.942-0.851,1.052
			c-1.186,0.259-2.139-0.264-3.114-0.809c-0.534-0.298-1.181-0.031-1.536,0.525c-0.631,0.986-0.377,2.171,0.682,2.885
			c1.816,1.227,3.78,1.219,5.76,0.509c1.723-0.617,2.596-2.004,2.505-3.736c-0.157-2.99-0.974-5.748-3.759-7.473
			c-0.465-0.288-0.89-0.643-1.327-0.975c-0.066,0.003-0.119,0.01-0.188,0.012c0-0.03,0-0.06-0.001-0.089
			c-0.264-0.001-0.545,0.037-0.767-0.062c-0.431-0.192-0.814-0.49-1.217-0.743c0.324-0.443,0.602-0.933,0.984-1.316
			c0.404-0.405,0.914-0.145,0.962,0.475c0.042,0.546,0.03,1.097,0.037,1.646c0.03,0,0.061-0.001,0.09,0
			c0.033,0.025,0.066,0.051,0.1,0.077c2.243-0.109,2.77-0.593,2.89-2.657c0.035-0.599,0.02-1.209-0.061-1.802
			c-0.127-0.947-0.861-1.579-1.838-1.693c-2.764-0.321-4.535,1.206-6.018,3.247c-0.553,0.764-0.689,1.652-0.678,2.578
			C76.01,26.266,76.495,27.116,77.463,27.611z M52.51,33.643c0.014,1.039,0.424,1.949,1.022,2.779
			c1.704,2.363,5.273,2.268,6.8-0.388c0.512-0.89,0.701-1.847,0.762-2.871c0.158-2.643-0.417-5.179-1.017-7.714
			c-0.206-0.873-0.415-1.758-0.748-2.588c-0.528-1.318-1.795-2.134-3.015-2.072c-1.446,0.072-2.98,1.234-3.22,2.67
			c-0.327,1.971-0.485,3.97-0.716,5.956c0.041,0.005,0.084,0.011,0.127,0.016C52.506,30.834,52.491,32.239,52.51,33.643z
			 M55.747,25.404c0.004-0.134,0.225-0.352,0.361-0.365c0.144-0.015,0.414,0.145,0.445,0.273c0.61,2.53,1.215,5.068,0.971,7.704
			c-0.036,0.383-0.176,0.768-0.336,1.119c-0.059,0.128-0.316,0.182-0.494,0.228c-0.068,0.018-0.213-0.059-0.244-0.129
			c-0.242-0.533-0.621-1.063-0.663-1.616c-0.098-1.297-0.03-2.604-0.03-3.908c-0.01-0.001-0.018-0.001-0.025-0.001
			C55.731,27.607,55.717,26.506,55.747,25.404z M38.365,35.514c0.79,1.336,1.879,2.403,3.321,2.955
			c1.598,0.611,3.113,0.475,4.444-0.839c1.736-1.715,2.719-3.706,2.706-6.165c-0.008-1.509-0.002-3.017-0.002-4.527
			c0.037,0,0.074,0.001,0.11,0.001c0-1.71,0.03-3.421-0.009-5.13c-0.033-1.455-1.267-2.361-2.684-2.003
			c-1.848,0.467-3.688,0.965-5.529,1.457c-0.189,0.051-0.371,0.148-0.551,0.231c-0.568,0.262-0.937,0.877-0.873,1.447
			c0.062,0.581,0.582,1.169,1.172,1.204c0.902,0.054,1.81,0.068,2.713,0.034c0.598-0.021,1.353-0.421,1.753-0.18
			c0.647,0.39,0.323,1.284,0.331,1.966c0.022,1.911,0.002,3.823,0.006,5.735c0.002,1.315-0.632,2.301-1.612,3.094
			c-0.341,0.277-0.77,0.316-1.093-0.01c-0.561-0.566-1.022-1.238-1.619-1.757c-0.576-0.501-1.298-0.481-1.984-0.147
			c-0.609,0.296-0.981,1.058-0.855,1.776C38.161,34.95,38.217,35.265,38.365,35.514z M37.067,53.572
			c0.828,0.614,1.821,0.801,2.84,0.805c2.205,0.009,4.408,0.003,6.611,0.003c0,0.022,0.001,0.044,0.002,0.066
			c4.899-0.182,9.799-0.372,14.7-0.542c1.802-0.064,3.604-0.077,5.407-0.116c0.629-0.014,1.156-0.247,1.593-0.714
			c0.45-0.481,0.396-1.5-0.146-1.869c-0.242-0.165-0.514-0.316-0.795-0.391c-3.049-0.812-6.186-0.893-9.244-0.434
			c-3.071,0.459-6.154,0.692-9.232,0.922c-3.189,0.238-6.406,0.101-9.611,0.131c-0.598,0.006-1.197,0.004-1.792,0.056
			c-0.405,0.035-0.964,0.69-0.876,1.085C36.603,52.936,36.787,53.365,37.067,53.572z M39.907,69.049
			c1.203,0.017,2.406,0.005,3.609,0.005v-0.133c1.605,0,3.211,0.04,4.812-0.019c0.686-0.025,1.383-0.196,2.037-0.412
			c0.729-0.24,1.075-0.945,0.953-1.676c-0.117-0.714-0.703-1.327-1.389-1.377c-0.496-0.036-1.021-0.082-1.491,0.041
			c-1.384,0.365-2.784,0.283-4.186,0.308c-1.604,0.026-3.21,0.043-4.811,0.134c-0.583,0.033-1.172,0.218-1.726,0.424
			c-0.641,0.238-0.934,0.831-0.82,1.434c0.115,0.604,0.576,1.084,1.213,1.164C38.704,69.017,39.307,69.042,39.907,69.049z
			 M58.394,66.062c-0.784,0.027-1.573,0.315-2.327,0.576c-0.209,0.072-0.408,0.469-0.424,0.729c-0.018,0.258,0.127,0.628,0.33,0.78
			c0.847,0.641,1.873,0.715,2.879,0.665c3.01-0.147,6.017-0.347,9.025-0.533c0.195-0.012,0.397-0.071,0.578-0.148
			c0.483-0.209,0.855-0.542,0.928-1.089c0.046-0.363,0.04-0.733,0.051-1.101C65.751,65.658,62.073,65.933,58.394,66.062z
			 M69.434,65.942c0.035,0.003,0.07,0.002,0.106,0.005c-0.001-0.007-0.002-0.013-0.003-0.02c-0.033-0.03-0.068-0.055-0.101-0.086
			C69.435,65.875,69.435,65.909,69.434,65.942z M82.445,46.497c0.905-0.007,1.812-0.005,2.714-0.062
			c0.619-0.04,1.119-0.596,1.172-1.185c0.051-0.576-0.46-1.069-1.154-1.114c-0.102-0.006-0.201-0.021-0.302-0.02
			c-3.318,0.044-6.638,0.083-9.956,0.145c-0.496,0.009-0.996,0.095-1.484,0.189c-0.513,0.102-1.017,0.729-0.826,1.075
			c0.176,0.321,0.482,0.667,0.811,0.783c0.456,0.163,0.984,0.153,1.482,0.159c1.407,0.019,2.816,0.007,4.225,0.007v0.023
			C80.232,46.499,81.338,46.506,82.445,46.497z M80.213,74.219c0.004,0.061,0.009,0.121,0.014,0.182
			c2.18-0.244,4.361-0.464,6.533-0.765c0.307-0.042,0.643-0.439,0.812-0.754c0.197-0.366-0.226-1.115-0.654-1.183
			c-0.781-0.121-1.579-0.245-2.365-0.218c-2.194,0.078-4.385,0.228-6.577,0.36c-0.398,0.025-0.804,0.065-1.183,0.177
			c-0.274,0.08-0.52,0.276-0.762,0.444c-0.414,0.288-0.371,1.04,0.091,1.25c0.448,0.203,0.917,0.442,1.393,0.482
			C78.409,74.273,79.313,74.219,80.213,74.219z M87.374,78.544c-1.853-0.401-3.719-0.675-5.43-0.542
			c-0.891,0-1.588-0.011-2.283,0.004c-0.398,0.008-0.805,0.01-1.188,0.1c-0.497,0.117-0.916,0.397-1.047,0.938
			c-0.109,0.445,0.486,1.123,1.101,1.222c0.489,0.077,0.988,0.11,1.483,0.12c1.988,0.042,3.978-0.034,5.941,0.438
			c0.447,0.108,0.984-0.024,1.451-0.154c0.508-0.142,0.822-0.541,0.867-1.092C88.307,79.139,87.9,78.658,87.374,78.544z"/>
	</g>
</g>
<g>
</g>
<g>
</g>
<g>
</g>
<g>
</g>
<g>
</g>
<g>
</g>
<g>
</g>
<g>
</g>
<g>
</g>
<g>
</g>
<g>
</g>
<g>
</g>
<g>
</g>
<g>
</g>
<g>
</g>
</svg>
