<?xml version="1.0" encoding="iso-8859-1"?>
<!-- Generator: Adobe Illustrator 19.0.0, SVG Export Plug-In . SVG Version: 6.00 Build 0)  -->
<svg version="1.1" id="Capa_1" xmlns="http://www.w3.org/2000/svg" xmlns:xlink="http://www.w3.org/1999/xlink" x="0px" y="0px"
	 viewBox="0 0 110 110" style="enable-background:new 0 0 110 110;" xml:space="preserve">
<g id="_x0A_scales">
	<g>
		<path style="fill-rule:evenodd;clip-rule:evenodd;" d="M109.739,65.06c-0.215-0.329-0.446-0.716-0.771-0.893
			c-1.143-0.615-1.566-1.684-2.063-2.785c-2.044-4.536-4.123-9.057-6.256-13.552c-2.346-4.943-4.722-9.872-7.172-14.765
			c-0.812-1.619-1.079-3.15-0.379-4.852c0.51-1.241,0.423-2.551,0.106-3.821c-0.508-2.027-3.022-2.673-4.465-1.121
			c-0.866,0.932-1.889,1.768-2.267,3.089c-0.15,0.528-0.657,0.718-1.185,0.733c-0.698,0.021-1.396,0.024-2.092,0.024
			c-4.185,0.003-8.37,0.002-12.552,0.002v0.077c-4.78,0-9.561,0.002-14.345-0.002c-0.781,0-1.127-0.29-1.156-1.029
			c-0.108-2.688-0.17-5.377-0.294-8.064c-0.046-0.988,0.18-1.742,1.151-2.191c0.835-0.387,1.574-0.992,1.826-1.881
			c0.568-2.023,0.369-3.957-1.097-5.6c-0.551-0.616-1.242-0.98-2.091-1.019c-2.254-0.099-4.057,0.901-5.571,2.425
			c-0.965,0.971-0.918,2.829-0.04,3.85c0.452,0.526,0.969,0.999,1.437,1.511c0.698,0.762,1.062,1.602,0.969,2.698
			c-0.238,2.875-0.371,5.758-0.557,8.636c-0.049,0.756-0.35,1.089-1.091,1.148c-2.678,0.213-5.356,0.487-8.039,0.584
			c-6.466,0.238-12.929,0.016-19.39-0.297c-0.917-0.044-1.23-0.25-1.232-1.286c-0.004-1.638-0.802-2.591-2.224-3.185
			c-0.456-0.191-0.895-0.425-1.334-0.659c-1.284-0.687-2.529,0.54-2.646,1.543c-0.118,1.005-0.114,1.988,0.4,2.905
			c0.259,0.465,0.234,0.932,0.073,1.433c-1.069,3.31-2.109,6.628-3.181,9.937c-0.582,1.796-1.274,3.561-1.799,5.373
			c-0.698,2.401-1.711,4.665-2.769,6.919c-1.056,2.251-2.065,4.524-3.117,6.777c-1.35,2.882-2.667,5.781-4.107,8.616
			c-0.625,1.233-0.551,2.265,0.228,3.33c0.646,0.882,1.282,1.773,1.928,2.655c0.894,1.216,1.898,2.338,3.29,2.978
			c1.589,0.732,3.018,1.998,4.996,1.566c0.352-0.075,0.781,0.108,1.155,0.234c1.9,0.64,3.879,0.809,5.84,1.132
			c3.581,0.591,6.925-0.072,10.205-1.387c2.031-0.816,4.059-1.64,6.053-2.54c1.267-0.572,2.489-1.25,3.694-1.948
			c1.943-1.126,3.4-2.736,4.488-4.689c1.168-2.089,1.09-2.41-1.073-3.732c-0.522-0.32-0.925-0.648-1.213-1.231
			c-1.857-3.742-3.796-7.443-5.654-11.185c-2.703-5.441-5.707-10.714-8.822-15.929c-0.508-0.848-0.878-1.777-1.312-2.668
			c1.007-0.679,2.115-0.272,3.163-0.234c1.487,0.052,2.963,0.4,4.446,0.433c4.682,0.108,9.363,0.161,14.047,0.165
			c1.383,0.001,2.77-0.209,4.148-0.37c0.493-0.058,0.773,0.086,0.8,0.558c0.193,3.476,0.438,6.951,0.534,10.43
			c0.125,4.581,0.103,9.164,0.191,13.748c0.046,2.383,0.232,4.765,0.294,7.149c0.081,3.084,0.023,6.166-0.414,9.228
			c-0.154,1.078-0.286,2.158-0.437,3.236c-0.236,1.672-0.593,3.339,0.325,4.95c0.279,0.489-0.083,1.002-0.669,1.005
			c-3.287,0.017-6.594,0.244-9.853-0.052c-3.705-0.336-7.343,0.446-11.017,0.225c-0.097-0.006-0.195,0.037-0.292,0.058
			c-0.787,0.17-1.35,0.889-1.357,1.737c-0.01,0.862,0.477,1.633,1.286,1.78c1.172,0.213,2.359,0.383,3.546,0.442
			c8.654,0.431,17.321,0.165,25.977,0.69c5.362,0.327,10.756,0.141,16.136,0.182c0.497,0.003,0.998,0.002,1.489-0.058
			c0.945-0.118,1.62-0.819,1.754-1.762c0.195-1.361-0.412-2.405-1.735-2.719c-0.758-0.182-1.572-0.182-2.361-0.189
			c-4.583-0.046-9.165-0.062-13.748-0.11c-0.944-0.009-1.263-0.319-1.216-1.276c0.151-3.013-0.141-5.96-1.12-8.828
			c-0.125-0.369-0.12-0.784-0.168-1.179c-0.365-2.959-0.677-5.925-1.108-8.875c-0.491-3.356-0.733-6.722-0.698-10.111
			c0.007-0.697-0.008-1.394-0.021-2.092c-0.047-2.191,0.069-4.401-0.186-6.569c-0.428-3.676-0.257-7.36-0.42-11.038
			c-0.048-1.1,0.223-1.449,1.242-1.721c0.663-0.177,1.361-0.312,2.044-0.316c8.366-0.044,16.731-0.143,25.087,0.38
			c0.901,0.056,1.121,0.547,0.563,1.41c-1.892,2.926-3.79,5.847-5.724,8.746c-3.976,5.961-7.975,11.906-11.959,17.863
			c-0.274,0.412-0.543,0.845-0.712,1.306c-0.131,0.351-0.228,0.808-0.112,1.136c0.236,0.667,0.313,1.081-0.564,1.272
			c-1.04,0.228-1.338,1.048-1.385,2.034c-0.044,0.979,0.333,1.725,1.048,2.357c1.959,1.734,4.136,3.087,6.594,4.011
			c2.606,0.982,5.26,1.768,7.977,2.409c3.406,0.807,6.811,1.312,10.325,1.302c2.573-0.006,4.923-0.621,7.16-1.777
			c2.033-1.052,3.988-2.261,6.057-3.233c2.065-0.973,3.791-2.533,5.991-3.273C110.002,67.098,110.24,65.829,109.739,65.06z
			 M7.918,69.518c-0.364,0.641-0.683,0.805-1.145,0.542c-0.514-0.294-1.013-0.621-1.491-0.968c-0.118-0.086-0.153-0.307-0.184-0.475
			c-0.008-0.035,0.147-0.141,0.236-0.153c0.391-0.054,0.783-0.084,1.242-0.129c0.423,0.06,0.913,0.104,1.386,0.212
			c0.095,0.022,0.197,0.288,0.186,0.432C8.13,69.163,8.017,69.346,7.918,69.518z M12.137,69.467
			c-0.197,0.641-0.387,1.285-0.607,1.917c-0.116,0.334-0.613,0.367-0.984,0.132c-0.438-0.28-0.722-0.633-0.658-1.177
			c0.037-0.286,0.12-0.567,0.184-0.849c0.213-0.922,0.391-1.056,1.389-1.046C12.269,68.449,12.397,68.627,12.137,69.467z
			 M14.902,71.938c-0.031,0.114-0.205,0.188-0.315,0.28c-0.044-0.089-0.118-0.173-0.129-0.265c-0.078-0.594-0.14-1.188-0.207-1.753
			c0-0.425-0.101-0.862,0.029-1.209c0.125-0.328,0.474-0.589,0.768-0.825c0.135-0.108,0.391-0.147,0.562-0.102
			c0.102,0.027,0.234,0.299,0.203,0.425C15.533,69.644,15.224,70.794,14.902,71.938z M36.342,67.952
			c-1.007,0.421-2.048,0.771-3.032,1.241c-0.971,0.464-1.826,0.539-2.787-0.083c-0.531-0.346-1.114-0.029-1.489,0.588
			c-0.253,0.418-0.395,0.921-0.704,1.286c-0.646,0.766-1.634,0.566-2.067-0.37c-0.083-0.18-0.11-0.385-0.195-0.562
			c-0.265-0.561-0.633-1.021-1.304-1.088c-0.435-0.044-0.943,0.489-1.121,1.219c-0.161,0.668-0.258,1.352-0.396,2.026
			c-0.018,0.082-0.124,0.143-0.191,0.213c-0.068-0.072-0.157-0.133-0.199-0.219c-0.265-0.524-0.445-1.115-0.807-1.557
			c-0.193-0.235-0.702-0.309-1.054-0.278c-0.203,0.018-0.479,0.36-0.542,0.602c-0.125,0.474-0.079,0.992-0.191,1.473
			c-0.058,0.246-0.265,0.573-0.477,0.643c-0.485,0.158-0.71-0.269-0.822-0.636c-0.174-0.565-0.298-1.151-0.372-1.736
			c-0.071-0.587-0.036-1.186-0.083-1.778c-0.027-0.35-0.549-0.691-0.123-1.033c0.296-0.236,0.708-0.383,1.086-0.443
			c0.785-0.122,1.582-0.213,2.375-0.223c2.292-0.029,4.583-0.01,6.871-0.01v0.01c2.492,0,4.981-0.008,7.47,0.016
			c0.203,0.002,0.406,0.223,0.607,0.341C36.646,67.717,36.515,67.88,36.342,67.952z M27.199,45.329
			c0.472,0.758,0.892,1.551,1.306,2.344c2.435,4.671,4.859,9.346,7.286,14.022c0.182,0.352,0.418,0.702,0.485,1.079
			c0.035,0.195-0.207,0.602-0.385,0.644c-0.474,0.11-0.982,0.092-1.477,0.094c-2.287,0.006-4.575,0.003-6.862,0.003v-0.014
			c-0.497,0-0.996,0.009-1.493-0.002c-3.788-0.085-7.552,0.201-11.267,0.944c-3.059,0.611-6.136,0.415-9.21,0.413
			c-0.232,0-0.681-0.126-0.419-0.54c1.653-2.624,2.63-5.56,3.902-8.36c0.988-2.167,2.208-4.237,3.084-6.444
			c1.87-4.702,3.597-9.459,5.353-14.206c0.41-1.115,0.679-2.281,1.041-3.414c0.145-0.454,0.922-0.539,1.231-0.13
			c0.296,0.388,0.59,0.797,0.785,1.242C22.444,37.288,24.73,41.356,27.199,45.329z M53.677,12.191
			c-0.075,0.011-0.186-0.197-0.28-0.308c0.069-0.058,0.153-0.174,0.205-0.162c0.172,0.042,0.329,0.131,0.493,0.203
			C53.955,12.023,53.826,12.168,53.677,12.191z M74.719,67.751c-0.199-0.066-0.345-0.332-0.466-0.54
			c-0.014-0.029,0.257-0.324,0.364-0.306c0.224,0.038,0.425,0.202,0.802,0.402C75.08,67.534,74.85,67.794,74.719,67.751z
			 M79.126,69.449c-0.019,0.052-0.451,0.041-0.482-0.031c-0.222-0.515-0.388-1.05-0.466-1.267c-0.019-1.271,0.629-1.787,1.474-1.494
			c0.151,0.051,0.373,0.297,0.345,0.386C79.74,67.856,79.444,68.658,79.126,69.449z M88.468,68.246
			c-0.093,0.477-0.058,0.979-0.081,1.47c-0.016,0.344,0.239,0.883-0.296,0.911c-0.292,0.014-0.677-0.381-0.899-0.681
			c-0.29-0.393-0.435-0.888-0.69-1.31c-0.642-1.053-1.775-1.058-2.332-0.008c-0.183,0.348-0.261,0.751-0.428,1.109
			c-0.073,0.155-0.269,0.381-0.371,0.364c-0.162-0.029-0.325-0.214-0.437-0.37c-0.563-0.794-0.453-1.711-0.381-2.595
			c0.015-0.199,0.374-0.513,0.591-0.529c0.89-0.061,1.785-0.025,2.679-0.025v0.064c0.596,0.039,1.195,0.057,1.787,0.12
			c0.464,0.048,1.096-0.112,1.272,0.449C88.965,67.488,88.537,67.882,88.468,68.246z M99.266,67.805
			c-0.413,0.265-0.87,0.462-1.282,0.733c-0.855,0.562-1.611,0.669-2.247-0.323c-0.089-0.141-0.364-0.294-0.493-0.253
			c-0.246,0.077-0.563,0.253-0.63,0.46c-0.077,0.238,0.04,0.57,0.147,0.834c0.178,0.445,0.08,0.783-0.344,0.965
			c-0.538,0.234-1.093,0.44-1.659,0.595c-0.509,0.138-0.992,0.027-1.265-0.475c-0.284-0.517-0.501-1.071-0.783-1.59
			c-0.894-1.634-0.901-1.628,1.052-1.611c0.984,0.008,1.969,0,2.955,0v0.134c1.478,0,2.953-0.002,4.43,0.006
			c0.089,0,0.253,0.087,0.249,0.12C99.382,67.54,99.361,67.743,99.266,67.805z M102.905,64.29c-0.998,0.006-1.994,0-2.989,0
			c-0.004,0.037-0.008,0.072-0.014,0.108c-1.977-0.179-3.953-0.431-5.937-0.522c-3.876-0.178-7.753-0.399-11.628,0.125
			c-2.771,0.374-5.552,0.367-8.335-0.02c-1.276-0.178-2.578-0.19-3.868-0.287c-0.764-0.059-0.98-0.527-0.543-1.221
			c0.479-0.757,1.006-1.485,1.501-2.229c3.591-5.382,7.219-10.74,10.748-16.161c1.409-2.164,2.608-4.465,3.889-6.712
			c0.936-1.644,1.837-3.306,2.781-4.945c0.294-0.512,1.191-0.433,1.493,0.111c0.193,0.347,0.343,0.717,0.511,1.078
			c3.069,6.583,6.14,13.163,9.205,19.747c1.218,2.616,2.429,5.235,3.637,7.855c0.206,0.451,0.4,0.912,0.582,1.374
			C104.572,64.197,104.52,64.28,102.905,64.29z M86.613,89.274c-0.764-0.192-1.562-0.332-2.346-0.339
			c-5.769-0.047-11.535-0.045-17.306-0.074c-5.767-0.029-11.535-0.088-17.304-0.11c-1.39-0.005-2.813-0.099-4.163,0.159
			c-2.178,0.415-4.349,0.36-6.534,0.392c-2.884,0.041-5.767,0.105-8.652,0.161c-0.795,0.016-1.591,0.05-2.386,0.046
			c-1.493-0.006-2.951-0.188-4.417-0.564c-1.669-0.431-3.297,0.886-3.253,2.533c0.051,1.794,0.035,3.557-0.338,5.332
			c-0.288,1.366-0.134,2.77,0.28,4.129c0.331,1.09,0.75,1.499,1.884,1.549c1.589,0.07,3.183,0.13,4.772,0.101
			c7.553-0.139,15.101-0.052,22.656-0.435c8.137-0.41,16.308-0.164,24.466-0.186c1.091-0.004,2.184,0.097,3.276,0.157
			c2.081,0.112,4.159,0.242,6.24,0.339c2.491,0.117,3.873-1.112,4.531-3.42c0.449-1.587,0.419-3.133,0.294-4.664
			c0.05-0.948,0.151-1.843,0.135-2.734C88.429,90.367,87.826,89.581,86.613,89.274z M28.314,96.28
			c-0.13,0.609-0.445,0.866-0.72,0.638c-0.212-0.177-0.392-0.418-0.522-0.666c-0.085-0.16-0.058-0.383-0.106-0.787
			c0.11-0.372,0.226-0.953,0.468-1.477c0.085-0.188,0.495-0.356,0.719-0.315c0.203,0.037,0.506,0.38,0.495,0.568
			C28.6,94.926,28.458,95.607,28.314,96.28z M32.192,94.745c-0.28,0.621-0.553,1.246-0.866,1.849
			c-0.075,0.143-0.304,0.275-0.466,0.281c-0.116,0.004-0.306-0.19-0.347-0.329c-0.081-0.276-0.081-0.576-0.127-0.966
			c0.048-0.389,0.091-0.873,0.174-1.351c0.067-0.375,0.808-0.656,1.229-0.435C32.15,93.981,32.398,94.29,32.192,94.745z
			 M34.281,95.557c-0.039-0.087-0.104-0.172-0.114-0.261c-0.043-0.393-0.041-0.777,0.423-0.934c0.062-0.022,0.161,0.056,0.397,0.146
			C34.737,94.878,34.509,95.216,34.281,95.557z M37.638,96.065c-0.023,0.143-0.097,0.73-0.233,1.301
			c-0.033,0.136-0.273,0.294-0.426,0.306c-0.129,0.008-0.385-0.172-0.393-0.284c-0.05-0.584-0.069-1.176-0.041-1.76
			c0.042-0.847,0.462-1.52,0.781-1.334C37.636,94.476,37.729,94.826,37.638,96.065z M83.983,96.362
			c-0.039,0.229-0.354,0.516-0.594,0.581c-0.568,0.153-1.166,0.24-1.758,0.264c-4.859,0.197-9.721,0.372-14.581,0.556
			c0-0.017-0.002-0.035-0.002-0.052c-2.187,0-4.376,0.01-6.561-0.005c-0.832-0.005-0.911-0.092-1.159-0.983
			c-0.052-0.19,0-0.437-0.106-0.575c-0.224-0.295-0.479-0.659-0.8-0.77c-0.542-0.188-0.92,0.169-1.147,0.667
			c-0.162,0.364-0.301,0.739-0.502,1.081c-0.501,0.863-1.806,0.828-2.421-0.059c-0.168-0.242-0.257-0.552-0.454-0.759
			c-0.292-0.3-0.683-0.439-1.06-0.153c-0.312,0.238-0.615,0.513-0.844,0.828c-0.551,0.76-1.324,0.799-2.135,0.738
			c-0.429-0.032-0.742-0.235-0.764-0.719c-0.01-0.198-0.006-0.397-0.023-0.596c-0.029-0.409-0.137-0.821-0.576-0.918
			c-0.582-0.129-0.905,0.28-1.141,0.738c-0.225,0.443-0.391,0.916-0.627,1.35c-0.261,0.483-0.725,0.619-1.253,0.638
			c-0.785,0.03-1.108-0.205-1.205-0.946c-0.012-0.099-0.004-0.199-0.004-0.298c0-0.804,0.037-1.855-0.926-1.906
			c-0.69-0.035-0.807,0.982-0.947,1.675c-0.076,0.376-0.192,0.817-0.449,1.06c-0.249,0.234-0.719,0.378-1.059,0.329
			c-0.323-0.046-0.831-0.361-0.868-0.615c-0.493-3.299-1.101-3.39,2.591-3.295c2.583,0.065,5.167,0.065,7.753,0.052
			c1.487-0.007,2.971-0.019,4.425-0.483c0.642-0.204,1.373-0.163,2.065-0.159c1.688,0.008,3.378,0.038,5.066,0.095
			c6.749,0.228,13.498,0.47,20.256,0.371C83.548,94.072,84.229,94.941,83.983,96.362z"/>
	</g>
</g>
<g>
</g>
<g>
</g>
<g>
</g>
<g>
</g>
<g>
</g>
<g>
</g>
<g>
</g>
<g>
</g>
<g>
</g>
<g>
</g>
<g>
</g>
<g>
</g>
<g>
</g>
<g>
</g>
<g>
</g>
</svg>
