<?xml version="1.0" encoding="iso-8859-1"?>
<!-- Generator: Adobe Illustrator 19.0.0, SVG Export Plug-In . SVG Version: 6.00 Build 0)  -->
<svg version="1.1" id="Capa_1" xmlns="http://www.w3.org/2000/svg" xmlns:xlink="http://www.w3.org/1999/xlink" x="0px" y="0px"
	 viewBox="0 0 104 104" style="enable-background:new 0 0 104 104;" xml:space="preserve">
<g id="_x0A_lamp_x0A_">
	<g>
		<path style="fill-rule:evenodd;clip-rule:evenodd;" d="M80.788,94.548c-2.809-2.82-5.685-5.488-9.53-6.969
			c-3.704-1.426-7.36-2.943-11.264-3.742c-0.769-0.157-1.367-0.468-1.612-1.277c-0.089-0.297-0.254-0.573-0.4-0.851
			c-1.737-3.313-2.294-3.683-6.04-3.981c-0.521-0.042-1.044-0.026-1.569-0.043c-2.029-0.062-3.649,0.83-4.962,2.273
			c-0.549,0.606-1.002,1.357-1.301,2.119c-0.402,1.027-1.173,1.441-2.133,1.592c-1.761,0.275-3.442,0.799-5.139,1.333
			c-2.697,0.849-2.22,1.294-3.611-1.633c-0.804-1.694-1.486-3.473-2.493-5.041c-1.701-2.646-3.21-5.384-4.612-8.19
			c-1.493-2.992-2.998-5.979-4.462-8.984c-0.515-1.057-1.197-1.925-2.134-2.653c-0.731-0.568-1.324-1.317-1.977-1.986
			c-0.416-0.424-0.482-0.896-0.188-1.413c0.487-0.854,0.541-1.786,0.502-2.737c-0.045-1.148-0.07-2.298-0.115-3.446
			c-0.044-1.178-0.007-1.36,1.057-1.445c1.467-0.119,2.545-0.783,3.482-1.855c1.853-2.129,3.775-4.197,5.614-6.337
			c3.559-4.14,7.803-7.562,11.745-11.304c0.226-0.214,0.49-0.391,0.75-0.565c1.91-1.288,3.51-2.902,5.016-4.634
			c0.609-0.702,0.828-1.453,0.649-2.309c-0.192-0.916-0.515-1.804-0.725-2.717c-0.44-1.914-2.043-2.824-3.38-3.959
			c-0.216-0.182-0.585-0.208-0.891-0.255c-1.313-0.198-2.414,0.143-3.453,1.048c-3.778,3.3-7.734,6.393-11.367,9.859
			c-0.756,0.72-1.589,1.359-2.392,2.028c-3.452,2.874-6.757,5.92-10.365,8.606c-0.334,0.247-0.618,0.563-0.936,0.834
			c-1.256,1.068-2.085,2.303-1.851,4.074c0.132,1.006-0.829,1.967-0.201,3.04c0.075,0.127,0.045,0.457-0.049,0.519
			c-0.784,0.508-1.625,0.934-2.388,1.471c-0.593,0.42-1.116,0.945-1.639,1.457c-1.912,1.87-2.188,4.203-1.777,6.678
			c0.158,0.95,0.712,1.75,1.528,2.295c0.952,0.637,2.118,1.061,2.861,1.875c0.865,0.953,0.35,2.403,0.68,3.613
			c0.96,3.517,1.824,7.061,2.723,10.597c0.102,0.403,0.18,0.814,0.273,1.221c0.638,2.746,1.205,5.517,3.019,7.813
			c0.254,0.32,0.388,0.738,0.557,1.122c1.175,2.677,2.304,5.374,3.534,8.024c0.523,1.129,1.252,2.161,1.888,3.237
			c1.554,0.781,1.741,2.145,1.627,3.682c-0.047,0.618,0.036,1.259,0.147,1.873c0.353,1.958,0.975,3.692,3.433,3.744
			c0.191,0.005,0.382,0.159,0.569,0.249c1.448,0.691,2.986,0.871,4.575,0.873c7.007,0.012,14.014,0.047,21.021,0.079
			c1.568,0.008,3.137,0.03,4.703,0.067c4.283,0.098,8.563,0.207,12.845,0.313c0.003,0.057,0.004,0.113,0.006,0.17
			c2.914-0.233,5.831-0.438,8.742-0.717c0.822-0.08,1.637-0.336,2.427-0.597c0.23-0.076,0.501-0.434,0.52-0.68
			c0.075-1.039,0.223-2.113,0.043-3.119C82.097,97.37,81.974,95.741,80.788,94.548z M35.98,21.303
			c0.876-0.723,1.728-1.478,2.641-2.153c0.754-0.559,1.547-0.291,2.025,0.615c0.141,0.27,0.209,0.578,0.334,0.936
			c-0.098,0.241-0.132,0.602-0.329,0.773c-0.931,0.815-1.888,1.602-2.869,2.352c-0.751,0.572-1.217,0.519-1.93-0.085
			C34.555,22.644,34.563,22.471,35.98,21.303z M31.377,25.211c0.059-0.065,0.215-0.146,0.251-0.119
			c0.623,0.481,1.232,0.979,1.765,1.409c-0.065,0.287-0.067,0.393-0.112,0.469c-0.045,0.075-0.19,0.18-0.198,0.173
			c-0.588-0.558-1.17-1.12-1.742-1.694C31.306,25.412,31.33,25.263,31.377,25.211z M27.018,28.771c0.714-0.67,1.1-0.725,1.864-0.22
			c0.427,0.282,0.846,0.581,1.226,0.921c0.11,0.098,0.075,0.358,0.105,0.545c-0.259,0.738-1.144,1.19-1.68,0.844
			c-0.516-0.336-1.023-0.69-1.523-1.049C26.648,29.55,26.66,29.107,27.018,28.771z M22.99,32.476
			c0.256-0.266,0.847-0.631,0.965-0.537c0.694,0.557,1.3,1.225,1.924,1.869c0.026-0.128,0.045-0.265,0.046-0.418
			c0,0.645,0.042,0.509-0.006,0.459c-0.014-0.014-0.027-0.028-0.04-0.042c-0.157,0.757-0.688,1.085-0.896,0.94
			c-0.674-0.477-1.354-0.953-1.971-1.498C22.87,33.125,22.858,32.614,22.99,32.476z M19.812,35.826
			c0.041-0.083,0.163-0.206,0.216-0.192c1.128,0.309,1.914,1.055,2.519,2.018c0.033,0.055-0.041,0.176-0.065,0.267
			c-0.128,0.476-0.953,0.901-1.196,0.605c-0.577-0.704-1.134-1.426-1.658-2.168C19.565,36.265,19.727,35.998,19.812,35.826z
			 M14.329,51.488c-0.228,0.556-0.634,1.067-1.053,1.507c-0.824,0.863-1.497,0.916-2.485,0.309
			c-0.177-0.109-0.336-0.245-0.517-0.346c-0.859-0.478-1.532-1.054-1.363-2.185c0.205-1.362,1.037-2.387,2.242-2.676
			c0.299-0.072,0.613-0.088,0.787-0.109C13.755,47.928,15.008,49.824,14.329,51.488z M15.903,60.747
			c-0.024-0.015-0.05-0.029-0.074-0.044c-0.003-0.033-0.004-0.068-0.005-0.101c-0.153-0.061-0.332-0.109-0.392-0.221
			c-0.076-0.139,0.005-0.362,0.018-0.549c0.109,0.089,0.274,0.158,0.312,0.271c0.055,0.155,0.054,0.329,0.062,0.499
			c0.026,0.01,0.054,0.021,0.078,0.032C15.906,60.668,15.905,60.707,15.903,60.747c0.126,0.074,0.251,0.149,0.378,0.223
			C15.846,61.244,15.894,60.973,15.903,60.747z M16.098,40.758c-0.12-0.11,0.003-0.62,0.16-0.843
			c0.138-0.198,0.555-0.423,0.717-0.348c0.847,0.386,1.662,0.848,2.464,1.326c0.116,0.068,0.101,0.355,0.16,0.592
			c-0.198,0.324-0.391,0.697-0.643,1.024c-0.097,0.126-0.408,0.262-0.48,0.206C17.659,42.093,16.847,41.458,16.098,40.758z
			 M17.61,66.255c-0.13-0.375-0.21-0.606-0.29-0.838c0.248-0.073,0.494-0.182,0.745-0.195c0.068-0.004,0.256,0.345,0.211,0.412
			C18.137,65.839,17.911,65.987,17.61,66.255z M20.281,72.217c-0.36,0.259-0.526-0.047-0.67-0.299
			c-0.1-0.173-0.191-0.374-0.204-0.566c-0.012-0.169,0.039-0.407,0.154-0.501c0.12-0.099,0.434-0.147,0.517-0.067
			c0.266,0.26,0.467,0.589,0.67,0.86C20.532,71.913,20.435,72.105,20.281,72.217z M48.711,82.505
			c0.276-0.279,0.609-0.566,0.97-0.683c0.476-0.153,1.011-0.223,1.509-0.188c0.821,0.057,1.634,0.22,2.45,0.346
			c0.572,0.088,1.29,0.741,1.059,0.882c-0.317,0.194-0.714,0.313-1.087,0.348c-0.616,0.055-1.237,0.015-1.857,0.015v-0.115
			c-0.619,0-1.241,0.015-1.858-0.004C49.029,83.079,48.463,82.758,48.711,82.505z M23.423,82.407
			c-0.138-0.145-0.246-0.314-0.366-0.476c0.08-0.168,0.116-0.409,0.249-0.488c0.354-0.209,0.747-0.358,1.134-0.513
			c0.084-0.035,0.206-0.025,0.296,0.01c0.276,0.105,0.268,0.25,0.047,0.465c-0.373,0.361-0.713,0.754-1.085,1.118
			C23.669,82.552,23.488,82.476,23.423,82.407z M28.784,88.011c-0.434,0.446-0.919,0.848-1.409,1.233
			c-0.665,0.522-1.176,0.489-1.553-0.183c-0.61-1.086-1.155-2.211-1.689-3.338c-0.199-0.418,0.051-0.893,0.459-0.989
			c0.201-0.048,0.42-0.071,0.624-0.044c0.726,0.098,1.341-0.895,2.03-0.342c0.9,0.725,1.477,1.736,1.92,2.875
			C29.045,87.481,28.979,87.81,28.784,88.011z M75.552,98.306c-0.832,0.072-1.671,0.063-2.508,0.075
			c-0.628,0.009-1.256,0.003-1.884,0.003v-0.083c-1.046,0-2.092,0.019-3.139-0.006c-0.605-0.015-1.375,0.218-1.718-0.413
			c-0.216-0.396-0.029-1.004-0.058-1.514c-0.018-0.309-0.081-0.618-0.155-0.919c-0.144-0.601-0.951-0.94-1.518-0.686
			c-1.016,0.459-1.633,1.284-2.078,2.254c-0.215,0.466-0.266,1.096-0.87,1.187c-0.605,0.092-1.237,0.026-1.854-0.018
			c-0.084-0.007-0.253-0.343-0.206-0.43c0.347-0.638,0.725-1.26,1.122-1.869c0.283-0.436,0.656-0.819,0.908-1.271
			c0.391-0.707,0.164-1.704-0.453-2.303c-0.683-0.661-1.504-0.827-2.278-0.317c-0.595,0.395-1.204,0.861-1.605,1.437
			c-0.775,1.108-1.507,2.271-2.067,3.498c-0.473,1.032-1.144,1.412-2.204,1.295c-0.206-0.023-0.417-0.021-0.625-0.043
			c-0.458-0.047-0.736-0.492-0.557-0.896c0.643-1.442,1.479-2.753,2.538-3.936c0.599-0.67,0.536-1.426-0.011-1.963
			c-0.561-0.545-1.404-0.697-2.001-0.201c-0.716,0.594-1.42,1.245-1.964,1.992c-1.048,1.433-2.021,2.926-2.944,4.443
			c-0.489,0.807-1.166,0.773-1.894,0.666c-0.296-0.041-0.566-0.252-0.344-0.635c0.575-0.993,1.171-1.975,1.733-2.977
			c0.213-0.379,0.272-0.81-0.088-1.146c-0.383-0.358-0.814-0.672-1.393-0.507c-0.735,0.207-1.325,0.633-1.71,1.291
			c-0.634,1.082-1.254,2.173-1.849,3.276c-0.496,0.919-1.31,0.954-2.162,0.787c-0.202-0.039-0.506-0.436-0.478-0.624
			c0.128-0.818,0.438-1.611,0.521-2.43c0.032-0.322-0.283-0.815-0.582-0.996c-0.3-0.182-0.893-0.238-1.152-0.057
			c-0.671,0.469-1.288,1.053-1.812,1.685c-0.392,0.473-0.621,1.087-0.9,1.647c-0.265,0.531-0.713,0.766-1.266,0.741
			c-1.234-0.057-2.507,0.28-3.693-0.331c-0.007-1.634,1.347-2.247,2.376-3.039c2.254-1.736,4.823-2.94,7.442-3.994
			c1.933-0.778,3.931-1.441,5.954-1.937c5.843-1.429,11.619-1.075,17.248,1.056c3.122,1.182,6.194,2.495,9.3,3.723
			c1.814,0.717,2.671,2.243,3.389,3.891C76.251,98.142,75.8,98.284,75.552,98.306z M98.931,51.736
			c-0.904-1.766-1.698-3.601-2.743-5.279c-4.526-7.279-9.311-14.385-14.648-21.105c-0.288-0.363-0.36-0.742-0.041-1.113
			c1.63-1.907,1.046-4.146,0.924-6.302c-0.04-0.691-0.982-1.097-1.71-0.842c-0.098,0.033-0.183,0.099-0.274,0.15
			c-0.091,0.052-0.176,0.113-0.272,0.155c-0.553,0.24-0.839,0.113-0.752-0.372c0.144-0.812,0.502-1.61,0.502-2.415
			c0-3.806-0.264-7.546-3.42-10.327c-0.783-0.69-1.418-1.565-2.248-2.183c-0.908-0.673-1.906-1.336-2.968-1.67
			c-2.891-0.908-5.795-0.17-8.678,0.246c-0.395,0.057-0.798,0.283-1.128,0.525c-1.742,1.284-3.154,2.943-3.41,5.081
			c-0.421,3.516-0.789,7.108,1.1,10.409c0.519,0.905,0.493,1.723-0.042,2.624c-0.677,1.138-0.69,2.461-0.405,3.665
			c0.232,0.993-0.08,1.559-0.687,2.209c-2.57,2.751-5.102,5.545-6.981,8.836c-2.746,4.809-5.45,9.644-8.15,14.479
			c-0.302,0.54-0.445,1.167-0.693,1.739c-0.898,2.082-0.555,4.078,0.374,6.049c0.337,0.718,0.774,1.176,1.658,1.146
			c2.921-0.104,5.845-0.154,8.767-0.236c1.042-0.028,2.085-0.089,3.128-0.131c0.817-0.034,1.41,0.315,1.755,1.058
			c0.718,1.548,1.814,2.809,3.052,3.946c2.549,2.341,5.466,3.817,9.027,3.722c1.15-0.029,2.308,0.046,3.449-0.067
			c4.771-0.471,8.659-2.31,10.582-7.064c0.04-0.097,0.104-0.185,0.134-0.284c0.215-0.733,0.774-0.908,1.45-0.908
			c1.36,0.004,2.718,0.002,4.758,0.002c1.407,0.107,3.487,0.271,5.567,0.428c1.89,0.142,3.5-1.252,3.601-3.124
			C99.564,53.723,99.422,52.693,98.931,51.736z M78.71,20.493c0.15,0.067,0.374,0.294,0.346,0.371
			c-0.064,0.18-0.231,0.367-0.405,0.455c-0.364,0.185-0.762,0.436-1.141,0.428c-1.041-0.021-2.082-0.139-3.117-0.26
			c-1.339-0.158-2.675-0.355-3.875-0.518c-2.033,0.275-3.891,0.541-5.754,0.774c-0.823,0.104-1.105-0.08-1.453-0.852
			c-0.075-0.168-0.108-0.432-0.026-0.57c0.083-0.137,0.341-0.247,0.516-0.238c2.604,0.127,5.209,0.333,7.815,0.395
			c1.136,0.026,2.288-0.18,3.416-0.374C76.308,19.884,77.529,19.958,78.71,20.493z M64.176,6.505
			c0.167-0.228,0.483-0.394,0.765-0.484c2.258-0.729,4.538-0.688,6.736,0.139c1.287,0.484,2.275,1.471,2.806,2.787
			c0.348,0.865,0.595,1.769,0.882,2.658c0.285,0.885,0.518,1.791,0.849,2.657c0.697,1.817,0.682,1.823-1.335,1.757
			c-1.664-0.054-3.33-0.011-4.993-0.011c-0.001-0.03-0.001-0.06-0.003-0.089c-1.976,0.067-3.953,0.144-5.93,0.195
			c-0.595,0.017-0.924-0.309-0.984-0.943c-0.146-1.552-0.409-3.109-0.366-4.658C62.644,9.048,63.305,7.7,64.176,6.505z
			 M77.627,58.384c-2.071,1.912-4.654,2.199-7.294,2.201c-1.591,0-3.11-0.401-4.378-1.428c-0.51-0.412-1.395-0.518-1.345-1.459
			c0.607-0.084,1.213-0.229,1.822-0.24c1.67-0.033,3.342-0.012,5.014-0.012v0.099c1.984,0,3.968-0.007,5.953,0.013
			c0.163,0.002,0.443,0.164,0.46,0.282C77.885,58.008,77.765,58.255,77.627,58.384z M92.894,51.378
			c-0.414,0.027-0.831,0.052-1.247,0.053c-2.091,0.006-4.18,0.002-6.271,0.002c-0.002-0.049-0.004-0.1-0.004-0.15
			c-4.172,0.152-8.343,0.348-12.517,0.442c-4.388,0.101-8.778,0.12-13.168,0.144c-1.251,0.007-2.518,0.015-3.75-0.165
			c-2.488-0.363-4.973-0.607-7.49-0.52c-0.87,0.03-1.059-0.338-0.581-1.156c0.843-1.441,1.735-2.855,2.613-4.276
			c0.543-0.881,1.341-1.222,2.373-1.228c1.461-0.008,2.93-0.052,4.379-0.212c0.578-0.065,1.175-0.403,1.659-0.759
			c0.66-0.484,0.572-1.801-0.141-2.18c-0.632-0.336-1.333-0.58-2.031-0.748c-0.603-0.143-1.247-0.108-1.869-0.178
			c-0.412-0.045-0.6-0.555-0.355-0.957c0.268-0.446,0.558-0.882,0.839-1.321c0.315-0.495,0.779-0.712,1.335-0.559
			c1.35,0.367,2.682,0.343,4.017-0.063c0.199-0.061,0.414-0.079,0.603-0.159c0.501-0.211,0.894-0.537,0.97-1.117
			c0.068-0.517-0.491-1.201-1.14-1.301c-0.824-0.126-1.667-0.133-2.488-0.276c-0.231-0.04-0.565-0.372-0.572-0.581
			c-0.008-0.246,0.23-0.629,0.461-0.729c0.464-0.201,0.987-0.294,1.496-0.356c1.762-0.217,3.525-0.405,5.29-0.594
			c0.647-0.07,1.2-0.312,1.663-0.776c0.443-0.445,0.409-1.305-0.076-1.666c-0.606-0.454-1.282-0.689-2.04-0.692
			c-1.043-0.005-2.088-0.007-3.132-0.022c-0.089-0.002-0.243-0.092-0.254-0.159c-0.028-0.168-0.059-0.396,0.026-0.517
			c2.129-2.981,2.399-3.229,6.113-3.582c2.282-0.216,4.594-0.137,6.891-0.127c0.35,0,0.787,0.263,1.03,0.54
			c6.217,7.088,11.291,14.998,16.405,22.881c0.509,0.786,0.948,1.618,1.41,2.435C93.483,50.993,93.223,51.357,92.894,51.378z
			 M48.514,20.241c1.69,1.08,3.567,1.21,5.447,0.835c1.438-0.287,2.333-1.337,2.682-2.769c0.122-0.501,0.099-1.036,0.115-1.225
			c-0.016-3.224-1.059-4.725-3.559-5.568c-1.743-0.588-3.346-0.099-4.788,0.756C45.807,13.814,44.696,17.803,48.514,20.241z
			 M50.435,14.986c0.37-0.152,0.812-0.243,1.203-0.195c0.372,0.047,0.796,0.23,1.055,0.492c0.349,0.356,0.302,1.373,0.006,1.739
			c-0.119,0.148-0.307,0.294-0.487,0.334c-0.725,0.159-1.451,0.147-2.052-0.353c-0.217-0.181-0.327-0.491-0.423-0.642
			C49.678,15.65,49.918,15.197,50.435,14.986z"/>
	</g>
</g>
<g>
</g>
<g>
</g>
<g>
</g>
<g>
</g>
<g>
</g>
<g>
</g>
<g>
</g>
<g>
</g>
<g>
</g>
<g>
</g>
<g>
</g>
<g>
</g>
<g>
</g>
<g>
</g>
<g>
</g>
</svg>
