<?xml version="1.0" encoding="iso-8859-1"?>
<!-- Generator: Adobe Illustrator 19.0.0, SVG Export Plug-In . SVG Version: 6.00 Build 0)  -->
<svg version="1.1" id="Capa_1" xmlns="http://www.w3.org/2000/svg" xmlns:xlink="http://www.w3.org/1999/xlink" x="0px" y="0px"
	 viewBox="0 0 104.554 104.554" style="enable-background:new 0 0 104.554 104.554;" xml:space="preserve">
<g id="laptop02">
	<g>
		<path style="fill-rule:evenodd;clip-rule:evenodd;" d="M104.147,87.501c-1.397-3.439-2.823-6.867-4.237-10.301
			c-1.446-1.824-2.17-4.035-3.246-6.059c-1.42-2.668-3.597-4.27-6.742-4.287c-0.402-0.002-0.805-0.027-1.207-0.035
			c-3.812-0.061-7.61-0.107-11.428-0.432c-6.099-0.518-12.225-0.908-18.363-0.781c-2.512,0.053-5.026-0.004-7.539-0.035
			c-0.699-0.01-1.426,0.008-2.088-0.178c-2.043-0.574-4.136-0.752-6.234-0.842c-2.812-0.119-5.627-0.154-8.442-0.223v0.068
			c-2.613,0-5.23-0.084-7.84,0.023c-2.603,0.107-5.201,0.379-7.797,0.633c-1.809,0.178-3.48,0.846-5.154,1.531
			c-1.369,0.559-2.347,1.488-3.148,2.682c-1.287,1.916-2.672,3.77-3.883,5.734c-1.635,2.645-3.265,5.305-4.68,8.074
			C0.004,87.208,0.02,87.681,0,92.318c-0.004,1.238,0.258,2.396,0.623,3.537c0.432,1.352,1.342,2.258,2.855,2.248
			c1.938-0.012,3.764,0.523,5.613,0.986c0.578,0.145,1.172,0.281,1.764,0.301c2.21,0.074,4.422,0.123,6.632,0.135
			c1.406,0.008,2.854,0.129,4.212-0.149c3.387-0.693,6.797-0.588,10.205-0.574c1.805,0.008,3.609,0.182,5.41,0.312
			c1.299,0.096,2.598,0.383,3.892,0.352c4.015-0.094,8.028-0.314,12.043-0.449c1.403-0.049,2.831-0.145,4.214,0.039
			c3.109,0.418,6.192,0.379,9.302,0.018c1.485-0.174,3.016-0.16,4.51-0.039c3.885,0.316,7.739,1.219,11.669,0.414
			c0.58-0.119,1.203-0.041,1.807-0.039c2.11,0.008,4.222,0.027,6.333,0.025c1.909,0,3.823,0.041,5.729-0.062
			c2.017-0.111,3.988-0.477,5.63-1.826c0.483-0.396,0.816-0.844,0.944-1.477c0.335-1.67,0.777-3.322,1.052-5
			C104.633,89.88,104.613,88.648,104.147,87.501z M98.103,90.329c-0.292,0.072-0.593,0.107-0.892,0.158
			c-4.359,0.756-8.754,1.381-13.173,0.994c-4.093-0.361-8.153-1.074-12.232-1.602c-0.995-0.129-2.004-0.189-3.008-0.201
			c-3.219-0.037-6.446,0.096-9.657-0.088c-5.028-0.289-10.034,0.301-15.053,0.209c-0.502-0.01-1.029-0.033-1.502,0.096
			c-2.178,0.604-4.395,0.391-6.601,0.398c-0.502,0.002-1.047,0.074-1.498-0.09c-1.963-0.713-3.974-0.453-5.978-0.416
			c-1.71,0.033-3.422,0.008-5.13,0.074c-1.805,0.07-3.604,0.27-5.409,0.32c-2.916,0.082-5.833,0.117-8.75,0.104
			c-0.566-0.002-1.161-0.258-1.688-0.51c-1.57-0.752-1.773-1.242-1.334-2.834c0.184-0.67,0.338-1.354,0.519-2.025
			c0.131-0.482,0.18-1.029,0.447-1.424c1.254-1.842,1.949-3.971,3.084-5.857c1.081-1.793,2.404-3.441,3.646-5.139
			c0.689-0.941,1.572-1.455,2.821-1.422c2.01,0.055,4.021-0.01,5.998-0.486c0.383-0.094,0.801-0.062,1.203-0.068
			c5.533-0.094,11.066-0.184,16.6-0.273v0.162c4.727,0.027,9.455,0.033,14.182,0.094c1.403,0.018,2.803,0.232,4.206,0.285
			c2.312,0.09,4.624,0.145,6.937,0.17c2.213,0.025,4.418,0.01,6.607,0.471c0.973,0.205,2.005,0.123,3.006,0.213
			c1.398,0.125,2.791,0.326,4.191,0.426c1.303,0.09,2.611,0.107,3.918,0.129c1.609,0.023,3.22-0.02,4.828,0.035
			c0.691,0.023,1.393,0.174,2.064,0.354c1.021,0.275,1.797,0.9,2.198,1.908c0.711,1.777,1.819,3.348,2.683,5.029
			c1.416,2.756,2.42,5.723,3.579,8.609c0.108,0.27,0.095,0.594,0.126,0.893C99.117,89.734,98.824,90.148,98.103,90.329z
			 M10.216,40.355c0.05,3.92,0.056,7.842,0.143,11.762c0.03,1.396,0.171,2.803,0.388,4.183c0.64,4.098,3.752,6.822,7.8,6.938
			c2.202,0.065,4.426-0.197,6.591,0.453c0.274,0.082,0.637,0.088,0.893-0.021c1.903-0.818,4.001-0.305,5.932-0.898
			c3.416-0.008,6.838-0.137,10.246,0.017c2.899,0.131,5.778,0.699,8.679,0.875c4.911,0.301,9.832,0.455,14.75,0.65
			c2.511,0.098,5.04,0,7.532,0.27c2.406,0.26,4.81,0.266,7.213,0.408c2.566,0.152,4.981-0.418,7.378-1.178
			c1.64-0.52,3.124-1.367,4.495-2.398c0.393-0.295,0.799-0.654,1.024-1.076c1.328-2.494,2.382-5.105,2.708-7.932
			c0.346-2.99,0.561-5.99,0.467-9.018c-0.099-3.213-0.021-6.432-0.021-9.648h0.145c0-3.922-0.084-7.844,0.025-11.76
			c0.096-3.467-0.634-6.779-1.469-10.088c-0.17-0.678-0.467-1.326-0.758-1.965c-0.919-2.022-2.387-3.436-4.557-4.084
			c-2.124-0.635-4.274-1.123-6.504-1.059c-4.216,0.121-8.43,0.305-12.646,0.42c-2.913,0.08-5.833,0.207-8.741,0.107
			c-7.238-0.254-14.475-0.094-21.711,0c-0.401,0.006-0.809,0.012-1.203,0.074c-3.789,0.608-7.611,0.531-11.429,0.57
			c-1.702,0.016-3.396-0.131-5.085,0.371c-0.84,0.252-1.793,0.129-2.697,0.16C19,6.517,18.189,6.462,17.393,6.546
			c-3.053,0.318-5.868,2.899-6.467,5.883c-0.416,2.07-0.679,4.154-0.678,6.275c0.002,1.504-0.064,3.018-0.24,4.508
			c-0.449,3.814-0.354,7.637-0.105,11.438C10.027,36.55,10.191,38.448,10.216,40.355z M15.816,26.466
			c0.105-2.707,0.312-5.414,0.553-8.113c0.116-1.293,0.404-2.572,0.645-3.853c0.182-0.961,0.727-1.664,1.687-1.941
			c1.446-0.414,2.886-0.906,4.364-1.143c5.283-0.844,10.601-0.955,15.932-0.496c0.498,0.043,1.002,0.17,1.492,0.129
			c7.527-0.619,15.074-0.449,22.613-0.535c4.809-0.057,9.605-0.424,14.412-0.435c1.912-0.002,3.828-0.109,5.732,0.012
			c3.305,0.207,6.893,2.213,7.711,6.062c0.374,1.756,0.922,3.463,0.487,5.336c-0.267,1.154-0.13,2.404-0.134,3.609
			c-0.021,7.748-0.084,15.494-0.014,23.238c0.021,2.307-0.613,4.33-1.653,6.32c-0.922,1.764-2.278,3.041-3.991,3.99
			c-1.067,0.59-2.145,1.012-3.423,0.953c-1.905-0.088-3.817-0.023-5.726-0.023c-0.003,0.057-0.006,0.111-0.009,0.168
			c-3.106-0.213-6.21-0.508-9.319-0.621c-3.819-0.144-7.643-0.144-11.466-0.197c-1.405-0.019-2.821,0.1-4.188-0.363
			c-0.094-0.031-0.197-0.043-0.297-0.045c-5.723-0.174-11.41-1.188-17.16-0.729c-0.9,0.07-1.8,0.158-2.695,0.271
			c-3.715,0.457-7.412,0.41-11.078-0.375c-0.779-0.168-1.561-0.435-2.262-0.807c-0.506-0.268-1.012-0.705-1.291-1.195
			c-0.851-1.488-1.496-3.07-1.531-4.832c-0.02-1.004-0.098-2.012-0.054-3.014C15.467,40.716,15.539,33.589,15.816,26.466z
			 M59.742,77.685c-1.303-0.055-2.606-0.066-3.909-0.105c-1-0.031-2.043,0.094-2.991-0.148c-3.57-0.908-6.951-0.07-10.332,0.916
			c-0.27,0.078-0.568,0.256-0.73,0.477c-1.219,1.668-1.875,3.535-1.822,5.615c0.031,1.197,0.856,1.998,1.545,2.85
			c0.579,0.715,1.425,0.641,2.226,0.643c2.006,0.006,4.013,0.002,6.018,0.002v-0.164c1.305,0,2.61,0.033,3.913-0.004
			c2.703-0.078,5.406-0.182,8.107-0.295c0.857-0.037,1.432-0.488,1.521-1.182c0.317-2.449,0.01-4.803-1.164-7.002
			C61.619,78.343,60.848,77.734,59.742,77.685z M58.303,85.017c-1.199,0.025-2.397,0.006-3.597,0.006
			c-0.005,0.043-0.011,0.086-0.017,0.129c-1.979-0.225-3.954-0.486-5.938-0.662c-1.09-0.096-2.193-0.039-3.291-0.068
			c-0.434-0.01-0.745-0.219-0.826-0.676c-0.129-0.719,0.102-1.471,0.504-1.596c0.281-0.086,0.574-0.168,0.867-0.182
			c3.488-0.172,6.979-0.334,10.467-0.486c0.499-0.023,1.002-0.01,1.498,0.035c0.619,0.055,1.07,0.494,1.201,1.154
			c0.077,0.389,0.116,0.789,0.139,1.188C59.352,84.601,59.021,85.003,58.303,85.017z M39.689,48.636
			c0.176,0.328,0.081,0.793,0.15,1.188c0.253,1.428,0.715,1.865,2.201,1.922c1.506,0.059,3.014,0.02,4.521,0.041
			c1.405,0.02,2.814,0.008,4.214,0.111c1.494,0.109,2.98,0.34,4.469,0.518c2.785,0.258,5.383-0.633,8.021-1.219
			c1.788-0.398,2.415-1.064,2.575-2.826c0.219-2.396,0.336-4.803,0.529-7.201c0.098-1.195,0.326-2.383,0.396-3.578
			c0.081-1.397,0.306-2.852,0.019-4.184c-0.461-2.146-0.071-2.828-2.959-2.826c-0.301,0-0.603-0.033-0.901-0.074
			c-0.907-0.119-1.45-0.705-1.665-1.529c-0.176-0.67-0.197-1.385-0.258-2.086c-0.252-2.951-1.703-5.31-3.693-7.387
			c-1.103-1.148-2.35-1.805-4.047-1.207c-0.732,0.26-1.605,0.084-2.385,0.248c-1.881,0.395-3.709,1.043-5.004,2.52
			c-1.84,2.094-2.869,4.572-2.909,7.406c-0.009,0.602,0.019,1.207,0.005,1.809c-0.02,0.764-0.274,1.113-0.985,1.299
			c-0.581,0.152-1.188,0.209-1.763,0.377c-0.808,0.24-1.461,0.678-1.58,1.613c-0.164,1.291-0.441,2.576-0.471,3.869
			c-0.046,2.09-0.271,4.217,0.551,6.24C38.63,45.411,38.855,47.073,39.689,48.636z M56.738,39.357
			c-0.086,0.812-0.793,1.109-1.457,1.365c-0.539,0.207-0.768,0.586-0.776,1.145c-0.013,0.701-0.001,1.41-0.073,2.109
			c-0.123,1.172-0.786,1.748-2,1.812c-0.199,0.01-0.402,0.008-0.602-0.006c-0.896-0.059-1.471-0.605-1.544-1.531
			c-0.048-0.6-0.052-1.207-0.011-1.809c0.055-0.836-0.1-1.566-0.662-2.234c-1.088-1.295-0.707-2.641,0.038-3.92
			c0.735-1.264,1.925-1.695,3.153-1.629c1.764,0.023,3.408,1.121,3.854,2.619C56.852,37.923,56.811,38.671,56.738,39.357z
			 M47.805,28.386c0.068-0.895,0.391-1.774,0.428-2.668c0.061-1.463,0.912-2.109,2.168-2.516c1.174-0.381,2.332-0.619,3.508-0.076
			c1.594,0.736,2.609,1.852,2.367,3.756c-0.025,0.197-0.004,0.4-0.004,0.601h0.01c0,0.303,0.004,0.602-0.002,0.906
			c-0.027,1.463-0.146,1.606-1.49,1.65c-0.903,0.033-1.809,0.01-2.712,0.043c-0.802,0.029-1.616,0.027-2.397,0.18
			C47.94,30.601,47.645,30.534,47.805,28.386z M44.957,44.667l0.074,0.162l-0.182-0.021L44.957,44.667z"/>
	</g>
</g>
<g>
</g>
<g>
</g>
<g>
</g>
<g>
</g>
<g>
</g>
<g>
</g>
<g>
</g>
<g>
</g>
<g>
</g>
<g>
</g>
<g>
</g>
<g>
</g>
<g>
</g>
<g>
</g>
<g>
</g>
</svg>
