<?xml version="1.0" encoding="iso-8859-1"?>
<!-- Generator: Adobe Illustrator 19.0.0, SVG Export Plug-In . SVG Version: 6.00 Build 0)  -->
<svg version="1.1" id="Capa_1" xmlns="http://www.w3.org/2000/svg" xmlns:xlink="http://www.w3.org/1999/xlink" x="0px" y="0px"
	 viewBox="0 0 104.539 104.539" style="enable-background:new 0 0 104.539 104.539;" xml:space="preserve">
<g id="_x0A_laptop01">
	<g>
		<path style="fill-rule:evenodd;clip-rule:evenodd;" d="M103.893,86.693c-1.088-2.699-2.086-5.441-3.307-8.08
			c-1.213-2.625-2.939-4.994-3.936-7.738c-0.068-0.186-0.174-0.365-0.293-0.525c-1.277-1.746-2.723-3.23-5.074-3.387
			c-1.299-0.086-2.592-0.299-3.889-0.342c-2.715-0.088-5.43-0.053-8.143-0.16c-1.502-0.057-2.992-0.41-4.494-0.441
			c-6.43-0.135-12.844-0.729-19.285-0.65c-2.59,0.033-5.225,0.322-7.756-0.584c-0.182-0.066-0.4-0.031-0.602-0.045
			c-2.303-0.152-4.607-0.391-6.912-0.438c-4.424-0.096-8.848-0.09-13.271-0.104c-0.699-0.002-1.398,0.111-2.096,0.18
			c-1.197,0.119-2.395,0.34-3.592,0.344c-2.144,0.01-4.211,0.428-6.182,1.182c-1.766,0.676-3.426,1.545-4.418,3.357
			c-0.769,1.406-1.742,2.703-2.662,4.02c-2.713,3.871-5.242,7.83-7,12.262c-1.283,3.238-1.164,6.451-0.471,9.736
			c0.062,0.293,0.068,0.629,0.219,0.873c0.588,0.955,1.221,1.814,2.559,1.779c0.893-0.023,1.824,0.037,2.686,0.266
			c2.336,0.621,4.666,1.186,7.113,1.02c0.392-0.027,0.799,0.08,1.195,0.145c2.197,0.352,4.394,0.312,6.598,0
			c3.984-0.564,7.986-1.01,12.018-0.732c2.605,0.18,5.201,0.486,7.803,0.721c0.691,0.062,1.393,0.113,2.088,0.096
			c4.924-0.121,9.844-0.289,14.768-0.385c3.014-0.057,6.031-0.01,9.047-0.014c3.414-0.01,6.816-0.08,10.221,0.498
			c1.648,0.281,3.396,0,5.1-0.07c0.896-0.037,1.791-0.232,2.688-0.252c1.91-0.039,3.82-0.012,5.73-0.012v-0.049
			c2.414,0,4.828,0.037,7.242-0.014c1.629-0.035,3.135-0.506,4.521-1.443c0.826-0.557,1.254-1.192,1.375-2.184
			c0.146-1.189,0.383-2.382,0.73-3.529C104.766,90.163,104.588,88.422,103.893,86.693z M98.539,90.005
			c-0.762,0.252-1.539,0.541-2.328,0.605c-3.699,0.301-7.373,1.023-11.109,0.719c-1.498-0.121-2.996-0.258-4.49-0.424
			c-2.193-0.244-4.412-0.381-6.57-0.816c-3.482-0.695-6.988-0.662-10.5-0.646c-6.232,0.027-12.467,0.1-18.699,0.156
			c-0.402,0.004-0.822-0.049-1.203,0.049c-2.574,0.658-5.195,0.438-7.803,0.443c-0.602,0.004-1.25,0.076-1.799-0.113
			c-2.275-0.779-4.564-0.443-6.859-0.213c-0.496,0.051-0.994,0.137-1.496,0.143c-5.227,0.074-10.455,0.141-15.684,0.197
			c-0.797,0.01-1.566,0.012-2.338-0.391c-1.656-0.859-1.77-1.259-1.408-3.082c0.658-3.322,2.518-6.1,3.988-9.033
			c0.977-1.943,2.492-3.619,3.787-5.4c0.562-0.773,1.375-1.148,2.318-1.25c0.199-0.021,0.402-0.019,0.601-0.031
			c2.906-0.201,5.811-0.455,8.721-0.586c2.914-0.131,5.832-0.141,9.584-0.223c1.375,0,3.59-0.027,5.801,0.014
			c1.305,0.023,2.607,0.158,3.91,0.242c1.1,0.074,2.213,0.291,3.299,0.197c6.633-0.57,13.244,0.518,19.873,0.229
			c1.184-0.049,2.379,0.4,3.576,0.445c4.715,0.178,9.391,1.07,14.137,0.75c0.998-0.068,2.024-0.059,3.012,0.082
			c1.994,0.283,3.645,1.047,4.242,3.258c0.229,0.855,0.67,1.691,1.182,2.42c2.17,3.086,3.145,6.695,4.574,10.105
			c0.15,0.361,0.166,0.783,0.205,1.182C99.106,89.462,98.957,89.867,98.539,90.005z M10.248,41.624
			c0.053,3.721,0.047,7.441,0.141,11.16c0.037,1.396,0.184,2.812,0.461,4.18c0.664,3.25,3.729,5.818,7.012,6.088
			c2.289,0.188,4.594-0.029,6.877,0.391c0.666,0.123,1.395-0.029,2.088-0.107c1.193-0.133,2.377-0.342,3.568-0.455
			c1.301-0.125,2.611-0.125,3.908-0.271c2.105-0.236,4.201-0.223,6.31,0.006c3.09,0.334,6.19,0.654,9.297,0.828
			c6.318,0.352,12.635,0.791,18.971,0.744c0.402-0.006,0.809-0.008,1.203,0.053c3.996,0.621,8.02,0.496,12.037,0.512
			c3.738,0.012,7.051-1.352,10.105-3.396c0.484-0.324,0.969-0.783,1.219-1.297c1.201-2.436,2.252-4.953,2.545-7.674
			c0.305-2.793,0.576-5.59,0.494-8.416c-0.096-3.416-0.023-6.838-0.023-10.254h0.102c0-3.219-0.064-6.437,0.02-9.652
			c0.078-2.922,0.02-5.82-0.568-8.691c-0.486-2.363-0.941-4.723-2.312-6.789c-0.807-1.213-1.801-2.088-3.199-2.605
			c-1.811-0.666-3.635-1.117-5.572-1.103c-3.621,0.029-7.242-0.01-10.859,0.062c-1.902,0.037-3.801,0.318-5.705,0.371
			c-2.4,0.062-4.81,0.404-7.207-0.156c-0.578-0.135-1.199-0.108-1.801-0.115c-2.615-0.037-5.229-0.096-7.844-0.076
			c-3.518,0.027-7.039,0.035-10.551,0.213c-3.506,0.177-6.998,0.619-10.504,0.814c-1.797,0.098-3.611-0.182-5.414-0.137
			c-1.803,0.049-3.6,0.29-5.398,0.453c-0.897,0.084-1.801,0.135-2.686,0.299c-3.24,0.6-5.426,2.738-6.027,5.889
			c-0.396,2.07-0.693,4.154-0.666,6.277c0.016,1.405,0.037,2.832-0.178,4.213c-0.568,3.709-0.422,7.438-0.188,11.131
			C10.061,36.617,10.211,39.117,10.248,41.624z M15.34,40.493c-0.098-0.484-0.045-1.004-0.021-1.505
			c0.105-2.309,0.221-4.616,0.34-6.924c0.23-4.516,0.418-9.033,0.721-13.543c0.101-1.49,0.469-2.967,0.777-4.436
			c0.178-0.852,0.766-1.428,1.606-1.643c1.939-0.496,3.875-1.182,5.85-1.361c4.189-0.379,8.369-0.846,12.625-0.343
			c2.971,0.351,6.021,0.021,9.035-0.038c1.004-0.021,2.002-0.201,3.004-0.212c6.438-0.077,12.877-0.094,19.314-0.196
			c3.01-0.047,6.021,0.008,9.027-0.363c1.686-0.209,3.416-0.088,5.125-0.076c2.203,0.018,4.102,0.922,5.824,2.199
			c0.547,0.406,1.039,0.977,1.367,1.572c1.189,2.143,1.811,4.447,1.686,6.916c-0.086,1.705-0.273,3.408-0.283,5.113
			c-0.041,7.441-0.123,14.889,0,22.332c0.045,2.653-0.738,4.926-2.012,7.129c-1.223,2.109-3.109,3.533-5.389,4.09
			c-1.809,0.443-3.729,0.691-5.658,0.523c-2.502-0.215-5.014-0.326-7.521-0.449c-4.115-0.199-8.229-0.412-12.346-0.539
			c-3.111-0.1-6.23,0.092-9.322-0.521c-0.975-0.195-2.006-0.078-3.008-0.154c-1.701-0.125-3.398-0.307-5.1-0.434
			c-2.611-0.195-5.219-0.287-7.822,0.137c-3.498,0.568-7.025,0.359-10.537,0.236c-1.277-0.047-2.541-0.547-3.801-0.877
			c-1.256-0.33-2.068-1.158-2.561-2.357c-0.576-1.398-1.117-2.793-1.041-4.352c0.039-0.803,0.008-1.609,0.008-2.414h-0.088
			c0.057-1.205,0.031-2.422,0.191-3.613C15.51,43.079,15.594,41.8,15.34,40.493z M58.779,77.398
			c-0.703-0.004-1.406-0.018-2.109-0.018c-2.004-0.002-4.008,0.125-5.988-0.424c-0.654-0.182-1.414-0.17-2.094-0.049
			c-1.967,0.348-3.92,0.775-5.867,1.227c-0.355,0.084-0.733,0.367-0.963,0.664c-1.281,1.646-1.906,3.541-1.75,5.615
			c0.143,1.9,1.697,3.293,3.584,3.311c2.812,0.025,5.625,0.006,8.438,0.006v-0.184c2.814,0,5.627,0.01,8.439-0.008
			c0.596-0.002,1.211-0.035,1.781-0.186c0.607-0.16,1.039-0.582,1.1-1.277c0.166-1.92,0.031-3.799-0.592-5.646
			C62.106,78.493,60.869,77.408,58.779,77.398z M58.432,85.068c-0.801,0.029-1.609,0.068-2.408,0.01
			c-2.602-0.189-5.197-0.441-7.801-0.625c-0.789-0.055-1.588,0.029-2.385,0.055c-0.76,0.021-1.078-0.152-1.176-0.658
			c-0.182-0.902,0.057-1.604,0.682-1.746c0.873-0.201,1.766-0.404,2.656-0.443c1.604-0.072,3.213-0.021,4.818-0.021v-0.104
			c1.607,0,3.215-0.019,4.822,0.006c1.225,0.02,1.521,0.332,1.66,1.631c0.031,0.296,0.039,0.599,0.033,0.9
			C59.328,84.611,58.949,85.05,58.432,85.068z M30.283,49.148c2.635,0.814,5.215-0.506,5.896-3.143
			c0.123-0.48,0.133-0.994,0.164-1.496c0.037-0.654,0.305-1.145,0.889-1.467c1.496-0.826,3.004-1.633,4.475-2.502
			c1.109-0.658,2.164-0.84,3.434-0.371c0.916,0.338,1.963,0.365,2.957,0.408c0.467,0.02,0.975-0.193,1.416-0.4
			c1.352-0.637,1.342-0.656,2.096,0.312c1.053,1.346,2.078,2.715,3.166,4.029c0.908,1.1,1.703,2.16,1.648,3.736
			c-0.027,0.734,0.41,1.551,0.807,2.227c1.406,2.383,4.107,3.033,6.529,1.664c1.232-0.695,1.982-1.738,2.074-3.127
			c0.07-1.094-0.014-2.213-0.164-3.299c-0.072-0.548-0.045-0.973,0.312-1.377c1.871-2.104,3.719-4.23,5.619-6.309
			c0.672-0.734,1.471-1.35,2.211-2.021c0.773,0.164,1.539,0.365,2.318,0.486c1.949,0.303,3.527-0.305,4.77-1.883
			c1.061-1.352,1.426-2.854,1.285-4.621c0-0.502,0.045-1.109-0.006-1.707c-0.201-2.385-1.568-3.881-3.865-4.379
			c-0.842-0.184-1.598,0.041-2.363,0.268c-3.201,0.949-4.816,3.119-4.809,6.428c0.002,0.303-0.006,0.613,0.051,0.902
			c0.209,1.004-0.211,1.711-0.912,2.398c-2.377,2.326-4.588,4.797-6.346,7.645c-0.154,0.254-0.355,0.486-0.562,0.705
			c-0.496,0.531-4.018,1.012-4.609,0.605c-0.326-0.222-0.627-0.506-0.879-0.812c-1.213-1.475-2.402-2.967-3.607-4.449
			c-1.139-1.404-2.23-2.82-2.16-4.779c0.016-0.393-0.086-0.805-0.199-1.186c-0.65-2.166-3.098-3.457-5.283-2.822
			c-2.178,0.627-3.371,2.088-3.674,4.297c-0.08,0.594-0.043,1.205-0.068,1.807c-0.021,0.539-0.26,0.969-0.734,1.232
			c-2.02,1.125-4.047,2.234-6.059,3.371c-0.559,0.314-1.047,0.451-1.688,0.144c-0.525-0.252-1.152-0.32-1.744-0.394
			c-1.676-0.209-2.934,0.527-3.848,1.873c-1.219,1.791-1.311,3.781-0.793,5.789C28.315,48.046,29.1,48.781,30.283,49.148z
			 M75.617,28.812c0.418-0.395,0.957-0.699,1.488-0.934c0.549-0.242,1.244,0.24,1.334,0.83c0.014,0.1,0.051,0.197,0.051,0.295
			c0.006,0.396,0.004,0.795,0.004,1.781c0.018-0.189,0.068,0.246-0.088,0.59c-0.141,0.32-0.457,0.693-0.773,0.783
			c-1.027,0.291-1.838-0.074-2.283-0.895C74.838,30.316,74.877,29.519,75.617,28.812z M60.934,47.236
			c0.129-0.213,0.471-0.531,0.572-0.486c0.291,0.137,0.508,0.432,0.717,0.629c-0.117,0.436-0.119,0.764-0.283,0.965
			c-0.145,0.182-0.498,0.35-0.695,0.295c-0.225-0.063-0.484-0.36-0.533-0.594C60.66,47.796,60.789,47.468,60.934,47.236z
			 M46.666,33.511c0.06-0.465,0.508-0.854,1.051-0.893c0.504-0.035,0.982,0.35,1.049,0.854c0.037,0.299,0.059,0.598,0.115,1.189
			c-0.129,0.406-0.303,1.082-0.57,1.713c-0.057,0.139-0.596,0.26-0.68,0.172C46.84,35.697,46.52,34.673,46.666,33.511z
			 M31.918,42.958c0.174-0.139,0.613-0.203,0.731-0.094c0.805,0.77,0.473,2.51-0.547,2.951c-0.115,0.049-0.391-0.07-0.475-0.195
			c-0.154-0.225-0.223-0.512-0.281-0.666C31.358,44.146,31.318,43.433,31.918,42.958z"/>
	</g>
</g>
<g>
</g>
<g>
</g>
<g>
</g>
<g>
</g>
<g>
</g>
<g>
</g>
<g>
</g>
<g>
</g>
<g>
</g>
<g>
</g>
<g>
</g>
<g>
</g>
<g>
</g>
<g>
</g>
<g>
</g>
</svg>
