<?xml version="1.0" encoding="iso-8859-1"?>
<!-- Generator: Adobe Illustrator 19.0.0, SVG Export Plug-In . SVG Version: 6.00 Build 0)  -->
<svg version="1.1" id="Capa_1" xmlns="http://www.w3.org/2000/svg" xmlns:xlink="http://www.w3.org/1999/xlink" x="0px" y="0px"
	 viewBox="0 0 121.376 121.376" style="enable-background:new 0 0 121.376 121.376;" xml:space="preserve">
<g id="_x0A_character01">
	<g>
		<path style="fill-rule:evenodd;clip-rule:evenodd;" d="M92.013,89.708c-0.298-0.4-0.599-0.822-0.981-1.133
			c-1.641-1.326-3.264-2.684-4.984-3.898c-2.133-1.508-4.353-2.893-6.545-4.318c-0.674-0.438-1.324-1-2.069-1.219
			c-2.029-0.594-3.133-2.072-4.021-3.814c-0.638-1.254-1.269-2.512-1.889-3.775c-0.742-1.506-1.107-3.002,0.233-4.402
			c1.215-2.649,2.503-5.268,3.626-7.955c1.122-2.686,2.147-5.416,3.07-8.174c0.296-0.885,0.608-1.605,1.274-2.295
			c2.738-2.84,4.983-6.043,6.65-9.637c0.386-0.832,0.684-1.664,0.672-2.6c-0.014-1.18-0.619-1.881-1.833-1.928
			c-1.507-0.057-3.011-0.062-4.482,0.402c-0.567,0.178-0.931-0.275-0.736-0.867c0.882-2.678,1.505-5.416,1.861-8.211
			c0.153-1.195,0.304-2.396,0.36-3.598c0.057-1.184-0.556-1.877-1.718-2.107c-0.295-0.059-0.6-0.1-0.897-0.09
			c-2.129,0.066-4.17-0.568-6.263-0.785c-0.455-0.047-0.69-0.35-0.746-0.795c-0.025-0.199-0.042-0.398-0.067-0.598
			c-0.416-3.26-0.754-3.777-3.939-4.338c-2.037-0.359-4.062-1.055-6.238-0.42c-1.153,0.336-2.355-0.328-3.465-0.773
			c-0.324-0.129-0.659-0.537-0.753-0.881c-0.236-0.869-0.431-1.8,0.23-2.588c0.472-0.562,0.708-1.174,0.825-1.896
			c0.076-0.469,0.361-0.93,0.639-1.334c0.428-0.623,0.988-1.018,1.787-0.584c0.483,0.26,1,0.32,1.387-0.092
			c0.518-0.551,1.176-0.68,1.849-0.877c0.653-0.189,0.808-0.816,0.563-1.455c-0.562-1.471-1.659-2.246-3.164-2.438
			c-0.69-0.088-1.402,0.01-2.105,0.019c-0.489,0.006-1.024,0.137-1.461-0.014c-1.584-0.545-3.004-0.101-4.326,0.676
			c-3.889,2.289-6.405,5.432-6.207,10.232c0.059,1.416,0.223,2.781,0.68,4.141c0.307,0.909,0.949,1.774,0.688,2.829
			c0.015-0.001,0.03-0.003,0.046-0.004c0.009,0.038,0.015,0.079,0.022,0.118c0.078,0.064,0.156,0.128,0.234,0.192
			c-0.064-0.018-0.16-0.016-0.188-0.057c-0.025-0.039-0.037-0.087-0.047-0.136c-0.025-0.021-0.051-0.042-0.077-0.063
			c0.005-0.017,0.004-0.033,0.009-0.05c-0.283,0.025-0.566,0.069-0.849,0.058c-1.714-0.062-3.468-0.299-4.577,1.516
			c-0.121,0.197-0.527,0.244-0.814,0.307c-0.391,0.086-0.805,0.072-1.187,0.182c-1.024,0.293-1.602,0.93-1.599,1.932
			c0.006,2.012-0.144,4.064,0.205,6.023c0.465,2.607,0.344,5.207,0.418,7.813c0.035,1.228-0.049,1.376-1.321,1.462
			c-1.914,0.127-2.906,1.231-3.399,2.908c-0.473,1.613-0.387,3.168,0.729,4.568c1.003,1.256,1.924,2.578,2.923,3.84
			c1.333,1.682,2.338,3.525,2.729,5.642c0.261,1.416,0.813,2.705,1.573,3.889c1.964,3.061,3.268,6.453,4.956,9.652
			c0.358,0.678,0.381,1.324,0.008,2.004c-0.969,1.769-1.583,3.687-2.332,5.55c-1.213,3.016-3.328,5.479-5.314,8.008
			c-0.12,0.154-0.312,0.252-0.466,0.381c-3.622,3.031-7.232,6.076-10.874,9.082c-0.643,0.531-0.904,1.004-0.439,1.779
			c0.104,0.172,0.006,0.607-0.154,0.773c-0.744,0.771-1.021,1.498-0.025,2.268c0.457,0.354,0.436,0.865,0.443,1.369
			c0.014,0.803,0.006,1.609,0.072,2.41c0.049,0.592,0.617,1.059,1.241,1.127c0.629,0.07,1.263-0.258,1.45-0.836
			c0.152-0.471,0.27-0.969,0.287-1.459c0.024-0.699-0.092-1.402-0.088-2.105c0.004-0.557,0.732-1.051,1.326-0.943
			c0.512,0.096,0.529,0.52,0.549,0.908c0.041,0.801,0.025,1.607,0.093,2.406c0.05,0.592,0.679,0.984,1.342,0.914
			c0.514-0.057,1.011-0.455,1.026-0.932c0.056-1.607,0.034-3.217,0.121-4.822c0.031-0.574,0.277-1.141,0.444-1.703
			c0.021-0.072,0.169-0.168,0.233-0.152c0.15,0.039,0.398,0.127,0.406,0.217c0.06,0.594,0.078,1.195,0.088,1.793
			c0.021,1.207-0.027,2.417,0.062,3.619c0.062,0.848,0.551,1.488,1.383,1.816c0.576,0.229,1.358-0.135,1.424-0.703
			c0.045-0.396,0.049-0.799,0.047-1.197c-0.011-2.314-0.037-4.629-0.039-6.943c0-0.6,0.002-1.217,0.142-1.791
			c0.086-0.354,0.372-0.803,0.682-0.926c0.612-0.24,0.45,0.426,0.595,0.715c0.266,0.533,0.451,1.111,0.77,1.609
			c0.117,0.184,0.536,0.305,0.771,0.25c0.241-0.057,0.527-0.328,0.606-0.566c0.123-0.371,0.105-0.793,0.111-1.193
			c0.011-0.805,0.052-1.615-0.022-2.414c-0.117-1.248,0.446-2.109,1.389-2.816c0.338-0.252,0.836-0.156,0.973,0.25
			c0.355,1.045,0.673,2.105,1.037,3.148c0.432,1.234,1.125,1.566,2.311,1.197c0.543-0.17,0.978-0.951,1.589-0.523
			c0.461,0.322,0.728,0.93,1.065,1.42c0.342,0.496,0.627,1.035,1.01,1.498c0.639,0.771,1.334,1.496,2.006,2.24
			c-0.336,1.041-0.688,2.078-1.004,3.125c-0.262,0.863-0.473,1.744-0.722,2.611c-0.925,3.201-1.117,6.527-1.673,9.792
			c-0.252,1.478-0.385,2.978-0.684,4.447c-0.211,1.041-0.057,1.729,1.039,2.113c0.514,0.182,0.666,0.672,0.408,1.238
			c-0.164,0.363-0.269,0.76-0.336,1.152c-0.11,0.646,0.127,1.162,0.662,1.564c1.195,0.898,1.618,0.934,2.943,0.064
			c0.418-0.273,0.804-0.729,1.328-0.438c0.926,0.514,1.748-0.188,2.639-0.125c1.049,0.074,1.506-0.844,2.125-1.49
			c0.245-0.258,0.676-0.414,1.042-0.465c0.775-0.105,1.32-0.529,1.671-1.156c0.388-0.693,0.705-1.436,0.964-2.186
			c0.184-0.533,0.429-0.564,0.848-0.316c0.085,0.051,0.185,0.092,0.282,0.104c1.243,0.16,2.102-0.521,1.864-1.658
			c-0.242-1.165-0.626-2.329-1.133-3.405c-1.034-2.193-1.778-4.477-2.458-6.793c-0.481-1.637-0.995-3.264-1.538-4.881
			c-0.444-1.326-0.955-2.629-1.436-3.941c0.881-1.09,1.754-2.188,2.645-3.268c0.254-0.309,0.528-0.539,1.013-0.318
			c1.148,0.529,1.92-0.027,2.506-0.984c0.316-0.514,0.622-1.035,0.926-1.555c1.166-1.998,2.309-4.008,3.498-5.99
			c0.59-0.984,0.904-1.018,1.947-0.391c0.086,0.051,0.189,0.08,0.268,0.141c4.188,3.287,9.027,5.691,12.832,9.502
			c0.338,0.34,0.817,0.596,1.279,0.742c0.605,0.191,1.189,0.02,1.624-0.498C92.407,90.917,92.422,90.263,92.013,89.708z
			 M79.872,37.566c1.168-0.191,2.338-0.373,3.514-0.492c0.186-0.018,0.404,0.32,0.57,0.461c-0.051,0.297-0.041,0.51-0.122,0.678
			c-0.899,1.879-1.897,3.701-3.229,5.315c-0.161,0.195-0.473,0.266-0.713,0.393c-0.083-0.275-0.258-0.559-0.232-0.824
			c0.143-1.506-0.115-2.955-0.471-4.402C79.053,38.148,79.37,37.65,79.872,37.566z M41.741,41.37
			c-0.029,0.496-0.06,0.992-0.094,1.524c0,0.164,0.033,0.369-0.007,0.561c-0.11,0.519,0.317,1.279-0.382,1.488
			c-0.257,0.078-0.765-0.529-1.094-0.883c-0.334-0.361-0.607-0.783-0.872-1.203c-0.555-0.877-0.257-1.766,0.18-2.533
			c0.329-0.578,1.051-0.465,1.64-0.369c0.426,0.068,0.668,0.365,0.662,0.82C41.771,40.974,41.753,41.171,41.741,41.37z
			 M48.649,60.398c-0.318-0.627-0.584-1.285-0.949-1.885c-2.614-4.297-3.205-9.033-3.022-13.932
			c0.017-0.428,0.226-0.848,0.345-1.271c0.131,0.371,0.256,0.746,0.397,1.115c0.071,0.186,0.165,0.365,0.262,0.539
			c0.366,0.658,0.952,0.971,1.461,0.779c0.612-0.232,1.055-0.676,1.074-1.322c0.049-1.607,0.016-3.217,0.016-4.824
			c0.027,0,0.054-0.002,0.08-0.002c0-1.408-0.094-2.824,0.028-4.223c0.104-1.188,0.246-2.455,0.745-3.512
			c1.371-2.908,3.047-5.662,4.945-8.27c0.271-0.371,0.695-0.361,0.953,0.01c0.514,0.744,0.986,1.522,1.535,2.24
			c1.141,1.49,2.526,1.918,4.249,1.236c1.314-0.521,2.511-1.24,3.379-2.436c0.944-1.303,1.933-2.576,3.262-3.533
			c0.485-0.35,0.873-0.301,1.229,0.232c0.773,1.164,1.348,2.465,2.516,3.348c0.287,0.219,0.422,0.68,0.553,1.057
			c0.525,1.514,0.975,3.057,1.547,4.551c0.332,0.865,0.477,1.728,0.518,2.641c0.115,2.607,0.275,5.213,0.409,7.82
			c0.032,0.629,0.151,1.199,0.784,1.5c0.66,0.314,0.695,0.898,0.713,1.518c0.062,2.34-0.455,4.58-1.061,6.822
			c-1.24,4.582-3.121,8.904-5.196,13.154c-0.527,1.078-1.147,2.106-1.282,3.356c-0.062,0.574-0.392,1.141-0.688,1.66
			c-1.496,2.617-3.01,5.223-4.543,7.816c-0.249,0.42-0.574,0.842-0.965,1.123c-1.836,1.33-3.363,1.119-4.629-0.766
			c-0.946-1.41-1.748-2.925-2.527-4.439C52.715,68.48,50.691,64.435,48.649,60.398z M61.696,97.732
			c-0.059,0.184-0.062,0.461-0.184,0.531c-1.033,0.592-2.086,1.148-3.146,1.689c-0.035,0.018-0.338-0.279-0.312-0.381
			c0.254-1.059,0.496-2.127,0.871-3.145c0.092-0.248,0.662-0.473,0.996-0.451C60.787,96.032,61.598,96.911,61.696,97.732z
			 M55.378,87.558c-0.188-0.162-0.297-0.211-0.317-0.283c-0.045-0.172-0.133-0.432-0.053-0.52c0.246-0.27,0.562-0.477,0.853-0.709
			c0.058,0.08,0.184,0.189,0.163,0.232C55.828,86.7,55.608,87.111,55.378,87.558z M56.556,81.421
			c-1.25,1.16-2.493,2.336-3.818,3.406c-0.653,0.527-1.007,1.568-2.124,1.412c-0.317-0.724-0.65-1.443-0.947-2.176
			c-0.152-0.371-0.209-0.781-0.365-1.148c-0.365-0.856-0.604-1.692-0.139-2.606c0.117-0.23,0.018-0.568,0.018-0.857h-0.15
			c0-0.383-0.162-0.9,0.026-1.129c1.105-1.354,1.6-2.998,2.323-4.535c0.281-0.598,0.811-0.643,1.132-0.089
			c0.554,0.957,1.116,1.912,1.591,2.908c0.65,1.365,1.269,2.73,2.455,3.748C56.901,80.65,56.881,81.118,56.556,81.421z
			 M65.734,109.929c0.076,0.164,0.027,0.385,0.038,0.58c-0.122,0.145-0.221,0.385-0.367,0.42c-3.088,0.727-5.943,2.201-9.07,2.799
			c-0.52,0.098-0.675-0.031-0.547-0.523c0.441-1.705,1.521-2.961,2.896-3.972c0.638-0.471,1.367-0.815,2.054-1.219
			C65.116,105.435,63.714,105.611,65.734,109.929z M64.297,88.663c-1.092,1.164-2.207,2.309-3.322,3.449
			c-0.059,0.061-0.17,0.068-0.257,0.1c-0.059-0.08-0.185-0.188-0.165-0.24c0.24-0.645,0.477-1.293,0.765-1.918
			c0.431-0.932,0.423-1.727-0.537-2.338c-0.554-0.354-0.443-0.844-0.127-1.277c0.225-0.307,0.53-0.637,0.974-0.299
			c0.873,0.666,1.741,1.34,2.59,2.035C64.318,88.257,64.37,88.587,64.297,88.663z M72.28,79.482
			c-1.307,2.257-2.621,4.511-3.94,6.763c-0.411,0.699-0.756,0.811-1.457,0.336c-2.238-1.52-4.452-3.074-6.672-4.619
			c-0.062-0.045-0.084-0.148-0.123-0.227c0.09-0.043,0.176-0.115,0.27-0.129c0.398-0.051,0.797-0.096,1.195-0.123
			c1.334-0.09,2.541-0.58,3.693-1.201c1.112-0.602,1.933-1.379,1.826-2.836c-0.1-1.34,0.971-2.105,1.745-2.99
			c0.059-0.066,0.429,0,0.507,0.109c0.98,1.383,1.734,2.932,3.032,4.082c0.065,0.059,0.077,0.18,0.114,0.271
			C72.409,79.107,72.378,79.314,72.28,79.482z M58.066,55.153c0.589,0.533,1.22,1.035,1.888,1.463
			c0.734,0.473,1.641,0.336,2.16-0.326c0.924-1.18,1.801-2.396,2.672-3.615c0.168-0.234,0.298-0.543,0.311-0.822
			c0.012-0.268-0.078-0.615-0.256-0.795c-0.18-0.18-0.574-0.33-0.785-0.252c-0.445,0.164-0.916,0.41-1.226,0.756
			c-0.663,0.742-1.208,1.59-1.858,2.346c-0.108,0.125-0.562,0.102-0.758-0.017c-0.73-0.445-1.156-1.094-1.021-1.998
			c0.088-0.59,0.197-1.176,0.303-1.764c0.316-1.764,0.635-3.527,0.904-5.02c-0.029-0.484,0.014-0.707-0.065-0.875
			c-0.114-0.246-0.273-0.564-0.491-0.646c-0.227-0.084-0.662-0.019-0.801,0.149c-0.373,0.451-0.787,0.957-0.916,1.506
			c-0.48,2.035-0.826,4.104-1.277,6.146C56.513,52.905,56.952,54.144,58.066,55.153z M54.21,35.98
			c0.236,0.189,0.469,0.387,0.725,0.541c0.477,0.287,0.951,0.268,1.385-0.105c0.414-0.356,0.6-0.819,0.464-1.344
			c-0.409-1.582-1.477-2.463-3.286-2.51c-0.287,0.078-0.957,0.096-1.414,0.416c-1.176,0.822-1.916,2.029-2.442,3.354
			c-0.196,0.492,0.19,1.184,0.759,1.494c0.5,0.27,1.019,0.219,1.395-0.15c0.499-0.486,0.877-1.094,1.351-1.609
			C53.439,35.747,53.825,35.673,54.21,35.98z M64.764,37.044c0.328-0.221,0.648-0.475,0.91-0.77
			c0.521-0.586,1.139-0.769,2.006-0.541c0.167,0.047,0.451,0.18,0.744,0.197c0.534,0.033,0.945-0.232,1.244-0.674
			c0.265-0.391,0.182-0.953-0.195-1.361c-0.965-1.049-2.166-1.484-3.515-1.035c-1.513,0.504-2.54,1.58-2.809,3.197
			c-0.05,0.305,0.28,0.725,0.53,1.008C64.001,37.433,64.424,37.271,64.764,37.044z M65.426,38.823
			c-0.078,0.182-0.193,0.369-0.197,0.557c-0.024,1.195-0.04,2.391-0.016,3.586c0.004,0.283,0.137,0.584,0.271,0.844
			c0.241,0.461,0.617,0.797,1.165,0.807c0.562,0.01,0.972-0.33,1.114-0.826c0.219-0.756,0.318-1.547,0.469-2.322
			c0.047-1.158-0.1-2.203-1.027-3.019C66.692,37.993,65.692,38.189,65.426,38.823z M55.37,43.632
			c0.199-1.193,0.238-2.416-0.311-3.547c-0.164-0.338-0.469-0.639-0.773-0.871c-0.577-0.441-1.57-0.092-1.682,0.601
			c-0.125,0.791-0.15,1.594-0.225,2.45c0.076,0.75,0.121,1.55,0.25,2.338c0.091,0.551,0.941,0.863,1.478,0.619
			C54.804,44.903,55.251,44.335,55.37,43.632z M62.544,59.044c-1.897-0.762-3.502-0.105-4.909,1.162
			c-0.222,0.201-0.249,0.736-0.185,1.082c0.033,0.178,0.476,0.406,0.724,0.396c1.089-0.045,2.175-0.168,3.262-0.264
			c0.001,0.041,0.003,0.082,0.005,0.123c0.495,0,1.016,0.092,1.479-0.033c0.328-0.086,0.724-0.418,0.823-0.727
			c0.098-0.307-0.05-0.781-0.253-1.064C63.276,59.419,62.897,59.187,62.544,59.044z"/>
	</g>
</g>
<g>
</g>
<g>
</g>
<g>
</g>
<g>
</g>
<g>
</g>
<g>
</g>
<g>
</g>
<g>
</g>
<g>
</g>
<g>
</g>
<g>
</g>
<g>
</g>
<g>
</g>
<g>
</g>
<g>
</g>
</svg>
