<?xml version="1.0" encoding="iso-8859-1"?>
<!-- Generator: Adobe Illustrator 19.0.0, SVG Export Plug-In . SVG Version: 6.00 Build 0)  -->
<svg version="1.1" id="Capa_1" xmlns="http://www.w3.org/2000/svg" xmlns:xlink="http://www.w3.org/1999/xlink" x="0px" y="0px"
	 viewBox="0 0 100 100" style="enable-background:new 0 0 100 100;" xml:space="preserve">
<g id="_x0A_envelope-money">
	<g>
		<path style="fill-rule:evenodd;clip-rule:evenodd;" d="M99.773,81.375c-0.076-1.296-0.265-2.59-0.288-3.888
			c-0.078-4.513,0.199-9.021,0.304-13.53c0.17-7.322,0.049-14.651,0.127-21.977c0.021-2.009-0.156-3.978-0.5-5.944
			c-0.209-1.193-0.508-1.581-1.734-1.631c-0.764-0.029-1.312-0.25-1.874-0.735c-1.974-1.705-3.955-3.402-5.996-5.022
			c-0.939-0.747-1.503-1.526-1.387-2.787c0.111-1.197,0.047-2.407,0.092-3.61c0.068-1.788-0.136-3.651,1.337-5.08
			c0.132-0.128,0.193-0.354,0.236-0.547c0.433-2.026,0.154-3.661-2.545-3.536c-0.2,0.01-0.401,0.012-0.602,0.01
			c-5.317-0.026-10.631,0.006-15.926,0.601c-1.092,0.122-2.209,0.122-3.309,0.058c-0.678-0.041-1.409-0.185-2.005-0.497
			c-2.307-1.212-4.573-2.5-6.842-3.784c-0.342-0.194-0.642-0.487-0.909-0.781c-0.901-0.992-2.047-1.589-3.247-2.123
			c-1.189-0.532-2.389-1.057-3.514-1.707c-1.15-0.667-2.239-0.801-3.405-0.129c-1.732,0.998-3.499,1.939-5.192,2.996
			c-2.807,1.752-5.568,3.576-8.35,5.371c-1.286,0.83-2.699,1.302-4.22,1.417c-5.291,0.4-10.582,0.791-15.873,1.177
			c-2.177,0.159-2.769,0.779-2.759,3.037c0.012,2.508,0.048,5.016,0.099,7.524c0.016,0.764-0.249,1.316-0.859,1.801
			c-2.593,2.055-5.178,4.122-7.716,6.244c-0.629,0.524-1.113,0.647-1.856,0.271c-0.533-0.27-0.975,0.096-1.015,0.686
			c-0.033,0.499-0.041,1.002-0.041,1.502C-0.001,42.782,0,48.803,0,54.824h0.051c0,5.721-0.029,11.441,0.018,17.163
			c0.014,1.697,0.385,3.396,0.35,5.09c-0.08,3.729,0.575,7.39,0.856,11.083c0.081,1.095,0.321,2.18,0.541,3.258
			c0.257,1.253,1.654,2.535,2.934,2.66c1.99,0.195,3.984,0.454,5.977,0.469c10.639,0.077,21.278,0.146,31.916,0.095
			c5.525-0.025,11.02,0.495,16.533,0.643c0.497,0.014,0.993,0.119,1.489,0.19c2.396,0.346,4.765,0.291,7.178-0.058
			c2.861-0.413,5.738-0.727,8.675-0.427c5.4,0.552,10.828,0.287,16.246,0.178c0.708-0.015,1.491,0.016,1.986-0.528
			c0.844-0.926,1.917-1.41,3.016-1.894c0.698-0.307,1.092-0.896,1.243-1.606c0.143-0.679,0.187-1.382,0.25-2.076
			c0.061-0.695-0.117-1.503,0.174-2.073C100.377,85.136,99.883,83.254,99.773,81.375z M87.987,38.369
			c0.104-1.086,0.257-2.768,0.431-4.445c0.055-0.528,0.398-0.704,0.785-0.423c0.724,0.526,1.443,1.059,2.148,1.61
			c0.625,0.49,1.233,1.006,1.841,1.52c1.077,0.91,1.118,1.442-0.102,2.308c-1.453,1.03-3.015,1.908-4.545,2.828
			c-0.399,0.239-0.53-0.16-0.543-0.411C87.962,40.563,87.987,39.766,87.987,38.369z M41.404,13.082
			c1.367-0.8,2.558-1.885,4.204-2.227c1.199-0.25,1.991-1.261,2.83-2.107c0.326-0.329,0.727-0.392,1.092-0.194
			c2.731,1.462,5.452,2.944,8.167,4.439c0.154,0.085,0.261,0.307,0.313,0.486c0.015,0.051-0.235,0.233-0.381,0.261
			c-0.292,0.056-0.597,0.055-0.897,0.062c-1.801,0.055-3.604,0.066-5.401,0.168c-1.794,0.1-3.582,0.288-5.69,0.464
			c-1.184-0.156-2.668-0.343-4.147-0.558c-0.153-0.021-0.403-0.215-0.396-0.312C41.111,13.392,41.252,13.172,41.404,13.082z
			 M16.295,19.295c4.373-0.662,8.769-0.853,13.188-0.747c2.608,0.062,5.217-0.021,7.826-0.03c1.806-0.008,3.61-0.002,5.417-0.002
			v0.058c6.322,0,12.646,0.003,18.969-0.003c1.4-0.003,2.792,0.02,4.154-0.497c0.736-0.278,1.57-0.374,2.365-0.399
			c3.407-0.106,6.815-0.176,10.224-0.218c1.802-0.022,3.605,0.017,5.406,0.077c0.771,0.025,1.147,0.456,0.946,1.174
			c-0.567,2.026-0.125,4.222-1.071,6.176c0.061,1.602,0.012,3.216,0.208,4.8c0.274,2.207,0.371,4.381-0.059,6.578
			c-0.171,0.879-0.162,1.797-0.184,2.698c-0.035,1.505-0.054,3.011-0.027,4.516c0.016,0.907-0.386,1.512-1.117,1.981
			c-0.758,0.487-1.488,1.02-2.239,1.519c-4.512,2.993-8.832,6.279-13.566,8.932c-1.835,1.03-3.667,2.083-5.577,2.961
			c-3.287,1.51-6.442,3.25-9.542,5.1c-0.707,0.421-1.309,0.915-1.685,1.665c-0.146,0.291-0.419,0.421-0.708,0.194
			c-1.181-0.926-2.405-1.81-3.512-2.82c-2.384-2.175-5.083-3.884-7.8-5.599c-4.748-3-9.409-6.134-14.107-9.21
			c-2.014-1.318-4.018-2.651-6.052-3.938c-0.671-0.426-0.935-0.956-0.917-1.738c0.031-1.304-0.048-2.61-0.008-3.913
			c0.018-0.58,0.086-1.222,0.354-1.717c0.764-1.412,0.79-2.85,0.516-4.379c-0.725-4.038-1.066-8.142-2.095-12.129
			C15.454,19.803,15.761,19.376,16.295,19.295z M5.436,36.363c0.145-0.252,0.349-0.489,0.576-0.671
			c1.168-0.937,2.332-1.877,3.534-2.766c0.636-0.47,1.346-0.837,2.022-1.249c0.707,0.725,0.319,1.648,0.429,2.479
			c0.104,0.789,0.086,1.594,0.123,2.391c-0.024,0.002-0.049,0.003-0.072,0.005c0.078,1.294,0.167,2.586,0.222,3.88
			c0.007,0.152-0.164,0.438-0.261,0.441c-0.277,0.009-0.636-0.009-0.821-0.175c-0.28-0.253-0.527-0.612-0.637-0.974
			c-0.2-0.663-0.259-1.369-0.435-2.041c-0.098-0.376-0.293-0.731-0.476-1.079c-0.181-0.344-0.834-0.361-0.997-0.021
			c-0.212,0.444-0.328,0.939-0.582,1.354c-0.117,0.191-0.561,0.405-0.69,0.33c-0.682-0.4-1.322-0.875-1.946-1.366
			C5.337,36.832,5.355,36.506,5.436,36.363z M6.679,81.892c-0.269-1.736-0.111-3.32,1.073-4.791c1.694-2.101,3.24-4.322,4.829-6.507
			c0.287-0.394,0.538-0.838,0.691-1.298c0.168-0.507-0.038-0.986-0.426-1.355c-0.403-0.382-0.906-0.482-1.371-0.188
			c-0.753,0.478-1.545,0.945-2.166,1.568c-0.987,0.99-1.839,2.112-2.768,3.16c-0.097,0.108-0.361,0.171-0.491,0.118
			c-0.16-0.064-0.364-0.271-0.368-0.421c-0.016-0.584-0.072-1.204,0.098-1.744c0.174-0.554,0.576-1.045,0.914-1.538
			c1.474-2.146,2.963-4.279,4.443-6.423c0.227-0.329,0.451-0.664,0.635-1.019c0.401-0.773,0.212-1.733-0.402-2.176
			c-0.618-0.445-1.683-0.493-2.253,0.013c-0.593,0.527-1.109,1.149-1.623,1.757c-0.515,0.607-0.981,1.257-1.481,1.879
			c-0.053,0.063-0.226,0.12-0.27,0.086c-0.128-0.1-0.31-0.246-0.311-0.377c-0.02-2.003-0.014-4.007-0.014-6.011
			c0-0.801-0.001-1.601-0.001-2.401c0.009,0,0.018,0.001,0.028,0.001c0-3.006-0.006-6.012,0.005-9.018
			c0.001-0.434,0.475-0.681,0.853-0.45c1.878,1.149,3.742,2.322,5.624,3.465c5.478,3.322,10.964,6.631,16.443,9.952
			c0.854,0.518,1.694,1.063,2.531,1.613c0.345,0.228,0.374,0.721,0.086,1.044c-0.2,0.225-0.412,0.438-0.623,0.65
			c-5.383,5.392-11.045,10.475-16.939,15.302c-1.781,1.458-3.456,3.046-5.181,4.572c-0.3,0.264-0.6,0.525-0.908,0.777
			C7.09,82.333,6.726,82.19,6.679,81.892z M95.048,89.631c-1.967,0.286-3.869,0.99-5.921,0.783
			c-1.292-0.131-2.607-0.025-3.914-0.025c-3.009,0.025-6.006-0.008-9.008-0.426c-3.004-0.419-6.007,0.169-8.98,0.604
			c-0.829,0.123-1.57,0.173-2.337-0.14c-1.809-0.738-3.707-0.788-5.627-0.751c-3.11,0.061-6.223,0.092-9.335,0.107
			c-5.023,0.025-10.004-0.538-14.995-1.03c-2.773-0.274-5.587-0.73-8.365,0.205c-0.645,0.218-1.394,0.139-2.095,0.17
			c-1.245,0.055-1.244,0.047-1.056-1.441c0.025-0.197,0.097-0.436,0.022-0.593c-0.162-0.336-0.351-0.706-0.638-0.917
			c-0.18-0.131-0.58-0.063-0.836,0.033c-0.268,0.102-0.486,0.342-0.716,0.533c-0.54,0.449-1.092,0.886-1.606,1.364
			c-0.683,0.633-1.381,0.638-2.21,0.278c-1.293-0.56-1.356-0.692-0.443-1.85c0.373-0.474,0.789-0.913,1.15-1.394
			c0.176-0.234,0.368-0.524,0.378-0.796c0.012-0.374-0.061-0.801-0.248-1.118c-0.208-0.354-0.625-0.452-1.058-0.321
			c-1.083,0.327-1.978,0.969-2.798,1.719c-0.888,0.814-1.794,1.615-2.608,2.5c-0.881,0.953-1.882,1.016-3.021,0.678
			c-0.853-0.255-1.061-0.873-0.405-1.507c2.235-2.164,4.434-4.372,6.773-6.419c2.792-2.444,5.776-4.669,8.562-7.12
			c2.938-2.585,5.743-5.321,8.603-7.996c0.66-0.616,1.291-1.267,1.963-1.866c0.404-0.361,0.91-0.433,1.396-0.169
			c0.615,0.337,1.216,0.704,1.805,1.087c1.937,1.254,3.871,2.515,5.796,3.785c1.35,0.89,2.789,1.551,4.335,2.046
			c1.661,0.532,3.107,0.356,4.575-0.602c2.184-1.424,4.417-2.776,6.68-4.07c2.001-1.145,4.071-2.169,6.112-3.248
			c0.493-0.261,0.938-0.248,1.347,0.188c0.686,0.732,1.423,1.421,2.079,2.179c4.353,5.021,9.343,9.39,14.206,13.884
			c2.43,2.248,4.987,4.356,7.515,6.495c1.46,1.237,3.033,2.306,4.88,2.915c0.259,0.086,0.512,0.301,0.684,0.522
			C96.076,88.413,95.673,89.541,95.048,89.631z M95.721,84.546c-0.113,0.055-0.386-0.039-0.479-0.154
			c-1.511-1.888-3.319-3.465-5.146-5.034c-2.128-1.824-4.207-3.708-6.297-5.579c-2.688-2.405-5.354-4.832-8.045-7.232
			c-1.645-1.466-3.336-2.879-4.97-4.358c-0.665-0.601-1.24-1.302-1.824-1.984c-0.081-0.093-0.048-0.394,0.045-0.503
			c0.189-0.224,0.432-0.424,0.689-0.561c5.678-3.003,10.883-6.765,16.355-10.098c2.221-1.352,4.497-2.614,6.74-3.929
			c0.776-0.453,1.531-0.939,2.294-1.413c0.449-0.279,0.727-0.131,0.749,0.43c0.025,0.699,0.033,1.4,0.027,2.101
			c-0.047,6.013-0.1,12.025-0.15,18.038h-0.072c0,4.608-0.039,9.218,0.02,13.827c0.023,1.998,0.256,3.992,0.368,5.991
			C96.033,84.242,95.867,84.476,95.721,84.546z M41.244,38.448c0.448,0.223,0.906,0.444,1.384,0.587
			c3.053,0.908,2.538,0.725,2.638,3.75c0.007,0.2,0.001,0.401,0.001,0.602h0.076c0,0.602-0.02,1.205,0.007,1.806
			c0.019,0.397,0.12,0.791,0.154,1.189c0.033,0.383-0.474,0.773-0.816,0.62c-0.454-0.202-0.9-0.429-1.329-0.679
			c-0.823-0.479-1.552-0.238-2.22,0.29c-1.269,1.008-1.308,2.962,0.037,3.891c1.06,0.73,2.235,1.388,3.455,1.766
			c1.178,0.366,1.626,1,1.672,2.136c0.07,1.727,0.633,3.34,1.24,4.937c0.403,1.062,1.037,1.954,2.042,2.519
			c0.649,0.364,1.339,0.384,2.001-0.012c0.565-0.339,0.867-1.09,0.698-1.846c-0.11-0.487-0.339-0.947-0.442-1.434
			c-0.373-1.764-0.73-3.529-1.042-5.303c-0.038-0.221,0.176-0.632,0.376-0.718c0.736-0.312,1.518-0.511,2.273-0.777
			c1.247-0.441,2.353-1.119,3.286-2.062c1.052-1.062,1.561-2.397,1.428-3.83c-0.169-1.802-0.676-3.534-1.904-4.979
			c-1.254-1.478-2.63-2.862-4.504-3.401c-1.683-0.485-2.195-1.555-2.259-3.085c-0.017-0.401-0.026-0.803-0.053-1.204
			c-0.119-1.805,0.429-2.024,2.197-1.722c0.665,0.114,1.286,0.521,1.904,0.842c0.62,0.322,1.186,0.751,1.816,1.045
			c0.877,0.409,1.901-0.303,1.842-1.286c-0.027-0.483-0.142-1.002-0.364-1.427c-0.904-1.738-2.47-2.582-4.31-2.948
			c-0.681-0.137-1.4-0.064-2.102-0.108c-1.123-0.07-1.433-0.36-1.562-1.403c-0.11-0.89-0.198-1.786-0.357-2.669
			c-0.078-0.434-0.774-0.862-1.188-0.708c-0.335,0.125-0.687,0.412-0.855,0.724c-0.179,0.331-0.155,0.775-0.212,1.171
			c-0.142,0.991-0.305,1.981-0.415,2.977c-0.072,0.658-0.399,1.079-0.947,1.431c-0.674,0.433-1.315,0.922-1.937,1.43
			c-0.931,0.761-1.894,1.497-2.731,2.354C38.208,34.969,38.634,37.156,41.244,38.448z M50.316,41.687
			c0.193,0.035,0.41,0.024,0.575,0.112c1.315,0.698,2.081,1.841,2.531,3.222c0.19,0.584-0.023,1.271-0.535,1.588
			c-0.424,0.262-0.878,0.479-1.334,0.679c-0.777,0.338-1.382-0.015-1.436-0.915c-0.083-1.398-0.094-2.802-0.105-4.203
			C50.01,42.008,50.209,41.849,50.316,41.687z M44.629,34.388c0.154,0.069,0.445,0.165,0.438,0.204
			c-0.046,0.236-0.159,0.461-0.25,0.688c-0.185-0.184-0.371-0.367-0.557-0.552C44.384,34.616,44.506,34.502,44.629,34.388z"/>
	</g>
</g>
<g>
</g>
<g>
</g>
<g>
</g>
<g>
</g>
<g>
</g>
<g>
</g>
<g>
</g>
<g>
</g>
<g>
</g>
<g>
</g>
<g>
</g>
<g>
</g>
<g>
</g>
<g>
</g>
<g>
</g>
</svg>
