<?xml version="1.0" encoding="iso-8859-1"?>
<!-- Generator: Adobe Illustrator 19.0.0, SVG Export Plug-In . SVG Version: 6.00 Build 0)  -->
<svg version="1.1" id="Capa_1" xmlns="http://www.w3.org/2000/svg" xmlns:xlink="http://www.w3.org/1999/xlink" x="0px" y="0px"
	 viewBox="0 0 94.269 94.269" style="enable-background:new 0 0 94.269 94.269;" xml:space="preserve">
<g id="_x0A_money">
	<g>
		<path style="fill-rule:evenodd;clip-rule:evenodd;" d="M84.375,66.143c-0.732-4.538-2.271-8.769-4.869-12.532
			c-2.002-2.901-3.579-6.044-5.48-8.999c-1.256-1.951-2.533-3.88-4.117-5.554c-2.42-2.554-4.912-5.049-7.485-7.448
			c-1.906-1.775-3.933-3.436-6.313-4.587c-0.808-0.39-1.602-0.81-2.4-1.215c-0.103-0.986-0.2-1.972-0.309-2.956
			c-0.033-0.299-0.107-0.593-0.145-0.892c-0.078-0.62,0.053-0.804,0.547-0.631c1.752,0.609,3.369,0.162,4.857-0.709
			c2.17-1.27,4.289-2.606,6.815-3.09c0.372-0.071,0.813-0.277,1.031-0.564c0.853-1.126,1.629-2.322,1.53-3.824
			c-0.031-0.485-0.096-1.108-0.401-1.412c-1.339-1.327-1.88-3.05-2.603-4.701c-0.225-0.515-0.681-1.055-1.172-1.304
			c-1.793-0.906-3.629-1.817-5.692-0.713c-0.087,0.046-0.192,0.059-0.284,0.098c-0.463,0.195-0.726-0.016-0.945-0.411
			c-0.193-0.351-0.453-0.665-0.664-1.007c-0.75-1.208-1.834-1.728-3.252-1.854c-1.795-0.16-3.57-0.528-5.357-0.778
			c-1.291-0.182-2.682-0.076-3.863-0.526C41.623-0.3,39.436,0.096,37.25,0.083c-1.145-0.006-1.817,0.701-1.936,1.896
			c-0.08,0.798-0.066,1.605-0.088,2.41c-0.048,1.722-0.05,1.681-1.659,1.392c-1.379-0.248-2.782-0.358-4.175-0.529
			c-0.004,0.04-0.008,0.08-0.012,0.121c-0.604,0-1.208-0.019-1.811,0.005c-0.5,0.02-1.008,0.049-1.5,0.148
			c-1.843,0.367-3.184,1.867-3.307,3.795c-0.028,0.46,0.171,1.006,0.434,1.398c0.329,0.485,0.803,0.888,1.268,1.262
			c2.115,1.7,4.241,3.385,6.378,5.058c0.712,0.556,1.466,1.057,2.198,1.587c0.756,0.547,1.574,0.812,2.533,0.784
			c0.68-0.02,1.371,0.16,2.045,0.302c0.154,0.032,0.301,0.262,0.372,0.433c0.026,0.062-0.176,0.312-0.284,0.319
			c-1.104,0.075-2.223,0.255-3.309,0.138c-2.117-0.229-3.92,0.487-5.733,1.427c-1.484,0.77-2.613,1.848-3.479,3.241
			c-0.53,0.853-1.079,1.698-1.564,2.576c-0.462,0.834-1.145,1.384-1.985,1.773c-1.903,0.88-3.637,2.144-5.777,2.496
			c-0.373,0.062-0.735,0.322-1.049,0.562c-0.225,0.172-0.428,0.436-0.525,0.702c-0.608,1.656,0.574,3.181,2.284,2.875
			c0.876-0.158,1.74-0.484,2.559-0.848c1.099-0.49,2.158-1.072,3.217-1.647c3.266-1.774,3.262-1.781,5.275-5.104
			c0.207-0.343,0.41-0.69,0.625-1.03c1.799-2.85,5.383-3.775,8.49-3.13c0.082,0.018,0.209,0.119,0.208,0.181
			c-0.001,0.18,0.004,0.44-0.105,0.523c-0.477,0.362-0.977,0.7-1.496,0.997c-2.117,1.205-3.932,2.764-5.602,4.534
			c-3.395,3.598-6.238,7.616-9.065,11.651c-0.226,0.324-0.362,0.713-0.528,1.078c-1.458,3.198-2.938,6.387-4.361,9.602
			c-0.852,1.926-1.787,3.843-2.367,5.856c-0.778,2.704-1.859,5.294-2.697,7.968c-0.783,2.496-1.191,5.066-1.309,7.687
			c-0.064,1.434,0.231,2.776,0.627,4.139c0.721,2.47,1.981,4.599,3.768,6.428c1.053,1.079,2.132,2.132,3.176,3.22
			c0.874,0.91,1.946,1.346,3.164,1.605c2.574,0.547,5.137,0.942,7.74,0.189c0.283-0.083,0.602-0.036,0.899-0.083
			c1.042-0.16,1.935,0.058,2.818,0.707c3.012,2.211,6.735,2.413,10.159,3.467c0.184,0.056,0.4,0.013,0.601,0.008
			c1.608-0.041,3.215-0.092,4.823-0.125c1.828-0.037,3.574-0.44,5.288-1.062c1.618-0.588,3.065-1.479,4.542-2.339
			c0.854-0.496,1.809-0.817,2.72-1.216c0.682,0.422,1.357,0.856,2.048,1.262c0.52,0.305,1.042,0.616,1.594,0.854
			c3.957,1.703,7.961,1.992,11.976,0.233c2.245-0.984,4.363-2.308,5.553-4.466c1.543-2.803,2.897-5.736,3.433-8.956
			C85.024,74.337,85.04,70.253,84.375,66.143z M33.078,12.034c-0.376-0.257-0.688-0.608-1.03-0.915
			c0.489-0.075,0.976-0.19,1.466-0.215c0.802-0.041,1.608-0.009,2.411-0.032c2.355-0.066,3.512-0.916,4.204-3.082
			c0.091-0.286,0.13-0.588,0.225-0.874c0.423-1.272,0.655-1.487,1.899-1.465c1.902,0.034,3.822-0.087,5.688,0.456
			c0.286,0.082,0.596,0.079,0.896,0.115c3.267,0.385,3.27,0.383,5.213,2.809c0.313,0.389,0.533,0.873,0.898,1.197
			c0.53,0.467,1.16,0.787,1.928,0.618c0.686-0.149,1.376-0.284,2.068-0.401c0.572-0.097,1.125-0.617,1.717-0.227
			c0.852,0.561,1.552,1.293,1.821,2.31c0.062,0.232-0.059,0.681-0.235,0.781c-1.305,0.743-2.631,1.452-3.976,2.114
			c-1.35,0.664-2.733,1.264-4.102,1.888c-1.01,0.46-1.512,1.153-1.465,2.349c0.044,1.07-0.206,1.254-1.236,1.088
			c-3.787-0.609-7.61-0.476-11.42-0.606c-0.73-0.024-0.787-0.118-0.557-0.809c0.031-0.095,0.075-0.186,0.15-0.369
			c0.496-0.849,0.171-1.656-0.453-2.394c-0.257-0.304-0.549-0.595-0.877-0.818C36.575,14.368,34.815,13.218,33.078,12.034z
			 M46.92,26.522c-0.068,0.031-0.182,0.002-0.259-0.033c-0.042-0.02-0.05-0.11-0.073-0.169c0.083-0.025,0.172-0.081,0.248-0.069
			C47.119,26.303,47.151,26.417,46.92,26.522z M41.581,23.354c-0.01-0.038,0.137-0.14,0.225-0.18
			c0.084-0.039,0.203-0.075,0.279-0.045c0.451,0.183,0.98,0.296,1.309,0.615c0.184,0.178,0.032,0.703,0.032,1.072
			c-0.069,0.008-0.138,0.015-0.206,0.022c0.093,0.379,0.131,0.782,0.291,1.13c0.221,0.475-0.142,0.543-0.377,0.514
			c-0.384-0.048-0.763-0.207-1.116-0.376c-0.155-0.075-0.376-0.352-0.34-0.433C42.047,24.872,41.798,24.119,41.581,23.354z
			 M74.944,84.521c-1.297,2.65-3.396,3.502-5.932,2.982c-2.229-0.458-4.543-0.941-6.352-2.548c-1.277-1.134-2.729-1.151-4.235-0.617
			c-0.658,0.234-1.286,0.564-1.905,0.891c-1.155,0.606-2.315,1.209-3.435,1.874c-1.241,0.737-2.522,1.137-3.997,1.09
			c-0.981-0.031-1.986,0.184-2.958,0.396c-1.215,0.267-2.355,0.225-3.541-0.208c-1.503-0.549-3.08-0.898-4.589-1.434
			c-0.838-0.298-1.719-0.668-2.379-1.239c-1.668-1.44-3.334-2.917-4.338-4.95c-0.221-0.447-0.37-0.945-0.979-1.01
			c-0.878-0.093-1.605,0.197-2.062,0.95c-0.312,0.51-0.496,1.095-0.76,1.635c-0.199,0.405-0.585,0.593-0.989,0.469
			c-1.146-0.353-2.289-0.728-3.405-1.165c-1.926-0.754-1.971-1.163-0.671-2.767c0.38-0.467,0.712-0.972,1.052-1.471
			c0.42-0.618,0.453-1.319,0.363-2.029c-0.125-0.989-1.32-1.719-2.268-1.357c-0.561,0.215-1.062,0.579-1.626,0.774
			c-0.169,0.06-0.656-0.216-0.66-0.349c-0.042-1.535,0.122-3.012,1.528-4.012c0.654-0.465,1.299-0.946,1.921-1.453
			c0.637-0.519,1.098-1.153,1.231-2.004c0.144-0.91-0.312-1.541-1.184-1.769c-0.604-0.158-1.414,0.449-1.814-0.467
			c0.44-0.528,0.803-1.159,1.336-1.566c1.678-1.276,2.933-3.034,4.822-4.076c0.879-0.485,1.162-1.482,0.878-2.36
			c-0.293-0.908-0.847-1.615-1.841-1.792c-0.485-0.086-0.997-0.016-1.496-0.035c-0.636-0.024-0.812-0.312-0.574-0.983
			c1.953-5.488,4.073-10.897,7.008-15.963c1.728-2.984,3.971-5.542,6.236-8.096c0.526-0.595,1.018-1.408,1.69-1.635
			c0.664-0.225,1.543,0.13,2.314,0.294c3.039,0.646,6.071,1.321,9.108,1.973c0.585,0.125,1.253,0.406,1.759,0.238
			c1.369-0.454,2.35,0.232,3.316,0.917c0.815,0.578,1.521,1.309,2.268,1.981c6.021,5.443,11.034,11.656,14.506,19.043
			c0.598,1.271,1.219,2.531,1.795,3.812c0.537,1.193,1.038,2.422,0.964,3.757c-0.154,2.745,0.634,5.374,0.924,8.063
			c0.267,2.491,0.56,4.979,0.788,6.99C76.639,78.789,76.301,81.743,74.944,84.521z M52.162,53.46
			c-0.915-0.227-1.356-0.764-1.47-1.656c-0.277-2.188-0.57-4.375-0.836-6.565c-0.09-0.728,0.314-1.201,1-1.134
			c0.997,0.095,1.991,0.237,2.979,0.407c0.95,0.164,1.791-0.103,2.596-0.55c0.834-0.463,0.89-1.743,0.074-2.276
			c-0.408-0.268-0.879-0.508-1.352-0.596c-1.477-0.278-2.971-0.47-4.454-0.71c-0.848-0.137-1.468-0.472-1.645-1.463
			c-0.155-0.872-0.511-1.712-0.824-2.55c-0.134-0.355-0.771-0.461-1.024-0.163c-0.377,0.443-0.789,0.907-0.992,1.436
			c-0.168,0.442-0.033,0.993-0.072,1.493c-0.057,0.739-0.412,1.113-1.09,1.205c-0.618,0.083-1.111-0.345-1.178-1.063
			c-0.065-0.7-0.068-1.406-0.149-2.103c-0.065-0.568-0.637-1.092-1.211-1.194c-0.465-0.083-1.246,0.361-1.389,0.938
			c-0.19,0.769-0.384,1.584-0.314,2.356c0.124,1.392-0.352,2.34-1.599,2.928c-0.182,0.086-0.363,0.174-0.534,0.279
			c-2.809,1.721-4.141,4.324-4.274,7.526c-0.05,1.205,0.372,2.348,1.455,3.154c1.635,1.217,3.355,2.205,5.402,2.528
			c0.777,0.122,1.219,0.54,1.335,1.379c0.401,2.881,0.723,5.783,1.324,8.625c0.996,4.721,0.62,4.011-3.712,3.87
			c-0.768-0.025-1.527-0.417-2.283-0.664c-0.475-0.155-0.93-0.375-1.404-0.534c-0.457-0.155-1.001,0.171-1.166,0.687
			c-0.123,0.382-0.217,0.773-0.306,1.099c0.026,1.22,0.301,2.297,1.323,2.951c0.752,0.481,1.57,0.905,2.415,1.183
			c1.732,0.575,3.541,0.748,5.36,0.621c0.93-0.066,1.548,0.25,1.902,1.111c0.244,0.596,0.674,1.084,1.325,1.062
			c0.886-0.028,1.051-0.78,1.198-1.491c0.061-0.29,0.148-0.581,0.271-0.85c0.164-0.359,0.892-0.663,1.32-0.463
			c0.32,0.151,0.717,0.474,0.783,0.784c0.355,1.664,0.578,3.359,0.938,5.022c0.125,0.574,0.507,1.103,1.145,1.308
			c0.348,0.111,0.849-0.481,1.055-1.266c0.254-0.97,0.529-1.925,0.243-2.962c-0.158-0.57-0.142-1.195-0.171-1.796
			c-0.129-2.572-0.377-2.441,1.789-3.531c1.642-0.826,2.993-2.165,3.784-3.788c1.507-3.091,1.479-6.227-0.621-9.122
			C57.317,56.451,55.29,54.231,52.162,53.46z M40.797,51.858c-3.196-1.095-3.254-2.004-1.85-4.592
			c0.323-0.594,0.899-1.056,1.385-1.552c0.269-0.273,0.877-0.04,0.949,0.335c0.02,0.099,0.059,0.194,0.068,0.293
			c0.156,1.594,0.311,3.188,0.498,5.138C41.85,51.651,41.32,52.038,40.797,51.858z M45.168,51.973
			c-0.247-2.27-0.49-4.542-0.706-6.814c-0.065-0.688,0.321-1.026,1.102-1.074c0.562-0.035,1.032,0.275,1.095,0.751
			c0.051,0.393,0.057,0.793,0.09,1.188c0.164,1.88,0.335,3.76,0.495,5.641c0.044,0.521-0.356,0.956-0.877,0.983
			C45.824,52.677,45.211,52.358,45.168,51.973z M48.965,69.04c-0.426,0.264-0.855,0.131-0.953-0.277
			c-0.354-1.457-0.746-2.911-0.996-4.388c-0.352-2.07-0.625-4.156-0.861-6.244c-0.118-1.041,0.104-1.334,0.717-1.391
			c0.717-0.065,0.98,0.287,1.134,1.395c0.136,0.99,0.308,1.976,0.479,2.96c0.378,2.169,0.768,4.336,1.147,6.505
			c0.034,0.196,0.036,0.398,0.069,0.806C49.52,68.566,49.272,68.851,48.965,69.04z M54.248,67.514
			c-0.323,0.214-0.851,0.052-0.991-0.342c-0.168-0.467-0.346-0.939-0.428-1.426c-0.421-2.465-0.824-4.933-1.193-7.406
			c-0.034-0.225,0.177-0.52,0.347-0.721c0.05-0.058,0.373,0.071,0.541,0.167c1.812,1.04,3.099,2.521,3.718,4.536
			c0.145,0.474,0.202,0.976,0.293,1.43C56.307,65.374,55.584,66.629,54.248,67.514z M73.353,66.043
			c-0.243-0.532-0.578-1.049-0.974-1.479c-0.631-0.687-1.766-0.612-2.42,0.057c-0.602,0.616-0.857,1.366-0.77,2.192
			c0.18,1.686,0.359,3.376,0.675,5.04c0.101,0.534,0.563,1.049,0.972,1.465c0.746,0.763,1.953,0.551,2.598-0.309
			c0.654-0.873,0.663-1.855,0.635-2.923C74.079,68.735,73.945,67.34,73.353,66.043z"/>
	</g>
</g>
<g>
</g>
<g>
</g>
<g>
</g>
<g>
</g>
<g>
</g>
<g>
</g>
<g>
</g>
<g>
</g>
<g>
</g>
<g>
</g>
<g>
</g>
<g>
</g>
<g>
</g>
<g>
</g>
<g>
</g>
</svg>
