<?xml version="1.0" encoding="iso-8859-1"?>
<!-- Generator: Adobe Illustrator 19.0.0, SVG Export Plug-In . SVG Version: 6.00 Build 0)  -->
<svg version="1.1" id="Capa_1" xmlns="http://www.w3.org/2000/svg" xmlns:xlink="http://www.w3.org/1999/xlink" x="0px" y="0px"
	 viewBox="0 0 100.091 100.091" style="enable-background:new 0 0 100.091 100.091;" xml:space="preserve">
<g id="_x0A_people-structure01">
	<g>
		<path style="fill-rule:evenodd;clip-rule:evenodd;" d="M100.031,88.515c-0.045-1.521-0.496-3.055-1.472-4.201
			c-1.026-1.205-2.357-2.159-3.597-3.171c-0.419-0.341-0.994-0.288-1.394,0.08c-0.437,0.403-0.817,0.882-1.155,1.374
			c-0.742,1.074-1.415,2.197-2.168,3.263c-0.379,0.535-0.508,1.325-1.334,1.458c-0.269-0.535-0.494-1.098-0.815-1.598
			c-0.733-1.135-0.91-2.215,0.121-3.275c0.135-0.141,0.218-0.336,0.31-0.512c0.178-0.342-0.077-0.9-0.448-0.93
			c-0.698-0.054-1.4-0.102-2.101-0.097c-0.776,0.007-1.09,0.448-0.802,1.157c0.263,0.648,0.72,1.271,0.475,1.994
			c-0.255,0.75-0.624,1.464-1.004,2.16c-0.041,0.076-0.636,0.021-0.706-0.113c-1.068-2.039-2.094-4.1-3.124-6.156
			c-0.206-0.41-0.581-0.626-0.976-0.525c-1.165,0.295-2.344,0.586-3.447,1.045c-0.613,0.256-1.189,0.77-1.598,1.307
			c-0.537,0.709-0.924,1.543-1.321,2.348c-0.907,1.839-0.981,3.859-1.321,5.836c-0.417,2.417-0.242,4.809-0.193,7.211
			c0.024,1.23,0.635,1.748,1.936,1.83c1.504,0.096,3.012,0.115,4.512,0.236c1.296,0.104,2.58,0.371,3.876,0.441
			c2.508,0.138,5.021,0.186,7.531,0.27c0-0.024,0.001-0.051,0.001-0.076c2.412,0,4.824,0.004,7.235-0.002
			c0.502-0.002,1.004-0.057,1.505-0.066c0.726-0.014,1.068-0.479,1.27-1.078c0.127-0.375,0.25-0.775,0.251-1.164
			C100.086,94.544,100.121,91.527,100.031,88.515z M37.973,42.285c2.604-0.09,5.204-0.271,7.808-0.324
			c2.811-0.059,5.623-0.014,8.433-0.014v-0.094c3.012,0,6.025,0.006,9.037-0.006c0.84-0.002,1.188-0.266,1.193-0.992
			c0.023-3.012,0.067-6.024-0.018-9.033c-0.043-1.516-0.488-3.049-1.459-4.203c-1.021-1.213-2.334-2.186-3.555-3.223
			c-0.451-0.383-1.234-0.262-1.643,0.201c-0.396,0.447-0.76,0.932-1.098,1.427c-0.789,1.163-1.551,2.345-2.336,3.509
			c-0.165,0.244-0.361,0.484-0.594,0.656c-0.096,0.068-0.443-0.003-0.48-0.092c-0.381-0.92-0.821-1.836-1.044-2.798
			c-0.202-0.874,0.854-1.288,1.042-2.068c0.021-0.095,0.091-0.177,0.133-0.268c0.158-0.332-0.055-0.963-0.382-0.992
			c-0.989-0.082-1.985-0.168-2.974-0.137c-0.408,0.012-0.676,0.467-0.627,0.889c0.057,0.483,0.188,0.978,0.393,1.418
			c0.273,0.59,0.283,1.168,0.107,1.756c-0.227,0.763-0.494,1.514-0.743,2.268c-1.007-0.349-1.08-1.365-1.513-2.125
			c-0.598-1.045-1.139-2.125-1.803-3.123c-0.482-0.723-0.225-2.045-1.311-2.176c-0.834-0.102-1.734,0.338-2.604,0.537
			c-0.098,0.021-0.193,0.053-0.291,0.078c-1.34,0.348-2.359,1.119-2.975,2.355c-0.49,0.984-0.988,1.979-1.332,3.016
			c-0.795,2.4-0.938,4.918-1.082,7.412c-0.09,1.596,0.033,3.211,0.165,4.809C36.515,42.061,36.865,42.324,37.973,42.285z
			 M28.22,88.784c-0.176-2.988-1.655-5.313-3.978-7.11c-1.501-1.16-2.378-0.991-3.481,0.608c-1.023,1.484-1.992,3.008-2.998,4.504
			c-0.274,0.406-0.747,0.379-0.979-0.018c-0.892-1.519-1.614-3.041-0.208-4.669c0.12-0.14,0.136-0.37,0.195-0.56
			c0.103-0.326-0.22-0.918-0.55-0.938c-0.698-0.043-1.401-0.089-2.099-0.053c-1.08,0.057-1.346,0.559-0.898,1.533
			c0.205,0.447,0.571,0.938,0.514,1.361c-0.146,1.08-0.483,2.135-0.776,3.191c-0.017,0.062-0.399,0.128-0.473,0.055
			c-0.346-0.35-0.722-0.707-0.942-1.135c-0.922-1.779-1.787-3.586-2.682-5.379c-0.309-0.619-0.793-0.816-1.485-0.625
			c-0.675,0.187-1.346,0.391-2.02,0.58c-1.213,0.342-2.122,1.047-2.802,2.125c-0.761,1.205-1.324,2.488-1.627,3.859
			c-0.674,3.039-1.069,6.113-0.887,9.238c0.09,1.551,0.238,1.757,1.703,1.904c2.988,0.298,5.967,0.65,8.984,0.697
			c3.303,0.05,6.601,0.367,9.9,0.582c0.399,0.025,0.806,0.081,1.182,0.205c1.859,0.607,3.773,0.414,5.672,0.41
			c0.441-0.002,0.76-0.267,0.764-0.74c0.015-1.504,0.006-3.01,0.006-4.514h-0.018C28.238,92.193,28.318,90.482,28.22,88.784z
			 M69.453,73.97c-1.51-1.309-2.978-2.642-4.857-3.492c-2.742-1.24-5.477-2.475-8.348-3.396c-1.282-0.413-1.426-0.656-1.433-1.932
			c-0.012-2.107-0.004-4.217-0.004-6.324h0.117c0-2.209-0.014-4.418,0.007-6.627c0.01-1.035-0.236-1.99-0.759-2.871
			c-0.959-1.623-4.209-2.057-5.594-0.727c-0.272,0.26-0.434,0.666-0.566,1.034c-0.492,1.364-0.434,2.745-0.125,4.148
			c0.918,4.157,0.801,8.346,0.26,12.533c-0.041,0.312-0.385,0.724-0.686,0.842c-3.539,1.396-7.09,2.764-10.653,4.1
			c-1.039,0.391-2.05,0.758-2.853,1.594c-0.4,0.416-0.998,0.643-1.502,0.963c-1.068,0.68-1.584,2.396-0.883,3.422
			c0.861,1.262,1.882,2.402,3.691,2.004c0.585-0.129,1.193-0.178,1.758-0.367c1.33-0.443,2.697-0.832,3.941-1.46
			c1.539-0.776,3.155-1.269,4.791-1.728c1.55-0.436,3.152-0.826,4.416-1.828c1.205-0.953,2.396-0.936,3.66-0.428
			c1.295,0.52,2.648,0.93,3.728,1.91c0.435,0.395,0.99,0.687,1.535,0.924c1.58,0.689,2.967,1.668,4.322,2.709
			c0.474,0.363,0.979,0.693,1.499,0.99c0.25,0.142,0.582,0.27,0.852,0.231c2.492-0.367,4.613-2.242,4.25-5.204
			C69.972,74.628,69.731,74.212,69.453,73.97z M7.397,70.691c0.623,0.296,0.851,0.77,1.032,1.371
			c0.234,0.768,0.523,1.521,0.846,2.258c0.658,1.502,1.637,2.789,2.972,3.736c2.286,1.625,5.384,1.193,6.612-1.521
			c0.544-1.203,0.939-2.422,1.107-3.738c0.127-0.991,0.461-1.864,1.332-2.59c1.422-1.185,1.519-3.478,0.2-4.78
			c-0.702-0.692-1.078-1.328-1.116-2.314c-0.036-0.887-0.244-1.791-0.522-2.64c-0.792-2.408-2.427-3.536-5.273-3.554
			c-1.51-0.201-2.826,0.68-3.893,1.967c-1.166,1.41-2.023,3.012-2.339,4.832c-0.148,0.859-0.505,1.451-1.235,1.947
			c-0.464,0.316-0.955,0.871-1.053,1.391C5.806,68.474,5.802,69.931,7.397,70.691z M15.415,63.652
			c0.024-0.014,0.053-0.02,0.08-0.027c0.032-0.04,0.064-0.08,0.097-0.12c0.021,0.006,0.045,0.008,0.068,0.012
			c-0.165-0.729,0.251-1.288,0.583-1.871c0.047-0.084,0.166-0.217,0.198-0.203c0.148,0.064,0.356,0.145,0.4,0.27
			c0.233,0.645,0.59,1.301,0.6,1.959c0.039,2.785-0.014,5.572-0.076,8.357c-0.012,0.479-0.209,0.965-0.382,1.425
			c-0.099,0.263-0.321,0.479-0.489,0.716c-0.234-0.305-0.541-0.58-0.686-0.923c-0.148-0.354-0.166-0.772-0.195-1.165
			c-0.053-0.707,0.781-1.51-0.238-2.109c0.119-0.456,0.17-0.945,0.373-1.358c0.37-0.747,0.686-1.429,0.028-2.198
			c-0.136-0.16-0.088-0.562-0.001-0.808c0.164-0.466,0.457-0.886,0.627-1.351c0.296-0.8-0.33-0.665-0.743-0.74
			c0.005,0.023,0.005,0.045,0.012,0.069c-0.059,0.014-0.119,0.023-0.177,0.039c-0.055,0.068-0.109,0.135-0.163,0.203
			C15.358,63.767,15.369,63.679,15.415,63.652z M79.191,70.66c0.592,0.301,0.912,0.705,1.076,1.338c0.176,0.678,0.432,1.34,0.7,1.99
			c0.626,1.514,1.604,2.775,2.825,3.863c0.872,0.775,1.958,1.123,3.044,1.153c1.333,0.036,2.592-0.409,3.376-1.638
			c0.82-1.285,1.375-2.67,1.542-4.207c0.132-1.221,0.517-2.258,1.581-3.1c1.244-0.984,1.284-3.422,0.063-4.584
			c-0.81-0.77-1.138-1.527-1.17-2.598c-0.023-0.785-0.246-1.586-0.495-2.342c-0.803-2.443-2.396-3.583-5.151-3.617
			c-1.683-0.162-3.079,0.701-4.185,2.146c-0.988,1.29-1.799,2.706-2.114,4.292c-0.211,1.061-0.564,1.859-1.493,2.455
			c-0.388,0.248-0.777,0.74-0.855,1.178C77.681,68.41,77.621,69.859,79.191,70.66z M87.692,61.482
			c0.263-0.336,0.718-0.326,0.951,0.052c0.431,0.696,0.696,1.437,0.694,2.263v3.303c-0.021,1.683,0.285,3.414-0.527,5.002
			c-0.072,0.141-0.313,0.199-0.486,0.274c-0.015,0.007-0.15-0.155-0.15-0.24c0.008-1.115-0.721-2.092-0.721-3.147
			c0-1.133-0.338-2.145-0.535-3.213C86.644,64.287,86.679,62.782,87.692,61.482z M43.597,13.916
			c0.611,0.299,0.872,0.746,1.055,1.356c0.227,0.77,0.518,1.524,0.838,2.26c0.655,1.504,1.631,2.789,2.959,3.748
			c2.268,1.635,5.393,1.226,6.622-1.477c0.546-1.201,0.955-2.414,1.118-3.732c0.124-0.992,0.441-1.873,1.312-2.603
			c1.426-1.194,1.566-3.513,0.244-4.772c-0.818-0.781-1.1-1.553-1.143-2.609c-0.029-0.787-0.252-1.586-0.502-2.342
			c-0.807-2.426-2.412-3.559-5.129-3.584c-1.734-0.154-3.131,0.727-4.217,2.176c-1.031,1.378-1.867,2.873-2.168,4.591
			c-0.148,0.847-0.461,1.468-1.213,1.96c-0.469,0.305-0.965,0.86-1.066,1.379C42.031,11.681,42.008,13.14,43.597,13.916z
			 M52.091,4.695c0.263-0.33,0.701-0.287,0.947,0.112c0.433,0.698,0.676,1.446,0.678,2.27v3.303c0.039,0,0.079,0.002,0.119,0.002
			c-0.064,1.199-0.091,2.402-0.209,3.596c-0.047,0.479-0.287,0.938-0.457,1.4c-0.028,0.074-0.162,0.174-0.226,0.16
			c-0.147-0.031-0.38-0.098-0.409-0.197c-0.575-2.088-0.754-4.254-1.241-6.365C50.955,7.507,51.064,5.986,52.091,4.695z"/>
	</g>
</g>
<g>
</g>
<g>
</g>
<g>
</g>
<g>
</g>
<g>
</g>
<g>
</g>
<g>
</g>
<g>
</g>
<g>
</g>
<g>
</g>
<g>
</g>
<g>
</g>
<g>
</g>
<g>
</g>
<g>
</g>
</svg>
