<?xml version="1.0" encoding="iso-8859-1"?>
<!-- Generator: Adobe Illustrator 19.0.0, SVG Export Plug-In . SVG Version: 6.00 Build 0)  -->
<svg version="1.1" id="Capa_1" xmlns="http://www.w3.org/2000/svg" xmlns:xlink="http://www.w3.org/1999/xlink" x="0px" y="0px"
	 viewBox="0 0 100 100" style="enable-background:new 0 0 100 100;" xml:space="preserve">
<g id="_x0A_pencil">
	<g>
		<path style="fill-rule:evenodd;clip-rule:evenodd;" d="M99.688,30.468c-0.786-1.191-1.06-2.449-1.274-3.802
			c-0.119-0.746-0.465-1.49-0.853-2.152c-0.927-1.594-1.911-3.158-2.921-4.703c-1.328-2.029-2.808-3.954-3.762-6.225
			c-0.525-1.258-1.417-2.298-2.477-3.203c-1.193-1.016-2.451-1.932-3.871-2.579c-2.296-1.046-4.625-2.028-6.956-3.001
			c-0.527-0.221-1.114-0.389-1.681-0.417c-2.874-0.136-3.42-0.833-5.65,2.409c-1.841,2.678-4.111,4.916-6.665,6.894
			c-0.536,0.415-1.058,0.861-1.537,1.343c-2.134,2.145-4.51,3.99-6.901,5.834c-2.157,1.662-4.244,3.418-6.053,5.469
			c-1.354,1.531-2.68,3.084-4.045,4.603c-6.249,6.951-12.876,13.516-20.018,19.559c-3.488,2.949-6.899,5.994-10.361,8.977
			c-1.131,0.977-1.947,2.119-2.438,3.554c-0.565,1.652-1.274,3.256-1.934,4.873c-2.094,5.125-4.204,10.24-5.683,15.592
			c-0.304,1.1-0.959,2.113-1.526,3.125c-0.427,0.76-0.98,1.447-1.456,2.182c-0.805,1.238-1.305,2.611-1.581,4.045
			c-0.28,1.455,0.708,2.72,2.177,2.916c0.279,0.037,0.576-0.041,1.048-0.087c1.911,0.159,3.898-0.442,5.696-1.345
			c2.283-1.146,4.646-1.796,7.127-2.314c5.883-1.238,11.609-3.176,17.631-3.791c0.842-0.087,1.679-0.487,2.462-0.857
			c1.314-0.625,2.599-1.32,3.872-2.029c0.587-0.331,1.155-0.725,1.671-1.16c1.634-1.381,3.275-2.758,4.85-4.206
			c4.442-4.085,9.152-7.841,13.836-11.637c2.946-2.388,5.826-4.861,8.647-7.392c3.473-3.12,6.813-6.381,10.286-9.502
			c3.836-3.443,7.751-6.797,11.636-10.181c1.979-1.726,4.007-3.397,5.938-5.177c0.918-0.85,1.696-1.863,2.462-2.862
			C100.02,32.393,100.233,31.297,99.688,30.468z M76.957,12.854c0.006,0.006,0.009,0.017,0.015,0.023
			c0.065,0.035,0.13,0.071,0.197,0.105c-0.009,0.037-0.008,0.069-0.014,0.105c0.683,0.268,1.376,0.512,2.039,0.826
			c0.289,0.138,0.817,0.282,0.595,0.744c-0.146,0.3-0.532,0.518-0.857,0.681c-0.378,0.189-0.772,0.053-0.978-0.303
			c-0.351-0.612-0.935-1.147-0.798-1.948c-0.021-0.008-0.041-0.015-0.062-0.023c-0.039-0.062-0.075-0.13-0.121-0.187
			c-0.052-0.028-0.105-0.055-0.157-0.084C76.863,12.815,76.927,12.819,76.957,12.854z M70.132,14.544
			c0.354-0.31,0.739-0.581,1.048-0.825c0.314,0.117,0.514,0.148,0.659,0.253c1.246,0.905,2.487,1.823,3.728,2.737
			c0.308,0.226,0.283,0.684-0.066,0.977c-0.453,0.382-0.937,0.755-1.552,0.358c-1.298-0.838-2.582-1.691-3.86-2.557
			C69.737,15.248,69.76,14.872,70.132,14.544z M64.558,19.356c0.271-0.271,0.542-0.543,0.838-0.787
			c0.138-0.109,0.338-0.148,0.51-0.219c0.177,0.059,0.383,0.079,0.523,0.185c0.688,0.519,1.328,1.1,2.034,1.586
			c2.413,1.658,1.739,1.393,0.555,3.223c-0.496,0.77-0.772,0.832-1.248,0.178c-0.778-1.062-1.943-1.523-3.008-2.143
			C63.447,20.618,63.422,20.477,64.558,19.356z M55.915,27.627c0.726-0.896,1.451-1.789,2.191-2.674
			c0.419-0.502,0.574-0.541,1.771-0.318c0.81,0.084,2.08,0.479,3.249,1.203c1.303,0.806,1.348,1.141,0.184,2.033
			c-0.075,0.059-0.154,0.117-0.227,0.178c-0.472,0.406-0.867,0.562-1.48,0.083c-0.585-0.455-1.337-0.79-2.062-0.952
			c-1.159-0.258-2.302-0.141-3.203,0.814c-0.059,0.062-0.333-0.08-0.506-0.125C55.858,27.789,55.864,27.688,55.915,27.627z
			 M51.387,32.116c0.077-0.057,0.159-0.125,0.246-0.15c0.078-0.019,0.206-0.017,0.25,0.031c1.276,1.422,2.866,1.816,4.698,1.461
			c0.064-0.011,0.172,0.09,0.225,0.161c0.042,0.055,0.026,0.151,0.049,0.317c-0.676,0.6-1.388,1.24-2.105,1.873
			c-0.289,0.254-0.585,0.504-0.896,0.729c-0.247,0.178-0.571,0.218-0.646-0.137c-0.275-1.312-1.186-2.168-2.077-3.055
			C50.803,33.022,50.947,32.434,51.387,32.116z M46.605,37.56c0.3-0.591,1.004-1.015,1.328-0.878
			c0.265,0.107,0.548,0.205,0.767,0.375c0.605,0.467,1.179,0.973,1.77,1.457c0.355,0.29,0.414,0.609,0.076,0.939
			c-0.478,0.467-0.965,0.926-1.471,1.361c-0.128,0.114-0.342,0.129-0.516,0.188c-0.146-0.096-0.389-0.164-0.425-0.293
			c-0.274-0.938-0.761-1.728-1.446-2.426C46.546,38.141,46.511,37.747,46.605,37.56z M45.785,42.991h0.182
			c-0.034,0.109-0.066,0.22-0.102,0.329c-0.055-0.059-0.13-0.107-0.161-0.177C45.689,43.108,45.757,43.039,45.785,42.991z
			 M28.654,54.196c0.633-0.73,1.333-1.403,2.016-2.092c0.561-0.565,1.148-1.081,2.253-0.596c0.562-0.131,1.324-0.249,2.043-0.488
			c0.843-0.285,1.296-0.99,0.933-1.809c-0.459-1.031-0.088-1.656,0.589-2.305c0.487-0.469,0.984-0.936,1.441-1.436
			c0.742-0.814,1.56-1.082,2.568-0.501c0.161,0.095,0.385,0.068,0.557,0.149c0.647,0.301,1.6-0.277,2.017,0.69
			c-0.445,0.488-0.852,1.023-1.346,1.459c-2.25,1.987-4.489,3.991-6.802,5.902c-1.415,1.167-2.946,2.192-4.444,3.25
			c-0.425,0.301-0.908,0.275-1.361-0.021C28.239,55.83,28.018,54.932,28.654,54.196z M35.767,82.018
			c-1.091,0.383-2.177,0.803-3.299,1.072c-2.544,0.605-5.118,1.09-7.662,1.709c-1.976,0.483-3.919,1.098-5.877,1.645
			c-0.689,0.195-1.092,0.046-1.303-0.729c-0.355-1.303-1.162-2.166-2.21-2.957c-0.997-0.756-1.913-1.65-2.736-2.598
			c-0.799-0.92-0.993-1.975-0.589-3.25c1.077-3.42,2.045-6.876,2.636-10.426c0.078-0.465,0.317-0.912,0.537-1.338
			c0.283-0.545,0.918-0.765,1.49-0.47c1.985,1.023,3.961,2.063,5.919,3.131c1.293,0.704,1.92,1.759,1.938,3.314
			c0.043,3.95,1.418,3.989,4.174,4.196c1.065,0.08,2.138,0.07,3.199,0.178c1.377,0.142,2.302,0.767,2.646,2.26
			c0.281,1.217,0.863,2.361,1.311,3.538c0.036,0.091,0.078,0.177,0.117,0.267C35.961,81.719,35.899,81.972,35.767,82.018z
			 M33.641,70.073c-0.71,0.977-1.543,1.418-2.712,1.324c-0.291-0.023-0.584-0.006-0.873-0.029c-0.776-0.062-1.26-0.514-1.339-1.269
			c-0.042-0.386-0.045-0.774-0.091-1.604c-0.092-0.839,0.414-1.772,1.432-2.562c4.912-3.828,9.269-8.281,13.911-12.413
			c6.461-5.754,12.706-11.726,18.945-17.713c2.25-2.156,4.744-4.008,7.539-5.434c2.603-1.327,5.033-2.914,7.322-4.742
			c2.049-1.635,4.225-3.105,6.582-4.283c0.772-0.383,1.299-0.314,1.826,0.312c2.576,3.048,2.914,2.929-0.427,5.582
			c-1.747,1.389-3.588,2.661-5.322,4.07c-1.734,1.406-3.367,2.935-5.075,4.369c-1.337,1.128-2.696,2.225-4.087,3.287
			c-7.329,5.6-14.659,11.202-22.017,16.766c-4.423,3.345-8.721,6.827-12.592,10.807C35.585,67.649,34.551,68.825,33.641,70.073z
			 M94.017,30.522c-0.227,0.416-0.54,0.81-0.892,1.129c-2.01,1.83-3.998,3.688-6.073,5.44c-6.31,5.327-12.476,10.808-18.398,16.566
			c-5.018,4.878-10.324,9.435-15.875,13.697c-3.165,2.433-6.162,5.038-8.935,7.905c-0.946,0.979-1.917,1.932-2.902,2.869
			c-0.192,0.184-0.508,0.234-0.74,0.334c-0.206-0.137-0.408-0.209-0.508-0.352c-0.168-0.236-0.304-0.504-0.395-0.777
			c-0.385-1.197-0.705-2.418-1.137-3.6c-0.306-0.835-0.229-1.494,0.465-2.084c1.924-1.633,3.779-3.355,5.766-4.908
			c4.969-3.887,9.992-7.707,15.002-11.542c6.012-4.603,12.057-9.167,18.038-13.813c1.99-1.543,3.799-3.321,5.746-4.924
			c2.92-2.408,5.889-4.762,8.844-7.13c0.729-0.583,1.445-0.448,1.934,0.388C94.081,29.936,94.126,30.319,94.017,30.522z"/>
	</g>
</g>
<g>
</g>
<g>
</g>
<g>
</g>
<g>
</g>
<g>
</g>
<g>
</g>
<g>
</g>
<g>
</g>
<g>
</g>
<g>
</g>
<g>
</g>
<g>
</g>
<g>
</g>
<g>
</g>
<g>
</g>
</svg>
