<?xml version="1.0" encoding="iso-8859-1"?>
<!-- Generator: Adobe Illustrator 19.0.0, SVG Export Plug-In . SVG Version: 6.00 Build 0)  -->
<svg version="1.1" id="Capa_1" xmlns="http://www.w3.org/2000/svg" xmlns:xlink="http://www.w3.org/1999/xlink" x="0px" y="0px"
	 viewBox="0 0 100 100" style="enable-background:new 0 0 100 100;" xml:space="preserve">
<g id="_x0A_file-person">
	<g>
		<path style="fill-rule:evenodd;clip-rule:evenodd;" d="M87.715,48.092c-0.002-2.684,0.345-5.365,0.473-8.052
			c0.124-2.587,0.288-5.195-0.55-7.707c-0.524-1.569-0.376-3.146-0.275-4.734c0.095-1.487,0.273-2.975,0.29-4.462
			c0.076-6.281-0.368-12.554-0.441-18.83c-0.044-3.857-0.459-3.913-4.183-3.77c-0.989,0.038-2.029,0.191-2.964-0.04
			c-1.191-0.294-2.365-0.306-3.554-0.308c-7.58-0.008-15.16-0.004-22.738-0.004V0.02c-7.878,0-15.758,0.021-23.635-0.02
			c-1.298-0.006-2.3,0.201-2.984,1.461c-0.605,1.115-1.755,1.91-1.91,3.311c-0.028,0.246-0.34,0.478-0.554,0.682
			c-2.705,2.553-4.703,5.658-6.8,8.688c-0.505,0.731-0.99,1.494-1.38,2.293c-1.015,2.067-2.173,4.026-3.856,5.633
			c-0.699,0.668-0.929,1.5-0.881,2.445c0.031,0.597,0,1.197,0.006,1.795c0.03,3.688,0.076,7.375,0.091,11.063
			c0.015,3.49-0.047,6.981,0.009,10.47c0.054,3.387,0.281,6.769,0.32,10.155c0.054,4.687,0.008,9.372-0.01,14.061
			c-0.002,0.896-0.083,1.791-0.101,2.687c-0.106,5.381-0.218,10.762-0.293,16.144c-0.01,0.688,0.226,1.376,0.279,2.068
			c0.106,1.371,0.486,2.761-0.248,4.09c-0.09,0.163-0.071,0.388-0.095,0.585c-0.133,1.131,0.418,1.994,1.575,2.146
			c0.866,0.112,1.779,0.042,2.653-0.083c3.351-0.478,6.689-1.018,10.094-0.996c8.776,0.057,17.552,0.053,26.328,0.112
			c2.691,0.02,5.391,0.051,8.067,0.287c5.759,0.509,11.514,0.991,17.303,0.893c1.295-0.022,2.593,0.022,3.889-0.011
			c2.413-0.065,4.145-1.182,5.184-3.386c0.902-1.916,1.462-3.879,1.437-6.036C88.191,84.377,88.258,78.204,88,72.024
			C87.665,64.055,87.723,56.07,87.715,48.092z M26.155,11.477c0.166-0.066,0.475-0.103,0.55-0.014
			c1.303,1.57,2.941,2.962,2.932,5.261c0,0.088-0.058,0.238-0.114,0.251c-0.155,0.039-0.405,0.088-0.474,0.008
			c-1.168-1.34-2.328-2.689-3.461-4.061C25.231,12.49,25.547,11.721,26.155,11.477z M23.65,15.985
			c0.014,0.032,0.016,0.069,0.018,0.105c0.029,0.031,0.058,0.062,0.087,0.094c0.004,0.033,0.015,0.059,0.021,0.089
			c0.322-0.004,0.439,0.2,0.479,0.484c0.034,0.004,0.06,0.017,0.098,0.017c0.206,0.207,0.413,0.413,0.619,0.62
			c0.002,0.042,0.002,0.083,0.003,0.125c0.471,0.195,0.508,0.599,0.483,1.03c0.025,0.011,0.045,0.024,0.072,0.034
			c0.204,0.196,0.405,0.394,0.608,0.591c0.032,0.066,0.064,0.137,0.101,0.2c0.063,0.036,0.126,0.072,0.191,0.108
			c-0.056-0.018-0.134-0.019-0.166-0.058c-0.011-0.014-0.016-0.034-0.025-0.05c-0.063-0.035-0.126-0.069-0.189-0.105
			c-0.2-0.201-0.401-0.402-0.6-0.604c0.003-0.039,0.005-0.077,0.007-0.116c-0.465-0.201-0.474-0.616-0.483-1.03
			c-0.03-0.013-0.055-0.027-0.089-0.038c-0.203-0.208-0.409-0.416-0.614-0.625c-0.003-0.035-0.012-0.065-0.017-0.099
			c-0.284-0.036-0.425-0.217-0.479-0.484c-0.036,0-0.061-0.01-0.102-0.004c-0.003-0.059-0.002-0.12-0.006-0.179
			c-0.067-0.072-0.135-0.145-0.202-0.217C23.531,15.908,23.628,15.931,23.65,15.985z M19.363,19.913
			c0.185-0.339,0.462-0.634,0.725-0.923c0.401-0.44,0.813-0.402,1.212,0.114c0.178,0.232,0.312,0.497,0.47,0.744
			c0.227,0.354-0.034,0.614-0.265,0.695c-0.546,0.188-1.128,0.274-1.577,0.376c-0.314-0.11-0.627-0.146-0.646-0.24
			C19.236,20.435,19.248,20.126,19.363,19.913z M82.915,86.692c-0.06,1.76-0.672,3.499-1.051,5.244
			c-0.148,0.689-0.66,0.955-1.308,0.999c-0.496,0.035-1.017,0.138-1.488,0.034c-1.879-0.414-3.779-0.189-5.666-0.288
			c-2.785-0.146-5.58-0.233-8.346-0.554c-4.871-0.565-9.761-0.678-14.631-0.389c-7.374,0.438-14.749,0.381-22.124,0.447
			c-0.498,0.004-1.001,0.023-1.493-0.037c-0.335-0.041-0.46-0.318-0.291-0.629c0.476-0.874,0.933-1.763,1.471-2.6
			c0.576-0.898,0.687-1.854,0.543-2.867c-0.13-0.924-1.286-1.443-2.094-0.929c-0.33,0.212-0.633,0.478-0.916,0.754
			c-1.432,1.404-2.61,3.006-3.681,4.698c-0.253,0.4-0.655,0.717-1.03,1.021c-0.081,0.065-0.345-0.069-0.512-0.144
			c-0.081-0.035-0.201-0.156-0.189-0.211c0.116-0.476,0.172-0.989,0.402-1.406c1.109-2.007,2.277-3.98,3.402-5.978
			c0.635-1.129,1.229-2.282,1.84-3.424c0.399-0.742,0.405-1.529,0.258-2.33c-0.18-0.97-1.126-1.531-2.02-1.216
			c-0.969,0.342-1.774,0.895-2.355,1.757c-0.501,0.743-1.003,1.487-1.526,2.216c-0.077,0.105-0.276,0.125-0.418,0.185
			c-0.061-0.185-0.208-0.393-0.169-0.553c0.164-0.669,0.331-1.345,0.591-1.98c1.358-3.317,2.746-6.624,4.119-9.937
			c0.19-0.46,0.385-0.923,0.517-1.401c0.201-0.731-0.033-1.372-0.511-1.939c-0.254-0.302-0.823-0.426-1.067-0.161
			c-0.873,0.951-1.716,1.93-2.573,2.894c-0.196,0.221-0.399,0.434-0.614,0.636c-0.061,0.057-0.195,0.105-0.256,0.077
			c-0.075-0.037-0.146-0.157-0.153-0.245c-0.056-0.69-0.131-1.382-0.132-2.073c-0.011-4.39-0.006-8.78-0.006-13.169h-0.044
			c0-1.896,0.035-3.792-0.006-5.686c-0.125-5.781-0.295-11.56-0.412-17.342c-0.029-1.419-0.335-2.76-0.788-4.088
			c-0.262-0.767-0.062-1.057,0.806-1.037c3.706,0.088,7.316-0.825,10.995-1.043c1.365-0.082,2.707-0.607,4.051-0.964
			c0.738-0.196,1.096-0.762,1.361-1.458c0.335-0.883,0.314-1.768,0.161-2.652C34.918,15.2,34.54,11.432,33.537,7.77
			c-0.208-0.76-0.248-1.57-0.307-2.363c-0.052-0.67,0.514-1.223,1.122-1.025c1.845,0.602,3.76,0.319,5.627,0.541
			C47.536,5.82,55.109,5.44,62.681,5.356c2.39-0.026,4.766-0.021,7.151,0.434c1.437,0.275,2.987,0.135,4.464-0.03
			c1.201-0.133,2.351-0.281,3.547,0.044c0.66,0.183,1.383,0.205,2.075,0.192c1.709-0.033,1.858,0.067,1.871,1.799
			c0.019,2.589,0.122,5.177,0.217,7.764c0.056,1.492,0.234,2.981,0.242,4.475c0.08,13.367,0.159,26.735,0.169,40.104
			c0.004,3.086-0.26,6.172-0.399,9.256c-0.018,0.399-0.056,0.801-0.027,1.197c0.196,2.684,0.278,5.383,0.647,8.044
			C83.011,81.322,83.005,84.016,82.915,86.692z M62.779,50.544c-0.641-0.48-1.588-0.27-2.101,0.46
			c-0.744,1.059-1.415,2.166-2.133,3.24c-0.551,0.825-1.117,1.639-1.69,2.447c-0.167,0.234-0.614,0.157-0.72-0.119
			c-0.249-0.649-0.418-1.336-0.732-1.948c-0.421-0.821-0.311-1.499,0.258-2.186c1.524-1.848,0.87-2.568-1.342-2.59
			c-0.298-0.003-0.598-0.013-0.897,0.001c-1.091,0.05-1.727,0.903-1.154,1.803c0.731,1.15,0.631,2.224,0.235,3.385
			c-0.03,0.093-0.013,0.202-0.042,0.294c-0.143,0.459-0.242,0.939-0.461,1.357c-0.147,0.285-0.693-0.219-1.16-1.129
			c-0.771-1.504-1.52-3.019-2.341-4.496c-0.384-0.686-0.179-1.667-0.975-2.106c-0.91-0.506-1.706,0.243-2.562,0.376
			c-0.392,0.06-0.766,0.221-1.154,0.3c-1.037,0.213-1.764,0.827-2.382,1.661c-1.586,2.146-2.385,4.582-2.655,7.192
			c-0.413,3.974-0.167,7.956-0.056,11.938c0.002,0.098,0.01,0.201,0.035,0.296c0.133,0.524,0.474,0.929,0.979,1.019
			c0.776,0.139,1.578,0.194,2.368,0.199c3.385,0.019,6.77,0.008,10.155,0.008c0.001,0.047,0.001,0.094,0.001,0.142
			c3.583-0.104,7.167-0.188,10.749-0.323c0.987-0.037,1.972-0.328,2.954-0.316c1.192,0.016,1.541-0.761,1.795-1.636
			c0.163-0.564,0.217-1.174,0.223-1.765c0.035-2.887,0.021-5.773,0.052-8.659C68.073,55.367,65.74,52.765,62.779,50.544z
			 M46.154,39.678c0.611,0.246,0.817,0.797,1.047,1.365c0.522,1.288,1.039,2.586,1.689,3.81c0.93,1.749,2.398,2.892,4.334,3.398
			c1.472,0.386,2.754,0.019,3.857-0.993c0.668-0.615,1.184-1.34,1.42-2.238c0.33-1.248,0.763-2.476,0.973-3.742
			c0.16-0.952,0.438-1.673,1.328-2.158c1.13-0.617,1.294-1.711,1.112-2.855c-0.157-0.982-0.37-1.974-1.321-2.563
			c-0.666-0.413-0.882-1.048-0.87-1.784c0.02-1.213-0.245-2.363-0.671-3.494c-0.522-1.382-1.447-2.543-2.802-2.918
			c-2.872-0.795-5.118-0.449-6.926,2.01c-1.064,1.448-1.874,3.063-2.216,4.845c-0.16,0.837-0.383,1.503-1.216,1.89
			c-1.045,0.486-1.327,1.408-1.224,2.479C44.588,38.007,44.79,39.132,46.154,39.678z M54.962,29.889
			c0.104-0.146,0.325-0.371,0.404-0.34c0.248,0.101,0.512,0.262,0.662,0.477c0.461,0.661,0.684,1.414,0.683,2.227
			c-0.001,1.184-0.001,2.368-0.001,3.551c0.046,0,0.091,0.002,0.136,0.002c-0.066,1.281-0.099,2.564-0.219,3.841
			c-0.045,0.468-0.276,0.931-0.479,1.371c-0.056,0.122-0.309,0.167-0.482,0.215c-0.029,0.009-0.132-0.146-0.155-0.236
			c-0.269-1.128-0.744-2.261-0.734-3.389c0.009-1.131-0.422-2.106-0.564-3.163C54.005,32.869,53.97,31.281,54.962,29.889z"/>
	</g>
</g>
<g>
</g>
<g>
</g>
<g>
</g>
<g>
</g>
<g>
</g>
<g>
</g>
<g>
</g>
<g>
</g>
<g>
</g>
<g>
</g>
<g>
</g>
<g>
</g>
<g>
</g>
<g>
</g>
<g>
</g>
</svg>
