<?xml version="1.0" encoding="iso-8859-1"?>
<!-- Generator: Adobe Illustrator 19.0.0, SVG Export Plug-In . SVG Version: 6.00 Build 0)  -->
<svg version="1.1" id="Capa_1" xmlns="http://www.w3.org/2000/svg" xmlns:xlink="http://www.w3.org/1999/xlink" x="0px" y="0px"
	 viewBox="0 0 110 110" style="enable-background:new 0 0 110 110;" xml:space="preserve">
<g id="_x0A_plant">
	<g>
		<path style="fill-rule:evenodd;clip-rule:evenodd;" d="M65.22,28.479c0.39-0.697,1.011-0.824,1.539-0.316
			c1.39,1.343,2.956,2.364,4.827,2.89c3.479,0.979,6.995,1.208,10.449,0.039c2.495-0.845,5.058-1.633,7.04-3.556
			c1.281-1.242,1.447-2.091,0.516-3.664c-1.578-2.665-3.961-4.219-6.952-4.789c-4.858-0.928-9.525-0.365-13.951,1.955
			c-0.855,0.447-1.615,1.233-2.721,1.082c0.002,0.01,0.002,0.02,0.005,0.03c-0.017,0.001-0.033,0.003-0.05,0.004
			c-0.09,0.197-0.18,0.394-0.271,0.593c-0.443-0.485-0.125-0.561,0.271-0.593c0.006-0.012,0.011-0.024,0.017-0.036
			c0.01,0.001,0.019,0,0.028,0.001c-0.269-1.162,0.186-2.203,0.495-3.285c1.021-3.562,0.292-6.704-2.261-9.452
			c-3.04-3.274-6.526-5.961-10.396-8.158c-0.867-0.491-1.841-0.82-2.801-1.112c-1.14-0.344-2.108,0.12-2.396,1.21
			c-0.351,1.333-0.663,2.698-0.771,4.069c-0.352,4.439,1.23,8.453,3.057,12.353c1.956,4.182,6.031,7.152,10.766,8.08
			c1.013,0.199,1.075,0.383,0.516,1.143c-1.868,2.538-3.714,5.096-5.571,7.647c-0.22,0.306-0.424,0.637-0.704,0.875
			c-0.123,0.103-0.513,0.091-0.618-0.02c-0.427-0.457-0.811-0.963-1.172-1.473c-4.282-6.058-11.316-8.83-18.554-7.303
			c-2.304,0.486-2.909,1.281-3.074,3.585c-0.134,1.857,0.396,3.45,1.316,5.028c2.293,3.934,6.081,5.937,9.943,7.852
			c0.435,0.213,0.985,0.199,1.48,0.287c2.001,0.354,3.997,0.412,6.003,0.018c0.548-0.105,1.026,0.414,0.855,0.896
			c-0.809,2.268-1.305,4.601-1.619,6.986c-0.187,1.408-0.555,1.675-1.927,1.896c-0.624,0.1-1.253,0.169-1.878,0.25
			c-3.958,0.537-7.867,2.04-11.927,0.589c-0.226-0.081-0.501-0.032-0.754-0.028c-2.529,0.016-5.063-0.074-7.581,0.09
			c-1.49,0.094-2.966,0.533-4.42,0.928c-1.225,0.332-1.819,1.309-2.043,2.502c-0.092,0.488-0.051,1.004-0.082,1.508
			c-0.21,3.572,0.726,7.004,1.21,10.496c0.351,2.529,1.866,3.815,4.277,4.007c1.225,0.099,1.741,0.565,2.053,1.726
			c0.487,1.824,1.269,3.568,1.798,5.383c1.165,3.994,2.201,8.025,3.379,12.018c1.463,4.959,3,9.895,4.552,14.829
			c0.219,0.692,0.609,1.388,1.09,1.925c0.639,0.717,1.387,0.037,2.097-0.049c0.744-0.088,1.51-0.049,2.262,0.008
			c2.264,0.169,4.522,0.48,6.789,0.537c3.663,0.084,7.331,0.015,10.997-0.002c0.756-0.002,1.514-0.057,2.269-0.111
			c2.138-0.164,4.273-0.407,6.411-0.496c1.807-0.07,3.576-0.373,5.073-1.328c1.944-1.244,4.284-2.379,3.611-5.428
			c0.749-4.984,1.485-9.973,2.246-14.955c0.706-4.615,1.554-9.217,1.164-13.924c-0.043-0.506-0.022-1.014-0.002-1.519
			c0.036-0.908,0.386-1.406,1.416-1.336c2.047,0.143,3.034-0.949,3.55-2.681c0.248-0.835,0.389-1.714,0.469-2.583
			c0.159-1.76,0.191-3.527,0.373-5.281c0.184-1.797,0.015-3.581-0.55-5.244c-0.911-2.681-2.688-4.594-5.878-4.291
			c-2.011,0.193-4.034,0.253-6.052,0.375c-1.888,0.115-3.773,0.275-5.664,0.347c-3.914,0.145-7.829,0.253-11.743,0.366
			c-0.465,0.012-0.962-0.565-0.857-1.021c0.358-1.594,0.759-3.18,1.146-4.766c0.271-1.109,1.009-1.678,2.097-1.926
			c1.107-0.25,2.204-0.549,3.288-0.883c1.716-0.528,3.246-1.44,4.529-2.674c1.422-1.365,0.874-3.611-1.026-4.268
			c-0.687-0.235-1.471-0.263-2.21-0.248c-0.725,0.013-1.568,0.686-2.151,0.084c-0.822-0.857,0.194-1.628,0.525-2.338
			C63.238,32.004,64.234,30.241,65.22,28.479z M83.032,24.719c0.117,0.146,0.233,0.293,0.347,0.443
			c-0.124,0.119-0.249,0.24-0.374,0.36c-0.074-0.196-0.171-0.386-0.209-0.587C82.786,24.882,82.949,24.791,83.032,24.719z
			 M79.329,24.118c0.099-0.12,0.504-0.155,0.628-0.052c0.665,0.533,0.602,1.842-0.108,2.271c-0.135,0.081-0.538-0.045-0.631-0.194
			c-0.192-0.294-0.254-0.673-0.383-1.061C78.997,24.75,79.108,24.389,79.329,24.118z M75.335,25.044
			c0.054-0.187,0.29-0.325,0.44-0.479c0.204,0.111,0.507,0.18,0.545,0.32c0.091,0.331,0.098,0.705,0.043,1.043
			c-0.021,0.12-0.37,0.316-0.485,0.27C75.372,25.994,75.188,25.557,75.335,25.044z M72.219,25.196
			c0.12,0.003,0.233,0.251,0.348,0.389c-0.19,0.078-0.387,0.231-0.568,0.213c-0.138-0.012-0.253-0.24-0.378-0.375
			C71.82,25.336,72.023,25.184,72.219,25.196z M61.74,16.762c-0.196,0.152-0.417,0.274-0.63,0.406
			c-0.115-0.297-0.361-0.613-0.325-0.892c0.178-1.315,0.423-2.616,0.647-3.923c-0.021-0.022-0.045-0.044-0.065-0.066
			c-0.003-0.028-0.003-0.058-0.004-0.087c-1.289-0.182-2.399-0.002-2.93,1.439c-0.143,0.384-0.38,0.732-0.573,1.096
			c-0.065-0.361-0.188-0.725-0.186-1.088c0-0.869,0.103-1.74,0.066-2.607c-0.015-0.326-0.231-0.783-0.494-0.926
			c-0.473-0.255-0.954,0-1.281,0.413c-0.307,0.386-0.562,0.809-0.857,1.208c-0.059,0.081-0.185,0.115-0.28,0.172
			c-0.052-0.113-0.152-0.23-0.144-0.342c0.056-0.983-0.056-2.027,0.252-2.926c0.322-0.941-0.075-1.633-0.304-2.409
			c-0.037,0.006-0.073,0.014-0.108,0.017c0.001-0.032-0.005-0.058-0.006-0.087c-0.466,0.038-0.948,0.136-1.387,0.039
			c-0.24-0.054-0.392-0.508-0.583-0.78c0.279-0.151,0.622-0.493,0.825-0.425c0.543,0.188,1.123,0.45,1.146,1.167
			c0.03-0.003,0.059-0.006,0.089-0.008c0.007,0.027,0.017,0.053,0.024,0.079c0.092-0.016,0.186-0.034,0.258-0.003
			c1.795,0.787,5.433,3.816,6.386,5.344c0.103,0.162,0.077,0.408,0.087,0.629c0.032,0.004,0.062,0.006,0.094,0.011
			c-0.008,0.048-0.017,0.095-0.025,0.143c0.394,0.413,0.866,0.782,1.13,1.267C63.339,15.047,63.141,15.672,61.74,16.762z
			 M39.638,32.434l0.146-0.242l0.096,0.271L39.638,32.434z M43.091,34.74c-0.012,0.267,0.005,0.646-0.071,1.011
			c-0.029,0.13-0.346,0.339-0.422,0.3c-0.204-0.108-0.396-0.3-0.506-0.506c-0.422-0.791,0.189-1.43,0.366-2.131
			c0.025-0.102,0.213-0.258,0.238-0.244c0.148,0.089,0.36,0.204,0.378,0.337C43.124,33.875,43.091,34.254,43.091,34.74z
			 M46.938,36.515c-0.108,0.167-0.255,0.321-0.42,0.43c-0.046,0.034-0.229-0.079-0.309-0.159c-0.634-0.678-0.825-1.488-0.629-2.375
			c0.034-0.156,0.305-0.378,0.444-0.361c0.219,0.024,0.543,0.178,0.604,0.354c0.197,0.558,0.29,1.152,0.357,1.439
			C46.96,36.277,46.995,36.426,46.938,36.515z M29.074,68.988c-0.42,0.312-0.847,0.326-1.255-0.021
			c-0.053-0.044-0.097-0.299-0.083-0.305c0.308-0.112,0.628-0.247,0.948-0.252c0.187-0.003,0.373,0.216,0.56,0.336
			C29.187,68.827,29.149,68.933,29.074,68.988z M74.863,79.647c-0.867,6.119-1.984,12.203-3.02,18.295
			c-0.106,0.619-0.378,1.207-0.522,1.818c-0.164,0.693-0.542,1.09-1.26,1.193c-2.371,0.342-4.734,0.746-7.109,1.046
			c-3.877,0.496-7.757,0.966-11.645,1.37c-1.121,0.115-2.272,0.013-3.405-0.07c-0.676-0.05-0.74-0.504-0.479-1.066
			c0.106-0.223,0.187-0.479,0.196-0.727c0.021-0.656-0.604-1.277-1.229-1.098c-1.067,0.307-2.086,0.775-3.144,1.117
			c-0.135,0.044-0.396-0.229-0.562-0.393c-0.068-0.068-0.099-0.283-0.044-0.353c0.228-0.295,0.449-0.629,0.753-0.822
			c0.742-0.481,1.549-0.859,2.286-1.344c0.41-0.271,0.808-0.628,1.066-1.039c0.171-0.271,0.209-0.753,0.088-1.053
			c-0.118-0.295-0.496-0.643-0.791-0.67c-0.606-0.064-1.274-0.042-1.841,0.162c-0.825,0.289-1.572,0.798-2.376,1.158
			c-0.58,0.261-0.945-0.135-1.222-0.572c-0.349-0.547-0.048-1.045,0.373-1.275c1.335-0.713,2.728-1.316,4.085-1.984
			c0.56-0.279,1.14-0.558,1.608-0.953c0.231-0.193,0.356-0.688,0.293-0.999c-0.064-0.316-0.362-0.722-0.654-0.829
			c-0.99-0.366-2.009-0.227-2.955,0.188c-1.042,0.454-2.042,0.999-3.064,1.495c-0.441,0.217-0.9,0.537-1.339,0.015
			c-0.481-0.577-0.542-1.741-0.022-2.077c1.268-0.817,2.583-1.557,3.899-2.295c0.764-0.433,1.596-0.749,2.328-1.226
			c0.247-0.165,0.461-0.729,0.366-0.989c-0.155-0.418-0.518-0.911-0.907-1.057c-0.981-0.357-2.01-0.211-2.945,0.256
			c-1.241,0.616-2.453,1.297-3.675,1.952c-0.477,0.253-0.742,0.036-1.067-0.595c-0.423-0.822-0.227-1.57,0.375-2.057
			c1.367-1.109,2.823-2.114,4.279-3.111c0.62-0.424,1.34-0.699,1.986-1.092c0.594-0.363,0.877-1.145,0.658-1.604
			c-0.307-0.646-0.884-0.957-1.526-0.921c-0.868,0.05-1.749,0.201-2.58,0.45c-0.591,0.176-1.119,0.576-1.663,0.9
			c-0.965,0.569-1.921,1.156-2.881,1.74c-1.392-0.709-1.54-2.229-2.075-3.425c-2.015-4.503-2.058-3.992,2.64-4.257
			c5.168-0.29,10.333-0.621,15.5-0.932c0.004,0.064,0.007,0.131,0.012,0.195c1.896,0,3.793,0.014,5.69-0.006
			c2.525-0.023,5.037-0.125,7.56-0.393c3.005-0.315,6.057-0.19,9.09-0.216c0.545-0.003,0.969,0.373,0.972,0.952
			C74.97,74.855,75.198,77.293,74.863,79.647z M57.09,57.836c7.316-0.311,14.635-0.592,21.955-0.885
			c0.252-0.01,0.504-0.044,0.756-0.047c0.71-0.012,1.193,0.428,1.276,1.07c0.308,2.324-0.38,4.511-0.935,6.705
			c-0.071,0.278-0.529,0.609-0.84,0.645c-1.744,0.198-3.494,0.326-5.245,0.432c-0.122,0.008-0.423-0.425-0.375-0.553
			c0.31-0.817,0.753-1.583,1.014-2.41c0.081-0.254-0.189-0.754-0.447-0.945c-0.255-0.194-0.754-0.287-1.039-0.17
			c-0.442,0.187-0.889,0.521-1.161,0.913c-0.498,0.722-0.9,1.515-1.284,2.306c-0.376,0.775-0.97,1.117-1.807,1.107
			c-0.125,0-0.25,0.01-0.378,0.02c-4.785,0.342-9.587,0.525-14.351,1.068c-3.528,0.4-7.046,0.51-10.58,0.562
			c-0.977,0.012-1.18-0.229-1.355-1.365c-0.02-0.123,0.009-0.256-0.01-0.379c-0.208-1.335-0.693-2.025-1.357-1.902
			c-1.031,0.196-1.368,0.994-1.584,1.893c-0.145,0.604-0.294,1.205-0.474,1.803c-0.1,0.33-0.624,0.38-0.887,0.083
			c-0.817-0.923-1.716-1.785-1.075-3.241c0.181-0.412,0.08-1.016-0.07-1.475c-0.097-0.297-0.49-0.629-0.801-0.69
			c-0.3-0.062-0.845,0.108-0.97,0.341c-0.531,0.988-0.928,2.043-1.421,3.049c-0.083,0.173-0.417,0.33-0.611,0.306
			c-0.184-0.022-0.469-0.29-0.476-0.462c-0.037-0.751,0.056-1.508,0.012-2.259c-0.03-0.479-0.147-1.318-0.355-1.362
			c-0.705-0.143-1.063,0.511-1.37,1.062c-0.304,0.545-0.548,1.125-0.835,1.682c-0.037,0.072-0.207,0.158-0.248,0.133
			c-0.101-0.063-0.224-0.184-0.231-0.289c-0.071-1.117-0.116-2.234-0.185-3.352c-0.007-0.104-0.116-0.248-0.208-0.28
			c-0.104-0.036-0.293-0.003-0.358,0.074c-0.398,0.471-0.742,0.991-1.165,1.436c-0.461,0.483-0.024,1.477-0.975,1.652
			c-0.076-0.739-0.238-1.48-0.209-2.213c0.06-1.534,0.521-2.139,1.975-2.273c1.883-0.182,3.781-0.185,5.674-0.238
			c1.137-0.029,2.276-0.002,3.413-0.002c0.001,0.024,0.002,0.051,0.002,0.078c2.779-0.078,5.566-0.057,8.333-0.271
			c2.636-0.209,5.25-0.679,7.876-1.016C54.829,58.035,55.958,57.882,57.09,57.836z M66.126,80.408
			c-0.283-0.203-0.54-0.53-0.828-0.557c-0.335-0.032-0.737,0.129-1.039,0.316c-1.856,1.166-3.104,2.897-4.243,4.711
			c-0.182,0.293-0.23,0.732-0.184,1.084c0.044,0.34,0.222,0.729,0.466,0.965c0.424,0.406,1.007,0.301,1.333-0.087
			c1.446-1.726,2.849-3.491,4.223-5.273C66.059,81.305,66.028,80.86,66.126,80.408z M66.68,85.156
			c-1.769,0.786-2.986,2.153-3.785,3.896c-0.092,0.201-0.102,0.523-0.005,0.717c0.149,0.293,0.425,0.523,0.604,0.727
			c0.358-0.049,0.667,0.008,0.824-0.125c1.449-1.195,2.584-2.648,3.408-4.338c0.084-0.17,0.046-0.574-0.062-0.631
			C67.37,85.245,66.931,85.043,66.68,85.156z"/>
	</g>
</g>
<g>
</g>
<g>
</g>
<g>
</g>
<g>
</g>
<g>
</g>
<g>
</g>
<g>
</g>
<g>
</g>
<g>
</g>
<g>
</g>
<g>
</g>
<g>
</g>
<g>
</g>
<g>
</g>
<g>
</g>
</svg>
