<?xml version="1.0" encoding="iso-8859-1"?>
<!-- Generator: Adobe Illustrator 19.0.0, SVG Export Plug-In . SVG Version: 6.00 Build 0)  -->
<svg version="1.1" id="Capa_1" xmlns="http://www.w3.org/2000/svg" xmlns:xlink="http://www.w3.org/1999/xlink" x="0px" y="0px"
	 viewBox="0 0 110 110" style="enable-background:new 0 0 110 110;" xml:space="preserve">
<g id="_x0A_diagram">
	<g>
		<path style="fill-rule:evenodd;clip-rule:evenodd;" d="M109.997,70.239c0.073-1.464-1.104-2.697-2.583-2.917
			c-0.75-0.112-1.523-0.091-2.286-0.077c-4.251,0.076-8.499,0.176-12.748,0.245c-0.458,0.007-0.825-0.27-0.964-0.736
			c-0.093-0.311-0.148-0.635-0.193-0.957c-0.489-3.558-0.955-7.118-1.474-10.673c-0.091-0.634-0.309-1.284-0.617-1.843
			c-1.377-2.499-3.26-4.342-6.287-4.621c-1.188-0.108-2.371-0.352-3.559-0.375c-2.837-0.057-5.673-0.019-8.51-0.019
			c0,0.024-0.002,0.05-0.002,0.074c-1.962-0.064-3.928-0.078-5.886-0.206c-3.261-0.21-6.516-0.52-9.777-0.74
			c-2.449-0.166-2.483-0.134-2.47-2.708c0.006-1.302,0.136-2.605,0.248-3.903c0.074-0.856,0.538-1.416,1.439-1.47
			c1.738-0.103,3.477-0.228,5.216-0.245c2.072-0.023,4.136,0.057,6.179-0.468c0.711-0.183,1.51-0.083,2.262-0.029
			c2.619,0.185,4.354-1.411,3.805-3.884c-0.435-1.963-0.25-3.901-0.372-5.848c-0.11-1.733-0.218-3.453-0.445-5.187
			c-0.445-3.396-0.6-2.8-3.458-3.917c-0.779-0.304-1.702-0.318-2.559-0.324c-3.928-0.028-7.856-0.012-11.784,0.004
			c-0.761,0.003-1.528,0.03-2.285,0.119c-4.012,0.476-8.027,0.717-12.07,0.42c-1.189-0.088-2.396-0.027-3.59,0.051
			c-0.72,0.047-1.191,0.584-1.367,1.242c-0.165,0.621-0.197,1.286-0.226,1.934c-0.22,4.729,0.703,9.309,1.695,13.898
			c0.275,1.271,0.739,1.97,1.951,2.161c1.179,0.188,2.363,0.414,3.55,0.447c2.07,0.056,4.146-0.037,6.218-0.044
			c1.421-0.006,1.596,0.155,1.577,1.435c-0.025,1.636-0.074,3.271-0.135,4.907c-0.039,1.084-0.293,1.391-1.354,1.373
			c-3.932-0.067-7.776,1.064-11.719,0.806c-0.429-0.027-0.871,0.056-1.3,0.129c-3.428,0.589-6.851,1.207-10.283,1.78
			c-2.076,0.347-3.94,1.211-5.743,2.244c-0.896,0.513-1.436,1.282-1.673,2.307c-0.499,2.143-0.858,4.332-0.421,6.484
			c0.396,1.961,0.339,3.899,0.333,5.855c-0.003,1.271-0.322,1.61-1.485,1.617c-1.418,0.007-2.835-0.053-4.254-0.085
			c-2.29-0.052-4.58-0.16-6.869-0.139c-2.366,0.021-2.392,0.168-3.079,2.455c-0.351,1.174-0.485,2.329-0.494,3.535
			c-0.033,4.037-0.091,8.072-0.146,12.108c-0.047,3.276,0.231,3.6,3.431,3.677c2.072,0.049,4.176-0.188,6.212,0.087
			c6.869,0.926,13.7-0.112,20.546-0.188c0.108,0,0.216-0.016,0.324-0.034c1.786-0.297,3.032-2.017,2.713-3.805
			c-0.21-1.178-0.504-2.342-0.727-3.519c-0.73-3.845-1.697-7.658-1.543-11.623c0.016-0.433-0.031-0.873-0.084-1.305
			c-0.156-1.302-0.779-1.913-2.154-1.975c-1.633-0.074-3.271-0.062-4.906-0.093c-0.973-0.019-1.943-0.051-2.915-0.079
			c-0.786-0.962-0.354-2.089-0.384-3.136c-0.059-1.962,0.005-3.928,0.007-5.891c0-0.932,0.38-1.676,1.04-2.314
			c1.724-1.672,3.715-2.508,6.184-2.441c5.79,0.157,11.509-0.649,17.216-1.521c0.752-0.114,1.517-0.145,2.275-0.199
			c0.216-0.016,0.441-0.004,0.65,0.041c0.47,0.099,0.767,0.392,0.756,0.886c-0.057,2.943-0.076,5.89-0.216,8.831
			c-0.063,1.297-0.354,2.586-0.608,3.865c-0.048,0.246-0.383,0.538-0.642,0.615c-0.407,0.12-0.862,0.094-1.296,0.095
			c-1.855,0.003-3.707-0.023-5.562-0.005c-1.652,0.018-2.375,0.731-2.386,2.412c-0.004,0.867,0.017,1.767,0.229,2.6
			c0.871,3.435,0.752,6.911,0.583,10.396c-0.058,1.198-0.125,2.397-0.149,3.596c-0.038,2.095,0.515,2.676,2.72,2.702
			c1.962,0.023,3.934,0.034,5.887-0.122c6.203-0.497,12.413-0.615,18.629-0.659c0.654-0.005,1.309-0.015,1.962-0.042
			c1.647-0.069,2.994-1.486,3.018-3.15c0.059-4.361,0.125-8.722,0.182-13.082c0.008-0.653,0.033-1.314-0.048-1.959
			c-0.216-1.692-1.336-2.742-3.072-2.764c-2.072-0.025-4.144,0.081-6.215,0.112c-2.508,0.034-5.017,0.062-7.524,0.063
			c-0.65,0-0.942-0.333-1.048-0.998c-0.634-4-0.555-8.039-0.707-12.067c-0.009-0.215,0.026-0.435,0.058-0.649
			c0.076-0.486,0.371-0.805,0.858-0.812c4.685-0.08,9.374-0.269,14.034,0.459c2.257,0.353,4.522,0.659,6.785,0.98
			c3.017,0.43,6.035,0.842,9.047,1.286c0.937,0.138,1.343,0.585,1.345,1.54c0.006,2.402,0.1,4.78,0.693,7.137
			c0.233,0.926,0.085,1.953,0.063,2.934c-0.009,0.483-0.305,0.801-0.813,0.82c-0.435,0.017-0.871-0.001-1.307-0.024
			c-0.979-0.051-1.956-0.155-2.936-0.162c-0.908-0.004-1.421,0.426-1.61,1.312c-0.109,0.517-0.144,1.063-0.119,1.592
			c0.057,1.19,0.224,2.378,0.256,3.568c0.112,3.921,0.065,7.848,0.462,11.759c0.246,2.442,1.578,4.027,3.97,4.46
			c0.746,0.135,1.515,0.197,2.274,0.201c5.127,0.025,10.256,0.077,15.382,0.006c1.732-0.024,3.478-0.278,5.183-0.61
			c2.374-0.46,3.221-1.619,3.549-3.999C110.246,80.266,109.75,75.243,109.997,70.239z M21.565,74.42
			c1.494-0.244,3.008-0.374,4.518-0.533c0.484-0.051,0.85,0.193,0.935,0.683c0.219,1.28,0.402,2.567,0.624,4.007
			c-0.342,1.01,0.768,2.106,0.117,3.285c-1.062,0.146-2.131,0.252-3.184,0.449c-2.233,0.422-4.475,0.816-6.681,1.355
			c-2.901,0.71-5.824,0.389-8.743,0.375c-0.409-0.002-0.847-0.195-1.216-0.4c-0.26-0.144-0.579-0.442-0.608-0.701
			c-0.235-2.043-0.415-4.092-0.591-6.142c-0.051-0.593,0.345-1.029,0.934-1.095c0.324-0.033,0.649-0.065,0.973-0.062
			C12.994,75.688,17.284,75.115,21.565,74.42z M62.053,70.694c1.631-0.24,3.239-0.311,4.864-0.219
			c0.472,0.026,0.743,0.412,0.705,0.901c-0.04,0.54-0.087,1.091-0.22,1.613c-0.647,2.531-1.082,5.088-1.158,7.71
			c-0.049,1.631-0.377,1.926-1.895,1.985c-0.761,0.028-1.522,0.018-2.284,0.018c-1.958,0.002-3.915,0.001-5.872,0.001v0.114
			c-2.827,0-5.654,0.011-8.482-0.006c-0.807-0.004-1.155-0.373-1.197-1.188c-0.131-2.496-0.271-4.99-0.362-7.486
			c-0.023-0.641,0.068-1.297,0.199-1.928c0.117-0.562,0.497-0.987,1.112-1.014c0.758-0.033,1.538-0.09,2.277,0.037
			C53.889,71.953,57.977,71.295,62.053,70.694z M43.354,33.342c-1.273,0.073-2.576-0.235-3.854-0.442
			c-0.232-0.037-0.557-0.421-0.583-0.672c-0.107-1.08-0.138-2.169-0.161-3.256c-0.08-3.608-0.241-3.255,3.375-3.184
			c3.266,0.064,6.531,0.013,9.798,0.013v-0.049c3.809,0,7.618-0.021,11.428,0.01c1.483,0.012,1.485,0.062,1.829,1.667
			c0.114,0.531,0.262,1.062,0.3,1.599c0.092,1.303,0.151,2.597,0.621,3.841c0.143,0.38-0.233,0.589-0.572,0.576
			C58.144,33.165,50.753,32.924,43.354,33.342z M105.445,73.503c-0.447,2.909-0.51,5.838-0.487,8.774
			c0.008,0.856-0.335,1.211-1.142,1.22c-2.72,0.024-5.439-0.009-8.158,0.036c-3.798,0.061-7.611-0.274-11.388,0.431
			c-0.432,0.081-0.83-0.251-0.877-0.761c-0.06-0.648-0.085-1.301-0.113-1.953c-0.097-2.166-0.018-4.343-0.502-6.489
			c-0.164-0.728-0.077-1.516-0.075-2.274c0.004-0.553,0.466-0.971,1.059-0.974c0.543-0.003,1.086,0.046,1.629,0.048
			c2.936,0.005,5.872,0.002,8.808,0.002v0.156c3.479,0,6.959-0.008,10.439,0.009c0.47,0.003,0.813,0.271,0.829,0.799
			C105.477,72.853,105.495,73.183,105.445,73.503z"/>
	</g>
</g>
<g>
</g>
<g>
</g>
<g>
</g>
<g>
</g>
<g>
</g>
<g>
</g>
<g>
</g>
<g>
</g>
<g>
</g>
<g>
</g>
<g>
</g>
<g>
</g>
<g>
</g>
<g>
</g>
<g>
</g>
</svg>
