<?xml version="1.0" encoding="iso-8859-1"?>
<!-- Generator: Adobe Illustrator 19.0.0, SVG Export Plug-In . SVG Version: 6.00 Build 0)  -->
<svg version="1.1" id="Capa_1" xmlns="http://www.w3.org/2000/svg" xmlns:xlink="http://www.w3.org/1999/xlink" x="0px" y="0px"
	 viewBox="0 0 101.377 101.377" style="enable-background:new 0 0 101.377 101.377;" xml:space="preserve">
<g id="_x0A_smartphone-charts">
	<g>
		<path style="fill-rule:evenodd;clip-rule:evenodd;" d="M80.663,24.801c-0.016-0.9-0.141-1.8-0.203-2.701
			c-0.174-2.398-0.266-4.758,0.119-7.189c0.742-4.647-0.469-8.768-4.275-11.863c-0.869-0.705-1.807-1.172-2.938-1.424
			c-1.992-0.444-3.986-0.426-5.996-0.389C66.178,1.256,65,1.389,63.788,1.263c-3.395-0.354-6.803-0.558-10.205-0.835
			c-0.498-0.041-0.988-0.214-1.486-0.232c-1.705-0.068-3.461-0.361-5.107-0.066c-1.807,0.322-3.588,0.326-5.387,0.353
			c-3.717,0.056-7.393,0.665-11.109,0.727c-1.723,0.029-3.238,0.787-4.674,1.851c-1.893,1.399-2.654,3.462-3.717,5.368
			c-0.451,0.809-0.58,1.685-0.613,2.609c-0.174,5.021-0.256,10.051-0.629,15.057c-0.268,3.617-0.435,7.225-0.352,10.84
			c0.131,5.625,0.355,11.25,0.568,16.873c0.055,1.503,0.232,3.002,0.318,4.504c0.033,0.596-0.014,1.197-0.055,1.795
			c-0.076,1.1-0.24,2.198-0.25,3.299c-0.041,4.223-0.1,8.449-0.021,12.672c0.078,4.213,0.35,8.424,0.461,12.639
			c0.068,2.647,1.125,4.8,2.883,6.711c1.467,1.596,3.285,2.637,5.227,3.481c1.189,0.516,2.42,1.078,3.684,1.252
			c2.381,0.332,4.801,0.408,7.203,0.57c1.205,0.08,2.416,0.083,3.615,0.189c0.352,0.031,0.684,0.299,1.025,0.459h9.66
			c0.291-0.557,0.834-0.475,1.314-0.482c2.814-0.053,5.631-0.098,8.445-0.117c1.562-0.012,3-0.334,4.156-1.455
			c0.592-0.572,1.256-1.053,2.07-1.164c1.889-0.262,3.375-1.059,4.412-2.732c0.352-0.569,1.027-0.947,1.578-1.385
			c1.252-0.996,1.949-2.309,2.082-3.873c0.229-2.699,0.674-5.373,0.705-8.102c0.068-5.523-0.041-11.047,0.438-16.571
			c0.422-4.899,0.467-9.833,0.674-14.753C81.059,42.096,80.831,33.449,80.663,24.801z M23.926,87.321
			c-0.018,0.151-0.176,0.285-0.271,0.428c-0.223-0.173-0.553-0.301-0.648-0.527c-0.359-0.872-0.209-1.725,0.299-2.51
			c0.104-0.158,0.258-0.279,0.389-0.42c0.088,0.133,0.234,0.256,0.254,0.396c0.053,0.385,0.055,0.778,0.072,1.096
			C23.991,86.346,23.985,86.836,23.926,87.321z M29.7,96.904c-0.271,0.123-0.701-0.429-0.605-0.771
			c0.111-0.387,0.363-0.688,0.803-0.576c0.256,0.063,0.475,0.278,0.844,0.51C30.247,96.479,30.008,96.765,29.7,96.904z
			 M37.643,85.642c-0.309,0.491-0.66,0.956-1.002,1.425c-0.057,0.076-0.148,0.128-0.221,0.189c-0.047-0.086-0.094-0.17-0.213-0.395
			c0.303-0.488,0.644-1.047,1.002-1.594c0.035-0.053,0.234-0.074,0.254-0.043C37.551,85.352,37.69,85.567,37.643,85.642z
			 M41.45,93.084c-0.139,0.164-0.4,0.574-0.758,0.869c-0.406,0.336-1.035,0.234-1.338-0.115c-0.316-0.369-0.365-0.984,0.025-1.34
			c0.342-0.312,0.797-0.555,1.242-0.683C41.041,91.696,41.559,92.336,41.45,93.084z M41.784,82.627
			c-0.146,0.129-0.271,0.329-0.439,0.375c-1.051,0.291-2.107,0.561-3.172,0.799c-0.15,0.033-0.436-0.102-0.5-0.236
			c-0.062-0.129,0.021-0.42,0.143-0.531c0.352-0.328,0.732-0.803,1.146-0.855c0.875-0.116,1.779-0.003,2.67,0.028
			c0.086,0.003,0.217,0.075,0.238,0.142C41.893,82.426,41.817,82.533,41.784,82.627z M54.166,92.768
			c-1.789,1.943-5.207,2.405-7.475,1.021c-0.424-0.261-0.834-0.556-1.229-0.865c-1.316-1.034-2.27-2.257-2.016-4.073
			c0.014-0.098,0.016-0.203,0-0.301c-0.4-2.443,0.992-3.742,2.996-4.598c1.105-0.471,2.236-0.89,3.387-1.237
			c1.738-0.528,3.461,0.257,4.215,1.917c0.705,1.551,1.34,3.133,1.439,5.379C55.536,90.793,55.008,91.854,54.166,92.768z
			 M65.766,88.119c-0.189,0.189-0.549,0.367-0.783,0.318c-0.443-0.096-0.494-0.533-0.482-0.941c0.027-0.973,0.426-1.711,1.314-2.165
			c0.326-0.167,0.934,0.077,0.957,0.413C66.79,86.684,66.415,87.472,65.766,88.119z M71.497,47.543
			c-0.123,0.691-0.244,1.389-0.275,2.086c-0.299,6.321-0.83,12.635-0.648,18.971c0.02,0.604-0.061,1.216,0.016,1.809
			c0.199,1.541-0.412,2.641-1.498,3.725c-1.012,1.012-2.049,1.463-3.451,1.379c-1.402-0.086-2.815,0.02-4.221-0.039
			c-5.33-0.223-10.637,0.268-15.951,0.502c-2.4,0.105-4.816-0.027-7.207,0.465c-0.965,0.199-2.016,0.146-3.006,0.021
			c-2.006-0.249-3.601-1.074-4.267-3.225c-0.508-1.645-0.889-3.275-0.9-5.01c-0.033-4.219-0.125-8.438-0.193-12.656
			c-0.037-2.1-0.078-4.199-0.115-6.299c0.066-0.001,0.133-0.002,0.201-0.004c0-6.131,0.002-12.264-0.002-18.395
			c0-1.406-0.061-2.814,0.496-4.16c0.15-0.361,0.176-0.785,0.197-1.184c0.164-2.801,0.299-5.605,0.467-8.406
			c0.068-1.102,0.15-2.207,0.309-3.297c0.111-0.769,0.615-1.18,1.455-1.262c2.197-0.215,4.396-0.389,6.594-0.586
			c1.498-0.134,2.994-0.295,4.492-0.408c1-0.078,2.006-0.117,3.01-0.133c4.824-0.076,9.649-0.166,14.473-0.191
			c2.51-0.012,5.023,0.078,7.535,0.16c0.809,0.026,1.336,0.502,1.422,1.279c0.111,0.996,0.172,2.002,0.176,3.006
			c0.01,3.518,0.02,7.037-0.033,10.555c-0.066,4.432,0.379,8.815,1.014,13.191C71.973,42.133,71.981,44.846,71.497,47.543z
			 M66.95,51.776c-0.017-5.42-0.027-10.84,0.016-16.262c0.012-1.699,0.199-3.397,0.307-5.096c0.031-0.5,0.055-1.002,0.1-1.859
			c-0.072-0.445-0.162-1.242-0.34-2.018c-0.086-0.373-0.252-0.805-0.527-1.049c-1.627-1.449-3.438-2.435-5.738-2.027
			c-0.873,0.155-1.443,0.615-1.725,1.465c-0.445,1.342-0.65,2.709-0.645,4.133c0.029,7.629,0.012,15.258,0.037,22.886
			c0.002,1.1,0.141,2.2,0.232,3.298c0.1,1.195,0.322,2.391,0.297,3.58c-0.037,1.801-0.24,3.596-0.371,5.395
			c-0.105,1.453,0.816,2.512,2.279,2.615c0.199,0.014,0.402,0.02,0.6-0.01c1.086-0.161,2.178-0.297,3.254-0.512
			c1.674-0.334,2.736-1.674,2.734-3.43c0-1.103,0.049-2.229-0.141-3.305C66.866,56.987,66.956,54.381,66.95,51.776z M63.704,30.483
			c-0.098,2.102-0.283,4.203-0.293,6.307c-0.041,7.734-0.023,15.469-0.037,23.203c0,0.592-0.057,1.186-0.143,1.771
			c-0.02,0.126-0.275,0.293-0.43,0.301c-0.152,0.008-0.432-0.14-0.453-0.256c-0.117-0.68-0.227-1.369-0.246-2.059
			c-0.055-1.904-0.047-3.803-0.451-5.689c-0.207-0.967-0.133-2-0.137-3.004c-0.014-3.616-0.004-7.232-0.004-10.848h-0.096
			c0-3.816-0.004-7.635,0-11.451c0-0.5-0.01-1.008,0.066-1.499c0.041-0.272,0.221-0.569,0.615-0.442
			c1.189,0.383,1.611,0.84,1.646,1.859C63.764,29.278,63.731,29.881,63.704,30.483z M53.239,33.303
			c-1.193,0.136-2.377,0.328-3.564,0.502c-2.209,0.323-2.928,1.065-3.166,3.289c-0.053,0.496-0.029,1.002-0.039,1.502
			c-0.066,4.111-0.131,8.223-0.215,13.479c0,1.465-0.002,4.072,0,6.679c0,2.106,0.027,4.213-0.006,6.319
			c-0.025,1.76,1.154,2.685,2.475,2.969c1.574,0.34,3.125,0.242,4.547-0.891c1.101-0.88,1.734-1.731,1.693-3.225
			c-0.1-3.709-0.043-7.422-0.037-11.133c0.002-1.203,0-2.408,0.062-3.609c0.117-2.398,0.299-4.795,0.418-7.195
			c0.078-1.6-0.006-3.205,0.473-4.771c0.143-0.467,0.127-0.994,0.117-1.492C55.969,34.137,54.821,33.121,53.239,33.303z
			 M50.891,59.483c-0.174,0.199-0.494,0.275-0.732-0.029c-0.557-0.713-0.014-1.615,0.666-1.82c0.098-0.029,0.32,0.148,0.389,0.279
			c0.084,0.159,0.066,0.371,0.119,0.766C51.243,58.852,51.125,59.219,50.891,59.483z M44.034,55.492
			c-0.072-2.006-0.053-4.016-0.158-6.02c-0.047-0.891-0.283-1.773-0.465-2.654c-0.164-0.789-0.777-1.158-1.48-1.331
			c-0.475-0.116-0.992-0.134-1.484-0.097c-0.894,0.065-1.781,0.199-2.672,0.312c-0.883,0.113-1.453,0.65-1.555,1.562
			c-0.086,0.797-0.104,1.602-0.111,2.404c-0.027,2.309,0.025,4.621-0.061,6.928c-0.072,1.898-0.297,3.793-0.443,5.559
			c-0.035,1.525-0.031,1.523,0.814,3.223c0.133,0.266,0.256,0.549,0.307,0.838c0.188,1.076,1.02,1.49,1.899,1.695
			c0.867,0.201,1.789,0.229,2.688,0.226c1.596-0.007,2.68-0.874,2.955-2.44c0.154-0.877,0.129-1.797,0.098-2.695
			C44.276,60.498,44.125,57.996,44.034,55.492z M40.854,62.421c-0.01,0.489-0.09,0.997-0.26,1.45
			c-0.066,0.177-0.467,0.287-0.725,0.311c-0.145,0.012-0.355-0.188-0.453-0.344c-0.1-0.159-0.158-0.392-0.129-0.574
			c0.656-3.986,0.305-8.006,0.377-12.01c0.014-0.799,0.061-1.598,0.109-2.396c0.004-0.08,0.162-0.229,0.178-0.22
			c0.135,0.079,0.348,0.171,0.363,0.284c0.248,1.885,0.596,3.758,0.5,5.678c-0.053,1.101-0.008,2.206-0.008,3.31h0.059
			C40.866,59.413,40.885,60.918,40.854,62.421z"/>
	</g>
</g>
<g>
</g>
<g>
</g>
<g>
</g>
<g>
</g>
<g>
</g>
<g>
</g>
<g>
</g>
<g>
</g>
<g>
</g>
<g>
</g>
<g>
</g>
<g>
</g>
<g>
</g>
<g>
</g>
<g>
</g>
</svg>
