<?xml version="1.0" encoding="iso-8859-1"?>
<!-- Generator: Adobe Illustrator 19.0.0, SVG Export Plug-In . SVG Version: 6.00 Build 0)  -->
<svg version="1.1" id="Capa_1" xmlns="http://www.w3.org/2000/svg" xmlns:xlink="http://www.w3.org/1999/xlink" x="0px" y="0px"
	 viewBox="0 0 105 105" style="enable-background:new 0 0 105 105;" xml:space="preserve">
<g id="gauge">
	<g>
		<path style="fill-rule:evenodd;clip-rule:evenodd;" d="M87.136,20.641c0.014-1.671-0.988-2.572-2.668-2.397
			c-0.649,0.068-1.119,0.413-1.52,0.864c-1.052,1.196-2.043,2.45-3.136,3.609c-1.913,2.031-3.913,3.982-5.824,6.016
			c-1.773,1.89-3.57,3.771-5.19,5.785c-2.31,2.872-4.427,5.889-6.822,8.708c-3.157,3.716-6.083,7.631-9.115,11.454
			c-0.37,0.47-0.777,0.907-1.159,1.369c-0.888,1.075-1.822,2.116-2.646,3.238c-1.826,2.492-3.527,5.08-5.411,7.525
			c-1.812,2.35-2.923,4.942-3.392,7.85c-0.221,1.37-0.51,2.731-0.765,4.096c-0.14,1.537,0.505,2.74,1.417,3.86
			c2.363,2.903,5.568,4.066,9.15,4.462c1.979,0.219,3.771-0.364,5.343-1.488c2.555-1.832,4.656-4.055,5.485-7.22
			c0.356-1.358,0.969-2.58,1.71-3.783c1.093-1.775,2.022-3.659,2.947-5.531c2.574-5.188,4.291-10.72,6.385-16.101
			c1.626-4.177,3.118-8.405,5.089-12.44c1.223-2.504,2.38-5.047,3.71-7.493c1.805-3.318,3.134-6.907,5.568-9.875
			C86.867,22.445,87.126,21.579,87.136,20.641z M53.862,78.234c-0.209,0.309-0.551,0.545-0.87,0.758
			c-0.247,0.165-0.543,0.195-0.64-0.196c-0.049-0.186-0.033-0.387-0.031-0.362c0-0.414-0.064-0.644,0.016-0.8
			c0.112-0.226,0.333-0.568,0.494-0.561c0.362,0.016,0.768,0.149,1.045,0.372C54.008,77.554,53.99,78.042,53.862,78.234z
			 M60.45,67.288c-0.056,0.006-0.128-0.108-0.196-0.171c0.124-0.081,0.248-0.165,0.394-0.266c0.089,0.097,0.18,0.2,0.271,0.301
			C60.762,67.2,60.608,67.269,60.45,67.288z M72.468,38.617c-1.359,3.099-2.698,6.194-3.768,9.417
			c-0.872,2.638-2.079,5.165-3.116,7.751c-0.52,1.294-1.004,2.601-1.477,3.913c-0.594,1.636-1.411,2.905-3.274,3.486
			c-1.392,0.437-2.646,1.378-3.888,2.204c-1.601,1.063-1.758,2.992-0.411,4.354c0.415,0.423,0.954,0.723,1.376,1.142
			c0.176,0.177,0.354,0.584,0.269,0.756c-0.434,0.886-0.944,1.736-1.462,2.576c-0.059,0.099-0.432,0.146-0.512,0.065
			c-1.766-1.756-3.517-3.553-4.413-5.927c-0.302-0.8-0.18-1.766-0.289-3.118c-0.424-1.004,0.376-1.962,1.27-2.99
			c4.51-5.187,8.617-10.701,12.983-16.004c1.832-2.225,3.51-4.577,5.268-6.862c0.3-0.392,0.651-0.75,0.986-1.115
			c0.066-0.069,0.171-0.101,0.258-0.148C72.342,38.287,72.519,38.503,72.468,38.617z M13.417,75.693
			c-3.061-0.628-6.126-0.622-9.2-0.545c-2.626,0.066-4.52,2.479-4.177,5.094c0.291,2.217,1.756,3.855,3.979,4.146
			c1.863,0.244,3.759,0.254,5.412,0.353c1.723,0,3.215-0.038,4.705,0.016c0.872,0.033,1.518-0.31,2.126-0.876
			c1.08-1.01,1.495-2.319,1.698-3.713c0.055-0.364-0.035-0.828-0.23-1.138C16.702,77.406,15.504,76.12,13.417,75.693z
			 M45.265,31.841c1.581,0.398,3.136,0.224,4.642-0.443c0.884-0.392,1.456-1.027,1.634-1.97c0.309-1.65,0.582-3.308,0.87-4.963
			c0.004-1.732-0.281-3.384-0.884-4.977c-0.136-0.351-0.358-0.798-0.661-0.938c-1.066-0.502-2.163-1.035-3.376-0.35
			c-0.428,0.241-0.884,0.446-1.343,0.628c-0.818,0.328-1.225,0.982-1.442,1.775c-0.13,0.476-0.258,0.966-0.269,1.452
			c-0.023,1.195-0.273,2.339-0.525,3.504c-0.328,1.529-0.58,3.094-0.208,4.7C43.921,31.19,44.478,31.64,45.265,31.841z
			 M90.458,64.383c0,0.097-0.004,0.197,0.002,0.294c0.19,2.702,2.356,4.649,5.19,3.249c0.886-0.44,1.853-0.729,2.706-1.222
			c1.37-0.792,2.692-1.676,4.004-2.562c0.624-0.421,0.817-1.088,0.781-1.832c-0.054-1.073-0.359-2.102-0.401-3.196
			c-0.062-1.524-2.194-2.754-3.617-2.201c-3.006,1.163-5.564,3.029-7.832,5.299C90.704,62.801,90.446,63.547,90.458,64.383z
			 M103.469,79.691c-1.157-0.602-2.403-0.955-3.731-0.904c-0.694,0.024-1.388,0.085-1.537,0.095c-1.345,0-2.149-0.07-2.936,0.018
			c-1.185,0.128-2.388,0.252-3.523,0.587c-1.188,0.349-2.088,1.175-2.363,2.466c-0.302,1.43,0.29,2.528,1.416,3.368
			c0.316,0.234,0.671,0.447,1.043,0.565c1.234,0.394,2.475,0.671,3.811,0.448c1.27-0.212,2.566-0.338,3.853-0.376
			c1.442-0.045,2.747-0.516,3.981-1.149c1.048-0.539,1.554-1.512,1.516-2.714C104.963,81,104.403,80.183,103.469,79.691z
			 M29.943,35.348c-1.388-1.592-2.438-3.361-3.49-5.171c-1.411-2.427-2.704-2.381-4.739-1.7c-1.144,0.38-1.735,1.049-2.033,2.269
			c-0.459,1.896,0.147,3.521,0.973,5.078c0.55,1.033,1.349,1.961,2.155,2.825c1.157,1.249,2.424,2.387,4.558,2.326
			c0.248-0.027,0.747-0.06,1.231-0.155c0.39-0.077,0.77-0.211,1.14-0.354c0.814-0.315,1.601-1.622,1.349-2.407
			C30.789,37.121,30.558,36.051,29.943,35.348z M94.216,38.893c0.188-2.314-1.678-3.487-3.285-2.619
			c-0.43,0.23-0.815,0.568-1.178,0.907c-2.43,2.275-4.147,5.086-5.822,7.921c-0.151,0.256-0.262,0.537-0.365,0.818
			c-0.328,0.911-0.186,1.748,0.359,2.553c1.114,1.646,3.831,2.331,5.307,0.174c1.684-2.465,3.473-4.88,4.432-7.76
			C93.944,40.043,94.141,39.173,94.216,38.893z M5.622,55.785c0.634,0.463,1.244,0.963,1.894,1.401
			c0.394,0.27,0.823,0.567,1.273,0.656c1.554,0.301,3.126,0.514,4.175,0.681c0.926,0,1.327,0.041,1.719-0.006
			c1.812-0.213,3.084-1.841,2.807-3.537c-0.142-0.857-0.671-1.437-1.337-1.888c-1.314-0.89-2.634-1.774-3.999-2.58
			c-2.287-1.347-4.566-0.898-6.791,0.196c-0.33,0.163-0.632,0.504-0.807,0.837C3.855,52.901,4.382,54.882,5.622,55.785z"/>
	</g>
</g>
<g>
</g>
<g>
</g>
<g>
</g>
<g>
</g>
<g>
</g>
<g>
</g>
<g>
</g>
<g>
</g>
<g>
</g>
<g>
</g>
<g>
</g>
<g>
</g>
<g>
</g>
<g>
</g>
<g>
</g>
</svg>
