<?xml version="1.0" encoding="iso-8859-1"?>
<!-- Generator: Adobe Illustrator 19.0.0, SVG Export Plug-In . SVG Version: 6.00 Build 0)  -->
<svg version="1.1" id="Capa_1" xmlns="http://www.w3.org/2000/svg" xmlns:xlink="http://www.w3.org/1999/xlink" x="0px" y="0px"
	 viewBox="0 0 110.724 110.724" style="enable-background:new 0 0 110.724 110.724;" xml:space="preserve">
<g id="_x0A_chart02">
	<g>
		<path style="fill-rule:evenodd;clip-rule:evenodd;" d="M109.255,89.106c-2.732-0.723-5.261-1.986-7.944-2.812
			c-1.725-0.531-3.49-0.965-5.324-0.924c-0.971,0.021-1.57,1.143-1.035,1.973c0.213,0.33,0.48,0.666,0.804,0.877
			c1.261,0.814,2.481,1.709,3.976,2.107c0.673,0.178,1.316,0.477,1.953,0.768c0.125,0.055,0.176,0.312,0.218,0.486
			c0.013,0.059-0.089,0.184-0.165,0.219c-0.452,0.207-0.912,0.396-1.371,0.592c-1.062,0.449-1.127,0.48-1.937-0.605
			c-0.804-1.08-1.808-1.457-3.118-1.451c-3.621,0.027-7.242-0.049-10.862-0.043c-1.507,0.002-3.025,0.016-4.52,0.189
			c-4.694,0.541-9.417,0.84-14.123,0.896c-15.589,0.191-31.179,0.15-46.769,0.193c-0.905,0.002-1.811-0.018-2.715-0.057
			c-0.801-0.035-1.125-0.412-0.976-1.139c0.67-3.26,0.857-6.578,0.897-9.879c0.091-7.639,0.149-15.271-0.249-22.914
			c-0.364-7.023-0.347-14.068-0.814-21.09c-0.127-1.904-0.306-3.803-0.412-5.705c-0.09-1.606-0.127-3.215-0.154-4.822
			c-0.01-0.512,0.297-0.656,0.782-0.49c0.852,0.289,1.569,0.059,2.185-0.59c0.624-0.65,0.732-1.428,0.485-2.24
			c-0.729-2.398-1.514-4.781-2.244-7.184c-0.842-2.766-2.048-5.447-1.825-8.463c0.088-1.17-0.782-1.77-1.776-2.17
			c-0.97-0.391-1.86-0.127-2.456,0.611C9.215,6.122,8.79,6.964,8.529,7.806c-0.356,1.144-0.445,2.369-0.755,3.529
			c-0.568,2.135-1.215,4.246-1.824,6.369c-0.221,0.772-0.524,1.535-0.619,2.322c-0.147,1.225,0.045,2.451,0.956,3.352
			c0.825,0.814,1.829,0.582,2.817,0.188c0.471-0.188,0.703,0.025,0.723,0.547c0.138,3.715,0.302,7.428,0.396,11.144
			c0.222,8.641,0.186,17.287,0.572,25.928c0.311,6.93,0.176,13.877,0.229,20.818c0.004,0.598,0.068,1.252-0.135,1.789
			c-0.8,2.104-1.014,4.281-1.048,6.5c-0.013,0.775-0.341,1.08-1.124,1.094c-1.71,0.033-3.42,0.037-5.129,0.047
			c-1.291,0.004-2.332,0.531-3.168,1.488c-0.795,0.908-0.414,2.394,0.734,2.682c0.671,0.17,1.389,0.197,2.086,0.205
			c1.508,0.021,3.018-0.033,4.525-0.018c1.926,0.018,1.938,0.041,1.947,2.1c0.008,1.609-0.009,3.221-0.001,4.83
			c0.002,0.498-0.001,1.012,0.089,1.5c0.22,1.195,1.107,1.863,2.383,1.855c1.26-0.006,2.135-0.686,2.359-1.891
			c0.091-0.49,0.094-1,0.098-1.502c0.012-1.408-0.002-2.816,0.002-4.225c0.005-2.242,0.008-2.244,2.382-2.242
			c0.804,0,1.609,0.02,2.413,0.021c13.578,0.043,27.158,0.049,40.734,0.145c5.941,0.041,11.859-0.361,17.764-0.852
			c3.311-0.275,6.615-0.398,9.928-0.574c2.312,0,4.625-0.006,6.938,0.002c0.816,0.002,0.89,0.115,0.807,1.08
			c-0.209,2.426,1.224,3.623,3.508,2.752c2.339-0.893,4.605-1.98,6.877-3.041c0.907-0.424,1.765-0.965,2.601-1.523
			c0.58-0.385,1.152-0.828,1.604-1.352C111.204,91.714,110.7,89.489,109.255,89.106z M51.955,59.089
			c-0.002,0.301,0.02,0.604,0.053,0.902c0.222,2.021,1.055,2.879,3.021,3.086c0.399,0.043,0.804,0.016,1.205,0.041
			c1.03,0.064,1.106,0.129,0.624,0.945c-0.373,0.629-0.611,1.258-0.61,1.98c0.005,2.311-0.003,4.623,0.034,6.934
			c0.008,0.49,0.125,0.998,0.297,1.461c0.277,0.746,1.184,1.301,1.896,1.25c0.837-0.061,1.752-0.869,1.874-1.713
			c0.058-0.395,0.033-0.803,0.03-1.203c-0.01-1.91-0.059-3.82-0.027-5.729c0.019-1.125-0.088-2.199-0.566-3.228
			c-0.211-0.459-0.016-0.684,0.518-0.727c1.294-0.109,2.598,0.002,3.866-0.49c0.927-0.359,1.597-0.852,1.751-1.854
			c0.184-1.186,0.43-2.381,0.444-3.572c0.055-4.223,0.021-8.445,0.021-12.666c0.04-0.002,0.08-0.002,0.12-0.002
			c0-4.223,0.002-8.445-0.001-12.668c-0.001-0.602,0.029-1.213-0.051-1.807c-0.256-1.896-1.844-2.977-3.707-2.524
			c-0.482,0.117-0.924,0.391-1.395,0.561c-0.355,0.129-0.826-0.223-0.805-0.615c0.1-1.803,0.219-3.605,0.331-5.41
			c0.062-1.002,0.149-1.998-0.276-2.967c-0.406-0.922-1.139-1.391-2.144-1.295c-0.996,0.096-1.687,0.641-2.1,1.506
			c-0.438,0.914-0.64,1.895-0.646,2.92c-0.009,1.508-0.053,3.016-0.076,4.523c-0.028,1.74-0.266,2.07-1.877,2.508
			c-0.286,0.076-0.598,0.053-0.896,0.082c-0.934,0.09-1.467,0.676-1.647,1.52c-0.164,0.775-0.238,1.584-0.244,2.381
			c-0.025,4.322-0.025,8.645-0.018,12.969c0.002,0.904,0.021,1.812,0.121,2.707C51.45,52.286,51.975,55.663,51.955,59.089z
			 M59.81,35.377c0.012-0.03,0.024-0.06,0.036-0.089c0.023,0.002,0.041-0.005,0.064-0.003c-0.053-0.805,0.38-1.427,0.857-2
			c0.116-0.137,0.568-0.17,0.72-0.057c0.182,0.135,0.332,0.514,0.277,0.731c-0.244,0.938-0.887,1.384-1.854,1.327
			c0.001,0.021-0.005,0.039-0.003,0.06C59.884,35.361,59.848,35.37,59.81,35.377c-0.045,0.111-0.091,0.222-0.135,0.333
			C59.377,35.384,59.637,35.407,59.81,35.377z M58.817,42.39c0.691-0.707,1.379-1.416,2.115-2.07
			c0.105-0.094,0.471,0.108,0.715,0.17c-0.057,0.178-0.057,0.43-0.179,0.525c-0.789,0.607-1.604,1.182-2.421,1.773
			c-0.042-0.029-0.137-0.062-0.176-0.129C58.827,42.583,58.78,42.429,58.817,42.39z M59.094,47.393
			c0.539-0.574,1.154-1.076,1.761-1.584c0.138-0.115,0.483-0.223,0.53-0.168c0.176,0.215,0.279,0.492,0.388,0.758
			c0.034,0.082,0.006,0.193,0.006,0.217c0.067,0.84-0.183,1.414-0.935,1.734c-0.543,0.234-1.05,0.547-1.592,0.781
			c-0.116,0.049-0.368-0.047-0.461-0.154c-0.11-0.135-0.2-0.377-0.156-0.533C58.738,48.079,58.846,47.659,59.094,47.393z
			 M56.553,56.94c1.15-1.803,2.656-3.223,4.443-4.365c0.281-0.178,0.633-0.045,0.656,0.258c0.032,0.398,0.051,0.797,0.096,1.547
			c0.137,0.781-0.383,1.564-1.262,2.199c-0.568,0.41-1.104,0.865-1.641,1.318c-0.491,0.416-1.065,0.508-1.68,0.516
			c-0.566,0.006-1.192-0.297-1.249-0.611C55.821,57.265,56.368,57.229,56.553,56.94z M55.075,33.534
			c0.085-0.133,0.314-0.27,0.447-0.242c0.152,0.031,0.396,0.258,0.381,0.367c-0.071,0.484-0.205,0.963-0.35,1.432
			c-0.052,0.168-0.195,0.309-0.299,0.461c-0.078-0.182-0.188-0.356-0.227-0.545c-0.059-0.295-0.067-0.598-0.094-0.855
			C54.983,33.913,54.975,33.686,55.075,33.534z M29.672,73.55c0.029,2.117,0.908,3.15,3.039,3.371
			c0.199,0.018,0.434-0.002,0.587,0.098c0.231,0.146,0.508,0.354,0.579,0.59c0.111,0.375,0.072,0.795,0.086,1.197
			c0.023,0.703-0.006,1.41,0.064,2.109c0.108,1.064,1.117,1.92,2.047,1.803c0.676-0.086,1.387-0.885,1.483-1.701
			c0.046-0.398,0.05-0.801,0.062-1.203c0.019-0.604,0.009-1.207,0.044-1.809c0.033-0.586,0.386-0.975,0.924-0.994
			c1.005-0.037,2.012-0.033,3.016-0.057c1.015-0.023,1.643-0.584,2.125-1.438c0.472-0.832,0.513-1.713,0.527-2.625
			c0.028-1.705,0.049-3.416,0.135-5.121c0.08-1.602,0.298-3.199,0.348-4.801c0.062-2.012,0.016-4.023,0.016-6.035
			c0-2.615,0.004-5.23-0.003-7.846c-0.001-0.602,0.005-1.209-0.069-1.807c-0.15-1.203-0.756-2.074-1.994-2.354
			c-0.878-0.197-1.768-0.348-2.658-0.484c-1.066-0.162-1.215-0.271-1.229-1.303c-0.039-3.318-0.057-6.637-0.088-9.957
			c-0.006-0.703,0.021-1.412-0.063-2.107c-0.11-0.908-0.962-1.662-1.837-1.732c-0.771-0.062-1.524,0.41-1.791,1.32
			c-0.251,0.858-0.41,1.758-0.462,2.646c-0.101,1.705,0.058,3.44-0.179,5.121c-0.217,1.537-0.291,2.93,0.449,4.375
			c0.545,1.062-0.12,1.549-0.992,1.703c-0.689,0.123-1.364,0.334-2.056,0.441c-0.776,0.121-1.236,0.564-1.58,1.238
			c-0.377,0.734-0.545,1.502-0.56,2.318c-0.034,1.811-0.122,3.621-0.12,5.432c0.012,5.832,0.05,11.666,0.085,17.5
			C29.61,72.143,29.662,72.847,29.672,73.55z M34.455,49.206c0.498-0.043,1-0.062,1.5-0.057c5.252,0.066,4.471-0.846,4.482,4.311
			c0.005,2.707,0.021,5.412-0.068,8.117c-0.104,3.197-0.314,6.395-0.479,9.592c-0.005,0.102-0.009,0.199-0.019,0.299
			c-0.066,0.676-0.463,1.064-1.165,1.127c-0.3,0.025-0.6,0.029-0.901,0.029c-4.529-0.025-3.922,0.703-3.979-3.953
			c-0.019-1.5-0.003-3.004-0.003-4.508c0.046-0.002,0.091-0.004,0.138-0.008c-0.168-3.195-0.346-6.389-0.494-9.584
			c-0.066-1.402-0.088-2.805-0.095-4.207C33.369,49.651,33.754,49.263,34.455,49.206z M75.302,62.622
			c0.112,1.297,0.269,2.594,0.448,3.883c0.213,1.533,1.002,2.312,2.525,2.535c0.395,0.057,0.801,0.033,1.201,0.061
			c1.575,0.115,1.586,0.121,1.59,1.816c0.002,1.305-0.027,2.609-0.027,3.916c0,0.5,0,1.008,0.081,1.5
			c0.175,1.047,1.138,1.869,2.079,1.832c0.949-0.033,1.828-0.865,1.979-1.947c0.083-0.592,0.081-1.199,0.085-1.801
			c0.012-1.406-0.009-2.811,0.009-4.217c0.01-0.752,0.312-1.033,1.112-1.08c0.602-0.033,1.209,0,1.805-0.062
			c1.856-0.197,2.838-1.227,3.002-3.141c0.051-0.6,0.039-1.203,0.041-1.805c0.004-2.713-0.079-5.426,0.029-8.131
			c0.097-2.383-0.766-4.525-1.415-6.721c-0.324-1.096-1.105-1.846-2.396-1.982c-1.077-0.113-2.134-0.432-3.199-0.66
			c-0.64-1.117-0.235-2.332-0.337-3.502c-0.009-0.098-0.002-0.201-0.002-0.301v-2.711c0-0.199,0.041-0.414-0.015-0.6
			c-0.171-0.561-0.274-1.188-0.599-1.65c-0.827-1.18-2.669-0.924-3.154,0.422c-0.198,0.551-0.275,1.168-0.286,1.758
			c-0.036,1.705-0.007,3.412-0.009,5.119c-0.004,1.971-0.373,2.412-2.334,2.762c-0.295,0.053-0.601,0.041-0.899,0.074
			c-0.915,0.098-1.4,0.658-1.676,1.496c-0.351,1.061-0.535,2.143-0.447,3.258C74.754,56.038,75.015,59.331,75.302,62.622z
			 M79.528,51.567c1.699-0.014,3.398-0.012,5.099,0.018c0.847,0.016,1.047,0.197,1.296,0.945c0.379,1.142,0.67,2.291,0.616,3.517
			c-0.048,1.1-0.011,2.199-0.011,3.299h-0.014c0,1.301,0.016,2.6-0.005,3.9c-0.011,0.713-0.366,1.041-1.138,1.051
			c-1.5,0.02-3,0.029-4.499,0.002c-0.99-0.018-1.424-0.449-1.568-1.44c-0.015-0.1-0.026-0.197-0.036-0.297
			c-0.211-2.283-0.436-4.568-0.628-6.855c-0.083-0.994-0.12-1.996-0.143-2.994C78.48,51.948,78.813,51.573,79.528,51.567z"/>
	</g>
</g>
<g>
</g>
<g>
</g>
<g>
</g>
<g>
</g>
<g>
</g>
<g>
</g>
<g>
</g>
<g>
</g>
<g>
</g>
<g>
</g>
<g>
</g>
<g>
</g>
<g>
</g>
<g>
</g>
<g>
</g>
</svg>
