<?xml version="1.0" encoding="iso-8859-1"?>
<!-- Generator: Adobe Illustrator 19.0.0, SVG Export Plug-In . SVG Version: 6.00 Build 0)  -->
<svg version="1.1" id="Capa_1" xmlns="http://www.w3.org/2000/svg" xmlns:xlink="http://www.w3.org/1999/xlink" x="0px" y="0px"
	 viewBox="0 0 102.176 102.176" style="enable-background:new 0 0 102.176 102.176;" xml:space="preserve">
<g id="presentation">
	<g>
		<path style="fill-rule:evenodd;clip-rule:evenodd;" d="M46.707,36.44c2.328,0.67,4.741,0.83,7.146,0.949
			c1.496,0.072,2.429-0.76,2.965-2.111c0.48-1.211-0.072-2.146-0.804-3.016c-0.472-0.561-1.122-0.797-1.858-0.878
			c-1.596-0.175-3.188-0.382-4.777-0.608c-2.184-0.311-4.369-0.641-6.49-1.26c-4.26-1.242-8.728-1.305-13.026-2.322
			c-0.897-0.214-1.554,0.227-2.029,0.965c-1.142,1.773-2.267,3.56-3.435,5.316c-0.184,0.275-0.554,0.428-0.838,0.637
			c-0.156-0.254-0.342-0.495-0.464-0.764c-0.345-0.754-0.489-1.503-0.088-2.314c0.214-0.435,0.321-0.947,0.368-1.434
			c0.077-0.819-0.496-1.627-1.312-1.78c-0.576-0.108-1.216-0.147-1.774-0.007c-1.254,0.314-1.982,1.832-1.228,2.814
			c0.84,1.092,0.838,2.204,0.691,3.407c-0.029,0.238-0.23,0.455-0.353,0.683c-0.215-0.2-0.513-0.362-0.631-0.608
			c-1.257-2.617-2.885-5.047-3.949-7.76c-0.193-0.492-0.765-0.883-1.174-0.738c-1.223,0.432-2.428,0.915-3.639,1.379
			c-2.387,2.301-4.924,4.468-6.34,7.584c-1.305,2.869-2.107,5.839-2.103,9.019c0.011,5.531-0.042,11.062-0.05,16.594
			c-0.002,1.408,0.062,2.816,0.107,4.223c0.034,1.074,0.536,1.916,1.347,2.59c1.336,1.111,3.418,0.646,4.025-0.971
			c0.351-0.931,0.529-1.912,0.434-2.953c-0.168-1.797-0.25-3.604-0.299-5.409c-0.049-1.809,0.001-3.62-0.014-5.431
			c-0.026-3.333,0.523-6.6,1.229-9.836c0.254-1.164,0.779-2.273,1.232-3.387c0.097-0.241,0.381-0.508,0.625-0.564
			c0.415-0.1,0.375,0.324,0.413,0.576c0.379,2.48,0.851,4.952,1.09,7.446c0.327,3.397,0.972,6.767,0.885,10.202
			c-0.038,1.508,0.037,3.018,0.017,4.525c-0.092,6.84,0.24,13.666,0.553,20.494c0.019,0.402,0.012,0.809,0.071,1.205
			c0.768,5.074,1.067,10.184,1.103,15.311c0.003,0.402-0.038,0.817,0.047,1.203c0.107,0.48,0.269,0.969,0.506,1.398
			c0.61,1.107,1.665,1.528,3.103,1.312c1.23-0.187,2.225-1.149,2.344-2.403c0.086-0.897,0.051-1.809,0.047-2.712
			c-0.025-6.538-0.06-13.074-0.084-19.61c-0.004-0.804,0-1.611,0.08-2.408c0.025-0.246,0.271-0.585,0.497-0.672
			c0.646-0.25,1.325-0.441,2.008-0.562c0.682-0.121,1.141,0.3,1.146,1.025c0.018,2.816,0.002,5.633,0.014,8.448
			c0.006,1.106-0.146,2.26,0.111,3.308c0.562,2.285,0.383,4.592,0.519,6.891c0.1,1.697,0.359,3.393,0.665,5.068
			c0.122,0.666,0.483,1.324,0.87,1.896c0.664,0.979,2.078,1.346,3.254,0.957c1.011-0.336,1.806-1.385,1.833-2.524
			c0.015-0.599,0.026-1.233-0.149-1.792c-0.526-1.67-0.439-3.377-0.487-5.083c-0.046-1.604-0.149-3.207-0.267-4.808
			c-0.08-1.096-0.326-2.186-0.331-3.279c-0.032-6.534-0.017-13.068-0.017-19.604h-0.014c0-6.736,0.017-13.474-0.012-20.211
			c-0.006-1.43,0.078-2.855,0.728-4.115c0.608-1.18,1.003-2.398,1.327-3.664c0.123-0.484,0.297-0.959,0.491-1.42
			c0.221-0.525,0.9-0.943,1.476-0.834c1.084,0.203,2.15,0.494,3.229,0.719c1.469,0.309,2.935,0.759,4.418,0.844
			C43.409,35.673,45.058,35.968,46.707,36.44z M100.182,18.12c-0.275-2.689-0.087-5.424-0.152-8.138
			c-0.041-1.712-0.861-2.718-2.549-2.718c-1.211,0-2.066-0.652-3.089-0.996c-1.167-0.395-2.349,0.73-3.54,0.035
			c-3.68-0.523-7.355-1.037-11.096-0.877c-2.009,0.086-4.023,0.015-6.036,0.015c-0.002-0.03-0.003-0.062-0.005-0.093
			c-3.414,0.164-6.828,0.328-10.241,0.492c-0.436,0.021-0.792-0.27-0.796-0.691c-0.008-0.903,0.051-1.811-0.009-2.71
			c-0.086-1.29-1.172-2.413-2.411-2.127c-1.375,0.317-2.572-0.05-3.843-0.271c-0.388-0.067-0.805-0.045-1.2,0.006
			c-0.754,0.095-1.404,0.465-1.52,1.244c-0.219,1.478-1.012,2.844-0.771,4.417c0.088,0.579-0.307,0.888-0.943,0.903
			c-1.709,0.043-3.421,0.093-5.13,0.074c-3.226-0.035-6.427,0.255-9.611,0.717c-0.568,0.084-1.163,0.332-1.637,0.66
			c-1.024,0.711-0.927,2.201,0.177,2.735c0.618,0.3,1.316,0.53,1.998,0.589c1.299,0.113,2.611,0.104,3.92,0.104
			c5.432,0.005,10.865,0.038,16.298-0.024c3.919-0.045,7.834-0.113,11.755-0.336c4.916-0.279,9.856-0.119,14.786-0.132
			c0.499-0.001,1.001,0.091,1.495,0.173c1.701,0.283,3.373,0.381,5.066-0.162c0.744-0.239,1.586-0.205,2.385-0.236
			c0.584-0.022,0.912,0.356,0.916,0.945c0.006,0.594-0.088,1.205,0.018,1.781c0.316,1.705,0.301,3.423,0.057,5.111
			c-0.449,3.103-0.336,6.221-0.419,9.334c-0.049,1.836,0.194,3.629,0.77,5.344c0.329,0.98,0.515,1.924,0.475,2.94
			c-0.246,6.529-0.488,13.06-0.732,19.59c-0.004,0.1-0.018,0.201-0.039,0.299c-0.097,0.438-0.363,0.715-0.817,0.701
			c-2.717-0.078-5.416-0.058-8.104,0.521c-1.062,0.229-2.205,0.112-3.311,0.117c-1.812,0.01-3.623-0.031-5.435-0.014
			c-2.213,0.021-4.447-0.1-6.634,0.164c-3.81,0.461-7.625,0.442-11.443,0.553c-5.024,0.146-10.047,0.369-15.069,0.541
			c-0.931,0.033-1.822,0.223-2.556,0.77c-0.361,0.268-0.653,0.771-0.748,1.218c-0.138,0.642,0.25,1.163,0.814,1.479
			c0.808,0.455,1.689,0.586,2.614,0.604c2.011,0.04,4.021,0.159,6.032,0.2c0.904,0.02,1.553,0.293,1.815,1.23
			c0.356,1.275,1.169,2.029,2.496,2.325c0.743,0.166,0.989,0.661,0.962,1.312c-0.109,2.611-0.269,5.221-0.302,7.832
			c-0.014,1.121-0.423,1.872-1.286,2.543c-2.46,1.913-4.89,3.867-7.303,5.84c-1.479,1.209-2.945,2.439-4.348,3.734
			c-1.346,1.242-1.439,2.834-0.861,4.455c0.623,1.744,2.637,2.458,4.215,1.467c0.928-0.58,1.746-1.348,2.566-2.084
			c2.845-2.551,5.661-5.133,8.504-7.687c0.861-0.774,1.406-0.761,2.406-0.069c2.477,1.719,4.975,3.408,7.43,5.16
			c1.879,1.342,3.705,2.757,5.552,4.145c0.562,0.424,1.083,0.909,1.671,1.291c1.105,0.721,2.313,0.707,3.447,0.142
			c1.208-0.603,1.633-1.704,1.553-3.025c-0.043-0.729-0.233-1.399-0.77-1.911c-0.727-0.692-1.434-1.426-2.241-2.014
			c-2.356-1.711-4.763-3.352-7.136-5.042c-0.227-0.163-0.354-0.467-0.528-0.706c0.254-0.08,0.515-0.248,0.762-0.228
			c1.699,0.142,3.395,0.354,5.097,0.479c1.004,0.072,2.002,0.084,2.955,0.491c0.361,0.154,0.778,0.198,1.176,0.241
			c1.352,0.139,2.502-0.506,2.943-1.622c0.505-1.282,0.133-2.708-1.02-3.473c-0.66-0.438-1.395-0.842-2.152-1.036
			c-1.16-0.299-2.367-0.525-3.562-0.564c-3.617-0.118-7.204-0.742-10.837-0.586c-0.909,0.039-1.316-0.326-1.436-1.185
			c-0.262-1.888-0.512-3.778-0.719-5.674c-0.156-1.435,0.523-2.435,2.069-2.769c1.233-0.266,1.991-0.828,2.244-2.082
			c0.134-0.659,0.595-1.002,1.29-1.041c2.808-0.156,5.615-0.4,8.426-0.475c5.32-0.144,10.664,0.23,15.941-0.778
			c0.881-0.169,1.779-0.28,2.641-0.524c1.539-0.436,3.063-0.928,4.578-1.442c0.812-0.276,1.333-0.789,1.336-1.768
			c0.005-1.709,0.018-3.427,0.186-5.125c0.462-4.701,0.912-9.409,0.942-14.127C100.621,31.79,100.881,24.951,100.182,18.12z
			 M57.875,5.855c-0.072,0.147-0.566,0.213-0.797,0.127c-0.517-0.192-0.701-0.965-0.468-1.811c0.042-0.152,0.269-0.25,0.411-0.375
			c0.178,0.066,0.418,0.08,0.523,0.205C58.003,4.547,58.197,5.194,57.875,5.855z M49.404,43.511
			c-0.518,0.279-1.013,0.652-1.414,1.079c-0.71,0.757-0.277,2.21,0.746,2.427c0.668,0.141,1.412,0.164,2.078,0.024
			c0.975-0.204,1.916-0.587,2.861-0.921c2.955-1.047,5.66-2.594,8.287-4.27c0.866-0.552,1.486-0.773,2.375-0.018
			c0.986,0.838,2.109,1.51,3.414,1.856c2.083,0.553,3.1,0.129,4.205-1.785c0.954-1.65,1.969-3.267,2.996-4.873
			c0.52-0.812,1.231-1.046,2.08-0.691c0.738,0.309,1.418,0.751,2.148,1.082c0.818,0.369,1.639,0.791,2.504,0.992
			c1.864,0.433,3.396-0.529,3.929-2.34c0.085-0.287,0.142-0.585,0.206-0.879c0.68-3.139,1.438-6.256,2.567-9.271
			c0.173-0.463,0.218-0.974,0.27-1.219c0.015-1.777-1.093-2.906-2.635-2.965c-1.389-0.051-2.348,0.629-2.801,1.864
			c-0.689,1.88-1.249,3.81-1.854,5.72c-0.211,0.668-0.367,1.354-0.6,2.014c-0.092,0.262-0.266,0.534-0.672,0.385
			c-0.565-0.209-1.146-0.377-1.719-0.565c-1.62-0.529-3.166-0.336-4.662,0.451c-1.453,0.762-2.676,1.748-3.512,3.203
			c-0.549,0.955-1.182,1.871-1.859,2.74c-0.197,0.254-0.71,0.445-1.021,0.383c-0.471-0.094-0.895-0.43-1.33-0.676
			c-0.438-0.248-0.841-0.57-1.301-0.754c-1.334-0.531-2.566-0.209-3.701,0.582c-2.56,1.787-5.28,3.303-8.076,4.684
			C51.744,42.349,50.553,42.892,49.404,43.511z M12.473,15.867c1.188,0.428,1.537,1.454,1.884,2.524
			c0.592,1.836,1.534,3.464,2.87,4.885c1.104,1.176,2.482,1.635,4.183,1.883c1.146-0.077,2.472-0.289,3.253-1.492
			c0.646-0.996,1.146-2.104,1.595-3.209c0.298-0.734,0.483-1.545,0.548-2.334c0.095-1.186,0.44-2.148,1.58-2.691
			c0.178-0.084,0.342-0.215,0.488-0.348c1.107-1.012,1.338-2.483,0.678-3.84c-0.339-0.697-0.953-1.003-1.575-1.322
			c-0.599-0.307-0.882-0.783-0.874-1.447c0.019-1.42-0.187-2.797-0.748-4.113c-0.579-1.361-1.524-2.555-2.893-2.887
			c-2.9-0.705-5.573-0.609-7.564,2.658c-0.783,1.287-1.512,2.615-1.814,4.109c-0.227,1.126-0.766,1.877-1.719,2.613
			c-2.133,1.648-1.658,3.16-0.128,4.829C12.303,15.758,12.383,15.835,12.473,15.867z M21.275,7.722
			c0.361-0.705,0.671-1.44,0.993-2.165c0.228-0.513,0.403-0.136,0.556,0.038c0.819,0.942,1.234,2.03,1.201,3.292
			c-0.025,0.997-0.005,1.997-0.005,2.31c0.141,3.096,0.048,5.487-0.966,7.73c-0.188,0.418-0.586,0.756-0.936,1.077
			c-0.099,0.091-0.404,0.05-0.556-0.036c-0.129-0.072-0.278-0.341-0.234-0.447c0.343-0.828,0.714-1.646,1.108-2.451
			c0.309-0.632,0.214-1.186-0.322-1.598c-0.562-0.434-0.737-0.953-0.446-1.561c0.447-0.933,0.17-1.65-0.342-2.492
			C20.626,10.261,20.633,8.974,21.275,7.722z"/>
	</g>
</g>
<g>
</g>
<g>
</g>
<g>
</g>
<g>
</g>
<g>
</g>
<g>
</g>
<g>
</g>
<g>
</g>
<g>
</g>
<g>
</g>
<g>
</g>
<g>
</g>
<g>
</g>
<g>
</g>
<g>
</g>
</svg>
