<?xml version="1.0" encoding="iso-8859-1"?>
<!-- Generator: Adobe Illustrator 19.0.0, SVG Export Plug-In . SVG Version: 6.00 Build 0)  -->
<svg version="1.1" id="Capa_1" xmlns="http://www.w3.org/2000/svg" xmlns:xlink="http://www.w3.org/1999/xlink" x="0px" y="0px"
	 viewBox="0 0 94.745 94.745" style="enable-background:new 0 0 94.745 94.745;" xml:space="preserve">
<g id="_x0A_chart01">
	<g>
		<path style="fill-rule:evenodd;clip-rule:evenodd;" d="M94.352,56.061c-0.418-0.721-1.014-1.246-1.795-1.531
			c-0.279-0.102-0.596-0.092-0.889-0.158c-1.307-0.305-1.357-0.392-1.166-1.855c0.062-0.498,0.156-0.996,0.176-1.496
			c0.178-4.723,0.416-9.443,0.486-14.168c0.057-4.115,0.029-8.232-0.225-12.357c-0.27-4.311-0.236-8.637-0.783-12.934
			c-0.176-1.394-0.303-2.793-0.471-4.188c-0.1-0.824-0.053-1.041,0.902-1.174c1.783-0.242,2.595-1.369,3.008-2.941
			c0.176-0.67-0.219-1.66-0.783-1.797c-2.037-0.492-4.008-1.352-6.156-1.26c-2.193,0.096-4.357,0.057-6.561-0.139
			c-2.475-0.215-5.008,0.18-7.51,0.354c-1.102,0.076-2.196,0.408-3.287,0.379c-2.332-0.07-4.592,0.463-6.887,0.668
			c-1.598,0.141-3.195,0.363-4.795,0.383c-4.627,0.055-9.254,0.029-13.879,0.02c-0.805,0-1.609-0.049-2.41-0.115
			c-1.602-0.133-3.199-0.32-4.801-0.432c-1.799-0.125-3.6-0.029-5.393-0.461c-0.947-0.229-2.031-0.174-2.996,0.027
			c-1.691,0.352-3.395,0.326-5.098,0.436c-4.41,0.281-8.824,0.475-13.217,0.998c-0.783,0.096-1.596-0.065-2.396-0.1
			C6.024,2.15,4.62,2.068,3.216,2.031c-0.95-0.025-1.77,0.34-2.438,1.014c-1.07,1.084-0.811,2.965,0.559,3.564
			c0.722,0.315,1.535,0.469,2.324,0.568c0.793,0.1,1.605,0.043,2.41,0.043c1.344,0.006,1.465,0.516,1.455,1.393
			C7.452,15.35,7.45,22.084,7.95,28.812c0.154,2.105,0.111,4.225,0.275,6.332c0.297,3.801,0.712,7.594,1.016,11.396
			c0.203,2.502,0.295,5.012,0.435,7.52c0.031,0.527-0.316,0.9-0.928,0.943c-0.602,0.043-1.207,0.067-1.811,0.064
			c-0.971-0.006-1.731,0.508-2.451,1.035c-0.768,0.561-1.072,2.094-0.656,3.061c0.4,0.93,1.146,1.353,2.164,1.299
			c0.603-0.033,1.209-0.039,1.811-0.062c5.527-0.203,11.053-0.41,16.58-0.611c1.005-0.037,2.014-0.031,3.018-0.084
			c3.211-0.164,6.422-0.344,9.631-0.519c0.004,0.035,0.006,0.07,0.01,0.105c2.312,0,4.627-0.014,6.941,0.006
			c1.332,0.01,1.379,0.047,1.623,1.25c0.178,0.885,0.373,1.779,0.402,2.676c0.082,2.514,0.057,5.029,0.119,7.543
			c0.023,0.998-0.391,1.68-1.123,2.328c-3.762,3.338-7.408,6.809-11.246,10.051c-2.771,2.336-5.008,5.209-7.855,7.453
			c-1.133,0.895-0.803,1.98-0.004,2.889c0.326,0.369,0.777,0.639,1.203,0.898c0.939,0.574,1.689,0.473,2.389-0.383
			c2.621-3.199,5.672-5.984,8.629-8.857c2.098-2.037,4.459-3.754,7.025-5.17c0.357-0.201,0.824,0.078,0.832,0.508
			c0.031,1.609,0.051,3.219,0.057,4.828c0.006,0.828,0.193,1.586,0.641,2.289c0.553,0.869,1.918,0.977,2.594,0.174
			c0.672-0.801,1.008-1.723,1.012-2.771c0.006-1.408,0.012-2.816,0.039-4.225c0.01-0.393,0.062-0.795,0.164-1.174
			c0.031-0.117,0.285-0.248,0.439-0.246c0.182,0,0.384,0.104,0.541,0.215c4.408,3.17,8.828,6.326,13.211,9.529
			c1.873,1.373,3.852,2.549,5.922,3.588c0.965,0.48,1.383,0.352,1.973-0.578c0.918-1.451,0.928-1.887-0.117-3.244
			c-0.42-0.549-0.906-1.084-1.465-1.484c-2.945-2.104-5.912-4.18-8.893-6.229c-1.574-1.08-3.203-2.08-4.791-3.137
			c-0.086-0.057-0.076-0.293-0.061-0.443c0.006-0.047,0.172-0.107,0.264-0.109c0.3-0.006,0.608-0.016,0.902,0.029
			c3.67,0.557,7.336,1.131,11.004,1.682c0.494,0.072,1.006,0.086,1.504,0.049c0.764-0.057,1.311-0.479,1.605-1.186
			c0.24-0.578-0.037-1.391-0.656-1.865c-0.312-0.236-0.668-0.459-1.037-0.57c-0.77-0.229-1.551-0.467-2.344-0.549
			c-5.488-0.57-10.898-1.812-16.453-1.77c-0.516,0.004-0.891-0.418-0.938-0.969c-0.008-0.102-0.02-0.199-0.02-0.301
			c-0.033-3.725-0.07-7.447-0.086-11.17c-0.006-1.203,0.316-1.49,1.365-1.418c2.504,0.176,5.01,0.365,7.518,0.484
			c3.414,0.16,6.832,0.271,10.248,0.381c2.412,0.076,4.826,0.125,7.24,0.166c0.602,0.01,1.23,0.049,1.799-0.098
			c2.781-0.713,5.615-0.586,8.389-0.264c2.117,0.244,3.973-0.348,5.861-0.961C94.532,58.775,94.958,57.104,94.352,56.061z
			 M87.022,36.729v12.064c0,0.201,0.008,0.402-0.002,0.602c-0.277,4.797,0.246,4.234-4.527,5.234
			c-2.525,0.527-4.955,0.442-7.451,0.059c-1.086-0.168-2.207-0.125-3.312-0.135c-3.117-0.023-6.234-0.074-9.35-0.025
			c-4.832,0.078-9.637-0.367-14.443-0.711c-1.324-0.096-2.596,0.139-3.896,0.098c-6.336-0.193-12.652,0.365-18.981,0.51
			c-3.314,0.076-6.626,0.223-9.941,0.332c-0.486,0.018-0.918-0.408-0.945-0.963c-0.032-0.701-0.033-1.404-0.037-2.109
			c-0.057-11.461-0.102-22.922-0.186-34.383c-0.014-2.006-0.209-4.008-0.305-6.012c-0.045-0.904-0.076-1.81-0.078-2.715
			c-0.002-0.969,0.131-1.129,1.238-1.311c1.088-0.176,2.184-0.326,3.283-0.389c1.504-0.088,3.014-0.098,4.521-0.111
			c5.83-0.057,11.666,0.043,17.488-0.199c3.514-0.146,6.99-0.172,10.488,0.148c2.097,0.189,4.221,0.064,6.332,0.059
			c0.703-0.002,1.439,0.057,2.101-0.129c2.174-0.605,4.383-0.461,6.588-0.478c5.832-0.051,11.662-0.096,17.49-0.143
			c0.504-0.002,1.008-0.025,1.508,0c0.584,0.031,0.873,0.43,1.018,0.943c0.08,0.287,0.139,0.588,0.162,0.885
			c0.402,4.9,0.805,9.801,1.189,14.703c0.063,0.801,0.047,1.609,0.047,2.414C87.024,28.889,87.022,32.809,87.022,36.729z
			 M73.292,17.9c-1.303-1.906-2.564-3.818-3.373-6.004c-0.324-0.883-1.137-1.125-1.973-0.713c-0.357,0.178-0.715,0.365-1.047,0.588
			c-2.678,1.807-4.922,4.094-7.062,6.484c-0.543,0.604-0.906,1.309-0.977,2.152c-0.135,1.598,0.42,2.34,2.068,2.699
			c0.197,0.041,0.398,0.049,0.596,0.076c0.59,0.084,0.879,0.471,0.883,1.025c0.016,2.305,0.006,4.611,0.006,6.918H62.38
			c0,0.703-0.03,1.406,0.008,2.105c0.164,3.102,0.354,6.199,0.529,9.297c0.043,0.746,0.308,1.414,0.961,1.775
			c1.746,0.965,3.482,1.846,5.621,1.74c3.088-0.152,3.906-0.877,3.74-4.035c-0.092-1.697-0.451-3.383-0.494-5.078
			c-0.109-4.412-0.467-8.799-1.113-13.162c-0.07-0.484,0.269-0.734,0.701-0.781c0.392-0.043,0.805,0.047,1.195-0.004
			c1.146-0.156,1.777-1.154,1.32-2.182C74.399,19.803,73.909,18.801,73.292,17.9z M66.169,24.154
			c-0.094-0.803,1.072-1.719,1.822-1.455c0.143,0.051,0.213,0.314,0.316,0.48c0.109,0.975-0.67,1.768-1.643,1.596
			C66.464,24.74,66.196,24.387,66.169,24.154z M68.046,32.381c-0.107,0.082-0.205,0.207-0.326,0.24
			c-0.132,0.037-0.274,0.037-0.416,0.037c-0.017,0.028-0.033,0.058-0.051,0.084c-0.069,0.035-0.139,0.064-0.201,0.108
			c-0.037,0.027-0.064,0.072-0.094,0.109l0.211-0.299c0.044-0.002,0.09-0.001,0.135-0.002c0.077-0.129,0.146-0.271,0.258-0.324
			C67.686,32.271,67.882,32.357,68.046,32.381z M66.784,38.195c-0.164-0.49-0.012-0.951,0.451-1.26
			c0.16-0.106,0.322-0.215,0.492-0.309c0.372-0.199,0.717,0.061,0.717,0.121c0,0.619,0.082,0.883-0.014,0.99
			c-0.309,0.34-0.66,0.662-1.051,0.896C67.29,38.687,66.85,38.396,66.784,38.195z M68.555,41.682
			c-0.16-0.023-0.314-0.096-0.486-0.152c0.115-0.084,0.229-0.227,0.33-0.221c0.123,0.01,0.238,0.141,0.357,0.221
			C68.69,41.586,68.614,41.689,68.555,41.682z M38.169,17.463c-0.061-1.275-0.801-2.053-2.078-2.121
			c-2.32-0.127-4.623,0.108-6.85,0.74c-3.576,1.018-4.287,2.018-4.387,5.799c-0.006,0.199-0.006,0.4-0.01,0.6
			c-0.123,6.029,0.35,12.035,0.795,18.035c0.111,1.496,0.381,2.986,1.137,4.33c0.369,0.654,0.887,1.043,1.639,1.184
			c2.582,0.488,5.189,0.49,7.797,0.387c0.488-0.018,0.984-0.191,1.453-0.354c0.842-0.297,1.281-0.934,1.283-1.836
			c0.008-3.107,0.002-6.217,0.002-9.553C38.698,29.086,38.44,23.275,38.169,17.463z M34.69,21.9c-0.02,0.9-0.004,1.803-0.004,2.664
			c-0.227,3.943-0.473,7.84-0.664,11.738c-0.084,1.701-0.041,3.408-0.094,5.111c-0.014,0.428-0.299,0.734-0.764,0.764
			c-0.498,0.033-1,0.053-1.502,0.043c-1.465-0.029-2.166-0.959-1.764-2.367c0.078-0.279,0.26-0.541,0.441-0.775
			c0.508-0.656,0.49-1.27-0.066-1.883c-0.197-0.221-0.465-0.463-0.502-0.725c-0.053-0.363-0.039-0.836,0.158-1.115
			c0.338-0.479,0.867-0.818,1.26-1.266c0.498-0.565,0.305-1.41-0.395-1.77c-0.26-0.133-0.566-0.195-0.859-0.246
			c-0.463-0.082-0.76-0.385-0.701-0.803c0.049-0.346,0.277-0.74,0.549-0.967c0.613-0.508,1.35-0.875,1.938-1.408
			c0.238-0.215,0.369-0.76,0.274-1.066c-0.102-0.316-0.508-0.67-0.84-0.744c-0.453-0.098-0.967,0.023-1.445,0.104
			c-0.461,0.078-0.844-0.059-0.93-0.49c-0.07-0.359,0.006-0.795,0.158-1.133c0.107-0.238,0.432-0.408,0.695-0.545
			c0.527-0.277,1.096-0.484,1.617-0.771c0.469-0.262,0.703-0.885,0.547-1.268c-0.282-0.688-1.02-1.094-1.686-0.873
			c-0.377,0.123-0.717,0.353-1.08,0.523c-0.07,0.033-0.186,0.039-0.254,0.002c-0.084-0.043-0.168-0.131-0.197-0.219
			c-0.856-2.465-0.635-2.844,1.898-3.293c0.297-0.053,0.59-0.154,0.887-0.17C35.245,18.74,34.76,18.619,34.69,21.9z M55.815,38.293
			c-0.059-2.916-0.113-5.832-0.188-8.748c-0.012-0.498-0.043-1.008-0.164-1.49c-0.34-1.396-1.16-2.021-2.629-1.926
			c-2.203,0.143-4.404,0.33-6.602,0.549c-1.607,0.158-2.305,0.859-2.555,2.455c-0.408,2.588-0.658,5.182-0.43,7.807
			c0,1.607-0.096,3.223,0.031,4.822c0.104,1.271,0.713,2.289,2.182,2.5c0.986,0.143,1.955,0.447,2.941,0.545
			c1.795,0.174,3.598,0.264,5.398,0.361c1.572,0.086,2.787-1.184,2.393-2.693C55.827,41.078,55.846,39.695,55.815,38.293z
			 M52.04,39.945c-0.027,0.553-0.354,0.963-0.914,1.017c-0.99,0.09-1.99,0.115-2.986,0.135c-0.166,0.004-0.457-0.146-0.482-0.27
			c-0.141-0.664-0.27-1.34-0.297-2.018c-0.016-0.436,0.369-0.646,0.754-0.811c0.271-0.119,0.533-0.283,0.754-0.479
			c0.445-0.395,0.369-1.273-0.148-1.559c-0.342-0.185-0.748-0.244-1.106-0.404c-0.394-0.172-0.449-0.688-0.104-0.965
			c0.387-0.311,0.83-0.557,1.195-0.887c0.461-0.42,0.365-1.24-0.172-1.549c-0.342-0.195-0.736-0.297-1.09-0.479
			c-0.248-0.129-0.547-0.273-0.672-0.496c-0.131-0.234-0.172-0.6-0.088-0.854c0.075-0.226,0.356-0.518,0.571-0.539
			c0.693-0.068,1.398-0.025,2.098-0.025v0.047c0.797,0,1.605-0.072,2.389,0.037c0.273,0.041,0.697,0.535,0.689,0.812
			C52.344,33.758,52.192,36.852,52.04,39.945z"/>
	</g>
</g>
<g>
</g>
<g>
</g>
<g>
</g>
<g>
</g>
<g>
</g>
<g>
</g>
<g>
</g>
<g>
</g>
<g>
</g>
<g>
</g>
<g>
</g>
<g>
</g>
<g>
</g>
<g>
</g>
<g>
</g>
</svg>
