<?xml version="1.0" encoding="iso-8859-1"?>
<!-- Generator: Adobe Illustrator 19.0.0, SVG Export Plug-In . SVG Version: 6.00 Build 0)  -->
<svg version="1.1" id="Capa_1" xmlns="http://www.w3.org/2000/svg" xmlns:xlink="http://www.w3.org/1999/xlink" x="0px" y="0px"
	 viewBox="0 0 104.142 104.142" style="enable-background:new 0 0 104.142 104.142;" xml:space="preserve">
<g id="_x0A_pie-chart">
	<g>
		<path style="fill-rule:evenodd;clip-rule:evenodd;" d="M93.053,67.915c-1.127-0.65-2.261-1.284-3.399-1.911
			c-0.526-0.29-1.052-0.594-1.608-0.812c-2.523-0.986-5.041-1.999-7.598-2.895c-1.697-0.594-3.387-1.21-5.205-1.466
			c-2.479-0.349-4.939-0.857-7.383-1.409c-4.892-1.105-9.766-2.281-14.645-3.441c-0.802-0.189-1.098-0.617-1.033-1.571
			c0.168-2.504,0.363-5.007,0.576-7.507c0.103-1.199,0.264-2.392,0.41-3.586c0.232-1.893,0.561-3.778,0.697-5.678
			c0.314-4.408,0.539-8.822,0.803-13.234c0.023-0.4,0.039-0.805,0.107-1.199c0.328-1.902,0.266-3.808,0.045-5.708
			c-0.163-1.406-0.304-2.792,0.186-4.171c0.13-0.366,0.127-0.789,0.133-1.188c0.029-1.895-0.415-3.805,0.215-5.686
			c0.039-0.117-0.332-0.477-0.568-0.555c-0.36-0.119-0.77-0.089-1.159-0.123c-0.483-0.043-1.106,0.089-1.425-0.163
			c-1.057-0.841-2.262-0.75-3.455-0.771c-4.059-0.074-8.014,0.666-11.831,1.938c-3.9,1.3-7.704,2.852-11.213,5.095
			c-2.297,1.469-4.441,3.109-6.551,4.813C12.856,21.773,8.109,28.048,4.744,35.389c-0.507,1.104-0.879,2.228-0.91,3.47
			c-0.014,0.572-0.123,1.264-0.458,1.689c-1.172,1.492-1.462,3.299-1.878,5.032c-0.701,2.916-0.475,5.993-1.403,8.886
			c-0.089,0.275-0.011,0.601-0.032,0.9c-0.261,3.643,0.344,7.225,0.879,10.793c0.234,1.557,0.94,3.059,1.545,4.54
			c0.528,1.295,1.22,2.524,1.831,3.786c0.919,1.898,1.722,3.864,2.768,5.689c2.051,3.577,4.242,7.069,7.653,9.578
			c0.397,0.293,0.71,0.7,1.062,1.054c0.417,0.417,0.791,0.89,1.258,1.239c3.981,2.984,8.357,5.145,13.184,6.422
			c4.497,1.189,9.062,1.725,14.252,1.705c3.193,0.135,6.863-0.428,10.5-1.205c8.227-1.757,15.922-4.82,22.887-9.587
			c5.135-3.515,9.31-7.952,12.45-13.336c1.319-2.261,2.435-4.617,3.155-7.146C93.623,68.421,93.417,68.124,93.053,67.915z
			 M38.864,14.089c0.772-0.2,1.545-0.423,2.331-0.549c2.166-0.351,4.34-0.656,5.581-0.841c2.936-0.023,3.175,0.152,2.894,1.953
			c-0.63,4.057-1.001,8.135-1.198,12.232c-0.01,0.186-0.137,0.366-0.209,0.55c-0.176-0.069-0.396-0.094-0.519-0.217
			c-0.495-0.495-1.011-0.98-1.425-1.539c-2.621-3.539-5.22-7.095-7.822-10.648C38.281,14.733,38.485,14.188,38.864,14.089z
			 M9.385,35.485c1.037-1.597,2.072-3.195,3.129-4.778c0.247-0.369,0.746-0.316,0.934,0.106c0.426,0.956,1.307,1.737,1.175,2.909
			c0.025,0.003,0.049,0.001,0.075,0.005c0.042,0.039,0.083,0.078,0.125,0.117c0.171,0.052,0.278,0.172,0.351,0.329
			c0.055,0.051,0.11,0.103,0.165,0.154c-0.014,0.035-0.029,0.069-0.043,0.104c0.213,0.173,0.471,0.316,0.616,0.536
			c3.695,5.64,7.73,11.029,12.009,16.237c1.595,1.941,3.255,3.829,4.889,5.739c0.792,0.927,1.694,1.706,2.898,2.051
			c0.072,0.021,0.188-0.042,0.256-0.099c0.066-0.053,0.155-0.178,0.135-0.219c-0.506-0.975-0.876-2.066-1.562-2.894
			c-6.998-8.444-13.34-17.387-19.914-26.151c-0.602-0.803-0.578-1.042-0.002-1.87c2.353-3.383,5.487-5.87,9.16-7.618
			c3.623-1.726,7.35-3.24,11.047-4.809c1.154-0.489,1.414-0.348,2.174,0.851c1.453,2.292,2.857,4.614,4.352,6.88
			c0.828,1.257,1.799,2.419,2.694,3.631c0.967,1.309,2.073,2.474,3.528,3.232c0.76,0.396,0.943,1.016,0.854,1.751
			c-0.214,1.793-0.479,3.58-0.719,5.37c-0.359,2.685-0.655,5.38-1.089,8.053c-0.5,3.091-0.535,6.203-0.608,9.315
			c-0.026,1.103-0.028,2.218,0.114,3.308c0.131,0.995-0.094,1.734-0.84,2.414c-3.195,2.914-6.359,5.86-9.537,8.794
			c-0.146,0.136-0.307,0.26-0.463,0.385c-0.829,0.667-1.115,0.654-1.722-0.108c-0.815-1.021-1.591-2.074-2.433-3.074
			c-5.635-6.703-10.806-13.752-15.717-20.996c-0.282-0.416-0.588-0.816-0.861-1.238c-0.536-0.827-0.534-1.218,0.029-1.885
			c0.324-0.383,0.678-0.741,1.029-1.101c0.812-0.829,0.988-1.239,0.635-1.415c-0.671-0.337-1.152,0.149-1.66,0.392
			c-0.443,0.21-0.809,0.586-1.205,0.893c-0.367,0.287-0.754,0.285-1.07-0.03c-0.28-0.278-0.51-0.632-0.232-1.054
			c0.333-0.503,0.619-1.055,1.032-1.482c1.05-1.088,1.632-2.426,2.183-3.789c-0.01-0.009-0.022-0.016-0.033-0.025
			c-0.026-0.081-0.055-0.16-0.089-0.233c-0.117-0.11-0.233-0.22-0.351-0.329c-0.061-0.019-0.124-0.035-0.205-0.032
			c0.005-0.031,0.001-0.059,0.005-0.09c-0.804-0.094-1.538,0.015-2.126,0.668c-0.672,0.746-1.348,1.49-2.072,2.182
			c-0.139,0.132-0.598,0.111-0.766-0.02c-0.197-0.154-0.248-0.504-0.336-0.777C9.295,35.692,9.334,35.564,9.385,35.485z
			 M14.12,49.468c-0.054,0.187-0.058,0.414-0.169,0.554c-1.066,1.327-2.146,2.644-3.247,3.942c-0.075,0.09-0.436,0.087-0.518-0.004
			c-0.397-0.444-0.786-0.908-1.089-1.418c-0.122-0.205-0.108-0.597,0.009-0.817c0.847-1.594,1.729-3.169,2.614-4.743
			c0.234-0.417,0.734-0.473,0.969-0.117c0.441,0.667,0.874,1.342,1.285,2.029C14.072,49.056,14.074,49.274,14.12,49.468z
			 M7.37,40.46c0.013-0.028,0.026-0.056,0.039-0.083c0.027-0.005,0.045-0.019,0.07-0.025c-0.002-0.345-0.017-0.692,0.02-1.032
			c0.011-0.098,0.218-0.174,0.334-0.26c0.081,0.168,0.237,0.341,0.228,0.504c-0.02,0.376-0.184,0.686-0.582,0.788
			c0,0.033,0.001,0.066,0.001,0.1C7.446,40.456,7.408,40.458,7.37,40.46c-0.057,0.121-0.114,0.242-0.171,0.363
			C6.961,40.478,7.168,40.471,7.37,40.46z M6.084,48.195c1.189-1.703,2.389-3.4,3.607-5.083c0.162-0.225,0.474-0.373,0.74-0.09
			c0.13,0.137,0.195,0.335,0.29,0.506c-0.042,0.181-0.039,0.391-0.132,0.537c-1.066,1.67-2.141,3.334-3.223,4.994
			c-0.243,0.371-0.715,0.445-1.014,0.151C6.076,48.937,5.793,48.61,6.084,48.195z M4.701,52.134c0.061,0.027,0.178,0.066,0.176,0.08
			c-0.049,0.225-0.112,0.446-0.174,0.668c-0.053-0.078-0.158-0.163-0.15-0.233C4.574,52.474,4.648,52.306,4.701,52.134z
			 M5.92,61.991c-0.094,0.162-0.283,0.27-0.449,0.42c-0.128-0.074-0.335-0.12-0.387-0.236c-0.559-1.246-0.609-2.449,0.207-3.649
			c0.615-0.902,1.1-1.893,1.664-2.829c0.199-0.33,0.693-0.293,1.027,0.038c0.686,0.679,0.83,1.197,0.467,1.844
			C7.617,59.055,6.773,60.526,5.92,61.991z M7.645,69.028c-0.034-0.039-0.145-0.109-0.15-0.187
			c-0.025-0.385-0.156-0.835-0.008-1.148c1.061-2.262,2.173-4.501,3.289-6.737c0.273-0.545,0.738-0.546,1.144-0.024
			c0.367,0.474,0.709,0.966,1.05,1.459c0.24,0.348,0.365,0.703-0.093,0.991c-2.084,1.31-3.654,3.088-4.806,5.254
			C7.984,68.798,7.787,68.901,7.645,69.028z M18.479,85.269c-0.44,0.435-0.91,0.439-1.326,0.08
			c-0.076-0.065-0.152-0.133-0.222-0.204c-3.042-3.14-2.518-2.748-1.161-5.94c0.353-0.831,0.826-1.614,1.147-2.457
			c0.391-1.026,0.814-2.057,0.748-3.203c-0.027-0.504-0.281-1.029-0.524-0.92c-0.258,0.115-0.557,0.253-0.709,0.471
			c-1.209,1.725-2.389,3.469-3.577,5.209c-0.159,0.234-0.278,0.614-0.651,0.361c-0.23-0.156-0.488-0.422-0.527-0.671
			c-0.059-0.376-0.035-0.824,0.123-1.165c0.885-1.911,1.758-3.833,2.762-5.684c0.543-0.999,0.861-2.03,1.004-3.125
			c0.028-0.206-0.275-0.498-0.488-0.673c-0.084-0.069-0.394,0.018-0.511,0.13c-1.679,1.613-3.023,3.477-4.122,5.527
			c-0.182,0.338-0.484,0.612-0.744,0.904c-0.024,0.027-0.166-0.008-0.213-0.055c-0.066-0.064-0.136-0.169-0.13-0.252
			c0.013-0.193,0.032-0.4,0.112-0.571c1.297-2.726,2.771-5.349,4.447-7.86c0.357-0.537,0.699-0.536,1.148,0.056
			c0.912,1.2,1.785,2.429,2.701,3.627c1.415,1.854,3.047,3.478,5.137,4.574c0.228,0.12,0.517,0.118,0.787,0.158
			c-1.019-2.632-2.744-4.833-4.369-7.091c-1.935-2.689-3.906-5.357-5.887-8.015c-0.619-0.829-0.706-1.585-0.105-2.471
			c0.674-0.997,1.242-2.066,1.889-3.083c0.4-0.631,0.953-0.606,1.432,0.055c1.77,2.441,3.479,4.927,5.301,7.326
			c1.334,1.757,2.791,3.423,4.233,5.098c1.788,2.08,3.941,3.711,6.346,5.022c0.805,0.44,0.82,0.607,0.107,1.28
			c-3.146,2.967-6.316,5.903-9.448,8.884C21.585,82.116,20.055,83.716,18.479,85.269z M68.76,88.456
			c-0.428,0.258-0.856,0.52-1.307,0.732c-3.902,1.854-7.92,3.392-12.137,4.371c-1.268,0.295-2.515,0.603-3.713,1.162
			c-0.789,0.369-1.719,0.436-2.32,0.577c-0.899-0.106-1.494-0.213-2.092-0.241c-2.101-0.098-4.203-0.22-6.307-0.238
			c-7.107-0.063-13.637-1.988-19.547-5.962c-0.428-0.287-0.479-0.632-0.137-0.968c0.502-0.49,1.021-0.961,1.534-1.441
			c6.527-6.097,13.053-12.194,19.583-18.288c1.762-1.643,3.536-3.271,5.303-4.907c0.329-0.306,0.633-0.44,0.941,0.033
			c0.381,0.586,0.692,1.259,1.195,1.718c2.621,2.388,4.549,5.348,6.737,8.086c3.698,4.629,7.423,9.229,11.636,13.408
			c0.283,0.281,0.539,0.593,0.791,0.904C69.176,87.718,69.094,88.255,68.76,88.456z M86.662,71.401
			c-1.018,1.727-1.961,3.512-3.137,5.127c-2.439,3.357-5.439,6.17-8.873,8.506c-0.783,0.532-1.16,0.448-1.786-0.273
			c-4.942-5.681-9.892-11.355-14.825-17.044c-1.512-1.744-2.986-3.521-4.461-5.297c-0.098-0.117-0.083-0.349-0.072-0.523
			c0.005-0.064,0.15-0.119,0.273-0.209c1.227,0.307,2.49,0.609,3.744,0.942c4.748,1.261,9.549,2.276,14.4,3.042
			c2.99,0.473,5.844,1.386,8.658,2.46c1.873,0.715,3.767,1.377,5.644,2.079C86.773,70.417,86.965,70.89,86.662,71.401z
			 M103.168,39.975c-1.16-4.903-2.644-9.675-5.167-14.073c-0.339-0.591-0.82-1.169-0.384-1.958c0.084-0.152-0.147-0.696-0.279-0.715
			c-1.195-0.16-1.544-1.16-2.117-1.969c-2.666-3.767-5.396-7.48-8.992-10.454c-3.527-2.916-7.416-5.156-11.865-6.31
			c-2.041-0.528-4.13-0.957-6.156,0.125c-0.559,0.298-0.924-0.135-1.379-0.279c-0.703-0.224-1.244,0.028-1.41,0.7
			c-0.24,0.968-0.438,1.953-0.553,2.942c-0.137,1.196-0.101,2.413-0.26,3.605c-0.317,2.384-0.725,4.756-1.08,7.135
			c-0.297,1.981-0.529,3.973-0.867,5.947c-0.642,3.753-1.367,7.492-1.999,11.247c-0.283,1.68-0.486,3.377-0.618,5.075
			c-0.266,3.393-0.127,3.48,1.623,6.461c0.64,1.092,1.498,1.574,2.585,1.832c0.874,0.209,1.8,0.213,2.668,0.443
			c3.689,0.981,7.474,1.46,11.215,2.16c2.757,0.516,5.509,1.053,8.256,1.619c0.571,0.119,1.256,0.264,1.629,0.648
			c0.808,0.831,1.88,1.133,2.803,1.713c2.366,1.488,4.933,2.18,8.334,2.077c-0.215,0,0.189-0.03,0.589,0.006
			c1.757,0.156,2.876-0.782,3.578-2.228c0.386-0.793,0.674-1.706,0.718-2.579C104.26,48.727,104.195,44.325,103.168,39.975z
			 M92.221,28.156c0.219-0.116,0.621-0.251,0.732-0.149c0.766,0.713,1.273,1.581,1.356,2.647c0.035,0.013,0.061,0.034,0.096,0.046
			c0.024,0.076,0.045,0.154,0.076,0.228c0.053,0.05,0.105,0.101,0.157,0.151c-0.049-0.037-0.117-0.063-0.144-0.111
			c-0.007-0.013-0.008-0.027-0.014-0.04c-0.051-0.05-0.103-0.099-0.153-0.148c-0.002-0.044-0.016-0.082-0.019-0.125
			c-1.014-0.369-1.638-1.188-2.246-2.016C92,28.554,92.107,28.217,92.221,28.156z M84.696,17.25
			c0.069-0.067,0.175-0.098,0.264-0.144c0.173,0.08,0.384,0.122,0.512,0.249c2.222,2.21,4.026,4.744,5.679,7.393
			c0.248,0.398,0.131,0.775-0.199,1.065c-0.57,0.5-1.23,0.594-1.59,0.211c-1.93-2.048-3.862-4.094-5.76-6.172
			c-0.596-0.652-0.554-0.887,0.029-1.54C83.965,17.938,84.335,17.598,84.696,17.25z M77.397,26.089
			c-0.33-0.365-0.224-0.717,0.083-1.034c1.108-1.147,2.216-2.296,3.337-3.431c0.33-0.333,0.684-0.307,1.027,0.034
			c1.836,1.832,3.68,3.655,5.51,5.494c0.121,0.121,0.137,0.349,0.202,0.526c-0.101,0.166-0.162,0.381-0.306,0.489
			c-1.273,0.96-2.56,1.903-3.846,2.846c-0.625,0.459-1.115,0.46-1.586-0.052C80.334,29.347,78.867,27.717,77.397,26.089z
			 M79.583,34.21c-0.203,0.222-0.413,0.438-0.637,0.637c-0.97,0.861-1.944,1.713-2.918,2.568c-1.405-0.363-1.851-1.743-2.726-2.652
			c-0.802-0.834-1.906-1.464-2.225-2.707c0.752-0.794,1.504-1.589,2.256-2.383c0.346-0.363,0.681-0.737,1.043-1.083
			c0.138-0.132,0.338-0.199,0.51-0.296c0.188,0.049,0.441,0.036,0.551,0.155c1.423,1.548,2.836,3.104,4.224,4.685
			C79.952,33.464,79.891,33.876,79.583,34.21z M75.02,10.166c0.021,0.011,0.042,0.023,0.062,0.034
			c0.009,0.018,0.016,0.037,0.024,0.055c0.371,0.001,0.781-0.079,1.078,0.07c2.426,1.218,4.744,2.609,6.746,4.471
			c0.703,0.654,0.67,1.001-0.216,1.63c-1.368,0.97-1.226,1.177-2.425-0.106c-1.575-1.684-3.14-3.379-4.682-5.093
			c-0.235-0.262-0.344-0.639-0.501-0.971c-0.027,0-0.056,0.002-0.083,0.001C75.021,10.228,75.02,10.197,75.02,10.166
			c-0.122-0.065-0.244-0.131-0.365-0.196C75.024,9.717,75.017,9.949,75.02,10.166z M68.002,8.294
			c0.161-0.207,0.457-0.487,0.652-0.456c0.588,0.095,1.143,0.402,1.729,0.481c0.934,0.125,1.337,0.611,1.614,1.498
			c0.229,0.731,0.759,1.398,1.258,2.009c1.59,1.944,3.205,3.869,4.852,5.767c1.34,1.544,1.234,1.375-0.264,2.795
			c-0.365,0.346-0.742,0.68-1.09,1.041c-2.138,2.211-1.962,1.855-3.849-0.203c-1.29-1.408-2.636-2.766-3.981-4.119
			c-0.459-0.462-0.654-0.972-0.666-1.609c-0.04-2.207-0.105-4.412-0.162-6.618C68.047,8.88,68,8.88,67.951,8.882
			C67.962,8.682,67.9,8.424,68.002,8.294z M67.139,26.246c0.251-1.884,0.5-3.769,0.758-5.653c0.012-0.092,0.096-0.25,0.141-0.248
			c0.171,0.005,0.381,0.014,0.502,0.112c0.307,0.254,0.598,0.536,0.852,0.843c1.074,1.309,2.134,2.629,3.199,3.945
			c-0.676,1.701-2.125,2.863-3.055,4.388c-0.228,0.372-0.727,0.374-1.035,0.104C67.442,28.806,66.942,27.674,67.139,26.246z
			 M99.242,52.743c-0.006,0.19-0.08,0.382-0.144,0.565c-0.032,0.09-0.11,0.228-0.175,0.231c-0.182,0.012-0.48,0.029-0.534-0.067
			c-0.867-1.556-2.386-2.002-3.95-2.458c-4.149-1.209-8.35-2.16-12.623-2.812c-2.379-0.362-4.742-0.837-7.119-1.208
			c-2.776-0.434-5.561-0.809-8.34-1.213c-0.752-0.109-1.057-0.42-0.979-1.219c0.305-3.096,0.648-6.188,0.982-9.283
			c0.076-0.697,0.153-1.397,0.263-2.092c0.028-0.186,0.139-0.433,0.283-0.503c0.122-0.06,0.403,0.042,0.521,0.163
			c2.032,2.074,4.052,4.162,6.072,6.248c0.407,0.421,0.464,0.912,0.102,1.352c-0.57,0.693-1.209,1.33-1.809,1.998
			c-0.283,0.312-0.068,0.865,0.38,0.928c0.388,0.054,0.796,0.086,1.178,0.022c0.281-0.047,0.526-0.278,0.802-0.398
			c0.717-0.312,1.111-1.403,1.962-1.159c0.727,0.21,1.319,0.883,1.972,1.351c0.244,0.177,0.482,0.363,0.732,0.532
			c0.244,0.164,0.523,0.369,0.77,0.054c0.082-0.106,0.055-0.369-0.018-0.513c-0.316-0.628-0.675-1.234-1.006-1.855
			c-0.27-0.508-0.785-1.064-0.713-1.525c0.076-0.502,0.656-0.976,1.104-1.362c1.044-0.901,1.805-2.144,3.168-2.663
			c0.961,0.878,1.934,1.744,2.878,2.64c0.654,0.62,1.284,1.271,1.897,1.932c0.305,0.328-0.023,0.576-0.235,0.733
			c-0.886,0.659-1.805,1.276-2.701,1.922c-0.651,0.469-1.311,0.932-1.923,1.449c-0.299,0.252-0.584,0.591-0.719,0.949
			c-0.127,0.342-0.21,0.881-0.029,1.119c0.273,0.36,0.836,0.797,1.199,0.735c0.865-0.144,1.754-0.444,2.508-0.891
			c1.47-0.868,2.862-1.867,4.27-2.837c0.716-0.492,1.361-0.784,2.137-0.053c0.429,0.404,1.002,0.666,1.533,0.947
			c0.123,0.064,0.35-0.047,0.518-0.104c0.032-0.01,0.056-0.175,0.021-0.229c-0.322-0.51-0.666-1.005-0.986-1.515
			c-0.512-0.812-0.482-0.866,0.111-1.548c0.922-1.057,1.845-2.118,2.704-3.227c0.207-0.268,0.184-0.712,0.259-1.083
			c-1.381-0.28-2.534,0.379-3.668,0.982c-2.434,1.291-2.156,1.308-4.039-0.593c-0.85-0.858-1.704-1.712-2.531-2.59
			c-0.795-0.842-0.765-1.154,0.23-1.921c1.114-0.858,2.246-1.696,3.4-2.501c1.007-0.701,1.227-0.67,2.09,0.104
			c0.524,0.469,0.988,1.021,1.562,1.418c0.563,0.391,1.213,0.824,1.859,0.889c0.896,0.09,1.232,0.62,1.467,1.279
			C98.107,39.968,99.461,46.22,99.242,52.743z M42.086,51.649c0.221,0.072,0.553-0.051,0.775-0.184
			c0.11-0.066,0.161-0.375,0.116-0.541c-0.4-1.471-1.087-2.785-2.045-3.988c-2.818-3.537-5.623-7.085-8.376-10.674
			c-2.751-3.588-5.423-7.238-8.153-10.843c-0.543-0.717-1.142-1.415-1.822-1.995c-0.428-0.363-1.057-0.489-1.74-0.785
			c-0.246,0.372-0.576,0.655-0.625,0.981c-0.195,1.303,0.578,2.295,1.216,3.312c3.851,6.139,8.099,11.992,12.7,17.587
			c1.34,1.629,2.787,3.168,4.172,4.759C39.326,50.454,40.632,51.178,42.086,51.649z M39.994,35.019
			c0.775,0.724,1.885,1.092,2.847,1.612c0.067,0.037,0.249,0.006,0.272-0.043c0.068-0.146,0.16-0.346,0.108-0.47
			c-0.704-1.709-2.003-2.989-3.206-4.33c-2.144-2.39-4.307-4.765-6.482-7.125c-1.154-1.253-2.348-2.472-3.539-3.691
			c-0.126-0.129-0.361-0.152-0.547-0.224c-0.096,0.166-0.25,0.321-0.279,0.499c-0.127,0.744,0.201,1.361,0.604,1.956
			C32.717,27.544,36.168,31.451,39.994,35.019z M51.395,84.573c-0.64-0.392-1.064-1.314-2.006-0.963
			c-1.096,0.409-0.883,1.402-0.866,2.191c0,0.387-0.015,0.685,0.003,0.979c0.055,0.888,0.512,1.441,1.375,1.698
			c0.661,0.196,1.602-0.253,1.984-0.963C52.322,86.712,52.391,85.183,51.395,84.573z M31.377,86.294
			c-0.953,0.113-1.742,0.168-2.515,0.308c-0.824,0.149-1.446,0.951-1.402,1.702c0.063,1.082,0.81,2.104,1.692,2.174
			c0.359,0.029,0.865-0.076,1.088-0.32c0.666-0.725,1.249-1.531,1.807-2.346c0.139-0.203,0.167-0.621,0.05-0.826
			C31.921,86.677,31.57,86.47,31.377,86.294z M36.764,86.561c-0.098-0.12-0.361-0.104-0.708-0.191
			c-0.257,0.291-0.799,0.622-0.823,0.989c-0.066,0.964,0.017,1.957,0.19,2.91c0.115,0.625,0.709,0.922,1.332,1
			c1.13,0.141,2.35-1.426,1.795-2.395C38.068,88.036,37.388,87.311,36.764,86.561z M49.037,77.293
			c0.191-0.46,0.379-0.927,0.514-1.405c0.18-0.645-0.357-1.435-1.045-1.582c-0.193-0.042-0.396-0.041-0.594-0.061
			c-0.201,0.01-0.402,0.007-0.6,0.029c-0.779,0.087-1.272,0.696-1.102,1.47c0.127,0.577,0.285,1.193,0.612,1.666
			c0.259,0.375,0.765,0.702,1.213,0.794C48.611,78.321,48.846,77.751,49.037,77.293z M41.112,79.083
			c-0.225-0.566-0.874-0.844-1.474-0.713c-0.561,0.123-0.912,0.647-0.896,1.779c0.063,0.263,0.181,0.943,0.395,1.592
			c0.18,0.546,0.922,0.914,1.439,0.811c0.68-0.135,1.298-0.869,1.16-1.5C41.592,80.382,41.366,79.722,41.112,79.083z M56.703,78.688
			c-0.226-0.011-0.615,0.269-0.682,0.492c-0.251,0.845-0.469,1.715-0.547,2.589c-0.023,0.272,0.375,0.706,0.685,0.861
			c0.63,0.315,1.507-0.068,1.746-0.689c0.14-0.362,0.208-0.753,0.329-1.212c-0.156-0.521-0.238-1.126-0.524-1.61
			C57.557,78.857,57.057,78.706,56.703,78.688z M62.82,85.331c-0.414-0.232-1.086-0.266-1.357,0.056
			c-0.592,0.701-0.92,1.481-0.631,2.418c0.174,0.57,0.758,1.005,1.314,0.971c0.184-0.057,0.374-0.099,0.551-0.172
			C63.725,88.179,63.88,85.927,62.82,85.331z M49.051,71.424c1.555-0.795,1.273-2.06,0.15-3.117
			c-0.283-0.267-1.174,0.035-1.266,0.412c-0.07,0.288-0.111,0.584-0.185,0.986c0.083,0.388,0.165,0.874,0.294,1.347
			C48.129,71.352,48.777,71.564,49.051,71.424z M23.78,73.665c-0.008-0.023-0.016-0.047-0.024-0.071
			c-0.021-0.004-0.045-0.005-0.067-0.008c0.007,0.018,0.015,0.034,0.022,0.052C23.734,73.646,23.757,73.656,23.78,73.665z
			 M24.183,73.821c-0.134-0.052-0.268-0.104-0.402-0.157c0.046,0.132,0.091,0.264,0.136,0.395
			C24.006,73.98,24.094,73.901,24.183,73.821z M95.846,36.4c-0.073,0.119-0.146,0.238-0.219,0.357
			C95.817,36.726,96.175,36.817,95.846,36.4z M95.627,36.758c-0.021,0.003-0.041,0.007-0.057,0.014
			c-0.002,0.008-0.002,0.018-0.004,0.026c0.011,0.002,0.022,0.002,0.033,0.004C95.609,36.787,95.618,36.772,95.627,36.758z"/>
	</g>
</g>
<g>
</g>
<g>
</g>
<g>
</g>
<g>
</g>
<g>
</g>
<g>
</g>
<g>
</g>
<g>
</g>
<g>
</g>
<g>
</g>
<g>
</g>
<g>
</g>
<g>
</g>
<g>
</g>
<g>
</g>
</svg>
