<?xml version="1.0" encoding="iso-8859-1"?>
<!-- Generator: Adobe Illustrator 19.0.0, SVG Export Plug-In . SVG Version: 6.00 Build 0)  -->
<svg version="1.1" id="Capa_1" xmlns="http://www.w3.org/2000/svg" xmlns:xlink="http://www.w3.org/1999/xlink" x="0px" y="0px"
	 viewBox="0 0 96 96" style="enable-background:new 0 0 96 96;" xml:space="preserve">
<g id="_x0A_strategy">
	<g>
		<path style="fill-rule:evenodd;clip-rule:evenodd;" d="M95.272,67.78c-0.038-0.392-0.244-0.776-0.409-1.147
			c-0.99-2.263-2.155-4.462-2.944-6.789c-1.126-3.32-3.16-6.024-5.472-8.504c-3.529-3.787-7.684-6.819-12.147-9.463
			c-6.95-4.116-14.444-6.968-22.003-9.667c-1.73-0.617-3.584-0.898-5.39-1.296c-0.595-0.133-1.213-0.158-1.821-0.233
			c-0.036-0.861,0.867-0.934,1.243-1.469c1.036-1.474,0.892-3.018-0.509-4.084c-0.9-0.681-1.936-0.685-2.951-0.388
			c-0.786,0.229-1.502,0.781-2.292,0.899c-2.847,0.422-5.167,1.97-7.572,3.346c-0.983,0.564-1.94,1.17-2.92,1.741
			c-3.1,1.798-3.102,1.796-4.835,4.878c-0.814,1.452-0.685,2.684,0.42,3.971c0.961,1.119,2.179,1.868,3.527,2.434
			c1.334,0.559,2.551,1.278,3.682,2.217c1.58,1.315,3.319,2.434,4.956,3.682c0.927,0.705,1.973,1.113,3.071,1.39
			c1.455,0.365,3.501-1.023,3.69-2.513c0.144-1.132,0.137-2.298-0.54-3.287c-0.978-1.434-1.789-3-3.199-4.104
			c-0.11-0.086-0.178-0.384-0.112-0.496c0.087-0.15,0.334-0.32,0.495-0.303c3.793,0.413,7.49,1.246,11.111,2.472
			c4.306,1.456,8.33,3.548,12.427,5.462c5.857,2.739,10.937,6.562,15.269,11.376c2.976,3.303,5.679,6.795,7.75,10.753
			c2.15,4.102,4.443,8.133,6.203,12.427c0.191,0.469,0.291,0.976,0.434,1.464c0.272-0.524,0.685-1.021,0.789-1.578
			c0.343-1.814,0.573-3.646,0.778-5.022C95.735,72.907,95.524,70.342,95.272,67.78z M22.996,42.119
			c-3.4-1.805-6.914-3.249-10.909-2.131c-0.389,0.107-0.814,0.116-1.224,0.126c-1.577,0.046-3.004,0.625-4.46,1.151
			c-2.627,0.952-4.237,2.798-5.137,5.386c-0.925,2.662-1.414,5.386-1.227,8.195c0.145,2.157,0.377,4.309,0.674,6.451
			c0.095,0.681,0.406,1.405,0.825,1.95c0.622,0.808,1.359,1.567,2.17,2.182c3.965,3.008,8.498,4.048,13.395,3.65
			c2.008-0.16,3.742-0.927,5.199-2.407c1.62-1.646,2.906-3.475,3.691-5.644c0.92-2.539,1.466-5.148,1.415-7.843
			c0.173-3.322-0.668-6.359-2.523-9.087C24.376,43.35,23.765,42.525,22.996,42.119z M20.304,59.607
			c-0.078,0.421-0.65,0.761-1.023,1.111c-1.709,1.603-3.693,2.141-5.97,1.507c-0.396-0.11-0.808-0.341-1.188-0.299
			c-1.812,0.196-2.823-1.006-3.886-2.127c-0.905-0.959-0.951-1.115-0.942-2.483c-0.025-0.945,0.036-1.895,0.699-2.624
			c2.277-2.499,4.524-5.033,7.586-6.653c0.671-0.356,1.326-0.517,2.065-0.422c0.661,0.084,1.233,0.391,1.443,1.009
			c0.692,2.039,1.378,4.088,1.94,6.167C21.48,56.46,20.602,58.01,20.304,59.607z M63.137,62.934
			c-0.586-0.183-1.19-0.339-1.797-0.403c-0.392-0.04-0.962-0.044-1.181,0.189c-0.913,0.978-2.196,1.476-3.012,2.603
			c-1.64,2.268-3.67,4.164-5.966,5.776c-0.663,0.464-1.27,0.597-1.969,0.102c-1.176-0.837-2.384-1.624-3.554-2.469
			c-1.436-1.036-2.974-1.847-4.692-2.289c-0.295-0.076-0.614-0.173-0.905-0.133c-1.888,0.272-3.158,2.401-2.519,4.204
			c0.559,1.576,1.374,2.986,2.661,4.1c1.012,0.877,1.986,1.794,2.955,2.718c0.422,0.402,0.455,0.983,0.059,1.38
			c-0.726,0.727-1.486,1.42-2.256,2.105c-1.509,1.337-2.562,2.943-2.968,4.944c-0.148,0.739,0.022,1.088,0.68,1.557
			c0.614,0.44,1.245,0.661,2.018,0.591c1.061-0.099,2.011-0.409,2.829-1.104c1.488-1.266,2.976-2.527,4.474-3.782
			c0.394-0.329,0.818-0.622,1.241-0.909c0.367-0.249,0.751-0.297,1.131-0.013c0.992,0.739,1.977,1.486,2.975,2.217
			c1.676,1.229,3.413,2.215,5.578,2.46c1.6,0.182,2.572-0.545,3.404-1.631c0.808-1.053,0.998-2.251,0.277-3.471
			c-0.673-1.14-1.283-2.259-2.581-2.94c-1.07-0.562-1.928-1.531-2.875-2.324c-0.809-0.678-0.897-1.044-0.244-1.785
			c1.632-1.86,3.242-3.745,4.988-5.493c1.3-1.304,2.17-2.734,2.247-4.073C64.312,63.747,63.973,63.19,63.137,62.934z M59.07,13.561
			c1.311,1.285,2.522,2.709,4.402,3.28c0.67,0.202,1.278,0.669,1.855,1.094c1.937,1.428,2.021,1.658,0.409,3.248
			c-0.438,0.435-0.913,0.856-1.255,1.36c-0.63,0.934-1.263,1.885-1.717,2.908c-0.224,0.504-0.277,1.3-0.03,1.767
			c1.327,2.509,3.492,2.691,5.598,0.979c0.783-0.639,1.366-1.527,2.013-2.324c0.779-0.956,1.518-1.941,2.294-2.898
			c0.344-0.423,0.772-0.648,1.346-0.414c0.381,0.153,0.814,0.201,1.165,0.403c2.586,1.49,5.566,2.113,8.109,3.716
			c1.037,0.655,2.209,1.107,3.491,1.092c1.372,0.025,2.303-0.655,3.134-2.098c0.675-1.171,0.383-2.213-0.331-3.15
			c-0.484-0.639-1.117-1.217-1.792-1.654c-1.901-1.221-3.819-2.409-5.996-3.138c-1.058-0.354-2.04-0.962-3.021-1.517
			c-0.663-0.374-0.829-0.903-0.433-1.558c0.821-1.352,1.144-2.854,1.426-4.368c0.273-1.473-0.595-2.319-2.168-2.199
			c-1.146,0.088-2.152,0.564-2.89,1.562c-0.609,0.821-1.336,1.56-2.054,2.294c-0.548,0.559-1.203,0.738-1.95,0.322
			c-1.615-0.901-3.314-1.679-4.842-2.71c-1.979-1.331-4.108-1.182-6.244-0.887c-1.419,0.193-2.188,1.762-1.635,3.076
			C58.228,12.397,58.576,13.077,59.07,13.561z"/>
	</g>
</g>
<g>
</g>
<g>
</g>
<g>
</g>
<g>
</g>
<g>
</g>
<g>
</g>
<g>
</g>
<g>
</g>
<g>
</g>
<g>
</g>
<g>
</g>
<g>
</g>
<g>
</g>
<g>
</g>
<g>
</g>
</svg>
