<?xml version="1.0" encoding="iso-8859-1"?>
<!-- Generator: Adobe Illustrator 19.0.0, SVG Export Plug-In . SVG Version: 6.00 Build 0)  -->
<svg version="1.1" id="Capa_1" xmlns="http://www.w3.org/2000/svg" xmlns:xlink="http://www.w3.org/1999/xlink" x="0px" y="0px"
	 viewBox="0 0 106.007 106.007" style="enable-background:new 0 0 106.007 106.007;" xml:space="preserve">
<g id="_x0A_aim">
	<g>
		<path style="fill-rule:evenodd;clip-rule:evenodd;" d="M106,49.988c0.004-0.631-0.152-1.182-0.619-1.636
			c-0.508-0.489-0.967-1.027-1.488-1.499c-0.768-0.692-1.682-1.175-2.725-1.114c-1.828,0.105-3.566-0.338-5.342-0.618
			c-0.844-0.133-1.195-0.438-1.393-1.24c-0.48-1.946-0.973-3.888-1.83-5.724c-1.674-3.579-3.812-6.826-6.43-9.794
			c-5.211-5.905-11.564-9.894-19.232-11.731c-1.852-0.443-3.732-0.765-5.606-1.111c-0.967-0.179-1.115-0.31-1.174-1.394
			c-0.031-0.603,0.006-1.211-0.057-1.809c-0.203-1.898-0.348-3.808-0.684-5.683c-0.424-2.38-1.896-3.69-4.166-3.499
			c-1.434,0.121-2.787-0.084-4.182-0.195c-1.398-0.112-2.82-0.102-4.221,0.001c-1.727,0.128-3.014,0.894-3.604,2.695
			c-0.32,0.975-0.527,1.909-0.514,2.935c0.031,2.011-0.014,4.022-0.041,6.034c-0.008,0.559-0.312,0.927-0.842,1.109
			c-0.19,0.066-0.371,0.167-0.566,0.205c-2.482,0.494-4.807,1.426-7.07,2.533c-0.627,0.307-1.297,0.568-1.975,0.728
			c-3.965,0.934-7.149,3.12-9.848,6.087c-2.914,3.202-5.557,6.622-8.014,10.185c-1.096,1.588-1.885,3.325-2.098,5.271
			c-0.141,1.295-0.221,2.597-0.328,3.895c-0.061,0.747-0.385,1.125-1.098,1.146c-1.711,0.048-3.42,0.057-5.129,0.082
			c-0.705,0.01-1.416-0.052-2.107,0.043c-1.66,0.225-2.883,1.283-3.111,2.851C0.241,50.62-0.011,52.527,0,54.422
			c0.014,1.893,0.353,3.786,0.576,5.675c0.033,0.287,0.17,0.587,0.332,0.831c1.064,1.603,2.383,2.733,4.49,2.357
			c0.496-0.088,1.006-0.105,1.494-0.226c1.975-0.498,3.994-0.389,6.002-0.443c0.977-0.026,1.268,0.246,1.379,1.179
			c0.344,2.898,0.979,5.731,1.812,8.526c0.41,1.372,1.041,2.579,2.004,3.662c1.064,1.2,1.934,2.575,3.006,3.772
			c1.605,1.796,3.25,3.568,5.004,5.218c0.859,0.809,1.935,1.477,3.027,1.934c4.449,1.86,8.945,3.594,13.791,4.176
			c0.68,0.082,1.348,0.37,1.988,0.641c0.875,0.371,1.438,0.902,1.389,2.039c-0.096,2.213,0.15,4.422,0.609,6.591
			c0.383,1.813,1.267,2.616,3.094,2.721c1.603,0.092,3.219,0.019,4.828,0.019v0.045c1.408,0,2.816-0.025,4.225,0.008
			c0.957,0.023,1.732-0.252,2.435-0.941c2.467-2.417,2.182-1.651,2.203-4.889c0.002-0.102,0.006-0.202,0-0.303
			c-0.107-1.701-0.219-3.403-0.324-5.105c-0.033-0.542,0.141-0.998,0.646-1.252c0.537-0.269,1.084-0.527,1.643-0.751
			c3.104-1.24,5.951-2.952,8.615-4.929c8.158-6.053,14.395-13.662,18.332-23.085c0.584-1.401,0.822-1.568,2.211-1.524
			c0.602,0.019,1.203,0.085,1.795,0.188c2.021,0.351,4.012,0.04,5.986-0.3c0.557-0.096,1.125-0.451,1.561-0.832
			c1.189-1.046,1.77-2.438,1.82-4.002C106.035,53.611,105.989,51.799,106,49.988z M50.459,10.848
			c0.596-1.304,1.607-1.565,2.67-1.451c0.754,0.081,1.336,0.47,1.635,1.163c0.234,0.548,0.465,1.131,0.521,1.715
			c0.309,3.089,0.93,6.145,0.809,9.279c-0.043,1.187,0.215,2.385,0.328,3.578c0.096,0.999,0.18,1.999,0.264,2.955
			c-0.043,0.648-0.027,1.258-0.133,1.846c-0.266,1.485-1.48,2.483-2.961,2.494c-1.213,0.01-2.543-1.018-2.889-2.256
			c-0.078-0.285-0.119-0.594-0.107-0.889c0.145-3.935-0.604-7.786-1.033-11.669C49.307,15.292,49.469,13.029,50.459,10.848z
			 M18.088,55.495c-1.707,0.02-3.399-0.024-5.029,0.63c-0.447,0.181-1.027,0.328-1.459,0.199c-1.547-0.461-2.977,0.016-4.437,0.353
			c-1.844,0.426-2.955-0.299-3.145-2.12c-0.08-0.79-0.057-1.606,0.043-2.396c0.133-1.07,1.033-1.919,2.1-1.723
			c2.137,0.396,4.178,0.068,6.23-0.426c0.193-0.047,0.4-0.05,0.602-0.042c5.223,0.212,10.387-0.789,15.601-0.758
			c0.701,0.004,1.414-0.045,2.1,0.062c1.998,0.313,3.002,2.768,1.846,4.459C31.883,54.696,31,55.3,29.785,55.301
			c-0.801,0.001-1.604,0.001-2.406,0.001c-0.004-0.08-0.008-0.16-0.012-0.239c-1.088,0.057-2.178,0.119-3.266,0.171
			C22.096,55.329,20.094,55.472,18.088,55.495z M57.94,94.758c-0.084,1.343-0.971,2.212-2.299,2.296
			c-1.09,0.067-2.223-0.683-2.514-1.757c-0.152-0.573-0.197-1.186-0.217-1.782c-0.076-2.401-0.125-4.805-0.184-7.206
			c-0.043-0.005-0.086-0.009-0.127-0.013c0.215-3.091,0.455-6.181,0.635-9.273c0.053-0.888-0.088-1.785-0.115-2.678
			c-0.016-0.508,0.387-0.899,0.953-0.929c0.396-0.021,0.797,0,1.197,0.028c0.459,0.032,0.699,0.309,0.771,0.753
			c1.041,6.312,1.998,12.633,1.885,19.06C57.918,93.757,57.969,94.26,57.94,94.758z M82.969,63.104
			c-0.375,0.704-0.822,1.397-1.361,1.98c-2.869,3.101-5.779,6.161-8.662,9.246c-0.842,0.898-1.832,1.563-2.945,2.059
			c-0.275,0.122-0.547,0.257-0.824,0.375c-2.029,0.857-4.059,1.712-6.088,2.568c-0.598-0.258-0.479-0.808-0.488-1.278
			c-0.047-1.811-0.08-3.622-0.094-5.433c-0.023-3.963-1.6-4.795-4.922-4.993c-1.604-0.096-3.23-0.132-4.826,0.019
			c-1.377,0.13-2.731,0.428-3.818,1.533c-0.98,0.997-1.469,2.035-1.488,3.448c-0.035,2.307-0.238,4.612-0.398,6.916
			c-0.074,1.08-0.482,1.374-1.578,1.147c-3.273-0.677-6.385-1.841-9.256-3.528c-2.422-1.424-4.707-3.08-7.061-4.622
			c-0.793-0.521-1.328-1.234-1.588-2.13c-0.756-2.601-1.496-5.206-2.219-7.815c-0.127-0.461,0.311-0.985,0.844-1.051
			c2.09-0.253,4.176-0.584,6.273-0.702c1.719-0.097,3.062-0.945,4.369-1.851c1.045-0.724,1.482-1.909,1.51-3.161
			c0.053-2.413,0.119-4.832,0.008-7.241c-0.086-1.881-1.143-3.207-3-3.721c-0.762-0.212-1.582-0.314-2.373-0.303
			c-2.406,0.036-4.826-0.077-7.209,0.452c-0.736,0.164-1.189-0.303-1.086-1.012c0.172-1.192,0.363-2.382,0.58-3.566
			c0.209-1.137,0.863-2.004,1.709-2.768c2.838-2.566,5.775-5.001,8.937-7.162c2.08-1.421,4.252-2.679,6.537-3.74
			c0.508-0.236,0.807-0.102,0.859,0.395c0.1,0.899,0.158,1.801,0.271,2.697c0.273,2.189,0.516,4.383,1.139,6.516
			c0.193,0.664,0.199,1.387,0.262,2.085c0.191,2.142,1.488,3.49,3.648,3.63c0.998,0.064,2.049,0.079,3.002-0.166
			c1.494-0.386,2.996-0.452,4.49-0.343c3.188,0.236,4.769-1.618,5.225-4.96c0.158-1.176-0.027-2.408-0.131-3.608
			c-0.229-2.701-0.504-5.398-0.754-8.098c-0.033-0.342,0.449-0.848,0.76-0.796c3.977,0.662,7.834,1.635,11.459,3.518
			c5.496,2.858,9.238,7.33,12.166,12.62c0.244,0.438,0.445,0.903,0.625,1.371c1.439,3.725,1.004,3.434-2.395,3.437h-1.207v0.015
			c-1.107,0-2.227-0.104-3.318,0.024c-1.592,0.188-3.209,0.476-4.443,1.616c-0.576,0.531-1.021,1.222-1.445,1.89
			c-0.338,0.526-0.377,1.154-0.137,1.744c0.732,1.805,1.023,3.661,0.826,5.608c-0.141,1.38,0.615,2.292,1.77,2.896
			c1.443,0.754,3.008,1.11,4.613,1.279c0.5,0.052,1.006,0.066,1.508,0.069C85.162,60.229,84.397,60.436,82.969,63.104z
			 M99.235,54.129c-0.523,1.199-1.838,2.053-3.189,1.725c-2.881-0.698-5.789-0.286-8.682-0.331c-1.805,0-3.609,0.009-5.414-0.002
			c-1.326-0.009-1.869-0.148-1.809-1.669c0.027-0.697-0.082-1.4-0.096-2.102c-0.014-0.707,0.34-1.118,1.06-1.184
			c1.994-0.182,3.988-0.393,5.986-0.485c2.902-0.136,5.809-0.167,8.711-0.268c1.062-0.036,1.98,0.258,2.742,0.994
			C99.448,51.678,99.717,53.02,99.235,54.129z"/>
	</g>
</g>
<g>
</g>
<g>
</g>
<g>
</g>
<g>
</g>
<g>
</g>
<g>
</g>
<g>
</g>
<g>
</g>
<g>
</g>
<g>
</g>
<g>
</g>
<g>
</g>
<g>
</g>
<g>
</g>
<g>
</g>
</svg>
