<?xml version="1.0" encoding="iso-8859-1"?>
<!-- Generator: Adobe Illustrator 19.0.0, SVG Export Plug-In . SVG Version: 6.00 Build 0)  -->
<svg version="1.1" id="Capa_1" xmlns="http://www.w3.org/2000/svg" xmlns:xlink="http://www.w3.org/1999/xlink" x="0px" y="0px"
	 viewBox="0 0 96.215 96.215" style="enable-background:new 0 0 96.215 96.215;" xml:space="preserve">
<g id="_x0A_chess">
	<g>
		<path style="fill-rule:evenodd;clip-rule:evenodd;" d="M67.447,31.13c1.436-0.703,2.748-1.641,4.367-1.988
			c0.76-0.163,1.523-0.576,2.146-1.058c1.748-1.351,3.523-2.693,5.096-4.237c1.131-1.11,2.004-2.5,2.896-3.83
			c0.879-1.313,1.004-2.724,0.605-4.316c-0.803-3.209-1.365-6.477-2.092-9.706c-0.24-1.07-0.635-2.116-1.055-3.134
			c-0.264-0.641-0.627-1.274-1.078-1.794c-0.76-0.874-1.635-1.287-2.932-0.951c-3.1,0.803-6.113,2.011-9.369,2.169
			c-0.359,0.018-0.783,0.277-1.039,0.553c-1.199,1.299-2.057,2.736-1.488,4.616c0.318,1.054,0.674,2.099,0.953,3.162
			c0.227,0.866,0.41,1.75,0.521,2.637c0.051,0.419-0.287,0.821-0.705,0.829c-1.506,0.025-3.01-0.009-4.512-0.066
			c-0.393-0.016-0.777-0.205-1.166-0.3c-0.559-0.137-0.848-0.499-0.895-1.055c-0.057-0.702-0.08-1.406-0.145-2.107
			c-0.164-1.808-0.623-3.544-1.174-5.273c-0.539-1.695-1.65-2.428-3.363-2.422c-1.709,0.007-3.42,0.002-5.129,0.002V2.76
			c-1.91,0.074-3.822,0.096-5.727,0.236c-1.885,0.141-2.859,1.138-3.195,3.013c-0.236,1.311-0.082,2.604,0.086,3.902
			c0.115,0.895,0.289,1.785,0.334,2.684c0.08,1.591-0.121,1.771-1.617,1.82c-1.203,0.038-2.408,0.071-3.606,0.165
			c-1.068,0.084-1.438-0.094-1.637-1.19c-0.377-2.061-1.035-4.086-0.846-6.23c0.111-1.247-0.324-2.322-0.957-3.408
			c-0.699-1.201-1.615-1.692-2.953-1.65c-1.305,0.042-2.613-0.007-3.922,0.011c-1.811,0.022-3.621,0.042-5.43,0.111
			c-2.346,0.091-3.176,0.994-3.189,3.411c-0.002,0.703,0.07,1.407,0.057,2.11c-0.023,1.408,0.051,2.835-0.158,4.217
			c-0.439,2.9-0.42,5.811-0.438,8.725c-0.01,1.903,0.641,3.564,1.996,4.889c0.783,0.765,1.65,1.464,2.561,2.074
			c1.166,0.783,2.42,1.435,3.623,2.167c1.805,1.099,3.609,2.177,5.758,2.511c0.32,0.049,0.652,0.423,0.856,0.727
			c0.562,0.829,1.08,1.692,1.578,2.561c0.244,0.425,0.525,0.88,0.582,1.347c0.104,0.813,0.514,1.303,1.244,1.525
			c1.227,0.375,1.438,1.235,1.219,2.345c-0.115,0.591-0.193,1.189-0.314,1.779c-0.971,4.72-2.154,9.388-3.516,14.011
			c-0.822,2.792-1.682,5.574-2.533,8.356c-0.211,0.694-0.496,1.223-1.396,1.314c-1.42,0.146-2.295,1.143-2.957,2.329
			c-0.498,0.892-0.799,1.828-0.789,2.872c0.006,0.372-0.104,0.864-0.352,1.101c-1.545,1.48-2.471,3.41-3.75,5.08
			c-2.561,3.344-3.572,7.381-4.92,11.263c-0.064,0.188-0.068,0.396-0.094,0.596c-0.32,2.485,0.898,4.374,3.291,4.991
			c1.658,0.427,3.348,0.61,5.07,0.63c4.115,0.046,8.221-0.002,12.344,0.435c3.777,0.401,7.631,0.298,11.445-0.119
			c1.094-0.12,2.207-0.134,3.309-0.104c2.209,0.06,4.414,0.185,6.619,0.277c2.111,0.088,4.279-0.109,6.318,0.318
			c3.064,0.643,6.002-0.112,8.982-0.326c1.371-0.099,2.73-0.651,4.055-1.116c1.742-0.61,3.244-1.646,4.316-3.163
			c1.432-2.033,2.127-4.189,1.514-6.793c-0.799-3.402-2.121-6.477-4.418-9.115c-0.48-0.552-0.867-1.129-0.668-1.897
			c0.289-1.123-0.266-1.907-0.941-2.705c-0.664-0.782-1.402-1.442-2.334-1.865c-1.098-0.497-2.199-0.985-3.312-1.449
			c-0.42-0.175-0.606-0.452-0.649-0.893c-0.213-2.297-0.381-4.601-0.676-6.888c-0.795-6.173-2.047-12.269-3.205-18.379
			c-0.162-0.849-0.053-1.472,0.326-2.255c1.035-2.135,2.398-4.217,1.807-6.812C66.563,31.77,66.965,31.367,67.447,31.13z
			 M34.33,33.179c0.361-0.125,0.844-0.305,1.131-0.168c1.113,0.53,2.219,0.248,3.207-0.12c1.275-0.476,2.545-0.573,3.85-0.523
			c3.033,0.119,6.021-0.327,8.996-0.79c3.107-0.483,6.217-0.279,9.326-0.336c0.658-0.012,1.154,0.302,1.459,0.889
			c0.184,0.356,0.354,0.722,0.52,1.086c0.215,0.468,0.027,0.844-0.453,0.847c-1.809,0.014-3.621,0.006-5.432,0.006
			c-0.004-0.051-0.01-0.102-0.014-0.152c-2.6,0.239-5.195,0.507-7.795,0.714c-4.105,0.326-8.195,0.893-12.332,0.71
			c-0.854-0.038-1.564-0.186-2.119-0.895C34.203,33.84,34.006,33.292,34.33,33.179z M41.276,60.523
			c-0.643-0.201-1.367-0.152-2.057-0.181c-0.377-0.015-0.756,0.049-1.137,0.052c-0.051,0-0.131-0.14-0.146-0.225
			c-0.016-0.089-0.002-0.244,0.053-0.275c0.254-0.145,0.518-0.32,0.795-0.368c1.285-0.223,2.57-0.428,3.865-0.597
			c1.143-0.15,2.105-0.648,2.934-1.419c1.025-0.952,0.848-2.585-0.332-3.375c-0.688-0.461-1.432-0.737-2.262-0.715
			c-0.602,0.016-1.201,0.082-1.805,0.121c-1.139,0.073-1.551-0.096-1.359-0.554c0.289-0.701,0.895-0.774,1.496-0.729
			c1.631,0.122,3.188-0.342,4.775-0.556c0.299-0.039,0.598-0.096,0.881-0.189c1.018-0.34,1.66-1.258,1.625-2.283
			c-0.035-0.991-0.775-2.025-1.781-2.154c-1.086-0.14-2.199-0.084-3.299-0.051c-0.387,0.011-0.764,0.256-1.156,0.303
			c-0.268,0.032-0.551-0.095-0.828-0.15c0.16-0.113,0.307-0.277,0.482-0.331c1.439-0.427,2.885-0.824,4.326-1.249
			c0.67-0.198,1.353-0.386,1.986-0.675c0.711-0.324,0.984-0.959,0.924-1.736c-0.053-0.674-0.416-1.133-1.023-1.357
			c-0.463-0.171-0.963-0.329-1.443-0.335c-0.594-0.008-1.195,0.115-1.779,0.243c-0.77,0.168-1.523,0.394-2.283,0.596
			c-0.621-0.953-0.137-1.943-0.045-2.903c0.029-0.291,0.477-0.567,0.773-0.795c0.143-0.108,0.383-0.101,0.582-0.12
			c4.098-0.39,8.191-0.796,12.293-1.15c0.998-0.086,2.01-0.021,3.014,0.021c0.436,0.018,0.815,0.326,0.754,0.757
			c-0.299,2.146,0.566,4.163,0.631,6.271c0.061,1.9,0.299,3.799,0.502,5.693c0.299,2.792,0.621,5.583,0.969,8.37
			c0.248,1.989,0.568,3.971,0.828,5.959c0.105,0.798-0.211,1.147-0.961,1.144c-1.707-0.008-3.416-0.031-5.127-0.044
			c-0.805-0.007-1.607-0.001-2.644-0.001c-4.387,0.208-9,0.44-13.619,0.636c-1.303,0.056-2.611,0.01-3.92-0.007
			c-0.564-0.007-0.924-0.295-0.785-0.627c0.148-0.353,0.344-0.723,0.619-0.97c0.195-0.172,0.561-0.196,0.85-0.202
			c0.803-0.018,1.615,0.079,2.408-0.005c0.578-0.061,1.178-0.261,1.693-0.538c0.646-0.349,1.041-0.934,0.971-1.732
			C42.442,61.293,41.957,60.737,41.276,60.523z M25.487,89.331c-0.076,0.132-0.293,0.247-0.445,0.246
			c-0.084-0.001-0.232-0.263-0.231-0.403c0.006-0.188,0.109-0.387,0.211-0.554c0.1-0.161,0.254-0.289,0.383-0.432
			c0.055,0.189,0.111,0.378,0.166,0.567C25.549,88.95,25.576,89.176,25.487,89.331z M30.18,89.504
			c-0.084-0.103-0.244-0.213-0.234-0.306c0.016-0.147,0.145-0.284,0.225-0.426c0.051,0.171,0.104,0.341,0.152,0.511
			C30.276,89.357,30.227,89.431,30.18,89.504z M70.449,76.145c0.43-0.018,0.711,0.211,0.908,0.627
			c1.49,3.164,2.926,6.35,4.172,9.619c0.178,0.469,0.354,0.938,0.518,1.413c0.318,0.918,0.111,1.222-0.971,1.283
			c-1.303,0.074-2.609,0.11-3.914,0.125c-2.912,0.032-5.842-0.133-8.738,0.1c-4.516,0.363-9.033,0.236-13.549,0.394
			c-0.602,0.021-1.205,0.018-1.805,0.003c-0.465-0.011-0.773-0.225-0.604-0.732c0.334-0.995-0.029-1.771-0.721-2.443
			c-0.844-0.818-2.295-0.655-2.861,0.357c-0.34,0.606-0.559,1.283-0.822,1.933c-0.352,0.869-1.287,1.241-2.143,0.815
			c-0.141-0.07-0.295-0.299-0.287-0.447c0.014-0.292,0.15-0.576,0.207-0.868c0.059-0.291,0.199-0.644,0.094-0.872
			c-0.197-0.428-0.477-0.886-0.852-1.146c-0.445-0.311-1.014-0.135-1.352,0.272c-0.578,0.691-1.07,1.45-1.607,2.175
			c-0.234,0.316-0.457,0.649-0.742,0.915c-0.111,0.105-0.389,0.098-0.568,0.051c-0.291-0.076-0.525-0.214-0.395-0.623
			c0.369-1.145,0.705-2.302,1.053-3.454c0.225-0.744-0.059-1.377-0.459-1.973c-0.324-0.48-1.133-0.565-1.619-0.284
			c-0.668,0.388-0.847,1.346-1.719,1.476c0,0.021,0.001,0.043,0,0.064c-0.018,0.012-0.041,0.022-0.06,0.034
			c-0.004,0.167,0.003,0.339-0.045,0.493c-0.037,0.12-0.189,0.204-0.289,0.304c-0.018-0.177-0.102-0.387-0.037-0.524
			c0.059-0.122,0.228-0.191,0.371-0.273c0.001-0.028,0-0.057,0.002-0.085c0.021-0.002,0.038-0.011,0.059-0.014
			c0.01-0.377-0.064-0.793,0.082-1.106c0.547-1.155,0.705-2.233,0.068-3.446c-0.361-0.683-0.408-1.536-0.516-2.324
			c-0.006-0.053,0.67-0.265,1.035-0.287c0.498-0.031,1.002,0.06,1.502,0.081c3.006,0.131,6.01,0.297,9.016,0.366
			c1.195,0.027,2.395-0.169,3.594-0.254c0.9-0.063,1.801-0.133,2.703-0.165c2.307-0.079,4.619-0.007,6.898-0.502
			c0.676-0.146,1.404-0.023,2.104-0.084c1.496-0.13,2.988-0.305,4.484-0.453c1.096-0.109,2.195-0.228,3.293-0.301
			C67.442,76.281,68.946,76.207,70.449,76.145z M67.572,71.234c0.078,0.02,0.201,0.149,0.188,0.183
			c-0.068,0.167-0.145,0.431-0.27,0.46c-3.129,0.767-6.318,1.038-9.529,1.105c-0.803,0.017-1.607,0.003-2.41,0.003
			c-0.002-0.027-0.002-0.055-0.006-0.083c-3.106,0.133-6.207,0.337-9.315,0.381c-5.017,0.07-10.037,0.068-15.055,0.018
			c-1.293-0.013-2.59-0.285-3.869-0.519c-0.351-0.064-0.754-0.356-0.945-0.661c-0.184-0.297-0.199-0.755-0.15-1.124
			c0.059-0.436,0.412-0.627,0.865-0.622c2.104,0.021,4.211,0.032,6.315,0.052c1.404,0.014,2.805-0.045,4.16,0.483
			c0.756,0.294,1.543,0.242,2.354-0.024c0.744-0.243,1.557-0.299,2.344-0.382c1.992-0.209,3.992-0.326,5.984-0.536
			c2.578-0.273,5.227-0.231,7.814,0.013c1.904,0.179,3.805,0.39,5.695,0.242C63.805,70.062,65.658,70.745,67.572,71.234z
			 M64.203,27.552c-0.25,0.111-0.625,0.13-0.871,0.023c-2.508-1.081-5.148-0.753-7.744-0.716c-1.611,0.023-3.176,0.121-4.77-0.347
			c-1.035-0.303-2.197-0.263-3.297-0.216c-2.107,0.091-4.207,0.387-6.312,0.431c-2.598,0.053-5.215,0.437-7.793-0.306
			c-0.561-0.161-1.195-0.036-1.781-0.129c-0.568-0.09-0.978-0.796-0.848-1.358c0.16-0.684,0.391-1.359,0.49-2.051
			c0.053-0.369-0.043-0.79-0.174-1.149c-0.252-0.687-1.203-1.003-1.748-0.566c-0.545,0.435-1.037,0.941-1.514,1.453
			c-0.35,0.376-0.666,0.77-1.254,0.589c-0.391-0.121-0.514-0.761-0.312-1.589c0.096-0.389,0.283-0.767,0.309-1.157
			c0.035-0.54-0.248-1.024-0.758-1.177c-0.326-0.099-0.838-0.045-1.09,0.16c-0.617,0.499-1.129,1.127-1.691,1.694
			c-0.039,0.038-0.178,0.027-0.223-0.013c-0.07-0.06-0.154-0.178-0.141-0.251c0.082-0.383,0.117-0.804,0.309-1.129
			c0.611-1.039,1.312-2.024,1.918-3.067c0.24-0.419,0.391-0.927,0.438-1.408c0.021-0.225-0.25-0.569-0.479-0.701
			c-0.213-0.12-0.547-0.039-0.824-0.019c-0.086,0.006-0.164,0.107-0.248,0.161c-0.793,0.499-1.043,1.72-2.238,1.688
			c-0.074-0.993-0.162-1.986-0.223-2.981c-0.029-0.501-0.004-1.006-0.004-1.509h0.211c0-1.407-0.022-2.815,0.014-4.222
			c0.012-0.439,0.367-0.741,0.789-0.76c1.102-0.049,2.211-0.054,3.314-0.031c0.674,0.014,1.002,0.414,1.041,1.199
			c0.055,1.106,0.025,2.218,0.146,3.315c0.121,1.093,0.346,2.18,0.609,3.249c0.117,0.469,0.328,1.028,0.686,1.305
			c1.889,1.467,3.75,3.059,6.33,3.104c2.414,0.042,4.828,0.072,7.242,0.015c1.645-0.04,2.604-0.958,2.668-2.665
			c0.098-2.605,0.312-5.23-0.381-7.803c-0.078-0.287-0.178-0.611-0.111-0.88c0.059-0.234,0.334-0.592,0.518-0.595
			c1.908-0.029,3.82-0.016,5.73,0.026c0.699,0.015,1.188,0.395,1.311,1.033c0.248,1.279,0.545,2.564,0.615,3.858
			c0.09,1.613,0.697,2.795,1.92,3.89c1.519,1.361,3.125,2.067,5.172,1.964c1.604-0.082,3.219,0.059,4.826,0.039
			c0.693-0.009,1.44-0.039,2.067-0.295c1.824-0.746,2.6-0.491,2.588-3.392c-0.006-2,0.242-3.998-0.182-5.988
			c-0.119-0.556,0.217-1.012,0.758-1.123c1.965-0.404,3.938-0.772,5.914-1.098c0.184-0.031,0.502,0.281,0.633,0.507
			c0.199,0.341,0.35,0.736,0.412,1.126c0.299,1.882,0.533,3.775,0.85,5.655c0.164,0.982,0.418,1.955,0.691,2.915
			c0.289,1.009,0.205,1.401-0.637,2.05c-0.234,0.181-0.596,0.232-0.771,0.448c-2.533,3.094-6.193,4.775-9.17,7.312
			C66.321,26.763,65.201,27.102,64.203,27.552z"/>
	</g>
</g>
<g>
</g>
<g>
</g>
<g>
</g>
<g>
</g>
<g>
</g>
<g>
</g>
<g>
</g>
<g>
</g>
<g>
</g>
<g>
</g>
<g>
</g>
<g>
</g>
<g>
</g>
<g>
</g>
<g>
</g>
</svg>
