<?xml version="1.0" encoding="iso-8859-1"?>
<!-- Generator: Adobe Illustrator 19.0.0, SVG Export Plug-In . SVG Version: 6.00 Build 0)  -->
<svg version="1.1" id="Capa_1" xmlns="http://www.w3.org/2000/svg" xmlns:xlink="http://www.w3.org/1999/xlink" x="0px" y="0px"
	 viewBox="0 0 91.851 91.851" style="enable-background:new 0 0 91.851 91.851;" xml:space="preserve">
<g id="globe">
	<g>
		<path style="fill-rule:evenodd;clip-rule:evenodd;" d="M90.505,30.748c-0.631-3.042-1.414-6.089-3.02-8.793
			c-2.168-3.651-4.957-6.81-8.174-9.581c-2.588-2.229-5.314-4.311-7.775-6.668c-2.148-2.059-4.707-3.051-7.492-3.536
			c-2.563-0.448-5.15-0.845-7.783-0.718c-1,0.048-2.027,0.032-3.01-0.137c-4.627-0.797-9.213,0-13.799,0.358
			c-1.773,0.138-3.564,0.649-5.242,1.271c-2.35,0.871-4.568,2.065-6.682,3.44c-2.104,1.371-4.286,2.625-6.356,4.043
			c-3.924,2.686-7.506,5.765-9.934,9.928c-1.068,1.829-2.318,3.499-3.582,5.178c-0.842,1.121-1.691,2.248-2.402,3.451
			c-2.467,4.176-4.461,8.529-4.666,13.495c-0.014,0.3-0.014,0.622-0.127,0.892c-0.688,1.664-0.482,3.348-0.176,5.045
			c0.107,0.59,0.226,1.192,0.219,1.788c-0.033,2.427,0.338,4.813,0.766,7.183c0.535,2.957,1.133,5.903,2.701,8.552
			c0.818,1.38,1.436,2.88,2.252,4.259c1.018,1.721,1.932,3.576,3.273,5.017c4.428,4.754,9.625,8.531,15.584,11.159
			c6.694,2.953,13.731,4.428,21.052,4.5c3.215,0.032,6.416-0.068,9.615-0.536c4.887-0.713,9.668-1.767,14.24-3.656
			c4.574-1.889,8.279-4.944,11.17-8.885c2.67-3.642,5.064-7.489,6.488-11.841c0.311-0.952,0.617-1.906,0.932-2.857
			c2.092-6.331,3.43-12.786,3.242-19.999C92.001,39.255,91.38,34.978,90.505,30.748z M79.362,23.565
			c0.475,1.205,0.969,2.402,1.422,3.615c1.484,3.97,2.496,8.045,2.705,12.297c0.006,0.1,0.006,0.201,0.023,0.301
			c0.494,2.764,0.664,2.526-2.025,3.84c-0.541,0.265-1.146,0.427-1.639,0.76c-2.152,1.463-4.578,1.302-6.988,1.244
			c-0.75-0.018-1.074-0.325-1.035-1.148c0.154-3.329-0.434-6.612-0.594-9.921c-0.09-1.899-0.402-3.789-0.615-5.683
			c-0.09-0.789,0.193-1.308,0.961-1.647c1.469-0.651,2.867-1.464,4.355-2.06C77.112,24.694,77.95,23.51,79.362,23.565z
			 M45.811,32.099c0.01,0.1,0.016,0.201,0.018,0.301c0.119,3.918,0.133,7.84,0.654,11.736c0.119,0.894,0.094,1.808,0.106,2.713
			c0.008,0.563-0.359,0.946-0.902,0.972c-0.502,0.026-1.006,0.029-1.508,0.03c-1.51,0.003-3.017,0-4.527,0
			c-0.004,0.057-0.006,0.111-0.008,0.166c-3.109-0.169-6.217-0.328-9.324-0.514c-1.055-0.062-1.33-0.294-1.352-1.205
			c-0.1-4.222-0.227-8.443,0.445-12.64c0.158-0.991,0.178-2.002,0.287-3.001c0.049-0.452,0.356-0.721,0.801-0.73
			c0.6-0.014,1.223-0.053,1.801,0.078c2.08,0.469,4.195,0.418,6.301,0.559c2.104,0.141,4.203,0.335,6.305,0.518
			C45.456,31.13,45.751,31.488,45.811,32.099z M34.948,9.636c0.432-1.191,1.178-1.792,2.355-2.024
			c0.783-0.154,1.57-0.324,2.328-0.57c0.955-0.309,1.865-0.649,2.922-0.412c0.549,0.124,1.311-0.293,1.723-0.044
			c0.678,0.407,0.287,1.279,0.312,1.958c0.01,0.3-0.035,0.601-0.055,0.901c-0.049,0.002-0.098,0.004-0.148,0.007
			c0.045,0.991,0.09,1.982,0.135,2.973c0.01,0.201,0.021,0.401,0.031,0.602c0.174,3.707,0.117,7.425,0.646,11.113
			c0.164,1.157-0.193,1.518-1.283,1.459c-3.605-0.193-7.209-0.403-10.811-0.648c-0.588-0.041-1.18-0.244-1.729-0.473
			c-0.205-0.086-0.434-0.473-0.408-0.694c0.08-0.692,0.281-1.369,0.422-2.054C32.241,17.599,33.513,13.596,34.948,9.636z
			 M19.498,20.648c0.115-0.162,0.225-0.334,0.367-0.473c2.066-2.004,3.67-4.422,5.78-6.392c1.465-1.368,3.062-2.541,4.766-3.582
			c0.129-0.079,0.402-0.059,0.525,0.03c0.086,0.063,0.09,0.341,0.037,0.488c-1.48,4.023-3.01,8.03-3.852,12.256
			c-0.064,0.325-0.402,0.596-0.611,0.889c-1.123-0.275-2.099-0.479-3.05-0.761c-1.147-0.338-2.274-0.741-3.408-1.119
			C19.305,21.735,19.09,21.215,19.498,20.648z M7.435,42.228c0.631-3.359,1.457-6.7,3.094-9.695c1.34-2.447,2.803-4.882,4.854-6.864
			c0.641-0.619,0.795-0.665,1.574-0.317c2.385,1.062,4.764,2.138,7.16,3.172c1.374,0.594,1.388,0.562,1.265,1.919
			c-0.226,2.196-0.354,4.407-0.702,6.584c-0.449,2.797-0.432,5.606-0.516,8.418c-0.012,0.4,0.006,0.819-0.111,1.191
			c-0.076,0.236-0.354,0.526-0.584,0.569c-0.484,0.093-0.998,0.074-1.496,0.037c-1.703-0.124-3.402-0.312-5.106-0.409
			c-2.818-0.16-5.566-0.747-8.312-1.336c-0.873-0.188-1.217-0.64-1.217-1.465C7.338,43.43,7.326,42.815,7.435,42.228z
			 M17.068,71.542c-2.039-2.1-3.742-4.461-5.041-7.068c-1.068-2.148-1.932-4.405-2.807-6.646C8.91,57.03,8.482,56.194,9,55.249
			C9.137,55,8.887,54.498,8.74,54.144c-0.348-0.833-0.768-1.633-1.105-2.469c-0.387-0.961-0.096-1.375,0.822-1.309
			c1.715,0.246,3.396,0.513,5.084,0.725c3.18,0.399,6.365,0.766,9.547,1.148c0.822,0.1,1.125,0.347,1.191,1.059
			c0.451,4.792,1.148,9.544,2.224,14.238c0.231,1.004-0.043,1.373-1.101,1.758c-2.261,0.821-4.487,1.734-6.716,2.638
			C18.021,72.201,17.521,72.007,17.068,71.542z M28.934,80.408c-2.436-0.737-4.528-2.104-6.513-3.646
			c-0.465-0.361-0.826-0.854-1.236-1.286c0.342-0.783,1.094-0.767,1.767-0.903c0.197-0.04,0.393-0.08,0.59-0.122
			c1.33-0.283,2.526-1.188,3.987-0.867c0.453,1.316,0.943,2.621,1.348,3.953c0.258,0.853,0.389,1.745,0.574,2.608
			C29.251,80.251,29.057,80.446,28.934,80.408z M30.929,66.405c-0.58-3.562-1.264-7.109-1.709-10.688
			c-0.443-3.551-0.553-3.469,3.164-3.255c3.506,0.201,7.023,0.2,10.537,0.28c1.104,0.025,2.209,0.008,3.312,0.045
			c0.436,0.016,0.717,0.297,0.82,0.728c0.023,0.096,0.037,0.197,0.045,0.297c0.201,2.702,0.4,5.403,0.635,8.586
			c0-0.081,0.008,0.321-0.002,0.723c-0.02,0.787-0.254,1.088-1.039,1.192c-4.873,0.647-9.703,1.513-14.434,2.874
			C31.53,67.398,31.04,67.087,30.929,66.405z M47.864,82.921c-0.699,0.044-1.402,0.008-2.18,0.008
			c-1.44,0.188-2.883-0.367-4.344-0.456c-1.707-0.104-3.355-0.546-5.051-0.593c-0.836-0.024-1.256-0.494-1.559-1.175
			c-1.146-2.574-1.703-5.321-2.352-8.041c-0.103-0.434,0.084-0.808,0.477-0.986c0.543-0.247,1.107-0.471,1.684-0.612
			c0.969-0.237,1.947-0.489,2.936-0.581c3.285-0.302,6.576-0.543,9.865-0.788c0.537-0.041,0.961,0.342,0.975,0.899
			c0.062,2.397,0.738,4.735,0.619,7.161c-0.053,1.075,0.24,2.175,0.432,3.253C49.612,82.385,49.302,82.831,47.864,82.921z
			 M49.661,24.569c-0.254-3.101-0.49-6.203-0.736-9.305c-0.127-1.601-0.266-3.2-0.383-4.801c-0.045-0.601-0.061-1.205-0.061-1.808
			c0-0.602,0.324-0.998,0.867-1.007c1.607-0.025,3.215-0.049,4.822-0.014c1.033,0.023,1.957,0.367,2.67,1.184
			c3.568,4.086,5.895,8.819,7.32,14.021c0.273,0.989,0.072,1.369-0.805,1.55c-3.244,0.668-6.482,1.379-10.307,1.277
			c-0.424,0-1.328,0.022-2.232-0.006C50.063,25.638,49.722,25.314,49.661,24.569z M64.8,70.76c-0.658,2.94-1.586,5.799-2.512,8.662
			c-0.512,1.584-1.551,2.251-3.1,2.363c-0.902,0.064-1.805,0.109-2.705,0.199c-0.785,0.08-1.564,0.216-2.348,0.326
			c-0.723-0.805-0.764-1.851-0.814-2.813c-0.154-3.008-0.205-6.023-0.26-9.036c-0.016-0.91,0.328-1.204,1.307-1.216
			c1.607-0.021,3.217-0.006,4.824-0.006V69.12h4.219C65.075,69.121,65.145,69.214,64.8,70.76z M66.884,56.994
			c-0.062,1.704-0.268,3.403-0.426,5.104c-0.07,0.759-0.408,1.107-1.115,1.149c-2.607,0.156-5.215,0.298-7.793,0.443
			c-0.533,0-1.037-0.011-1.539,0.002c-4.146,0.11-3.096,0.521-3.896-3.477c-0.312-1.559-0.195-3.207-0.234-4.816
			c-0.072-3.076-0.531-2.982,2.965-3.313c3.287-0.312,6.539-1,9.807-1.517c0.396-0.063,0.797-0.106,1.197-0.139
			c0.576-0.047,1.016,0.285,1.023,0.833C66.897,53.174,66.954,55.087,66.884,56.994z M66.87,43.295c0,0.702,0.023,1.406-0.01,2.108
			c-0.021,0.452-0.348,0.724-0.768,0.79c-0.99,0.153-1.984,0.298-2.982,0.381c-3.5,0.296-7.002,0.584-10.504,0.83
			c-1.041,0.073-1.248-0.156-1.393-1.108c-0.074-0.496-0.16-0.993-0.195-1.492c-0.287-4.105-0.566-8.212-0.84-12.318
			c-0.062-0.936,0.109-1.432,1.4-1.388c0.604,0.021,1.207-0.007,1.811,0.005c3.844,0.074,7.596-0.537,11.303-1.498
			c0.855-0.222,1.021-0.08,1.188,0.795c0.432,2.275,0.629,4.568,0.693,6.884c0.055,2.006,0.238,4.008,0.365,6.012
			C66.915,43.294,66.893,43.294,66.87,43.295z M68.766,21.618c-0.053-0.086-0.117-0.168-0.146-0.263
			c-1.141-3.654-2.91-7.01-4.9-10.259c-0.039-0.064-0.062-0.177-0.033-0.233c0.045-0.083,0.145-0.136,0.221-0.201
			c0.189,0.05,0.396,0.064,0.564,0.155c2.111,1.139,4.307,2.155,6.297,3.48c1.648,1.097,3.062,2.55,4.561,3.868
			c0.371,0.327,0.27,1.036-0.146,1.307c-1.684,1.096-3.504,1.918-5.398,2.569C69.397,22.174,69.003,22.008,68.766,21.618z
			 M72.745,74.565c-0.43,0.409-0.889,0.805-1.387,1.126c-1.461,0.94-2.307,1.204-2.266,0.917c0.107-0.771,0.303-1.528,0.465-2.291
			c0.041-0.194,0.09-0.388,0.137-0.581c0.012,0.002,0.021,0.005,0.031,0.006c0.205-0.871,0.387-1.748,0.621-2.612
			c0.174-0.642,0.816-0.999,1.391-0.732C74.86,71.85,75.782,71.674,72.745,74.565z M83.784,50.314
			c-1.23,3.195-1.217,6.692-2.391,9.89c-0.725,1.973-1.602,3.891-2.451,5.815c-0.287,0.652-0.855,0.865-1.488,0.633
			c-0.656-0.242-1.311-0.504-1.938-0.814c-1.16-0.573-2.299-1.188-3.447-1.784c-0.445-1.271-0.117-2.573-0.145-3.859
			c-0.051-2.408-0.041-4.817-0.047-7.227c0-0.602,0.02-1.204,0.07-1.803c0.039-0.446,0.344-0.701,0.775-0.771
			c2.273-0.366,4.564-0.654,6.711-1.565c1.014-0.432,2.029-0.863,3.053-1.274c0.828-0.334,1.312,0.021,1.344,0.961
			c0.006,0.201,0,0.401,0,0.603h-0.027C83.804,49.519,83.919,49.964,83.784,50.314z"/>
	</g>
</g>
<g>
</g>
<g>
</g>
<g>
</g>
<g>
</g>
<g>
</g>
<g>
</g>
<g>
</g>
<g>
</g>
<g>
</g>
<g>
</g>
<g>
</g>
<g>
</g>
<g>
</g>
<g>
</g>
<g>
</g>
</svg>
